<?xml version="1.0" encoding="UTF-8" standalone="no"?>
<!-- Created with Inkscape (http://www.inkscape.org/) -->

<svg
   xmlns:dc="http://purl.org/dc/elements/1.1/"
   xmlns:cc="http://creativecommons.org/ns#"
   xmlns:rdf="http://www.w3.org/1999/02/22-rdf-syntax-ns#"
   xmlns:svg="http://www.w3.org/2000/svg"
   xmlns="http://www.w3.org/2000/svg"
   xmlns:xlink="http://www.w3.org/1999/xlink"
   xmlns:sodipodi="http://sodipodi.sourceforge.net/DTD/sodipodi-0.dtd"
   xmlns:inkscape="http://www.inkscape.org/namespaces/inkscape"
   width="210mm"
   height="297mm"
   viewBox="0 0 210 297"
   version="1.1"
   id="svg8"
   inkscape:version="0.92.4 (5da689c313, 2019-01-14)"
   sodipodi:docname="expr.svg">
  <defs
     id="defs2" />
  <sodipodi:namedview
     id="base"
     pagecolor="#ffffff"
     bordercolor="#666666"
     borderopacity="1.0"
     inkscape:pageopacity="0.0"
     inkscape:pageshadow="2"
     inkscape:zoom="2.8"
     inkscape:cx="415.03087"
     inkscape:cy="951.85436"
     inkscape:document-units="mm"
     inkscape:current-layer="layer1"
     showgrid="false"
     inkscape:window-width="2560"
     inkscape:window-height="1315"
     inkscape:window-x="-13"
     inkscape:window-y="-13"
     inkscape:window-maximized="1" />
  <metadata
     id="metadata5">
    <rdf:RDF>
      <cc:Work
         rdf:about="">
        <dc:format>image/svg+xml</dc:format>
        <dc:type
           rdf:resource="http://purl.org/dc/dcmitype/StillImage" />
        <dc:title></dc:title>
      </cc:Work>
    </rdf:RDF>
  </metadata>
  <g
     inkscape:label="レイヤー 1"
     inkscape:groupmode="layer"
     id="layer1">
    <g
       aria-label="2*3+4/2-10"
       style="font-style:normal;font-variant:normal;font-weight:normal;font-stretch:normal;font-size:14.11111069px;line-height:1.25;font-family:'MS Gothic';-inkscape-font-specification:'MS Gothic';letter-spacing:0px;word-spacing:0px;fill:#000000;fill-opacity:1;stroke:none;stroke-width:0.26458332"
       id="text4544" />
    <g
       id="g4613"
       transform="translate(0.09449405,20.694196)">
      <rect
         inkscape:tile-y0="21.866813"
         inkscape:tile-x0="58.241816"
         inkscape:tile-h="19.87128"
         inkscape:tile-w="9.7604187"
         inkscape:tile-cy="31.802453"
         inkscape:tile-cx="63.122025"
         y="22.116814"
         x="58.491817"
         height="19.371281"
         width="9.2604189"
         id="rect819"
         style="opacity:1;fill:none;fill-opacity:1;fill-rule:nonzero;stroke:#000000;stroke-width:0.5;stroke-miterlimit:4;stroke-dasharray:none;stroke-dashoffset:0;stroke-opacity:0.96721311" />
      <use
         id="use4524"
         xlink:href="#rect819"
         inkscape:tiled-clone-of="#rect819"
         y="0"
         x="0"
         width="100%"
         height="100%" />
      <use
         id="use4526"
         transform="translate(9.7604187)"
         xlink:href="#rect819"
         inkscape:tiled-clone-of="#rect819"
         y="0"
         x="0"
         width="100%"
         height="100%" />
      <use
         id="use4528"
         transform="translate(19.520837)"
         xlink:href="#rect819"
         inkscape:tiled-clone-of="#rect819"
         y="0"
         x="0"
         width="100%"
         height="100%" />
      <use
         id="use4530"
         transform="translate(29.281256)"
         xlink:href="#rect819"
         inkscape:tiled-clone-of="#rect819"
         y="0"
         x="0"
         width="100%"
         height="100%" />
      <use
         id="use4532"
         transform="translate(39.041675)"
         xlink:href="#rect819"
         inkscape:tiled-clone-of="#rect819"
         y="0"
         x="0"
         width="100%"
         height="100%" />
      <use
         id="use4534"
         transform="translate(48.802093)"
         xlink:href="#rect819"
         inkscape:tiled-clone-of="#rect819"
         y="0"
         x="0"
         width="100%"
         height="100%" />
      <use
         id="use4536"
         transform="translate(58.562512)"
         xlink:href="#rect819"
         inkscape:tiled-clone-of="#rect819"
         y="0"
         x="0"
         width="100%"
         height="100%" />
      <use
         id="use4538"
         transform="translate(68.322931)"
         xlink:href="#rect819"
         inkscape:tiled-clone-of="#rect819"
         y="0"
         x="0"
         width="100%"
         height="100%" />
      <use
         id="use4540"
         transform="translate(78.083349)"
         xlink:href="#rect819"
         inkscape:tiled-clone-of="#rect819"
         y="0"
         x="0"
         width="100%"
         height="100%" />
      <path
         id="path4546"
         style="font-style:normal;font-variant:normal;font-weight:normal;font-stretch:normal;font-size:14.11111069px;line-height:1.25;font-family:'MS Gothic';-inkscape-font-specification:'MS Gothic';letter-spacing:0px;word-spacing:0px;fill:#000000;fill-opacity:1;stroke:none;stroke-width:0.26458332"
         d="m 65.909594,35.794825 v 1.047309 H 60.287198 V 35.96019 q 1.267795,-2.370226 3.141927,-4.519965 1.047309,-1.212674 1.047309,-2.53559 0,-0.937066 -0.496093,-1.43316 -0.33073,-0.330729 -0.881945,-0.330729 -0.440972,0 -0.881944,0.440972 -0.496094,0.496094 -0.496094,2.039496 h -1.212674 q 0.05512,-1.984375 0.937066,-2.866319 0.661459,-0.661458 1.763889,-0.661458 1.047309,0 1.763889,0.71658 0.771701,0.771701 0.771701,2.149739 0,1.598524 -1.488281,3.307292 -1.598524,1.81901 -2.645833,3.527777 z"
         inkscape:connector-curvature="0" />
      <path
         inkscape:connector-curvature="0"
         id="path4548"
         style="font-style:normal;font-variant:normal;font-weight:normal;font-stretch:normal;font-size:14.11111069px;line-height:1.25;font-family:'MS Gothic';-inkscape-font-specification:'MS Gothic';letter-spacing:0px;word-spacing:0px;fill:#000000;fill-opacity:1;stroke:none;stroke-width:0.26458332"
         d="m 73.201384,31.109496 2.259983,-1.43316 0.551215,0.992187 -2.370226,1.212674 2.370226,1.212673 -0.551215,0.992188 -2.259983,-1.43316 0.110243,2.811198 h -0.551215 -0.551215 l 0.110243,-2.811198 -2.259983,1.43316 -0.551215,-0.992188 2.370226,-1.212673 -2.370226,-1.212674 0.551215,-0.992187 2.259983,1.43316 -0.110243,-2.645834 h 1.10243 z" />
      <path
         inkscape:connector-curvature="0"
         id="path4550"
         style="font-style:normal;font-variant:normal;font-weight:normal;font-stretch:normal;font-size:14.11111069px;line-height:1.25;font-family:'MS Gothic';-inkscape-font-specification:'MS Gothic';letter-spacing:0px;word-spacing:0px;fill:#000000;fill-opacity:1;stroke:none;stroke-width:0.26458332"
         d="m 81.280626,33.645086 q -0.05512,1.212673 0.496093,1.763889 0.385851,0.38585 1.047309,0.38585 0.551216,0 1.047309,-0.496093 0.496094,-0.496094 0.496094,-1.653646 0,-0.881945 -0.606337,-1.488281 -0.440972,-0.440973 -1.322916,-0.385851 v -0.937066 q 0.881944,-0.05512 1.322916,-0.496094 0.440973,-0.440972 0.440973,-1.322916 0,-1.102431 -0.496094,-1.598525 -0.330729,-0.330729 -0.826823,-0.330729 -0.496094,0 -0.826823,0.330729 -0.551215,0.551216 -0.606337,1.653646 h -1.212673 q 0.05512,-1.43316 0.937066,-2.315104 0.661458,-0.661458 1.708767,-0.661458 1.10243,0 1.763889,0.661458 0.771701,0.771701 0.771701,2.039496 0,1.157553 -0.606337,1.763889 -0.551215,0.551216 -1.047309,0.71658 0.71658,0.220486 1.102431,0.606337 0.771701,0.771701 0.771701,1.874132 0,1.433159 -0.881944,2.315104 -0.771702,0.771701 -1.929254,0.771701 -1.267795,0 -1.984375,-0.71658 -0.826822,-0.826822 -0.826822,-2.480468 z" />
      <path
         inkscape:connector-curvature="0"
         id="path4552"
         style="font-style:normal;font-variant:normal;font-weight:normal;font-stretch:normal;font-size:14.11111069px;line-height:1.25;font-family:'MS Gothic';-inkscape-font-specification:'MS Gothic';letter-spacing:0px;word-spacing:0px;fill:#000000;fill-opacity:1;stroke:none;stroke-width:0.26458332"
         d="M 89.060635,31.440225 H 91.76159 V 28.73927 h 0.937066 v 2.700955 h 2.700955 v 0.881944 h -2.700955 v 2.700955 H 91.76159 v -2.700955 h -2.700955 z" />
      <path
         inkscape:connector-curvature="0"
         id="path4554"
         style="font-style:normal;font-variant:normal;font-weight:normal;font-stretch:normal;font-size:14.11111069px;line-height:1.25;font-family:'MS Gothic';-inkscape-font-specification:'MS Gothic';letter-spacing:0px;word-spacing:0px;fill:#000000;fill-opacity:1;stroke:none;stroke-width:0.26458332"
         d="m 102.56541,36.842134 v -1.267795 -1.267795 h -3.693143 v -1.047309 l 3.693143,-7.165798 h 1.26779 v 7.165798 h 1.15756 v 1.047309 h -1.15756 v 2.53559 z m 0,-3.582899 v -4.850694 l -2.48047,4.850694 z" />
      <path
         inkscape:connector-curvature="0"
         id="path4556"
         style="font-style:normal;font-variant:normal;font-weight:normal;font-stretch:normal;font-size:14.11111069px;line-height:1.25;font-family:'MS Gothic';-inkscape-font-specification:'MS Gothic';letter-spacing:0px;word-spacing:0px;fill:#000000;fill-opacity:1;stroke:none;stroke-width:0.26458332"
         d="m 108.69177,38.165051 5.84288,-12.843316 0.55121,0.330729 -5.84288,12.843316 z" />
      <path
         inkscape:connector-curvature="0"
         id="path4558"
         style="font-style:normal;font-variant:normal;font-weight:normal;font-stretch:normal;font-size:14.11111069px;line-height:1.25;font-family:'MS Gothic';-inkscape-font-specification:'MS Gothic';letter-spacing:0px;word-spacing:0px;fill:#000000;fill-opacity:1;stroke:none;stroke-width:0.26458332"
         d="m 124.30691,35.794825 v 1.047309 h -5.6224 V 35.96019 q 1.2678,-2.370226 3.14193,-4.519965 1.04731,-1.212674 1.04731,-2.53559 0,-0.937066 -0.4961,-1.43316 -0.33073,-0.330729 -0.88194,-0.330729 -0.44097,0 -0.88195,0.440972 -0.49609,0.496094 -0.49609,2.039496 H 118.905 q 0.0551,-1.984375 0.93706,-2.866319 0.66146,-0.661458 1.76389,-0.661458 1.04731,0 1.76389,0.71658 0.7717,0.771701 0.7717,2.149739 0,1.598524 -1.48828,3.307292 -1.59852,1.81901 -2.64583,3.527777 z" />
      <path
         inkscape:connector-curvature="0"
         id="path4560"
         style="font-style:normal;font-variant:normal;font-weight:normal;font-stretch:normal;font-size:14.11111069px;line-height:1.25;font-family:'MS Gothic';-inkscape-font-specification:'MS Gothic';letter-spacing:0px;word-spacing:0px;fill:#000000;fill-opacity:1;stroke:none;stroke-width:0.26458332"
         d="m 134.05554,31.440225 v 0.881944 h -6.28386 v -0.881944 z" />
      <path
         inkscape:connector-curvature="0"
         id="path4562"
         style="font-style:normal;font-variant:normal;font-weight:normal;font-stretch:normal;font-size:14.11111069px;line-height:1.25;font-family:'MS Gothic';-inkscape-font-specification:'MS Gothic';letter-spacing:0px;word-spacing:0px;fill:#000000;fill-opacity:1;stroke:none;stroke-width:0.26458332"
         d="m 140.45752,36.842134 v -4.299479 -4.244357 h -1.65365 v -0.661459 q 1.92925,0 2.25998,-1.543402 h 0.66146 v 10.748697 z" />
      <path
         inkscape:connector-curvature="0"
         id="path4564"
         style="font-style:normal;font-variant:normal;font-weight:normal;font-stretch:normal;font-size:14.11111069px;line-height:1.25;font-family:'MS Gothic';-inkscape-font-specification:'MS Gothic';letter-spacing:0px;word-spacing:0px;fill:#000000;fill-opacity:1;stroke:none;stroke-width:0.26458332"
         d="m 147.37921,31.440225 q 0,-3.25217 1.32292,-4.575087 0.7717,-0.771701 1.70877,-0.771701 0.93706,0 1.70876,0.771701 1.32292,1.322917 1.32292,4.575087 0,3.307291 -1.32292,4.630208 -0.7717,0.771701 -1.70876,0.771701 -0.93707,0 -1.70877,-0.771701 -1.32292,-1.322917 -1.32292,-4.630208 z m 4.79558,0 q 0,-2.921441 -1.04731,-3.96875 -0.33073,-0.330729 -0.71658,-0.330729 -0.38585,0 -0.71658,0.330729 -1.04731,1.10243 -1.04731,3.96875 0,2.976562 1.04731,4.023871 0.33073,0.330729 0.71658,0.330729 0.38585,0 0.71658,-0.330729 1.04731,-1.047309 1.04731,-4.023871 z" />
      <use
         height="100%"
         width="100%"
         id="use4540-6"
         transform="translate(87.343767)"
         xlink:href="#rect819"
         inkscape:tiled-clone-of="#rect819"
         y="0"
         x="0" />
    </g>
    <text
       xml:space="preserve"
       style="font-style:normal;font-variant:normal;font-weight:normal;font-stretch:normal;font-size:5.64444447px;line-height:1.25;font-family:Consolas;-inkscape-font-specification:Consolas;letter-spacing:0px;word-spacing:0px;fill:#000000;fill-opacity:1;stroke:none;stroke-width:0.26458332"
       x="48.380951"
       y="26.180059"
       id="text4617"><tspan
         sodipodi:role="line"
         id="tspan4615"
         x="48.380951"
         y="26.180059"
         style="fill:#000000;fill-opacity:1;stroke-width:0.26458332"><tspan
   style="fill:#000000;fill-opacity:1"
   id="tspan4619">string::const_iterator</tspan> s = str.begin()</tspan></text>
  </g>
</svg>
