<?xml version="1.0" encoding="UTF-8" standalone="no"?>
<!-- Created with Inkscape (http://www.inkscape.org/) -->

<svg
   xmlns:dc="http://purl.org/dc/elements/1.1/"
   xmlns:cc="http://creativecommons.org/ns#"
   xmlns:rdf="http://www.w3.org/1999/02/22-rdf-syntax-ns#"
   xmlns:svg="http://www.w3.org/2000/svg"
   xmlns="http://www.w3.org/2000/svg"
   xmlns:xlink="http://www.w3.org/1999/xlink"
   xmlns:sodipodi="http://sodipodi.sourceforge.net/DTD/sodipodi-0.dtd"
   xmlns:inkscape="http://www.inkscape.org/namespaces/inkscape"
   width="200"
   height="200"
   viewBox="0 0 52.916666 52.916666"
   version="1.1"
   id="svg8"
   inkscape:version="0.92.2 5c3e80d, 2017-08-06"
   sodipodi:docname="vec02.svg">
  <sodipodi:namedview
     id="base"
     pagecolor="#ffffff"
     bordercolor="#666666"
     borderopacity="1.0"
     inkscape:pageopacity="0.0"
     inkscape:pageshadow="2"
     inkscape:zoom="2"
     inkscape:cx="28.424884"
     inkscape:cy="141.80536"
     inkscape:document-units="mm"
     inkscape:current-layer="layer1"
     showgrid="false"
     inkscape:window-width="1440"
     inkscape:window-height="855"
     inkscape:window-x="0"
     inkscape:window-y="1"
     inkscape:window-maximized="1"
     units="px"
     inkscape:snap-bbox="true"
     inkscape:snap-bbox-midpoints="true"
     inkscape:snap-object-midpoints="true"
     inkscape:snap-intersection-paths="true" />
  <defs
     id="defs2">
    <path
       inkscape:connector-curvature="0"
       id="equation_03_00-2"
       d="m 2.211706,-2.171856 c 0.667497,0 1.315069,-0.059775 1.733499,-0.199252 0.846825,-0.288917 0.986302,-0.856787 0.986302,-1.175592 0,-0.577833 -0.547945,-0.956413 -1.364882,-0.956413 -1.803238,0 -3.078456,1.24533 -3.078456,2.789539 0,1.145704 0.767124,1.793275 2.082192,1.793275 0.259029,0 0.946451,-0.009963 1.544209,-0.239103 0.577833,-0.229141 0.976339,-0.637609 0.976339,-0.757161 0,-0.079701 -0.159402,-0.259029 -0.249066,-0.259029 -0.059776,0 -0.079701,0.029888 -0.14944,0.10959 -0.537982,0.56787 -1.315068,0.787048 -2.092154,0.787048 -0.71731,0 -0.976339,-0.398506 -0.976339,-0.966376 0,-0.18929 0.039851,-0.518057 0.14944,-0.926526 z M 1.863014,-2.530511 c 0.179327,-0.727272 0.418431,-0.996264 0.587795,-1.155666 0.348693,-0.348692 0.806974,-0.458281 1.115816,-0.458281 0.358655,0 0.767123,0.159402 0.767123,0.607721 0,1.006226 -1.504358,1.006226 -2.470734,1.006226 z" />
    <path
       inkscape:connector-curvature="0"
       id="equation_03_01-4"
       d="M 3.521793,-1.26924 H 3.284682 c -0.020921,0.153424 -0.09066,0.564881 -0.18132,0.63462 -0.05579,0.041843 -0.592777,0.041843 -0.690411,0.041843 H 1.129763 c 0.732254,-0.648568 0.976339,-0.843836 1.39477,-1.171607 0.516065,-0.411457 0.99726,-0.843835 0.99726,-1.506351 0,-0.843835 -0.739228,-1.3599 -1.63188,-1.3599 -0.864757,0 -1.450561,0.606725 -1.450561,1.248319 0,0.355666 0.299876,0.390535 0.369614,0.390535 0.167373,0 0.369614,-0.118555 0.369614,-0.369614 0,-0.125529 -0.048817,-0.369614 -0.411457,-0.369614 0.21619,-0.495143 0.690411,-0.648568 1.018182,-0.648568 0.697385,0 1.060025,0.543961 1.060025,1.108842 0,0.606725 -0.432379,1.087921 -0.655542,1.338979 L 0.509091,-0.27198 C 0.439352,-0.209215 0.439352,-0.195268 0.439352,0 h 2.873226 z" />
    <path
       inkscape:connector-curvature="0"
       id="equation_03_02-8"
       d="m 3.73599,-6.117061 c 0.059776,-0.239103 0.089664,-0.33873 0.278954,-0.368618 0.089664,-0.00996 0.408468,-0.00996 0.607721,-0.00996 0.707347,0 1.813201,0 1.813201,0.986301 0,0.33873 -0.159403,1.026152 -0.547946,1.414695 C 5.628892,-3.835614 5.100872,-3.51681 4.204234,-3.51681 H 3.088418 Z m 1.43462,2.729763 c 1.006227,-0.219178 2.191781,-0.916563 2.191781,-1.922789 0,-0.856787 -0.896638,-1.494396 -2.201743,-1.494396 H 2.321295 c -0.199253,0 -0.288916,0 -0.288916,0.199253 0,0.109589 0.089663,0.109589 0.278954,0.109589 0.019925,0 0.209215,0 0.37858,0.019925 0.179327,0.019925 0.268991,0.029888 0.268991,0.159402 0,0.039851 -0.00996,0.069739 -0.03985,0.18929 L 1.58406,-0.777086 c -0.099627,0.388543 -0.119552,0.468244 -0.9066,0.468244 -0.179328,0 -0.268992,0 -0.268992,0.199253 C 0.408468,0 0.52802,0 0.547945,0 0.826899,0 1.524284,-0.029888 1.803238,-0.029888 2.082192,-0.029888 2.789539,0 3.068493,0 c 0.079701,0 0.199253,0 0.199253,-0.199253 0,-0.109589 -0.089664,-0.109589 -0.278954,-0.109589 -0.368618,0 -0.647572,0 -0.647572,-0.179327 0,-0.059776 0.019926,-0.109589 0.029888,-0.169365 l 0.657535,-2.6401 h 1.185554 c 0.9066,0 1.085928,0.557908 1.085928,0.9066 0,0.14944 -0.079702,0.458282 -0.139477,0.687423 -0.069739,0.278953 -0.159403,0.647571 -0.159403,0.846824 0,1.075965 1.195517,1.075965 1.325031,1.075965 0.846825,0 1.195517,-1.006227 1.195517,-1.145704 0,-0.119551 -0.109589,-0.119551 -0.119551,-0.119551 -0.089664,0 -0.109589,0.069738 -0.129515,0.139477 C 7.023661,-0.169365 6.595268,0 6.366127,0 6.03736,0 5.967621,-0.219178 5.967621,-0.607721 c 0,-0.308842 0.059776,-0.816937 0.099627,-1.135741 0.019925,-0.139477 0.03985,-0.328767 0.03985,-0.468244 0,-0.767123 -0.667497,-1.075965 -0.936488,-1.175592 z" />
  </defs>
  <metadata
     id="metadata5">
    <rdf:RDF>
      <cc:Work
         rdf:about="">
        <dc:format>image/svg+xml</dc:format>
        <dc:type
           rdf:resource="http://purl.org/dc/dcmitype/StillImage" />
        <dc:title></dc:title>
      </cc:Work>
    </rdf:RDF>
  </metadata>
  <g
     id="layer1"
     inkscape:groupmode="layer"
     inkscape:label="レイヤー 1"
     transform="translate(0,-244.08334)">
    <circle
       style="fill:none;fill-opacity:1;stroke:#000000;stroke-width:0.35288806;stroke-miterlimit:4;stroke-dasharray:0.35288806,0.35288806;stroke-opacity:1;stroke-dashoffset:0"
       id="path847"
       cx="44.25983"
       cy="271.34216"
       r="6.5843406" />
    <circle
       style="fill:none;fill-opacity:1;stroke:#000000;stroke-width:0.441;stroke-miterlimit:4;stroke-dasharray:0.441,0.441;stroke-opacity:1;stroke-dashoffset:0"
       id="path847-7"
       cx="13.657473"
       cy="264.07242"
       r="8.2241945" />
    <path
       style="fill:none;stroke:#ff0000;stroke-width:0.26458332px;stroke-linecap:butt;stroke-linejoin:miter;stroke-opacity:1"
       d="m 13.657472,264.07242 30.602358,7.26974"
       id="path1208"
       inkscape:connector-curvature="0" />
    <g
       title="${\boldsymbol r}_1$"
       style="fill:#000000"
       id="equation_00"
       transform="matrix(0.33152068,0,0,0.33152068,-13.385257,245.60216)">
      <defs
         id="defs907">
        <path
           d="m 2.336239,-4.435367 c 0,-0.188294 -0.013948,-0.195268 -0.209215,-0.195268 -0.446327,0.439352 -1.080947,0.446326 -1.366875,0.446326 v 0.251059 c 0.167373,0 0.627647,0 1.011208,-0.195268 v 3.556662 c 0,0.230137 0,0.320797 -0.697384,0.320797 H 0.808966 V 0 c 0.12553,-0.006974 0.983313,-0.027895 1.241345,-0.027895 0.21619,0 1.094894,0.020921 1.248319,0.027895 V -0.251059 H 3.033624 c -0.697385,0 -0.697385,-0.09066 -0.697385,-0.320797 z"
           id="equation_00_00"
           inkscape:connector-curvature="0" />
        <path
           d="m 4.423412,-4.004981 c -0.547945,0.109589 -0.607721,0.597758 -0.607721,0.697384 0,0.219179 0.169365,0.458282 0.498132,0.458282 0.33873,0 0.71731,-0.278954 0.71731,-0.787049 0,-0.458281 -0.358655,-0.866749 -0.976338,-0.866749 -0.557908,0 -1.026152,0.278954 -1.325032,0.597758 C 2.49066,-4.363636 1.92279,-4.503113 1.564134,-4.503113 c -0.368617,0 -0.647571,0.209215 -0.866749,0.56787 -0.239104,0.388543 -0.378581,0.926526 -0.378581,0.986302 0,0.139476 0.14944,0.139476 0.239104,0.139476 0.109589,0 0.149439,0 0.199253,-0.049813 0.019925,-0.019925 0.019925,-0.03985 0.079701,-0.288916 0.18929,-0.757161 0.408468,-0.996264 0.677459,-0.996264 0.14944,0 0.229141,0.099626 0.229141,0.358655 0,0.179327 -0.029888,0.288916 -0.139477,0.75716 -0.049813,0.169365 -0.209215,0.8269 -0.278954,1.075966 -0.03985,0.18929 -0.149439,0.637609 -0.199253,0.816936 -0.059776,0.259029 -0.179327,0.707347 -0.179327,0.777086 0,0.209215 0.159402,0.438356 0.468244,0.438356 0.199253,0 0.547945,-0.119552 0.657534,-0.52802 0.00996,-0.029888 0.687422,-2.739726 0.697385,-2.799502 0.039851,-0.149439 0.039851,-0.169365 0.169365,-0.318804 0.229141,-0.288917 0.597758,-0.577833 1.09589,-0.577833 0.249066,0 0.358655,0.109589 0.388543,0.139477 z"
           id="equation_00_01"
           inkscape:connector-curvature="0" />
      </defs>
      <g
         id="equation_00_g">
        <use
           id="use909"
           xlink:href="#equation_00_01"
           y="62.764633"
           x="76.712326"
           width="100%"
           height="100%" />
        <use
           id="use911"
           xlink:href="#equation_00_00"
           y="64.25901"
           x="82.297859"
           width="100%"
           height="100%" />
      </g>
    </g>
    <g
       transform="matrix(0.33152068,0,0,0.33152068,17.218857,252.71692)"
       id="equation_01"
       style="fill:#000000"
       title="${\boldsymbol r}_2$">
      <defs
         id="defs941">
        <path
           inkscape:connector-curvature="0"
           id="equation_01_00"
           d="M 3.521793,-1.26924 H 3.284682 c -0.020921,0.153424 -0.09066,0.564881 -0.18132,0.63462 -0.05579,0.041843 -0.592777,0.041843 -0.690411,0.041843 H 1.129763 c 0.732254,-0.648568 0.976339,-0.843836 1.39477,-1.171607 0.516065,-0.411457 0.99726,-0.843835 0.99726,-1.506351 0,-0.843835 -0.739228,-1.3599 -1.63188,-1.3599 -0.864757,0 -1.450561,0.606725 -1.450561,1.248319 0,0.355666 0.299876,0.390535 0.369614,0.390535 0.167373,0 0.369614,-0.118555 0.369614,-0.369614 0,-0.125529 -0.048817,-0.369614 -0.411457,-0.369614 0.21619,-0.495143 0.690411,-0.648568 1.018182,-0.648568 0.697385,0 1.060025,0.543961 1.060025,1.108842 0,0.606725 -0.432379,1.087921 -0.655542,1.338979 L 0.509091,-0.27198 C 0.439352,-0.209215 0.439352,-0.195268 0.439352,0 h 2.873226 z" />
        <path
           inkscape:connector-curvature="0"
           id="equation_01_01"
           d="m 4.423412,-4.004981 c -0.547945,0.109589 -0.607721,0.597758 -0.607721,0.697384 0,0.219179 0.169365,0.458282 0.498132,0.458282 0.33873,0 0.71731,-0.278954 0.71731,-0.787049 0,-0.458281 -0.358655,-0.866749 -0.976338,-0.866749 -0.557908,0 -1.026152,0.278954 -1.325032,0.597758 C 2.49066,-4.363636 1.92279,-4.503113 1.564134,-4.503113 c -0.368617,0 -0.647571,0.209215 -0.866749,0.56787 -0.239104,0.388543 -0.378581,0.926526 -0.378581,0.986302 0,0.139476 0.14944,0.139476 0.239104,0.139476 0.109589,0 0.149439,0 0.199253,-0.049813 0.019925,-0.019925 0.019925,-0.03985 0.079701,-0.288916 0.18929,-0.757161 0.408468,-0.996264 0.677459,-0.996264 0.14944,0 0.229141,0.099626 0.229141,0.358655 0,0.179327 -0.029888,0.288916 -0.139477,0.75716 -0.049813,0.169365 -0.209215,0.8269 -0.278954,1.075966 -0.03985,0.18929 -0.149439,0.637609 -0.199253,0.816936 -0.059776,0.259029 -0.179327,0.707347 -0.179327,0.777086 0,0.209215 0.159402,0.438356 0.468244,0.438356 0.199253,0 0.547945,-0.119552 0.657534,-0.52802 0.00996,-0.029888 0.687422,-2.739726 0.697385,-2.799502 0.039851,-0.149439 0.039851,-0.169365 0.169365,-0.318804 0.229141,-0.288917 0.597758,-0.577833 1.09589,-0.577833 0.249066,0 0.358655,0.109589 0.388543,0.139477 z" />
      </defs>
      <g
         id="equation_01_g">
        <use
           height="100%"
           width="100%"
           x="76.712326"
           y="62.764633"
           xlink:href="#equation_01_01"
           id="use943" />
        <use
           height="100%"
           width="100%"
           x="82.297859"
           y="64.25901"
           xlink:href="#equation_01_00"
           id="use945" />
      </g>
    </g>
    <path
       sodipodi:nodetypes="cc"
       inkscape:connector-curvature="0"
       id="path1889"
       d="m 21.378359,266.95544 14.01196,3.31798"
       style="fill:none;stroke:#00f800;stroke-width:0.265;stroke-linecap:butt;stroke-linejoin:miter;stroke-opacity:1;stroke-miterlimit:4;stroke-dasharray:none" />
    <g
       transform="matrix(0.31774609,0,0,0.31774609,4.5211451,246.84252)"
       title="$d$"
       style="fill:#ff0000;fill-opacity:1"
       id="equation_04">
      <defs
         id="defs1934">
        <path
           inkscape:connector-curvature="0"
           d="m 5.140722,-6.804483 c 0,-0.00996 0,-0.109589 -0.129514,-0.109589 -0.14944,0 -1.09589,0.089664 -1.265255,0.109589 -0.079701,0.00996 -0.139477,0.059776 -0.139477,0.18929 0,0.119552 0.089663,0.119552 0.239103,0.119552 0.478207,0 0.498132,0.069738 0.498132,0.169365 L 4.313823,-6.127024 3.716065,-3.765878 C 3.536737,-4.134496 3.247821,-4.403487 2.799502,-4.403487 c -1.165629,0 -2.400996,1.464508 -2.400996,2.919054 0,0.936488 0.547945,1.594022 1.325031,1.594022 0.199253,0 0.697385,-0.039851 1.295143,-0.747198 0.079701,0.418431 0.428393,0.747198 0.9066,0.747198 0.348693,0 0.577833,-0.229141 0.737236,-0.547945 0.169364,-0.358655 0.298879,-0.966376 0.298879,-0.986302 0,-0.099626 -0.089664,-0.099626 -0.119552,-0.099626 -0.099626,0 -0.109589,0.039851 -0.139477,0.179328 -0.169365,0.647571 -0.348692,1.235367 -0.757161,1.235367 -0.268991,0 -0.298879,-0.259029 -0.298879,-0.458281 0,-0.239104 0.019926,-0.308842 0.059776,-0.478207 z M 3.068493,-1.185554 C 3.01868,-1.006227 3.01868,-0.986301 2.86924,-0.816936 c -0.438356,0.547945 -0.846824,0.707347 -1.125778,0.707347 -0.498132,0 -0.637609,-0.547945 -0.637609,-0.936488 0,-0.498132 0.318805,-1.723537 0.547945,-2.181818 0.308842,-0.587796 0.757161,-0.956414 1.155667,-0.956414 0.647571,0 0.787048,0.816937 0.787048,0.876712 0,0.059775 -0.019925,0.119552 -0.029888,0.169365 z"
           id="equation_04_00" />
      </defs>
      <g
         style="fill:#ff0000;fill-opacity:1"
         id="equation_04_g">
        <use
           style="fill:#ff0000;fill-opacity:1"
           height="100%"
           width="100%"
           id="use1936"
           xlink:href="#equation_04_00"
           y="62.764633"
           x="76.712326" />
      </g>
    </g>
    <g
       transform="matrix(0.31774609,0,0,0.31774609,2.2060409,251.53887)"
       id="equation_05"
       style="fill:#00ff00;fill-opacity:1"
       title="$d'$">
      <defs
         id="defs2038">
        <path
           inkscape:connector-curvature="0"
           id="equation_05_00"
           d="m 2.022416,-3.291656 c 0.055791,-0.118556 0.062765,-0.174346 0.062765,-0.223163 0,-0.21619 -0.195268,-0.383562 -0.411457,-0.383562 -0.265007,0 -0.348693,0.216189 -0.383562,0.327771 l -0.920548,3.019676 c -0.006974,0.013948 -0.034869,0.104608 -0.034869,0.111582 0,0.083686 0.216189,0.153424 0.27198,0.153424 0.048817,0 0.055791,-0.013947 0.104608,-0.118555 z" />
        <path
           inkscape:connector-curvature="0"
           id="equation_05_01"
           d="m 5.140722,-6.804483 c 0,-0.00996 0,-0.109589 -0.129514,-0.109589 -0.14944,0 -1.09589,0.089664 -1.265255,0.109589 -0.079701,0.00996 -0.139477,0.059776 -0.139477,0.18929 0,0.119552 0.089663,0.119552 0.239103,0.119552 0.478207,0 0.498132,0.069738 0.498132,0.169365 L 4.313823,-6.127024 3.716065,-3.765878 C 3.536737,-4.134496 3.247821,-4.403487 2.799502,-4.403487 c -1.165629,0 -2.400996,1.464508 -2.400996,2.919054 0,0.936488 0.547945,1.594022 1.325031,1.594022 0.199253,0 0.697385,-0.039851 1.295143,-0.747198 0.079701,0.418431 0.428393,0.747198 0.9066,0.747198 0.348693,0 0.577833,-0.229141 0.737236,-0.547945 0.169364,-0.358655 0.298879,-0.966376 0.298879,-0.986302 0,-0.099626 -0.089664,-0.099626 -0.119552,-0.099626 -0.099626,0 -0.109589,0.039851 -0.139477,0.179328 -0.169365,0.647571 -0.348692,1.235367 -0.757161,1.235367 -0.268991,0 -0.298879,-0.259029 -0.298879,-0.458281 0,-0.239104 0.019926,-0.308842 0.059776,-0.478207 z M 3.068493,-1.185554 C 3.01868,-1.006227 3.01868,-0.986301 2.86924,-0.816936 c -0.438356,0.547945 -0.846824,0.707347 -1.125778,0.707347 -0.498132,0 -0.637609,-0.547945 -0.637609,-0.936488 0,-0.498132 0.318805,-1.723537 0.547945,-2.181818 0.308842,-0.587796 0.757161,-0.956414 1.155667,-0.956414 0.647571,0 0.787048,0.816937 0.787048,0.876712 0,0.059775 -0.019925,0.119552 -0.029888,0.169365 z" />
      </defs>
      <g
         id="equation_05_g"
         style="fill:#00ff00;fill-opacity:1">
        <use
           height="100%"
           width="100%"
           x="76.712326"
           y="62.764633"
           xlink:href="#equation_05_01"
           id="use2040"
           style="fill:#00ff00;fill-opacity:1" />
        <use
           height="100%"
           width="100%"
           x="81.897758"
           y="59.149269"
           xlink:href="#equation_05_00"
           id="use2042"
           style="fill:#00ff00;fill-opacity:1" />
      </g>
    </g>
    <g
       transform="matrix(0.31774609,0,0,0.31774609,-8.4434381,242.87377)"
       title="$R_1$"
       style="fill:#0000f2;fill-opacity:1"
       id="equation_06">
      <defs
         id="defs2158">
        <path
           inkscape:connector-curvature="0"
           d="m 2.336239,-4.435367 c 0,-0.188294 -0.013948,-0.195268 -0.209215,-0.195268 -0.446327,0.439352 -1.080947,0.446326 -1.366875,0.446326 v 0.251059 c 0.167373,0 0.627647,0 1.011208,-0.195268 v 3.556662 c 0,0.230137 0,0.320797 -0.697384,0.320797 H 0.808966 V 0 c 0.12553,-0.006974 0.983313,-0.027895 1.241345,-0.027895 0.21619,0 1.094894,0.020921 1.248319,0.027895 V -0.251059 H 3.033624 c -0.697385,0 -0.697385,-0.09066 -0.697385,-0.320797 z"
           id="equation_06_00" />
        <path
           inkscape:connector-curvature="0"
           d="m 3.73599,-6.117061 c 0.059776,-0.239103 0.089664,-0.33873 0.278954,-0.368618 0.089664,-0.00996 0.408468,-0.00996 0.607721,-0.00996 0.707347,0 1.813201,0 1.813201,0.986301 0,0.33873 -0.159403,1.026152 -0.547946,1.414695 C 5.628892,-3.835614 5.100872,-3.51681 4.204234,-3.51681 H 3.088418 Z m 1.43462,2.729763 c 1.006227,-0.219178 2.191781,-0.916563 2.191781,-1.922789 0,-0.856787 -0.896638,-1.494396 -2.201743,-1.494396 H 2.321295 c -0.199253,0 -0.288916,0 -0.288916,0.199253 0,0.109589 0.089663,0.109589 0.278954,0.109589 0.019925,0 0.209215,0 0.37858,0.019925 0.179327,0.019925 0.268991,0.029888 0.268991,0.159402 0,0.039851 -0.00996,0.069739 -0.03985,0.18929 L 1.58406,-0.777086 c -0.099627,0.388543 -0.119552,0.468244 -0.9066,0.468244 -0.179328,0 -0.268992,0 -0.268992,0.199253 C 0.408468,0 0.52802,0 0.547945,0 0.826899,0 1.524284,-0.029888 1.803238,-0.029888 2.082192,-0.029888 2.789539,0 3.068493,0 c 0.079701,0 0.199253,0 0.199253,-0.199253 0,-0.109589 -0.089664,-0.109589 -0.278954,-0.109589 -0.368618,0 -0.647572,0 -0.647572,-0.179327 0,-0.059776 0.019926,-0.109589 0.029888,-0.169365 l 0.657535,-2.6401 h 1.185554 c 0.9066,0 1.085928,0.557908 1.085928,0.9066 0,0.14944 -0.079702,0.458282 -0.139477,0.687423 -0.069739,0.278953 -0.159403,0.647571 -0.159403,0.846824 0,1.075965 1.195517,1.075965 1.325031,1.075965 0.846825,0 1.195517,-1.006227 1.195517,-1.145704 0,-0.119551 -0.109589,-0.119551 -0.119551,-0.119551 -0.089664,0 -0.109589,0.069738 -0.129515,0.139477 C 7.023661,-0.169365 6.595268,0 6.366127,0 6.03736,0 5.967621,-0.219178 5.967621,-0.607721 c 0,-0.308842 0.059776,-0.816937 0.099627,-1.135741 0.019925,-0.139477 0.03985,-0.328767 0.03985,-0.468244 0,-0.767123 -0.667497,-1.075965 -0.936488,-1.175592 z"
           id="equation_06_01" />
      </defs>
      <g
         style="fill:#0000f2;fill-opacity:1"
         id="equation_06_g">
        <use
           style="fill:#0000f2;fill-opacity:1"
           height="100%"
           width="100%"
           id="use2160"
           xlink:href="#equation_06_01"
           y="62.764633"
           x="76.712326" />
        <use
           style="fill:#0000f2;fill-opacity:1"
           height="100%"
           width="100%"
           id="use2162"
           xlink:href="#equation_06_00"
           y="64.25901"
           x="84.276855" />
      </g>
    </g>
    <g
       transform="matrix(0.31774609,0,0,0.31774609,16.233838,249.19129)"
       id="equation_07"
       style="fill:#0000ff;fill-opacity:1"
       title="$R_2$">
      <defs
         id="defs2292">
        <path
           inkscape:connector-curvature="0"
           id="equation_07_00"
           d="M 3.521793,-1.26924 H 3.284682 c -0.020921,0.153424 -0.09066,0.564881 -0.18132,0.63462 -0.05579,0.041843 -0.592777,0.041843 -0.690411,0.041843 H 1.129763 c 0.732254,-0.648568 0.976339,-0.843836 1.39477,-1.171607 0.516065,-0.411457 0.99726,-0.843835 0.99726,-1.506351 0,-0.843835 -0.739228,-1.3599 -1.63188,-1.3599 -0.864757,0 -1.450561,0.606725 -1.450561,1.248319 0,0.355666 0.299876,0.390535 0.369614,0.390535 0.167373,0 0.369614,-0.118555 0.369614,-0.369614 0,-0.125529 -0.048817,-0.369614 -0.411457,-0.369614 0.21619,-0.495143 0.690411,-0.648568 1.018182,-0.648568 0.697385,0 1.060025,0.543961 1.060025,1.108842 0,0.606725 -0.432379,1.087921 -0.655542,1.338979 L 0.509091,-0.27198 C 0.439352,-0.209215 0.439352,-0.195268 0.439352,0 h 2.873226 z" />
        <path
           inkscape:connector-curvature="0"
           id="equation_07_01"
           d="m 3.73599,-6.117061 c 0.059776,-0.239103 0.089664,-0.33873 0.278954,-0.368618 0.089664,-0.00996 0.408468,-0.00996 0.607721,-0.00996 0.707347,0 1.813201,0 1.813201,0.986301 0,0.33873 -0.159403,1.026152 -0.547946,1.414695 C 5.628892,-3.835614 5.100872,-3.51681 4.204234,-3.51681 H 3.088418 Z m 1.43462,2.729763 c 1.006227,-0.219178 2.191781,-0.916563 2.191781,-1.922789 0,-0.856787 -0.896638,-1.494396 -2.201743,-1.494396 H 2.321295 c -0.199253,0 -0.288916,0 -0.288916,0.199253 0,0.109589 0.089663,0.109589 0.278954,0.109589 0.019925,0 0.209215,0 0.37858,0.019925 0.179327,0.019925 0.268991,0.029888 0.268991,0.159402 0,0.039851 -0.00996,0.069739 -0.03985,0.18929 L 1.58406,-0.777086 c -0.099627,0.388543 -0.119552,0.468244 -0.9066,0.468244 -0.179328,0 -0.268992,0 -0.268992,0.199253 C 0.408468,0 0.52802,0 0.547945,0 0.826899,0 1.524284,-0.029888 1.803238,-0.029888 2.082192,-0.029888 2.789539,0 3.068493,0 c 0.079701,0 0.199253,0 0.199253,-0.199253 0,-0.109589 -0.089664,-0.109589 -0.278954,-0.109589 -0.368618,0 -0.647572,0 -0.647572,-0.179327 0,-0.059776 0.019926,-0.109589 0.029888,-0.169365 l 0.657535,-2.6401 h 1.185554 c 0.9066,0 1.085928,0.557908 1.085928,0.9066 0,0.14944 -0.079702,0.458282 -0.139477,0.687423 -0.069739,0.278953 -0.159403,0.647571 -0.159403,0.846824 0,1.075965 1.195517,1.075965 1.325031,1.075965 0.846825,0 1.195517,-1.006227 1.195517,-1.145704 0,-0.119551 -0.109589,-0.119551 -0.119551,-0.119551 -0.089664,0 -0.109589,0.069738 -0.129515,0.139477 C 7.023661,-0.169365 6.595268,0 6.366127,0 6.03736,0 5.967621,-0.219178 5.967621,-0.607721 c 0,-0.308842 0.059776,-0.816937 0.099627,-1.135741 0.019925,-0.139477 0.03985,-0.328767 0.03985,-0.468244 0,-0.767123 -0.667497,-1.075965 -0.936488,-1.175592 z" />
      </defs>
      <g
         style="fill:#0000ff;fill-opacity:1"
         id="equation_07_g">
        <use
           style="fill:#0000ff;fill-opacity:1"
           height="100%"
           width="100%"
           x="76.712326"
           y="62.764633"
           xlink:href="#equation_07_01"
           id="use2294" />
        <use
           style="fill:#0000ff;fill-opacity:1"
           height="100%"
           width="100%"
           x="84.276855"
           y="64.25901"
           xlink:href="#equation_07_00"
           id="use2296" />
      </g>
    </g>
    <path
       inkscape:connector-curvature="0"
       id="path2382"
       d="m 13.922055,263.27867 8.00152,1.9008"
       style="fill:none;stroke:#0000ff;stroke-width:0.26458332px;stroke-linecap:butt;stroke-linejoin:miter;stroke-opacity:1" />
    <path
       inkscape:connector-curvature="0"
       id="path2384"
       d="m 38.118348,269.02662 6.406065,1.52179"
       style="fill:none;stroke:#0000ff;stroke-width:0.26458332px;stroke-linecap:butt;stroke-linejoin:miter;stroke-opacity:1" />
    <text
       id="text2427"
       y="286.41669"
       x="5.8869791"
       style="font-style:normal;font-weight:normal;font-size:10.58333302px;line-height:1.25;font-family:sans-serif;letter-spacing:0px;word-spacing:0px;fill:#000000;fill-opacity:1;stroke:none;stroke-width:0.26458332"
       xml:space="preserve"><tspan
         style="stroke-width:0.26458332"
         y="295.95395"
         x="5.8869791"
         id="tspan2425"
         sodipodi:role="line" /></text>
    <path
       inkscape:connector-curvature="0"
       id="path2429"
       d="m 35.639542,268.38316 2.03945,0.4874"
       style="fill:none;stroke:#0000f4;stroke-width:0.26458332px;stroke-linecap:butt;stroke-linejoin:miter;stroke-opacity:1"
       sodipodi:nodetypes="cc" />
    <text
       id="text2433"
       y="253.40834"
       x="29.279375"
       style="font-style:normal;font-weight:normal;font-size:10.58333302px;line-height:1.25;font-family:sans-serif;letter-spacing:0px;word-spacing:0px;fill:#000000;fill-opacity:1;stroke:none;stroke-width:0.26458332"
       xml:space="preserve"><tspan
         style="stroke-width:0.26458332"
         y="262.94559"
         x="29.279375"
         id="tspan2431"
         sodipodi:role="line" /></text>
    <g
       title="$W$"
       style="fill:#0000ff;fill-opacity:1"
       id="equation_02"
       transform="matrix(0.20061529,0,0,0.20061529,20.566046,255.40603)">
      <defs
         id="defs2493">
        <path
           d="m 9.135741,-5.648817 c 0.249066,-0.438356 0.488169,-0.797011 1.115816,-0.846824 0.08966,-0.00996 0.18929,-0.00996 0.18929,-0.199253 0,-0.039851 -0.03985,-0.109589 -0.119552,-0.109589 -0.239103,0 -0.518057,0.029888 -0.767123,0.029888 -0.33873,0 -0.707348,-0.029888 -1.036115,-0.029888 -0.059776,0 -0.18929,0 -0.18929,0.18929 0,0.109589 0.089664,0.119552 0.14944,0.119552 0.239103,0.00996 0.587795,0.089663 0.587795,0.388543 0,0.109589 -0.049813,0.18929 -0.129514,0.328767 L 6.246575,-1.085928 5.877958,-6.027397 C 5.867995,-6.22665 5.84807,-6.485679 6.575342,-6.495641 c 0.169365,0 0.268992,0 0.268992,-0.199253 0,-0.099627 -0.109589,-0.109589 -0.14944,-0.109589 -0.398505,0 -0.816936,0.029888 -1.215442,0.029888 -0.229141,0 -0.816936,-0.029888 -1.046077,-0.029888 -0.059776,0 -0.18929,0 -0.18929,0.199253 0,0.109589 0.099626,0.109589 0.239103,0.109589 0.438356,0 0.508095,0.059775 0.52802,0.249066 l 0.059776,0.767123 -2.520548,4.393524 -0.37858,-5.051058 c 0,-0.119552 0,-0.348693 0.75716,-0.358655 0.099627,0 0.209216,0 0.209216,-0.199253 0,-0.109589 -0.119552,-0.109589 -0.139477,-0.109589 -0.398506,0 -0.816937,0.029888 -1.225405,0.029888 -0.348692,0 -0.707348,-0.029888 -1.046077,-0.029888 -0.049813,0 -0.179328,0 -0.179328,0.18929 0,0.119552 0.089664,0.119552 0.249066,0.119552 0.498132,0 0.508095,0.089663 0.52802,0.368617 l 0.448319,6.087173 c 0.00996,0.179328 0.019925,0.259029 0.159402,0.259029 0.119552,0 0.14944,-0.059776 0.239104,-0.209215 l 2.929016,-5.080947 0.368617,5.031133 c 0.019926,0.209216 0.039851,0.259029 0.159403,0.259029 0.129514,0 0.18929,-0.099626 0.239103,-0.18929 z"
           id="equation_02_00"
           inkscape:connector-curvature="0" />
      </defs>
      <g
         id="equation_02_g"
         style="fill:#0000ff;fill-opacity:1">
        <use
           id="use2495"
           xlink:href="#equation_02_00"
           y="62.764633"
           x="76.712326"
           width="100%"
           height="100%"
           style="fill:#0000ff;fill-opacity:1" />
      </g>
    </g>
    <path
       style="fill:none;stroke:#000000;stroke-width:0.26458332px;stroke-linecap:butt;stroke-linejoin:miter;stroke-opacity:1"
       d="m 20.071492,270.73572 16.194773,3.84715"
       id="path2563"
       inkscape:connector-curvature="0"
       sodipodi:nodetypes="cc" />
    <path
       sodipodi:type="star"
       style="fill:#000000;fill-opacity:1;stroke:none;stroke-width:0.32711485;stroke-miterlimit:4;stroke-dasharray:none;stroke-dashoffset:0;stroke-opacity:1"
       id="path2565"
       sodipodi:sides="3"
       sodipodi:cx="35.670952"
       sodipodi:cy="274.41751"
       sodipodi:r1="1.4135987"
       sodipodi:r2="0.70679945"
       sodipodi:arg1="0.21444578"
       sodipodi:arg2="1.2616433"
       inkscape:flatsided="false"
       inkscape:rounded="0"
       inkscape:randomized="0"
       d="m 37.052171,274.71833 -1.166174,0.37247 -1.166175,0.37247 0.26052,-1.19617 0.26052,-1.19617 0.905655,0.8237 z"
       inkscape:transform-center-x="-0.21504423"
       inkscape:transform-center-y="-0.15041312" />
  </g>
</svg>
