<?xml version="1.0" encoding="UTF-8" standalone="no"?>
<!-- Created with Inkscape (http://www.inkscape.org/) -->

<svg
   xmlns:dc="http://purl.org/dc/elements/1.1/"
   xmlns:cc="http://creativecommons.org/ns#"
   xmlns:rdf="http://www.w3.org/1999/02/22-rdf-syntax-ns#"
   xmlns:svg="http://www.w3.org/2000/svg"
   xmlns="http://www.w3.org/2000/svg"
   xmlns:sodipodi="http://sodipodi.sourceforge.net/DTD/sodipodi-0.dtd"
   xmlns:inkscape="http://www.inkscape.org/namespaces/inkscape"
   width="256.561mm"
   height="56.613655mm"
   viewBox="0 0 256.561 56.613655"
   version="1.1"
   id="svg8"
   inkscape:version="0.92.2 5c3e80d, 2017-08-06"
   sodipodi:docname="formatter.svg">
  <defs
     id="defs2">
    <marker
       inkscape:stockid="Arrow2Lend"
       orient="auto"
       refY="0"
       refX="0"
       id="Arrow2Lend"
       style="overflow:visible"
       inkscape:isstock="true">
      <path
         id="path4580"
         style="fill:#000000;fill-opacity:1;fill-rule:evenodd;stroke:#000000;stroke-width:0.625;stroke-linejoin:round;stroke-opacity:1"
         d="M 8.7185878,4.0337352 -2.2072895,0.01601326 8.7185884,-4.0017078 c -1.7454984,2.3720609 -1.7354408,5.6174519 -6e-7,8.035443 z"
         transform="matrix(-1.1,0,0,-1.1,-1.1,0)"
         inkscape:connector-curvature="0" />
    </marker>
    <marker
       inkscape:stockid="Arrow2Lend"
       orient="auto"
       refY="0"
       refX="0"
       id="Arrow2Lend-7"
       style="overflow:visible"
       inkscape:isstock="true">
      <path
         inkscape:connector-curvature="0"
         id="path4580-9"
         style="fill:#000000;fill-opacity:1;fill-rule:evenodd;stroke:#000000;stroke-width:0.625;stroke-linejoin:round;stroke-opacity:1"
         d="M 8.7185878,4.0337352 -2.2072895,0.01601326 8.7185884,-4.0017078 c -1.7454984,2.3720609 -1.7354408,5.6174519 -6e-7,8.035443 z"
         transform="matrix(-1.1,0,0,-1.1,-1.1,0)" />
    </marker>
  </defs>
  <sodipodi:namedview
     id="base"
     pagecolor="#ffffff"
     bordercolor="#666666"
     borderopacity="1.0"
     inkscape:pageopacity="0.0"
     inkscape:pageshadow="2"
     inkscape:zoom="0.98994949"
     inkscape:cx="419.81643"
     inkscape:cy="24.762727"
     inkscape:document-units="mm"
     inkscape:current-layer="g4555"
     showgrid="false"
     inkscape:snap-bbox="true"
     inkscape:snap-bbox-edge-midpoints="false"
     inkscape:snap-bbox-midpoints="false"
     inkscape:bbox-nodes="false"
     inkscape:snap-others="false"
     inkscape:snap-nodes="false"
     inkscape:bbox-paths="false"
     fit-margin-top="10"
     fit-margin-left="10"
     fit-margin-right="10"
     fit-margin-bottom="10"
     inkscape:window-width="1440"
     inkscape:window-height="775"
     inkscape:window-x="0"
     inkscape:window-y="1"
     inkscape:window-maximized="1" />
  <metadata
     id="metadata5">
    <rdf:RDF>
      <cc:Work
         rdf:about="">
        <dc:format>image/svg+xml</dc:format>
        <dc:type
           rdf:resource="http://purl.org/dc/dcmitype/StillImage" />
        <dc:title />
      </cc:Work>
    </rdf:RDF>
  </metadata>
  <g
     inkscape:label="レイヤー 1"
     inkscape:groupmode="layer"
     id="layer1"
     transform="translate(-0.01117943,-46.32492)">
    <g
       id="g4550"
       transform="translate(-7.2186082)"
       style="stroke-width:0.5;stroke-miterlimit:4;stroke-dasharray:none;paint-order:stroke fill markers">
      <rect
         y="56.45742"
         x="72.162773"
         height="36.348656"
         width="71.093697"
         id="rect823"
         style="fill:#ffffff;fill-opacity:1;stroke:#000000;stroke-width:0.5;stroke-miterlimit:4;stroke-dasharray:none;stroke-dashoffset:0;stroke-opacity:1;paint-order:stroke fill markers" />
      <g
         aria-label="Formatter"
         transform="matrix(0.26458333,0,0,0.26458333,5.8848377,23.417966)"
         style="font-style:normal;font-weight:normal;font-size:40px;line-height:1.25;font-family:sans-serif;text-align:center;letter-spacing:0px;word-spacing:0px;text-anchor:middle;fill:#000000;fill-opacity:1;stroke:none;stroke-width:1.88976383;stroke-miterlimit:4;stroke-dasharray:none;paint-order:stroke fill markers"
         id="flowRoot815">
        <path
           d="m 287.78905,179.86274 h 16.75781 v 3.32031 h -12.8125 v 8.59375 h 11.5625 v 3.32031 h -11.5625 v 13.92578 h -3.94531 z"
           style=""
           id="path932" />
        <path
           d="m 317.74998,189.66742 q -2.89062,0 -4.57031,2.26563 -1.67969,2.24609 -1.67969,6.17187 0,3.92579 1.66016,6.19141 1.67969,2.24609 4.58984,2.24609 2.8711,0 4.55079,-2.26562 1.67968,-2.26563 1.67968,-6.17188 0,-3.88671 -1.67968,-6.15234 -1.67969,-2.28516 -4.55079,-2.28516 z m 0,-3.04687 q 4.6875,0 7.36329,3.04687 2.67578,3.04688 2.67578,8.4375 0,5.3711 -2.67578,8.4375 -2.67579,3.04688 -7.36329,3.04688 -4.70703,0 -7.38281,-3.04688 -2.65625,-3.0664 -2.65625,-8.4375 0,-5.39062 2.65625,-8.4375 2.67578,-3.04687 7.38281,-3.04687 z"
           style=""
           id="path934" />
        <path
           d="m 346.40233,190.50727 q -0.60547,-0.35156 -1.32813,-0.50781 -0.70312,-0.17579 -1.5625,-0.17579 -3.04687,0 -4.6875,1.99219 -1.62109,1.97266 -1.62109,5.6836 v 11.52343 h -3.61328 v -21.875 h 3.61328 v 3.39844 q 1.13281,-1.99219 2.94922,-2.94922 1.8164,-0.97656 4.41406,-0.97656 0.37109,0 0.82031,0.0586 0.44922,0.0391 0.9961,0.13672 z"
           style=""
           id="path936" />
        <path
           d="m 366.57811,191.34711 q 1.34766,-2.42187 3.22266,-3.57422 1.875,-1.15234 4.41406,-1.15234 3.41797,0 5.27344,2.40234 1.85546,2.38282 1.85546,6.79688 v 13.20312 h -3.61328 v -13.08593 q 0,-3.14454 -1.11328,-4.66797 -1.11328,-1.52344 -3.39844,-1.52344 -2.79296,0 -4.41406,1.85547 -1.62109,1.85547 -1.62109,5.05859 v 12.36328 h -3.61328 v -13.08593 q 0,-3.16407 -1.11328,-4.66797 -1.11329,-1.52344 -3.4375,-1.52344 -2.75391,0 -4.375,1.875 -1.6211,1.85547 -1.6211,5.03906 v 12.36328 h -3.61328 v -21.875 h 3.61328 v 3.39844 q 1.23047,-2.01172 2.94922,-2.96875 1.71875,-0.95703 4.08203,-0.95703 2.38281,0 4.04297,1.21094 1.67969,1.21093 2.48047,3.51562 z"
           style=""
           id="path938" />
        <path
           d="m 398.5117,198.0268 q -4.35547,0 -6.03515,0.99609 -1.67969,0.9961 -1.67969,3.39844 0,1.91406 1.25,3.04688 1.26953,1.11328 3.4375,1.11328 2.98828,0 4.78516,-2.10938 1.8164,-2.1289 1.8164,-5.64453 v -0.80078 z m 7.16797,-1.48438 v 12.48047 h -3.59375 v -3.32031 q -1.23047,1.99219 -3.0664,2.94922 -1.83594,0.9375 -4.49219,0.9375 -3.35938,0 -5.35156,-1.875 -1.97266,-1.89453 -1.97266,-5.05859 0,-3.69141 2.46094,-5.56641 2.48047,-1.875 7.38281,-1.875 h 5.03906 v -0.35156 q 0,-2.48047 -1.64062,-3.82813 -1.6211,-1.36719 -4.57032,-1.36719 -1.875,0 -3.65234,0.44922 -1.77734,0.44922 -3.41797,1.34766 v -3.32031 q 1.97266,-0.76172 3.82813,-1.13282 1.85547,-0.39062 3.61328,-0.39062 4.74609,0 7.08984,2.46094 2.34375,2.46093 2.34375,7.46093 z"
           style=""
           id="path940" />
        <path
           d="m 416.65623,180.93696 v 6.21093 h 7.40235 v 2.79297 h -7.40235 v 11.875 q 0,2.67578 0.72266,3.4375 0.74219,0.76172 2.98828,0.76172 h 3.69141 v 3.00781 h -3.69141 q -4.16015,0 -5.74219,-1.54297 -1.58203,-1.5625 -1.58203,-5.66406 v -11.875 h -2.63672 v -2.79297 h 2.63672 v -6.21093 z"
           style=""
           id="path942" />
        <path
           d="m 432.35936,180.93696 v 6.21093 h 7.40234 v 2.79297 h -7.40234 v 11.875 q 0,2.67578 0.72266,3.4375 0.74218,0.76172 2.98828,0.76172 h 3.6914 v 3.00781 h -3.6914 q -4.16016,0 -5.74219,-1.54297 -1.58203,-1.5625 -1.58203,-5.66406 v -11.875 h -2.63672 v -2.79297 h 2.63672 v -6.21093 z"
           style=""
           id="path944" />
        <path
           d="m 463.21873,197.18696 v 1.75781 H 446.6953 q 0.23437,3.71094 2.22656,5.66406 2.01172,1.93359 5.58594,1.93359 2.07031,0 4.0039,-0.50781 1.95313,-0.50781 3.86719,-1.52344 v 3.39844 q -1.93359,0.82031 -3.96484,1.25 -2.03125,0.42969 -4.1211,0.42969 -5.23437,0 -8.30078,-3.04688 -3.04687,-3.04687 -3.04687,-8.24218 0,-5.3711 2.89062,-8.51563 2.91016,-3.16406 7.83203,-3.16406 4.41407,0 6.97266,2.85156 2.57812,2.83203 2.57812,7.71485 z m -3.59375,-1.05469 q -0.0391,-2.94922 -1.66015,-4.70703 -1.60156,-1.75782 -4.25781,-1.75782 -3.00782,0 -4.82422,1.69922 -1.79688,1.69922 -2.07032,4.78516 z"
           style=""
           id="path946" />
        <path
           d="m 481.79295,190.50727 q -0.60547,-0.35156 -1.32812,-0.50781 -0.70313,-0.17579 -1.5625,-0.17579 -3.04688,0 -4.6875,1.99219 -1.6211,1.97266 -1.6211,5.6836 v 11.52343 h -3.61328 v -21.875 h 3.61328 v 3.39844 q 1.13282,-1.99219 2.94922,-2.94922 1.81641,-0.97656 4.41407,-0.97656 0.37109,0 0.82031,0.0586 0.44922,0.0391 0.99609,0.13672 z"
           style=""
           id="path948" />
      </g>
    </g>
    <g
       id="g4543"
       transform="translate(0,2.125083)">
      <rect
         y="61.294411"
         x="10.156241"
         height="22.424509"
         width="35.279575"
         id="rect4530"
         style="fill:#ffffff;fill-opacity:1;stroke:#000000;stroke-width:0.29012397;stroke-miterlimit:4;stroke-dasharray:none;stroke-dashoffset:0;stroke-opacity:1"
         rx="10"
         ry="10" />
      <g
         aria-label="Data"
         transform="matrix(0.26458333,0,0,0.26458333,-55.97405,-82.180388)"
         style="font-style:normal;font-weight:normal;font-size:40px;line-height:1.25;font-family:sans-serif;letter-spacing:0px;word-spacing:0px;fill:#000000;fill-opacity:1;stroke:none"
         id="flowRoot4514">
        <path
           d="m 276.57227,573.02289 v 22.67578 h 4.76562 q 6.03516,0 8.82813,-2.73437 2.8125,-2.73438 2.8125,-8.63281 0,-5.85938 -2.8125,-8.57422 -2.79297,-2.73438 -8.82813,-2.73438 z m -3.94532,-3.24218 h 8.10547 q 8.47656,0 12.44141,3.53515 3.96484,3.51563 3.96484,11.01563 0,7.53906 -3.98437,11.07422 -3.98438,3.53515 -12.42188,3.53515 h -8.10547 z"
           style=""
           id="path923" />
        <path
           d="m 313.19336,587.94477 q -4.35547,0 -6.03516,0.99609 -1.67968,0.9961 -1.67968,3.39844 0,1.91406 1.25,3.04687 1.26953,1.11329 3.4375,1.11329 2.98828,0 4.78515,-2.10938 1.81641,-2.12891 1.81641,-5.64453 v -0.80078 z m 7.16797,-1.48438 v 12.48047 h -3.59375 v -3.32031 q -1.23047,1.99219 -3.06641,2.94922 -1.83594,0.9375 -4.49219,0.9375 -3.35937,0 -5.35156,-1.875 -1.97265,-1.89453 -1.97265,-5.0586 0,-3.6914 2.46093,-5.5664 2.48047,-1.875 7.38282,-1.875 h 5.03906 v -0.35156 q 0,-2.48047 -1.64063,-3.82813 -1.62109,-1.36719 -4.57031,-1.36719 -1.875,0 -3.65234,0.44922 -1.77735,0.44922 -3.41797,1.34766 v -3.32031 q 1.97265,-0.76172 3.82812,-1.13282 1.85547,-0.39062 3.61328,-0.39062 4.7461,0 7.08985,2.46094 2.34375,2.46093 2.34375,7.46093 z"
           style=""
           id="path925" />
        <path
           d="m 331.33789,570.85492 v 6.21094 h 7.40234 v 2.79297 h -7.40234 v 11.875 q 0,2.67578 0.72266,3.4375 0.74218,0.76172 2.98828,0.76172 h 3.6914 v 3.00781 h -3.6914 q -4.16016,0 -5.74219,-1.54297 -1.58203,-1.5625 -1.58203,-5.66406 v -11.875 h -2.63672 v -2.79297 h 2.63672 v -6.21094 z"
           style=""
           id="path927" />
        <path
           d="m 353.42773,587.94477 q -4.35546,0 -6.03515,0.99609 -1.67969,0.9961 -1.67969,3.39844 0,1.91406 1.25,3.04687 1.26953,1.11329 3.4375,1.11329 2.98828,0 4.78516,-2.10938 1.8164,-2.12891 1.8164,-5.64453 v -0.80078 z m 7.16797,-1.48438 v 12.48047 h -3.59375 v -3.32031 q -1.23047,1.99219 -3.0664,2.94922 -1.83594,0.9375 -4.49219,0.9375 -3.35938,0 -5.35156,-1.875 -1.97266,-1.89453 -1.97266,-5.0586 0,-3.6914 2.46094,-5.5664 2.48047,-1.875 7.38281,-1.875 h 5.03906 v -0.35156 q 0,-2.48047 -1.64062,-3.82813 -1.6211,-1.36719 -4.57031,-1.36719 -1.875,0 -3.65235,0.44922 -1.77734,0.44922 -3.41797,1.34766 v -3.32031 q 1.97266,-0.76172 3.82813,-1.13282 1.85547,-0.39062 3.61328,-0.39062 4.74609,0 7.08984,2.46094 2.34375,2.46093 2.34375,7.46093 z"
           style=""
           id="path929" />
      </g>
    </g>
    <g
       id="g4555"
       transform="translate(-2.0761291e-5,2.4660397)">
      <rect
         y="59.543423"
         x="155.55086"
         height="25.244572"
         width="90.871643"
         id="rect4536"
         style="fill:#ffffff;fill-opacity:1;stroke:#000000;stroke-width:0.29939136;stroke-miterlimit:4;stroke-dasharray:none;stroke-dashoffset:0;stroke-opacity:1"
         rx="10"
         ry="10" />
      <g
         aria-label="Data for Output"
         style="font-style:normal;font-weight:normal;font-size:10.58333302px;line-height:1.25;font-family:sans-serif;letter-spacing:0px;word-spacing:0px;fill:#000000;fill-opacity:1;stroke:none;stroke-width:0.26458332;stroke-opacity:1"
         id="text4528">
        <path
           d="m 160.99687,68.227964 v 5.999634 h 1.2609 q 1.5968,0 2.33578,-0.72347 0.74414,-0.72347 0.74414,-2.284099 0,-1.550293 -0.74414,-2.268595 -0.73898,-0.72347 -2.33578,-0.72347 z M 159.953,67.370135 h 2.14457 q 2.24276,0 3.29179,0.935344 1.04903,0.930175 1.04903,2.91455 0,1.994711 -1.05419,2.930054 -1.0542,0.935343 -3.28663,0.935343 H 159.953 Z"
           style="stroke:none;stroke-width:0.26458332;stroke-opacity:1"
           id="path951" />
        <path
           d="m 170.6862,72.176043 q -1.15239,0 -1.5968,0.26355 -0.44442,0.26355 -0.44442,0.89917 0,0.506429 0.33073,0.806152 0.33589,0.294556 0.9095,0.294556 0.79065,0 1.26608,-0.558106 0.48059,-0.563273 0.48059,-1.493448 v -0.211874 z m 1.89652,-0.392741 v 3.302124 h -0.95084 v -0.878499 q -0.32557,0.5271 -0.81132,0.780314 -0.48576,0.248047 -1.18856,0.248047 -0.88884,0 -1.41594,-0.496094 -0.52193,-0.501261 -0.52193,-1.338419 0,-0.976685 0.65112,-1.472779 0.6563,-0.496093 1.95337,-0.496093 h 1.33326 v -0.09302 q 0,-0.656291 -0.43409,-1.012858 -0.42891,-0.361735 -1.20922,-0.361735 -0.4961,0 -0.96635,0.118856 -0.47026,0.118856 -0.90434,0.356567 v -0.878499 q 0.52193,-0.201538 1.01286,-0.299723 0.49092,-0.103353 0.95601,-0.103353 1.25574,0 1.87586,0.651123 0.62011,0.651123 0.62011,1.974039 z"
           style="stroke:none;stroke-width:0.26458332;stroke-opacity:1"
           id="path953" />
        <path
           d="m 175.48694,67.654356 v 1.64331 h 1.95853 v 0.738973 h -1.95853 v 3.141927 q 0,0.707967 0.1912,0.909505 0.19637,0.201538 0.79065,0.201538 h 0.97668 v 0.795817 h -0.97668 q -1.10071,0 -1.51929,-0.408243 -0.41858,-0.413412 -0.41858,-1.498617 v -3.141927 h -0.69763 v -0.738973 h 0.69763 v -1.64331 z"
           style="stroke:none;stroke-width:0.26458332;stroke-opacity:1"
           id="path955" />
        <path
           d="m 181.33154,72.176043 q -1.15238,0 -1.5968,0.26355 -0.44442,0.26355 -0.44442,0.89917 0,0.506429 0.33073,0.806152 0.3359,0.294556 0.90951,0.294556 0.79065,0 1.26607,-0.558106 0.48059,-0.563273 0.48059,-1.493448 v -0.211874 z m 1.89653,-0.392741 v 3.302124 h -0.95085 v -0.878499 q -0.32556,0.5271 -0.81132,0.780314 -0.48576,0.248047 -1.18856,0.248047 -0.88883,0 -1.41593,-0.496094 -0.52193,-0.501261 -0.52193,-1.338419 0,-0.976685 0.65112,-1.472779 0.65629,-0.496093 1.95337,-0.496093 h 1.33325 v -0.09302 q 0,-0.656291 -0.43408,-1.012858 -0.42891,-0.361735 -1.20923,-0.361735 -0.49609,0 -0.96635,0.118856 -0.47025,0.118856 -0.90434,0.356567 v -0.878499 q 0.52194,-0.201538 1.01286,-0.299723 0.49093,-0.103353 0.95602,-0.103353 1.25573,0 1.87585,0.651123 0.62012,0.651123 0.62012,1.974039 z"
           style="stroke:none;stroke-width:0.26458332;stroke-opacity:1"
           id="path957" />
        <path
           d="m 191.49113,67.044574 v 0.790649 h -0.90951 q -0.51159,0 -0.71313,0.206706 -0.19637,0.206706 -0.19637,0.74414 v 0.511597 h 1.56579 v 0.738973 h -1.56579 v 5.048787 h -0.95602 v -5.048787 h -0.9095 v -0.738973 h 0.9095 V 68.89459 q 0,-0.966349 0.44959,-1.405599 0.44958,-0.444417 1.42627,-0.444417 z"
           style="stroke:none;stroke-width:0.26458332;stroke-opacity:1"
           id="path959" />
        <path
           d="m 194.52454,69.964292 q -0.76482,0 -1.20923,0.599447 -0.44442,0.594279 -0.44442,1.632975 0,1.038696 0.43925,1.638143 0.44442,0.594279 1.2144,0.594279 0.75964,0 1.20406,-0.599447 0.44441,-0.599447 0.44441,-1.632975 0,-1.028361 -0.44441,-1.627808 -0.44442,-0.604614 -1.20406,-0.604614 z m 0,-0.806152 q 1.24023,0 1.9482,0.806152 0.70796,0.806152 0.70796,2.232422 0,1.421102 -0.70796,2.232422 -0.70797,0.806152 -1.9482,0.806152 -1.24541,0 -1.95337,-0.806152 -0.7028,-0.81132 -0.7028,-2.232422 0,-1.42627 0.7028,-2.232422 0.70796,-0.806152 1.95337,-0.806152 z"
           style="stroke:none;stroke-width:0.26458332;stroke-opacity:1"
           id="path961" />
        <path
           d="m 202.10547,70.186501 q -0.1602,-0.09302 -0.3514,-0.134359 -0.18604,-0.04651 -0.41342,-0.04651 -0.80615,0 -1.24023,0.5271 -0.42891,0.521932 -0.42891,1.503784 v 3.048909 h -0.95602 v -5.78776 h 0.95602 v 0.89917 q 0.29972,-0.5271 0.78031,-0.780314 0.48059,-0.258382 1.16789,-0.258382 0.0982,0 0.21704,0.0155 0.11885,0.01033 0.26355,0.03617 z"
           style="stroke:none;stroke-width:0.26458332;stroke-opacity:1"
           id="path963" />
        <path
           d="m 209.6554,68.078102 q -1.13689,0 -1.80868,0.847494 -0.66663,0.847493 -0.66663,2.309936 0,1.457276 0.66663,2.304769 0.67179,0.847494 1.80868,0.847494 1.13688,0 1.79834,-0.847494 0.66662,-0.847493 0.66662,-2.304769 0,-1.462443 -0.66662,-2.309936 -0.66146,-0.847494 -1.79834,-0.847494 z m 0,-0.847493 q 1.62264,0 2.59415,1.090373 0.97152,1.085205 0.97152,2.91455 0,1.824178 -0.97152,2.914551 -0.97151,1.085205 -2.59415,1.085205 -1.62781,0 -2.6045,-1.085205 -0.97151,-1.085205 -0.97151,-2.914551 0,-1.829345 0.97151,-2.91455 0.97669,-1.090373 2.6045,-1.090373 z"
           style="stroke:none;stroke-width:0.26458332;stroke-opacity:1"
           id="path965" />
        <path
           d="m 214.71452,72.801328 v -3.503662 h 0.95084 v 3.467489 q 0,0.821655 0.3204,1.235066 0.32039,0.408244 0.96118,0.408244 0.76998,0 1.21439,-0.490926 0.44959,-0.490926 0.44959,-1.33842 v -3.281453 h 0.95084 v 5.78776 h -0.95084 v -0.888834 q -0.34623,0.527099 -0.80615,0.785481 -0.45476,0.253215 -1.05937,0.253215 -0.99736,0 -1.51412,-0.620117 -0.51676,-0.620117 -0.51676,-1.813843 z"
           style="stroke:none;stroke-width:0.26458332;stroke-opacity:1"
           id="path967" />
        <path
           d="m 222.47115,67.654356 v 1.64331 h 1.95854 v 0.738973 h -1.95854 v 3.141927 q 0,0.707967 0.1912,0.909505 0.19637,0.201538 0.79065,0.201538 h 0.97669 v 0.795817 H 223.453 q -1.10071,0 -1.51929,-0.408243 -0.41857,-0.413412 -0.41857,-1.498617 v -3.141927 h -0.69764 v -0.738973 h 0.69764 v -1.64331 z"
           style="stroke:none;stroke-width:0.26458332;stroke-opacity:1"
           id="path969" />
        <path
           d="m 226.60526,74.217262 v 3.06958 h -0.95601 v -7.989176 h 0.95601 v 0.878499 q 0.29972,-0.516764 0.75448,-0.764811 0.45992,-0.253214 1.09554,-0.253214 1.0542,0 1.71049,0.837158 0.66145,0.837158 0.66145,2.201416 0,1.364258 -0.66145,2.201416 -0.65629,0.837158 -1.71049,0.837158 -0.63562,0 -1.09554,-0.248047 -0.45476,-0.253214 -0.75448,-0.769979 z m 3.23494,-2.020548 q 0,-1.049032 -0.43408,-1.643311 -0.42891,-0.599446 -1.18339,-0.599446 -0.75447,0 -1.18856,0.599446 -0.42891,0.594279 -0.42891,1.643311 0,1.049031 0.42891,1.648478 0.43409,0.594279 1.18856,0.594279 0.75448,0 1.18339,-0.594279 0.43408,-0.599447 0.43408,-1.648478 z"
           style="stroke:none;stroke-width:0.26458332;stroke-opacity:1"
           id="path971" />
        <path
           d="m 232.30518,72.801328 v -3.503662 h 0.95084 v 3.467489 q 0,0.821655 0.3204,1.235066 0.32039,0.408244 0.96118,0.408244 0.76998,0 1.21439,-0.490926 0.44959,-0.490926 0.44959,-1.33842 v -3.281453 h 0.95084 v 5.78776 h -0.95084 v -0.888834 q -0.34623,0.527099 -0.80615,0.785481 -0.45476,0.253215 -1.05937,0.253215 -0.99736,0 -1.51412,-0.620117 -0.51676,-0.620117 -0.51676,-1.813843 z"
           style="stroke:none;stroke-width:0.26458332;stroke-opacity:1"
           id="path973" />
        <path
           d="m 240.06181,67.654356 v 1.64331 h 1.95853 v 0.738973 h -1.95853 v 3.141927 q 0,0.707967 0.1912,0.909505 0.19637,0.201538 0.79065,0.201538 h 0.97668 v 0.795817 h -0.97668 q -1.10071,0 -1.51929,-0.408243 -0.41858,-0.413412 -0.41858,-1.498617 v -3.141927 h -0.69763 v -0.738973 h 0.69763 v -1.64331 z"
           style="stroke:none;stroke-width:0.26458332;stroke-opacity:1"
           id="path975" />
      </g>
    </g>
    <path
       style="fill:none;stroke:#000000;stroke-width:0.26499999;stroke-linecap:butt;stroke-linejoin:miter;stroke-miterlimit:4;stroke-dasharray:none;stroke-opacity:1;marker-end:url(#Arrow2Lend)"
       d="M 45.302185,74.631753 H 64.812859"
       id="path4557"
       inkscape:connector-curvature="0" />
    <path
       style="fill:none;stroke:#000000;stroke-width:0.26499999;stroke-linecap:butt;stroke-linejoin:miter;stroke-miterlimit:4;stroke-dasharray:none;stroke-opacity:1;marker-end:url(#Arrow2Lend-7)"
       d="M 136.10589,74.350156 H 154.9484"
       id="path4557-3"
       inkscape:connector-curvature="0"
       sodipodi:nodetypes="cc" />
  </g>
</svg>
