<svg xmlns="http://www.w3.org/2000/svg" width="1000" height="2000" xmlns:xlink="http://www.w3.org/1999/xlink">
        <g transform="translate(50, 50)"><path fill="none" stroke="black" d="M450,0C450,79.16666666666667,281.25,79.16666666666667,281.25,158.33333333333334"></path><path fill="none" stroke="black" d="M450,0C450,79.16666666666667,450,79.16666666666667,450,158.33333333333334"></path><path fill="none" stroke="black" d="M450,0C450,79.16666666666667,618.75,79.16666666666667,618.75,158.33333333333334"></path><path fill="none" stroke="black" d="M281.25,158.33333333333334C281.25,237.5,281.25,237.5,281.25,316.6666666666667"></path><path fill="none" stroke="black" d="M618.75,158.33333333333334C618.75,237.5,618.75,237.5,618.75,316.6666666666667"></path><path fill="none" stroke="black" d="M281.25,316.6666666666667C281.25,395.83333333333337,168.75,395.83333333333337,168.75,475"></path><path fill="none" stroke="black" d="M281.25,316.6666666666667C281.25,395.83333333333337,281.25,395.83333333333337,281.25,475"></path><path fill="none" stroke="black" d="M281.25,316.6666666666667C281.25,395.83333333333337,393.75,395.83333333333337,393.75,475"></path><path fill="none" stroke="black" d="M618.75,316.6666666666667C618.75,395.83333333333337,618.75,395.83333333333337,618.75,475"></path><path fill="none" stroke="black" d="M281.25,475C281.25,554.1666666666667,112.5,554.1666666666667,112.5,633.3333333333334"></path><path fill="none" stroke="black" d="M281.25,475C281.25,554.1666666666667,281.25,554.1666666666667,281.25,633.3333333333334"></path><path fill="none" stroke="black" d="M281.25,475C281.25,554.1666666666667,450,554.1666666666667,450,633.3333333333334"></path><path fill="none" stroke="black" d="M112.5,633.3333333333334C112.5,712.5,112.5,712.5,112.5,791.6666666666667"></path><path fill="none" stroke="black" d="M450,633.3333333333334C450,712.5,450,712.5,450,791.6666666666667"></path><path fill="none" stroke="black" d="M112.5,791.6666666666667C112.5,870.8333333333334,112.5,870.8333333333334,112.5,950"></path><path fill="none" stroke="black" d="M450,791.6666666666667C450,870.8333333333334,337.5,870.8333333333334,337.5,950"></path><path fill="none" stroke="black" d="M450,791.6666666666667C450,870.8333333333334,450,870.8333333333334,450,950"></path><path fill="none" stroke="black" d="M450,791.6666666666667C450,870.8333333333334,562.5,870.8333333333334,562.5,950"></path><path fill="none" stroke="black" d="M450,950C450,1029.1666666666667,112.5,1029.1666666666667,112.5,1108.3333333333335"></path><path fill="none" stroke="black" d="M450,950C450,1029.1666666666667,281.25,1029.1666666666667,281.25,1108.3333333333335"></path><path fill="none" stroke="black" d="M450,950C450,1029.1666666666667,450,1029.1666666666667,450,1108.3333333333335"></path><path fill="none" stroke="black" d="M450,950C450,1029.1666666666667,618.75,1029.1666666666667,618.75,1108.3333333333335"></path><path fill="none" stroke="black" d="M450,950C450,1029.1666666666667,787.5,1029.1666666666667,787.5,1108.3333333333335"></path><path fill="none" stroke="black" d="M112.5,1108.3333333333335C112.5,1187.5,112.5,1187.5,112.5,1266.6666666666667"></path><path fill="none" stroke="black" d="M450,1108.3333333333335C450,1187.5,450,1187.5,450,1266.6666666666667"></path><path fill="none" stroke="black" d="M787.5,1108.3333333333335C787.5,1187.5,787.5,1187.5,787.5,1266.6666666666667"></path><path fill="none" stroke="black" d="M112.5,1266.6666666666667C112.5,1345.8333333333335,112.5,1345.8333333333335,112.5,1425"></path><path fill="none" stroke="black" d="M450,1266.6666666666667C450,1345.8333333333335,337.5,1345.8333333333335,337.5,1425"></path><path fill="none" stroke="black" d="M450,1266.6666666666667C450,1345.8333333333335,450,1345.8333333333335,450,1425"></path><path fill="none" stroke="black" d="M450,1266.6666666666667C450,1345.8333333333335,562.5,1345.8333333333335,562.5,1425"></path><path fill="none" stroke="black" d="M787.5,1266.6666666666667C787.5,1345.8333333333335,787.5,1345.8333333333335,787.5,1425"></path><path fill="none" stroke="black" d="M450,1425C450,1504.1666666666667,450,1504.1666666666667,450,1583.3333333333335"></path><path fill="none" stroke="black" d="M450,1583.3333333333335C450,1662.5,337.5,1662.5,337.5,1741.6666666666667"></path><path fill="none" stroke="black" d="M450,1583.3333333333335C450,1662.5,450,1662.5,450,1741.6666666666667"></path><path fill="none" stroke="black" d="M450,1583.3333333333335C450,1662.5,562.5,1662.5,562.5,1741.6666666666667"></path><path fill="none" stroke="black" d="M337.5,1741.6666666666667C337.5,1820.8333333333335,337.5,1820.8333333333335,337.5,1900"></path><path fill="none" stroke="black" d="M562.5,1741.6666666666667C562.5,1820.8333333333335,562.5,1820.8333333333335,562.5,1900"></path></g><g transform="translate(50, 50)"><g transform="translate(450, 0)"><rect fill="white" stroke="black" x="-82.453125" y="-42" width="164.90625" height="84"></rect><text transform="translate(0, -32)"><tspan text-anchor="middle" x="0" dy="1em" y="0em">expr</tspan><tspan text-anchor="middle" x="0" dy="1em" y="1.5em">(1+(2+(3*4)+1))+4</tspan><tspan text-anchor="middle" x="0" dy="1em" y="3em">20</tspan></text></g><g transform="translate(281.25, 158.33333333333334)"><rect fill="white" stroke="black" x="-71.921875" y="-42" width="143.84375" height="84"></rect><text transform="translate(0, -32)"><tspan text-anchor="middle" x="0" dy="1em" y="0em">term</tspan><tspan text-anchor="middle" x="0" dy="1em" y="1.5em">(1+(2+(3*4)+1))</tspan><tspan text-anchor="middle" x="0" dy="1em" y="3em">16</tspan></text></g><g transform="translate(450, 158.33333333333334)"><rect fill="lightgray" stroke="black" x="-20.1875" y="-30" width="40.375" height="60"></rect><text transform="translate(0, -20)"><tspan text-anchor="middle" x="0" dy="1em" y="0em">op</tspan><tspan text-anchor="middle" x="0" dy="1em" y="1.5em">+</tspan></text></g><g transform="translate(618.75, 158.33333333333334)"><rect fill="white" stroke="black" x="-28.734375" y="-42" width="57.46875" height="84"></rect><text transform="translate(0, -32)"><tspan text-anchor="middle" x="0" dy="1em" y="0em">term</tspan><tspan text-anchor="middle" x="0" dy="1em" y="1.5em">4</tspan><tspan text-anchor="middle" x="0" dy="1em" y="3em">4</tspan></text></g><g transform="translate(281.25, 316.6666666666667)"><rect fill="white" stroke="black" x="-71.921875" y="-42" width="143.84375" height="84"></rect><text transform="translate(0, -32)"><tspan text-anchor="middle" x="0" dy="1em" y="0em">fact</tspan><tspan text-anchor="middle" x="0" dy="1em" y="1.5em">(1+(2+(3*4)+1))</tspan><tspan text-anchor="middle" x="0" dy="1em" y="3em">16</tspan></text></g><g transform="translate(618.75, 316.6666666666667)"><rect fill="white" stroke="black" x="-25.703125" y="-42" width="51.40625" height="84"></rect><text transform="translate(0, -32)"><tspan text-anchor="middle" x="0" dy="1em" y="0em">fact</tspan><tspan text-anchor="middle" x="0" dy="1em" y="1.5em">4</tspan><tspan text-anchor="middle" x="0" dy="1em" y="3em">4</tspan></text></g><g transform="translate(168.75, 475)"><rect fill="lightgray" stroke="black" x="-20.1875" y="-30.2734375" width="40.375" height="60.546875"></rect><text transform="translate(0, -20.2734375)"><tspan text-anchor="middle" x="0" dy="1em" y="0em">op</tspan><tspan text-anchor="middle" x="0" dy="1em" y="1.5em">(</tspan></text></g><g transform="translate(281.25, 475)"><rect fill="white" stroke="black" x="-66.21875" y="-42" width="132.4375" height="84"></rect><text transform="translate(0, -32)"><tspan text-anchor="middle" x="0" dy="1em" y="0em">expr</tspan><tspan text-anchor="middle" x="0" dy="1em" y="1.5em">1+(2+(3*4)+1)</tspan><tspan text-anchor="middle" x="0" dy="1em" y="3em">16</tspan></text></g><g transform="translate(393.75, 475)"><rect fill="lightgray" stroke="black" x="-20.1875" y="-30.2734375" width="40.375" height="60.546875"></rect><text transform="translate(0, -20.2734375)"><tspan text-anchor="middle" x="0" dy="1em" y="0em">op</tspan><tspan text-anchor="middle" x="0" dy="1em" y="1.5em">)</tspan></text></g><g transform="translate(618.75, 475)"><rect fill="white" stroke="black" x="-40.65625" y="-42" width="81.3125" height="84"></rect><text transform="translate(0, -32)"><tspan text-anchor="middle" x="0" dy="1em" y="0em">number</tspan><tspan text-anchor="middle" x="0" dy="1em" y="1.5em">4</tspan><tspan text-anchor="middle" x="0" dy="1em" y="3em">4</tspan></text></g><g transform="translate(112.5, 633.3333333333334)"><rect fill="white" stroke="black" x="-28.734375" y="-42" width="57.46875" height="84"></rect><text transform="translate(0, -32)"><tspan text-anchor="middle" x="0" dy="1em" y="0em">term</tspan><tspan text-anchor="middle" x="0" dy="1em" y="1.5em">1</tspan><tspan text-anchor="middle" x="0" dy="1em" y="3em">1</tspan></text></g><g transform="translate(281.25, 633.3333333333334)"><rect fill="lightgray" stroke="black" x="-20.1875" y="-30" width="40.375" height="60"></rect><text transform="translate(0, -20)"><tspan text-anchor="middle" x="0" dy="1em" y="0em">op</tspan><tspan text-anchor="middle" x="0" dy="1em" y="1.5em">+</tspan></text></g><g transform="translate(450, 633.3333333333334)"><rect fill="white" stroke="black" x="-55.71875" y="-42" width="111.4375" height="84"></rect><text transform="translate(0, -32)"><tspan text-anchor="middle" x="0" dy="1em" y="0em">term</tspan><tspan text-anchor="middle" x="0" dy="1em" y="1.5em">(2+(3*4)+1)</tspan><tspan text-anchor="middle" x="0" dy="1em" y="3em">15</tspan></text></g><g transform="translate(112.5, 791.6666666666667)"><rect fill="white" stroke="black" x="-25.703125" y="-42" width="51.40625" height="84"></rect><text transform="translate(0, -32)"><tspan text-anchor="middle" x="0" dy="1em" y="0em">fact</tspan><tspan text-anchor="middle" x="0" dy="1em" y="1.5em">1</tspan><tspan text-anchor="middle" x="0" dy="1em" y="3em">1</tspan></text></g><g transform="translate(450, 791.6666666666667)"><rect fill="white" stroke="black" x="-55.71875" y="-42" width="111.4375" height="84"></rect><text transform="translate(0, -32)"><tspan text-anchor="middle" x="0" dy="1em" y="0em">fact</tspan><tspan text-anchor="middle" x="0" dy="1em" y="1.5em">(2+(3*4)+1)</tspan><tspan text-anchor="middle" x="0" dy="1em" y="3em">15</tspan></text></g><g transform="translate(112.5, 950)"><rect fill="white" stroke="black" x="-40.65625" y="-42" width="81.3125" height="84"></rect><text transform="translate(0, -32)"><tspan text-anchor="middle" x="0" dy="1em" y="0em">number</tspan><tspan text-anchor="middle" x="0" dy="1em" y="1.5em">1</tspan><tspan text-anchor="middle" x="0" dy="1em" y="3em">1</tspan></text></g><g transform="translate(337.5, 950)"><rect fill="lightgray" stroke="black" x="-20.1875" y="-30.2734375" width="40.375" height="60.546875"></rect><text transform="translate(0, -20.2734375)"><tspan text-anchor="middle" x="0" dy="1em" y="0em">op</tspan><tspan text-anchor="middle" x="0" dy="1em" y="1.5em">(</tspan></text></g><g transform="translate(450, 950)"><rect fill="white" stroke="black" x="-50.03125" y="-42" width="100.0625" height="84"></rect><text transform="translate(0, -32)"><tspan text-anchor="middle" x="0" dy="1em" y="0em">expr</tspan><tspan text-anchor="middle" x="0" dy="1em" y="1.5em">2+(3*4)+1</tspan><tspan text-anchor="middle" x="0" dy="1em" y="3em">15</tspan></text></g><g transform="translate(562.5, 950)"><rect fill="lightgray" stroke="black" x="-20.1875" y="-30.2734375" width="40.375" height="60.546875"></rect><text transform="translate(0, -20.2734375)"><tspan text-anchor="middle" x="0" dy="1em" y="0em">op</tspan><tspan text-anchor="middle" x="0" dy="1em" y="1.5em">)</tspan></text></g><g transform="translate(112.5, 1108.3333333333335)"><rect fill="white" stroke="black" x="-28.734375" y="-42" width="57.46875" height="84"></rect><text transform="translate(0, -32)"><tspan text-anchor="middle" x="0" dy="1em" y="0em">term</tspan><tspan text-anchor="middle" x="0" dy="1em" y="1.5em">2</tspan><tspan text-anchor="middle" x="0" dy="1em" y="3em">2</tspan></text></g><g transform="translate(281.25, 1108.3333333333335)"><rect fill="lightgray" stroke="black" x="-20.1875" y="-30" width="40.375" height="60"></rect><text transform="translate(0, -20)"><tspan text-anchor="middle" x="0" dy="1em" y="0em">op</tspan><tspan text-anchor="middle" x="0" dy="1em" y="1.5em">+</tspan></text></g><g transform="translate(450, 1108.3333333333335)"><rect fill="white" stroke="black" x="-29.015625" y="-42" width="58.03125" height="84"></rect><text transform="translate(0, -32)"><tspan text-anchor="middle" x="0" dy="1em" y="0em">term</tspan><tspan text-anchor="middle" x="0" dy="1em" y="1.5em">(3*4)</tspan><tspan text-anchor="middle" x="0" dy="1em" y="3em">12</tspan></text></g><g transform="translate(618.75, 1108.3333333333335)"><rect fill="lightgray" stroke="black" x="-20.1875" y="-30" width="40.375" height="60"></rect><text transform="translate(0, -20)"><tspan text-anchor="middle" x="0" dy="1em" y="0em">op</tspan><tspan text-anchor="middle" x="0" dy="1em" y="1.5em">+</tspan></text></g><g transform="translate(787.5, 1108.3333333333335)"><rect fill="white" stroke="black" x="-28.734375" y="-42" width="57.46875" height="84"></rect><text transform="translate(0, -32)"><tspan text-anchor="middle" x="0" dy="1em" y="0em">term</tspan><tspan text-anchor="middle" x="0" dy="1em" y="1.5em">1</tspan><tspan text-anchor="middle" x="0" dy="1em" y="3em">1</tspan></text></g><g transform="translate(112.5, 1266.6666666666667)"><rect fill="white" stroke="black" x="-25.703125" y="-42" width="51.40625" height="84"></rect><text transform="translate(0, -32)"><tspan text-anchor="middle" x="0" dy="1em" y="0em">fact</tspan><tspan text-anchor="middle" x="0" dy="1em" y="1.5em">2</tspan><tspan text-anchor="middle" x="0" dy="1em" y="3em">2</tspan></text></g><g transform="translate(450, 1266.6666666666667)"><rect fill="white" stroke="black" x="-29.015625" y="-42" width="58.03125" height="84"></rect><text transform="translate(0, -32)"><tspan text-anchor="middle" x="0" dy="1em" y="0em">fact</tspan><tspan text-anchor="middle" x="0" dy="1em" y="1.5em">(3*4)</tspan><tspan text-anchor="middle" x="0" dy="1em" y="3em">12</tspan></text></g><g transform="translate(787.5, 1266.6666666666667)"><rect fill="white" stroke="black" x="-25.703125" y="-42" width="51.40625" height="84"></rect><text transform="translate(0, -32)"><tspan text-anchor="middle" x="0" dy="1em" y="0em">fact</tspan><tspan text-anchor="middle" x="0" dy="1em" y="1.5em">1</tspan><tspan text-anchor="middle" x="0" dy="1em" y="3em">1</tspan></text></g><g transform="translate(112.5, 1425)"><rect fill="white" stroke="black" x="-40.65625" y="-42" width="81.3125" height="84"></rect><text transform="translate(0, -32)"><tspan text-anchor="middle" x="0" dy="1em" y="0em">number</tspan><tspan text-anchor="middle" x="0" dy="1em" y="1.5em">2</tspan><tspan text-anchor="middle" x="0" dy="1em" y="3em">2</tspan></text></g><g transform="translate(337.5, 1425)"><rect fill="lightgray" stroke="black" x="-20.1875" y="-30.2734375" width="40.375" height="60.546875"></rect><text transform="translate(0, -20.2734375)"><tspan text-anchor="middle" x="0" dy="1em" y="0em">op</tspan><tspan text-anchor="middle" x="0" dy="1em" y="1.5em">(</tspan></text></g><g transform="translate(450, 1425)"><rect fill="white" stroke="black" x="-27.609375" y="-42" width="55.21875" height="84"></rect><text transform="translate(0, -32)"><tspan text-anchor="middle" x="0" dy="1em" y="0em">expr</tspan><tspan text-anchor="middle" x="0" dy="1em" y="1.5em">3*4</tspan><tspan text-anchor="middle" x="0" dy="1em" y="3em">12</tspan></text></g><g transform="translate(562.5, 1425)"><rect fill="lightgray" stroke="black" x="-20.1875" y="-30.2734375" width="40.375" height="60.546875"></rect><text transform="translate(0, -20.2734375)"><tspan text-anchor="middle" x="0" dy="1em" y="0em">op</tspan><tspan text-anchor="middle" x="0" dy="1em" y="1.5em">)</tspan></text></g><g transform="translate(787.5, 1425)"><rect fill="white" stroke="black" x="-40.65625" y="-42" width="81.3125" height="84"></rect><text transform="translate(0, -32)"><tspan text-anchor="middle" x="0" dy="1em" y="0em">number</tspan><tspan text-anchor="middle" x="0" dy="1em" y="1.5em">1</tspan><tspan text-anchor="middle" x="0" dy="1em" y="3em">1</tspan></text></g><g transform="translate(450, 1583.3333333333335)"><rect fill="white" stroke="black" x="-28.734375" y="-42" width="57.46875" height="84"></rect><text transform="translate(0, -32)"><tspan text-anchor="middle" x="0" dy="1em" y="0em">term</tspan><tspan text-anchor="middle" x="0" dy="1em" y="1.5em">3*4</tspan><tspan text-anchor="middle" x="0" dy="1em" y="3em">12</tspan></text></g><g transform="translate(337.5, 1741.6666666666667)"><rect fill="white" stroke="black" x="-25.703125" y="-42" width="51.40625" height="84"></rect><text transform="translate(0, -32)"><tspan text-anchor="middle" x="0" dy="1em" y="0em">fact</tspan><tspan text-anchor="middle" x="0" dy="1em" y="1.5em">3</tspan><tspan text-anchor="middle" x="0" dy="1em" y="3em">3</tspan></text></g><g transform="translate(450, 1741.6666666666667)"><rect fill="lightgray" stroke="black" x="-20.1875" y="-30" width="40.375" height="60"></rect><text transform="translate(0, -20)"><tspan text-anchor="middle" x="0" dy="1em" y="0em">op</tspan><tspan text-anchor="middle" x="0" dy="1em" y="1.5em">*</tspan></text></g><g transform="translate(562.5, 1741.6666666666667)"><rect fill="white" stroke="black" x="-25.703125" y="-42" width="51.40625" height="84"></rect><text transform="translate(0, -32)"><tspan text-anchor="middle" x="0" dy="1em" y="0em">fact</tspan><tspan text-anchor="middle" x="0" dy="1em" y="1.5em">4</tspan><tspan text-anchor="middle" x="0" dy="1em" y="3em">4</tspan></text></g><g transform="translate(337.5, 1900)"><rect fill="white" stroke="black" x="-40.65625" y="-42" width="81.3125" height="84"></rect><text transform="translate(0, -32)"><tspan text-anchor="middle" x="0" dy="1em" y="0em">number</tspan><tspan text-anchor="middle" x="0" dy="1em" y="1.5em">3</tspan><tspan text-anchor="middle" x="0" dy="1em" y="3em">3</tspan></text></g><g transform="translate(562.5, 1900)"><rect fill="white" stroke="black" x="-40.65625" y="-42" width="81.3125" height="84"></rect><text transform="translate(0, -32)"><tspan text-anchor="middle" x="0" dy="1em" y="0em">number</tspan><tspan text-anchor="middle" x="0" dy="1em" y="1.5em">4</tspan><tspan text-anchor="middle" x="0" dy="1em" y="3em">4</tspan></text></g></g></svg>
