<?xml version="1.0" encoding="UTF-8" standalone="no"?>
<!-- Created with Inkscape (http://www.inkscape.org/) -->

<svg
   xmlns:dc="http://purl.org/dc/elements/1.1/"
   xmlns:cc="http://creativecommons.org/ns#"
   xmlns:rdf="http://www.w3.org/1999/02/22-rdf-syntax-ns#"
   xmlns:svg="http://www.w3.org/2000/svg"
   xmlns="http://www.w3.org/2000/svg"
   xmlns:xlink="http://www.w3.org/1999/xlink"
   xmlns:sodipodi="http://sodipodi.sourceforge.net/DTD/sodipodi-0.dtd"
   xmlns:inkscape="http://www.inkscape.org/namespaces/inkscape"
   id="svg8"
   version="1.1"
   viewBox="0 0 40.590164 9.7604122"
   height="9.7604122mm"
   width="40.590164mm"
   inkscape:version="0.92.4 (5da689c313, 2019-01-14)"
   sodipodi:docname="lis_ex.svg">
  <defs
     id="defs2" />
  <sodipodi:namedview
     id="base"
     pagecolor="#ffffff"
     bordercolor="#666666"
     borderopacity="1.0"
     inkscape:pageopacity="0.0"
     inkscape:pageshadow="2"
     inkscape:zoom="2.8"
     inkscape:cx="26.66249"
     inkscape:cy="-49.510109"
     inkscape:document-units="mm"
     inkscape:current-layer="layer1"
     showgrid="false"
     inkscape:window-width="2560"
     inkscape:window-height="1315"
     inkscape:window-x="-13"
     inkscape:window-y="-13"
     inkscape:window-maximized="1"
     fit-margin-top="0"
     fit-margin-left="0"
     fit-margin-right="0"
     fit-margin-bottom="0" />
  <metadata
     id="metadata5">
    <rdf:RDF>
      <cc:Work
         rdf:about="">
        <dc:format>image/svg+xml</dc:format>
        <dc:type
           rdf:resource="http://purl.org/dc/dcmitype/StillImage" />
        <dc:title></dc:title>
      </cc:Work>
    </rdf:RDF>
  </metadata>
  <g
     inkscape:label="レイヤー 1"
     inkscape:groupmode="layer"
     id="layer1"
     transform="translate(-77.210435,-54.656253)">
    <g
       title="$ 5\ 1\ 3\ 2\ 4 $"
       style="fill:#000000"
       id="equation_00">
      <defs
         id="defs860">
        <path
           id="equation_00_00"
           d="m 2.92902,-6.37609 c 0,-0.2391 0,-0.25903 -0.22914,-0.25903 -0.61769,0.63761 -1.4944,0.63761 -1.813205,0.63761 v 0.30884 c 0.199255,0 0.787045,0 1.305105,-0.25903 v 5.160651 c 0,0.358655 -0.02989,0.478207 -0.92652,0.478207 H 0.946451 V 0 C 1.29514,-0.0298879 2.16189,-0.0298879 2.5604,-0.0298879 c 0.39851,0 1.26525,0 1.61395,0.0298879 V -0.308842 H 3.85554 c -0.89664,0 -0.92652,-0.109589 -0.92652,-0.478207 z"
           inkscape:connector-curvature="0" />
        <path
           id="equation_00_01"
           d="M 1.26526,-0.767123 2.3213,-1.79328 c 1.55417,-1.37484 2.15193,-1.91282 2.15193,-2.90909 0,-1.13574 -0.89664,-1.93275 -2.11208,-1.93275 -1.12578,0 -1.863018,0.91656 -1.863018,1.80324 0,0.55791 0.498132,0.55791 0.528018,0.55791 0.16937,0 0.51806,-0.11955 0.51806,-0.52802 0,-0.25903 -0.17933,-0.51806 -0.52802,-0.51806 -0.079702,0 -0.099627,0 -0.129515,0.00996 0.229145,-0.64757 0.767125,-1.01619 1.344955,-1.01619 0.9066,0 1.335,0.80698 1.335,1.62391 0,0.79702 -0.49814,1.58406 -1.04608,2.20175 L 0.607721,-0.368618 C 0.498132,-0.259029 0.498132,-0.239103 0.498132,0 H 4.19427 L 4.47323,-1.7335 H 4.22416 c -0.04981,0.29888 -0.11955,0.737236 -0.21918,0.886676 -0.06974,0.079701 -0.72727,0.079701 -0.94645,0.079701 z"
           inkscape:connector-curvature="0" />
        <path
           id="equation_00_02"
           d="m 2.88917,-3.50685 c 0.81693,-0.26899 1.39477,-0.96638 1.39477,-1.75342 0,-0.81694 -0.87672,-1.37485 -1.83313,-1.37485 -1.00623,0 -1.763388,0.59776 -1.763388,1.35492 0,0.32877 0.219178,0.51806 0.508098,0.51806 0.30884,0 0.50809,-0.21918 0.50809,-0.5081 0,-0.49813 -0.46824,-0.49813 -0.61768,-0.49813 0.30884,-0.48817 0.96637,-0.61768 1.32503,-0.61768 0.40847,0 0.95641,0.21918 0.95641,1.11581 0,0.11956 -0.01992,0.69739 -0.27895,1.13574 -0.29888,0.47821 -0.63761,0.5081 -0.88668,0.51806 -0.0797,0.00996 -0.3188,0.02989 -0.38854,0.02989 -0.0797,0.00996 -0.14944,0.01992 -0.14944,0.11955 0,0.10959 0.06974,0.10959 0.2391,0.10959 h 0.43836 c 0.81694,0 1.18555,0.67746 1.18555,1.6538 0,1.354918 -0.68742,1.6438342 -1.12577,1.6438342 -0.4284,0 -1.1756,-0.1693652 -1.524288,-0.7571602 0.348688,0.049813 0.657538,-0.169365 0.657538,-0.547944 0,-0.35866 -0.26899,-0.55791 -0.557911,-0.55791 -0.239104,0 -0.557908,0.13948 -0.557908,0.57783 0,0.906604 0.926529,1.564138 2.012449,1.564138 1.21545,0 2.12205,-0.9066 2.12205,-1.922788 0,-0.81694 -0.62765,-1.59402 -1.66376,-1.80324 z"
           inkscape:connector-curvature="0" />
        <path
           id="equation_00_03"
           d="m 2.92902,-1.64384 v 0.866754 c 0,0.358655 -0.01993,0.468244 -0.75716,0.468244 H 1.96264 V 0 c 0.40847,-0.0298879 0.92653,-0.0298879 1.34496,-0.0298879 0.41843,0 0.94645,0 1.35492,0.0298879 V -0.308842 H 4.4533 c -0.73724,0 -0.75716,-0.109589 -0.75716,-0.468244 V -1.64384 H 4.6924 V -1.95268 H 3.69614 v -4.533 c 0,-0.19925 0,-0.25903 -0.1594,-0.25903 -0.08967,0 -0.11955,0 -0.19926,0.11955 l -3.058526,4.67248 v 0.30884 z M 2.98879,-1.95268 H 0.557908 L 2.98879,-5.66874 Z"
           inkscape:connector-curvature="0" />
        <path
           id="equation_00_04"
           d="m 4.47323,-2.00249 c 0,-1.18555 -0.81694,-2.18182 -1.89291,-2.18182 -0.4782,0 -0.9066,0.1594 -1.26525,0.5081 v -1.94272 c 0.19925,0.05978 0.52802,0.12952 0.84682,0.12952 1.22541,0 1.92279,-0.9066 1.92279,-1.03612 0,-0.05978 -0.02989,-0.10959 -0.09962,-0.10959 -0.00997,0 -0.02989,0 -0.07971,0.02989 -0.19925,0.08966 -0.68742,0.28892 -1.35491,0.28892 -0.39851,0 -0.85679,-0.06974 -1.32504,-0.27896 -0.0797,-0.02989 -0.09962,-0.02989 -0.11955,-0.02989 -0.09962,0 -0.09962,0.07971 -0.09962,0.23911 v 2.94894 c 0,0.17933 0,0.25903 0.13947,0.25903 0.06974,0 0.08967,-0.02989 0.12952,-0.08967 0.10959,-0.1594 0.4782,-0.69738 1.28518,-0.69738 0.51806,0 0.76712,0.45828 0.84682,0.63761 0.15941,0.36862 0.17933,0.75716 0.17933,1.25529 0,0.34869 0,0.94645 -0.2391,1.364883 -0.23911,0.388543 -0.60772,0.6475712 -1.06601,0.6475712 -0.72727,0 -1.295139,-0.5280202 -1.464504,-1.1158142 0.029888,0.00996 0.059776,0.01992 0.169365,0.01992 0.328769,0 0.498129,-0.24906 0.498129,-0.48817 0,-0.23911 -0.16936,-0.48816 -0.498129,-0.48816 -0.139477,0 -0.488169,0.06973 -0.488169,0.52801 0,0.856792 0.687418,1.823168 1.803238,1.823168 1.15567,0 2.17186,-0.956413 2.17186,-2.221668 z"
           inkscape:connector-curvature="0" />
      </defs>
      <g
         id="equation_00_g">
        <use
           id="use862"
           y="62.764599"
           xlink:href="#equation_00_04"
           x="76.712303"
           width="100%"
           height="100%" />
        <use
           id="use864"
           y="62.764599"
           xlink:href="#equation_00_00"
           x="85.014503"
           width="100%"
           height="100%" />
        <use
           id="use866"
           y="62.764599"
           xlink:href="#equation_00_02"
           x="93.316803"
           width="100%"
           height="100%" />
        <use
           id="use868"
           y="62.764599"
           xlink:href="#equation_00_01"
           x="101.619"
           width="100%"
           height="100%" />
        <use
           id="use870"
           y="62.764599"
           xlink:href="#equation_00_03"
           x="109.921"
           width="100%"
           height="100%" />
      </g>
    </g>
    <ellipse
       style="opacity:1;fill:none;fill-opacity:1;fill-rule:nonzero;stroke:#ff0000;stroke-width:0.5;stroke-miterlimit:4;stroke-dasharray:none;stroke-dashoffset:0;stroke-opacity:1"
       id="path889"
       cx="87.501488"
       cy="59.536449"
       rx="4.3467264"
       ry="4.5357141" />
    <ellipse
       style="opacity:1;fill:none;fill-opacity:1;fill-rule:nonzero;stroke:#ff0000;stroke-width:0.5;stroke-miterlimit:4;stroke-dasharray:none;stroke-dashoffset:0;stroke-opacity:1"
       id="path889-0"
       cx="104.03795"
       cy="59.441967"
       rx="4.3467264"
       ry="4.5357141" />
    <ellipse
       style="opacity:1;fill:none;fill-opacity:1;fill-rule:nonzero;stroke:#ff0000;stroke-width:0.5;stroke-miterlimit:4;stroke-dasharray:none;stroke-dashoffset:0;stroke-opacity:1"
       id="path889-05"
       cx="113.20387"
       cy="59.630951"
       rx="4.3467264"
       ry="4.5357141" />
  </g>
</svg>
