<?xml version="1.0" encoding="UTF-8" standalone="no"?>
<!-- Created with Inkscape (http://www.inkscape.org/) -->

<svg
   xmlns:dc="http://purl.org/dc/elements/1.1/"
   xmlns:cc="http://creativecommons.org/ns#"
   xmlns:rdf="http://www.w3.org/1999/02/22-rdf-syntax-ns#"
   xmlns:svg="http://www.w3.org/2000/svg"
   xmlns="http://www.w3.org/2000/svg"
   xmlns:xlink="http://www.w3.org/1999/xlink"
   xmlns:sodipodi="http://sodipodi.sourceforge.net/DTD/sodipodi-0.dtd"
   xmlns:inkscape="http://www.inkscape.org/namespaces/inkscape"
   width="317.79828mm"
   height="61.402912mm"
   viewBox="0 0 317.79828 61.402912"
   version="1.1"
   id="svg8"
   inkscape:version="0.92.4 (5da689c313, 2019-01-14)"
   sodipodi:docname="knapsack_sorted.svg">
  <defs
     id="defs2">
    <path
       id="equation_02_00-2"
       d="m 1.91283,-0.52802 c 0,-0.288916 -0.23911,-0.52802 -0.52802,-0.52802 -0.28891,0 -0.528023,0.239104 -0.528023,0.52802 C 0.856787,-0.239104 1.09589,0 1.38481,0 1.67373,0 1.91283,-0.239103 1.91283,-0.52802 Z"
       inkscape:connector-curvature="0" />
  </defs>
  <sodipodi:namedview
     id="base"
     pagecolor="#ffffff"
     bordercolor="#666666"
     borderopacity="1.0"
     inkscape:pageopacity="0.0"
     inkscape:pageshadow="2"
     inkscape:zoom="0.98994949"
     inkscape:cx="690.45765"
     inkscape:cy="95.912853"
     inkscape:document-units="mm"
     inkscape:current-layer="equation_03"
     showgrid="false"
     inkscape:window-width="2560"
     inkscape:window-height="1315"
     inkscape:window-x="-13"
     inkscape:window-y="-13"
     inkscape:window-maximized="1"
     fit-margin-top="0"
     fit-margin-left="0"
     fit-margin-right="0"
     fit-margin-bottom="0" />
  <metadata
     id="metadata5">
    <rdf:RDF>
      <cc:Work
         rdf:about="">
        <dc:format>image/svg+xml</dc:format>
        <dc:type
           rdf:resource="http://purl.org/dc/dcmitype/StillImage" />
        <dc:title></dc:title>
      </cc:Work>
    </rdf:RDF>
  </metadata>
  <g
     inkscape:label="レイヤー 1"
     inkscape:groupmode="layer"
     id="layer1"
     transform="translate(47.329102,-28.65905)">
    <flowRoot
       xml:space="preserve"
       id="flowRoot834"
       style="font-style:normal;font-variant:normal;font-weight:normal;font-stretch:normal;font-size:21.33333397px;line-height:1.25;font-family:Meiryo;-inkscape-font-specification:Meiryo;letter-spacing:0px;word-spacing:0px;fill:#000000;fill-opacity:1;stroke:none"
       transform="scale(0.26458333)"><flowRegion
         id="flowRegion836"><rect
           id="rect838"
           width="292.14285"
           height="122.85714"
           x="95"
           y="359.66254" /></flowRegion><flowPara
         id="flowPara840" /></flowRoot>    <g
       title="$(w_0,v_0),\ldots,(w_{i-1},v_{i-1}),(w_{i},v_{i})$"
       style="fill:#000000"
       id="equation_00"
       transform="translate(-25.390605,-13.363476)">
      <defs
         id="defs1573">
        <path
           id="equation_00_00"
           d="m 5.18854,-1.57609 c 0.11158,0 0.27896,0 0.27896,-0.16737 0,-0.17435 -0.1604,-0.17435 -0.27896,-0.17435 H 1.03213 c -0.111582,0 -0.278954,0 -0.278954,0.16737 0,0.17435 0.160398,0.17435 0.278954,0.17435 z"
           inkscape:connector-curvature="0" />
        <path
           id="equation_00_01"
           d="m 3.59851,-2.22466 c 0,-0.76712 -0.09066,-1.31805 -0.41146,-1.80622 -0.21619,-0.3208 -0.64857,-0.59976 -1.20648,-0.59976 -1.61793,0 -1.61793,1.90387 -1.61793,2.40598 0,0.50211 0,2.364137 1.61793,2.364137 1.61793,0 1.61794,-1.862017 1.61794,-2.364137 z m -1.61794,2.1688692 c -0.32079,0 -0.7462,-0.1882942 -0.88568,-0.7601492 -0.09763,-0.41146 -0.09763,-0.98331 -0.09763,-1.49938 0,-0.50909 0,-1.0391 0.10461,-1.42266 0.14645,-0.55094 0.59278,-0.69739 0.8787,-0.69739 0.37659,0 0.73923,0.23014 0.86476,0.63462 0.11158,0.37659 0.11856,0.87871 0.11856,1.48543 0,0.51607 0,1.03213 -0.09066,1.471484 -0.13948,0.634621 -0.6137,0.7880452 -0.89266,0.7880452 z"
           inkscape:connector-curvature="0" />
        <path
           id="equation_00_02"
           d="m 2.33624,-4.43537 c 0,-0.18829 -0.01395,-0.19527 -0.20922,-0.19527 -0.44632,0.43936 -1.08094,0.44633 -1.366871,0.44633 v 0.25106 c 0.167373,0 0.627651,0 1.011211,-0.19527 v 3.556664 c 0,0.230137 0,0.320797 -0.69739,0.320797 H 0.808966 V 0 c 0.12553,-0.00697385 0.983314,-0.0278954 1.241344,-0.0278954 0.21619,0 1.0949,0.02092155 1.24832,0.0278954 V -0.251059 H 3.03362 c -0.69738,0 -0.69738,-0.09066 -0.69738,-0.320797 z"
           inkscape:connector-curvature="0" />
        <path
           id="equation_00_03"
           d="m 2.25953,-4.35866 c 0,-0.11158 -0.08369,-0.265 -0.27896,-0.265 -0.18829,0 -0.39053,0.18132 -0.39053,0.38356 0,0.11856 0.09066,0.26501 0.27895,0.26501 0.20224,0 0.39054,-0.19527 0.39054,-0.38357 z m -1.422668,3.54272 c -0.027896,0.09066 -0.062765,0.174346 -0.062765,0.292901 0,0.327771 0.278953,0.5927775 0.662513,0.5927775 0.69739,0 1.00424,-0.9623915 1.00424,-1.0669985 0,-0.09066 -0.09066,-0.09066 -0.11158,-0.09066 -0.09764,0 -0.10461,0.04184 -0.13251,0.118555 -0.1604,0.557908 -0.46725,0.843836 -0.73923,0.843836 -0.13947,0 -0.17434,-0.09066 -0.17434,-0.244085 0,-0.160398 0.04881,-0.292902 0.11158,-0.446326 0.06974,-0.18829 0.14645,-0.37659 0.22316,-0.55791 0.06277,-0.16737 0.31383,-0.80199 0.34172,-0.88568 0.02092,-0.06974 0.04184,-0.15342 0.04184,-0.22316 0,-0.32777 -0.27895,-0.59278 -0.66251,-0.59278 -0.690412,0 -1.011209,0.94845 -1.011209,1.067 0,0.09066 0.097634,0.09066 0.118555,0.09066 0.097634,0 0.104608,-0.03487 0.12553,-0.11158 0.18132,-0.59975 0.488164,-0.85081 0.746204,-0.85081 0.11158,0 0.17434,0.05579 0.17434,0.24409 0,0.16039 -0.04184,0.265 -0.21619,0.69738 z"
           inkscape:connector-curvature="0" />
        <path
           id="equation_00_04"
           d="m 1.91283,-0.52802 c 0,-0.288916 -0.23911,-0.52802 -0.52802,-0.52802 -0.28891,0 -0.528023,0.239104 -0.528023,0.52802 C 0.856787,-0.239104 1.09589,0 1.38481,0 1.67373,0 1.91283,-0.239103 1.91283,-0.52802 Z"
           inkscape:connector-curvature="0" />
        <path
           id="equation_00_05"
           d="M 2.02242,-0.00996264 C 2.02242,-0.667497 1.77335,-1.05604 1.38481,-1.05604 c -0.32877,0 -0.528023,0.249066 -0.528023,0.52802 C 0.856787,-0.259029 1.05604,0 1.38481,0 1.50436,0 1.63387,-0.0398506 1.7335,-0.129514 1.76339,-0.14944 1.77335,-0.159402 1.78331,-0.159402 c 0.00996,0 0.01993,0.009962 0.01993,0.14943936 C 1.80324,0.727273 1.45455,1.32503 1.12578,1.6538 1.01619,1.76339 1.01619,1.78331 1.01619,1.8132 c 0,0.06974 0.04981,0.10959 0.09963,0.10959 0.10958,0 0.9066,-0.76712 0.9066,-1.93275264 z"
           inkscape:connector-curvature="0" />
        <path
           id="equation_00_06"
           d="m 4.66252,-3.7061 c 0,-0.53798 -0.25903,-0.69739 -0.43836,-0.69739 -0.24907,0 -0.48817,0.25903 -0.48817,0.47821 0,0.12951 0.04981,0.18929 0.1594,0.29888 0.20922,0.19925 0.33873,0.45828 0.33873,0.81694 0,0.41843 -0.60772,2.699871 -1.77335,2.699871 -0.50809,0 -0.73723,-0.348692 -0.73723,-0.86675 0,-0.557911 0.26899,-1.285181 0.57783,-2.112081 0.06974,-0.16936 0.11955,-0.30884 0.11955,-0.49813 0,-0.44832 -0.3188,-0.81694 -0.81693,-0.81694 -0.936493,0 -1.315073,1.44459 -1.315073,1.53425 0,0.09963 0.099626,0.09963 0.119551,0.09963 0.099627,0 0.109589,-0.01993 0.159402,-0.17933 0.288917,-1.00623 0.71731,-1.23537 1.00623,-1.23537 0.0797,0 0.24906,0 0.24906,0.31881 0,0.24906 -0.09962,0.51805 -0.16936,0.69738 -0.43836,1.15567 -0.56787,1.61395 -0.56787,2.04234 0,1.0759668 0.87671,1.235369 1.33499,1.235369 1.67373,0 2.2416,-3.297629 2.2416,-3.815689 z"
           inkscape:connector-curvature="0" />
        <path
           id="equation_00_07"
           d="m 4.60274,-3.37733 c 0.04981,-0.21918 0.14944,-0.5878 0.14944,-0.64758 0,-0.17932 -0.13948,-0.26899 -0.28892,-0.26899 -0.11955,0 -0.29888,0.0797 -0.36861,0.27896 -0.02989,0.06973 -0.49814,1.9726 -0.56788,2.23163 -0.06973,0.29888 -0.08966,0.4782 -0.08966,0.65753 0,0.10959 0,0.129516 0.00996,0.179329 -0.22914,0.52802 -0.52802,0.836862 -0.91656,0.836862 -0.79701,0 -0.79701,-0.737235 -0.79701,-0.906601 0,-0.3188 0.04981,-0.70735 0.51806,-1.93275 0.10959,-0.29888 0.16936,-0.43836 0.16936,-0.63761 0,-0.44832 -0.32877,-0.81694 -0.81693,-0.81694 -0.946456,0 -1.315073,1.44459 -1.315073,1.53425 0,0.09963 0.099626,0.09963 0.119551,0.09963 0.099627,0 0.109589,-0.01993 0.159402,-0.17933 0.268992,-0.92653 0.65753,-1.23537 1.00623,-1.23537 0.08966,0 0.24906,0.00996 0.24906,0.32877 0,0.24906 -0.10959,0.52802 -0.17932,0.69738 -0.43836,1.17559 -0.55791,1.63388 -0.55791,2.01246 0,0.906597 0.66749,1.255289 1.41469,1.255289 0.16937,0 0.63761,0 1.03612,-0.697385 0.25903,0.6376092 0.94645,0.697385 1.24533,0.697385 0.7472,0 1.18555,-0.627646 1.44458,-1.225409 0.33873,-0.77708 0.65753,-2.11208 0.65753,-2.59028 0,-0.54795 -0.26899,-0.69739 -0.43835,-0.69739 -0.24907,0 -0.49813,0.25903 -0.49813,0.47821 0,0.12951 0.05977,0.18929 0.14944,0.26899 0.10958,0.10959 0.35865,0.36862 0.35865,0.84683 0,0.33873 -0.28892,1.31506 -0.54794,1.823159 -0.25903,0.52802 -0.60773,0.876712 -1.09589,0.876712 -0.46825,0 -0.73724,-0.298879 -0.73724,-0.86675 0,-0.278951 0.06974,-0.587791 0.10959,-0.727271 z"
           inkscape:connector-curvature="0" />
        <path
           id="equation_00_08"
           d="m 3.29763,2.39103 c 0,-0.02988 0,-0.04981 -0.16936,-0.21917 -1.24533,-1.255297 -1.56414,-3.138236 -1.56414,-4.66252 0,-1.7335 0.37858,-3.467 1.60399,-4.71233 0.12951,-0.11955 0.12951,-0.13948 0.12951,-0.16936 0,-0.06974 -0.03985,-0.09963 -0.09962,-0.09963 -0.09963,0 -0.99627,0.67746 -1.58406,1.94271 -0.5081,1.0959 -0.627649,2.20175 -0.627649,3.03861 0,0.77709 0.109589,1.982565 0.657539,3.108344 0.59775,1.225406 1.45454,1.872976 1.55417,1.872976 0.05977,0 0.09962,-0.02989 0.09962,-0.09963 z"
           inkscape:connector-curvature="0" />
        <path
           id="equation_00_09"
           d="m 2.8792,-2.49066 c 0,-0.77709 -0.10959,-1.98257 -0.65753,-3.10834 -0.59776,-1.22541 -1.454547,-1.87298 -1.554173,-1.87298 -0.059776,0 -0.099627,0.03985 -0.099627,0.09963 0,0.02988 0,0.04981 0.189291,0.22914 0.976339,0.9863 1.544209,2.57036 1.544209,4.65255 0,1.703611 -0.36862,3.457036 -1.603985,4.71233 C 0.56787,2.34122 0.56787,2.36115 0.56787,2.39103 c 0,0.05978 0.039851,0.09963 0.099627,0.09963 0.099626,0 0.996263,-0.67746 1.584063,-1.942715 C 2.75965,-0.547945 2.8792,-1.6538 2.8792,-2.49066 Z"
           inkscape:connector-curvature="0" />
      </defs>
      <g
         id="equation_00_g">
        <use
           id="use1575"
           y="62.764599"
           xlink:href="#equation_00_08"
           x="76.712303"
           width="100%"
           height="100%" />
        <use
           id="use1577"
           y="62.764599"
           xlink:href="#equation_00_07"
           x="80.5867"
           width="100%"
           height="100%" />
        <use
           id="use1579"
           y="64.259003"
           xlink:href="#equation_00_01"
           x="87.719101"
           width="100%"
           height="100%" />
        <use
           id="use1581"
           y="62.764599"
           xlink:href="#equation_00_05"
           x="92.188499"
           width="100%"
           height="100%" />
        <use
           id="use1583"
           y="62.764599"
           xlink:href="#equation_00_06"
           x="96.616302"
           width="100%"
           height="100%" />
        <use
           id="use1585"
           y="64.259003"
           xlink:href="#equation_00_01"
           x="101.445"
           width="100%"
           height="100%" />
        <use
           id="use1587"
           y="62.764599"
           xlink:href="#equation_00_09"
           x="105.915"
           width="100%"
           height="100%" />
        <use
           id="use1589"
           y="62.764599"
           xlink:href="#equation_00_05"
           x="109.789"
           width="100%"
           height="100%" />
        <use
           id="use1591"
           y="62.764599"
           xlink:href="#equation_00_04"
           x="114.217"
           width="100%"
           height="100%" />
        <use
           id="use1593"
           y="62.764599"
           xlink:href="#equation_00_04"
           x="118.645"
           width="100%"
           height="100%" />
        <use
           id="use1595"
           y="62.764599"
           xlink:href="#equation_00_04"
           x="123.073"
           width="100%"
           height="100%" />
        <use
           id="use1597"
           y="62.764599"
           xlink:href="#equation_00_05"
           x="127.5"
           width="100%"
           height="100%" />
        <use
           id="use1599"
           y="62.764599"
           xlink:href="#equation_00_08"
           x="131.92799"
           width="100%"
           height="100%" />
        <use
           id="use1601"
           y="62.764599"
           xlink:href="#equation_00_07"
           x="135.80299"
           width="100%"
           height="100%" />
        <use
           id="use1603"
           y="64.259003"
           xlink:href="#equation_00_03"
           x="142.935"
           width="100%"
           height="100%" />
        <use
           id="use1605"
           y="64.259003"
           xlink:href="#equation_00_00"
           x="145.754"
           width="100%"
           height="100%" />
        <use
           id="use1607"
           y="64.259003"
           xlink:href="#equation_00_02"
           x="151.98"
           width="100%"
           height="100%" />
        <use
           id="use1609"
           y="62.764599"
           xlink:href="#equation_00_05"
           x="156.45"
           width="100%"
           height="100%" />
        <use
           id="use1611"
           y="62.764599"
           xlink:href="#equation_00_06"
           x="160.87801"
           width="100%"
           height="100%" />
        <use
           id="use1613"
           y="64.259003"
           xlink:href="#equation_00_03"
           x="165.707"
           width="100%"
           height="100%" />
        <use
           id="use1615"
           y="64.259003"
           xlink:href="#equation_00_00"
           x="168.52499"
           width="100%"
           height="100%" />
        <use
           id="use1617"
           y="64.259003"
           xlink:href="#equation_00_02"
           x="174.752"
           width="100%"
           height="100%" />
        <use
           id="use1619"
           y="62.764599"
           xlink:href="#equation_00_09"
           x="179.22099"
           width="100%"
           height="100%" />
        <use
           id="use1621"
           y="62.764599"
           xlink:href="#equation_00_05"
           x="183.09599"
           width="100%"
           height="100%" />
        <use
           id="use1623"
           y="62.764599"
           xlink:href="#equation_00_08"
           x="187.524"
           width="100%"
           height="100%" />
        <use
           id="use1625"
           y="62.764599"
           xlink:href="#equation_00_07"
           x="191.39799"
           width="100%"
           height="100%" />
        <use
           id="use1627"
           y="64.259003"
           xlink:href="#equation_00_03"
           x="198.53"
           width="100%"
           height="100%" />
        <use
           id="use1629"
           y="62.764599"
           xlink:href="#equation_00_05"
           x="201.847"
           width="100%"
           height="100%" />
        <use
           id="use1631"
           y="62.764599"
           xlink:href="#equation_00_06"
           x="206.27499"
           width="100%"
           height="100%" />
        <use
           id="use1633"
           y="64.259003"
           xlink:href="#equation_00_03"
           x="211.104"
           width="100%"
           height="100%" />
        <use
           id="use1635"
           y="62.764599"
           xlink:href="#equation_00_09"
           x="214.42101"
           width="100%"
           height="100%" />
      </g>
    </g>
    <g
       title="$(w_{n_0}, v_{n_0}), \ldots ,(w_{n_{j-1}},v_{n_{j-1}}),(w_{n_j},v_{n_j})$"
       style="fill:#000000"
       id="equation_01"
       transform="translate(-92.024563,13.080471)">
      <defs
         id="defs1748">
        <path
           id="equation_01_00"
           d="m 4.38356,-1.10585 c 0.0797,0 0.2142,0 0.2142,-0.13948 0,-0.13948 -0.1345,-0.13948 -0.2142,-0.13948 H 1.01121 c -0.079703,0 -0.214199,0 -0.214199,0.13948 0,0.13948 0.134496,0.13948 0.214199,0.13948 z"
           inkscape:connector-curvature="0" />
        <path
           id="equation_01_01"
           d="m 0.850809,-0.439352 c -0.027895,0.09066 -0.069738,0.265006 -0.069738,0.285927 0,0.153425 0.125529,0.2231635 0.237109,0.2231635 0.12553,0 0.23711,-0.09066 0.27198,-0.1534247 0.03487,-0.0627647 0.09066,-0.2859278 0.12553,-0.4323788 0.03487,-0.132503 0.11158,-0.4533 0.15343,-0.627645 0.04184,-0.15343 0.08368,-0.30685 0.11855,-0.46725 0.07671,-0.28593 0.09066,-0.34172 0.2929,-0.62765 0.19527,-0.27895 0.52304,-0.64159 1.04608,-0.64159 0.40448,0 0.41146,0.35567 0.41146,0.48817 0,0.41843 -0.29988,1.19253 -0.41146,1.48543 -0.07671,0.195267 -0.10461,0.258032 -0.10461,0.376588 0,0.369613 0.30685,0.5997505 0.66252,0.5997505 0.69738,0 1.00423,-0.9623915 1.00423,-1.0669985 0,-0.09066 -0.09066,-0.09066 -0.11158,-0.09066 -0.09763,0 -0.10461,0.04184 -0.1325,0.118555 -0.1604,0.557908 -0.46028,0.843836 -0.73923,0.843836 -0.14645,0 -0.17435,-0.097634 -0.17435,-0.244085 0,-0.160398 0.03487,-0.251058 0.1604,-0.564882 0.08369,-0.216184 0.36962,-0.955414 0.36962,-1.345954 0,-0.67646 -0.53699,-0.79502 -0.9066,-0.79502 -0.57883,0 -0.96937,0.35567 -1.17858,0.63462 -0.04882,-0.48119 -0.46028,-0.63462 -0.74621,-0.63462 -0.299872,0 -0.460271,0.21619 -0.550931,0.37659 -0.153424,0.25803 -0.251058,0.65554 -0.251058,0.69041 0,0.09066 0.097634,0.09066 0.118555,0.09066 0.097634,0 0.104608,-0.02092 0.153425,-0.20921 0.104608,-0.41146 0.237111,-0.75318 0.509089,-0.75318 0.18132,0 0.23014,0.15343 0.23014,0.34172 0,0.1325 -0.06277,0.39053 -0.11158,0.57883 -0.04881,0.1883 -0.11856,0.47422 -0.15343,0.62765 z"
           inkscape:connector-curvature="0" />
        <path
           id="equation_01_02"
           d="m 1.91283,-0.52802 c 0,-0.288916 -0.23911,-0.52802 -0.52802,-0.52802 -0.28891,0 -0.528023,0.239104 -0.528023,0.52802 C 0.856787,-0.239104 1.09589,0 1.38481,0 1.67373,0 1.91283,-0.239103 1.91283,-0.52802 Z"
           inkscape:connector-curvature="0" />
        <path
           id="equation_01_03"
           d="M 2.02242,-0.00996264 C 2.02242,-0.667497 1.77335,-1.05604 1.38481,-1.05604 c -0.32877,0 -0.528023,0.249066 -0.528023,0.52802 C 0.856787,-0.259029 1.05604,0 1.38481,0 1.50436,0 1.63387,-0.0398506 1.7335,-0.129514 1.76339,-0.14944 1.77335,-0.159402 1.78331,-0.159402 c 0.00996,0 0.01993,0.009962 0.01993,0.14943936 C 1.80324,0.727273 1.45455,1.32503 1.12578,1.6538 1.01619,1.76339 1.01619,1.78331 1.01619,1.8132 c 0,0.06974 0.04981,0.10959 0.09963,0.10959 0.10958,0 0.9066,-0.76712 0.9066,-1.93275264 z"
           inkscape:connector-curvature="0" />
        <path
           id="equation_01_04"
           d="m 4.66252,-3.7061 c 0,-0.53798 -0.25903,-0.69739 -0.43836,-0.69739 -0.24907,0 -0.48817,0.25903 -0.48817,0.47821 0,0.12951 0.04981,0.18929 0.1594,0.29888 0.20922,0.19925 0.33873,0.45828 0.33873,0.81694 0,0.41843 -0.60772,2.699871 -1.77335,2.699871 -0.50809,0 -0.73723,-0.348692 -0.73723,-0.86675 0,-0.557911 0.26899,-1.285181 0.57783,-2.112081 0.06974,-0.16936 0.11955,-0.30884 0.11955,-0.49813 0,-0.44832 -0.3188,-0.81694 -0.81693,-0.81694 -0.936493,0 -1.315073,1.44459 -1.315073,1.53425 0,0.09963 0.099626,0.09963 0.119551,0.09963 0.099627,0 0.109589,-0.01993 0.159402,-0.17933 0.288917,-1.00623 0.71731,-1.23537 1.00623,-1.23537 0.0797,0 0.24906,0 0.24906,0.31881 0,0.24906 -0.09962,0.51805 -0.16936,0.69738 -0.43836,1.15567 -0.56787,1.61395 -0.56787,2.04234 0,1.0759668 0.87671,1.235369 1.33499,1.235369 1.67373,0 2.2416,-3.297629 2.2416,-3.815689 z"
           inkscape:connector-curvature="0" />
        <path
           id="equation_01_05"
           d="m 4.60274,-3.37733 c 0.04981,-0.21918 0.14944,-0.5878 0.14944,-0.64758 0,-0.17932 -0.13948,-0.26899 -0.28892,-0.26899 -0.11955,0 -0.29888,0.0797 -0.36861,0.27896 -0.02989,0.06973 -0.49814,1.9726 -0.56788,2.23163 -0.06973,0.29888 -0.08966,0.4782 -0.08966,0.65753 0,0.10959 0,0.129516 0.00996,0.179329 -0.22914,0.52802 -0.52802,0.836862 -0.91656,0.836862 -0.79701,0 -0.79701,-0.737235 -0.79701,-0.906601 0,-0.3188 0.04981,-0.70735 0.51806,-1.93275 0.10959,-0.29888 0.16936,-0.43836 0.16936,-0.63761 0,-0.44832 -0.32877,-0.81694 -0.81693,-0.81694 -0.946456,0 -1.315073,1.44459 -1.315073,1.53425 0,0.09963 0.099626,0.09963 0.119551,0.09963 0.099627,0 0.109589,-0.01993 0.159402,-0.17933 0.268992,-0.92653 0.65753,-1.23537 1.00623,-1.23537 0.08966,0 0.24906,0.00996 0.24906,0.32877 0,0.24906 -0.10959,0.52802 -0.17932,0.69738 -0.43836,1.17559 -0.55791,1.63388 -0.55791,2.01246 0,0.906597 0.66749,1.255289 1.41469,1.255289 0.16937,0 0.63761,0 1.03612,-0.697385 0.25903,0.6376092 0.94645,0.697385 1.24533,0.697385 0.7472,0 1.18555,-0.627646 1.44458,-1.225409 0.33873,-0.77708 0.65753,-2.11208 0.65753,-2.59028 0,-0.54795 -0.26899,-0.69739 -0.43835,-0.69739 -0.24907,0 -0.49813,0.25903 -0.49813,0.47821 0,0.12951 0.05977,0.18929 0.14944,0.26899 0.10958,0.10959 0.35865,0.36862 0.35865,0.84683 0,0.33873 -0.28892,1.31506 -0.54794,1.823159 -0.25903,0.52802 -0.60773,0.876712 -1.09589,0.876712 -0.46825,0 -0.73724,-0.298879 -0.73724,-0.86675 0,-0.278951 0.06974,-0.587791 0.10959,-0.727271 z"
           inkscape:connector-curvature="0" />
        <path
           id="equation_01_06"
           d="m 2.54047,-3.10834 c 0,-0.11457 -0.08468,-0.2142 -0.21917,-0.2142 -0.15443,0 -0.30885,0.14944 -0.30885,0.29888 0,0.11955 0.09465,0.2142 0.21918,0.2142 0.16937,0 0.30884,-0.15941 0.30884,-0.29888 z M 1.45455,0.224159 C 1.3599,0.60274 1.04608,0.851806 0.742217,0.851806 0.657534,0.851806 0.60274,0.836862 0.562889,0.826899 0.682441,0.757161 0.71731,0.627646 0.71731,0.562889 c 0,-0.084682 -0.059776,-0.204234 -0.224159,-0.204234 -0.169365,0 -0.308842,0.154421 -0.308842,0.318805 0,0.214196 0.224159,0.34371 0.562889,0.34371 0.33873,0 0.986302,-0.174346 1.140722,-0.792029 L 2.33624,-1.55417 c 0.00996,-0.04982 0.02491,-0.09465 0.02491,-0.16439 0,-0.28393 -0.26401,-0.48318 -0.61271,-0.48318 -0.60274,0 -0.971354,0.67247 -0.971354,0.7721 0,0.06974 0.079701,0.06974 0.104608,0.06974 0.074719,0 0.084682,-0.01993 0.109589,-0.06974 0.229137,-0.48817 0.567867,-0.60274 0.737237,-0.60274 0.19925,0 0.20921,0.17933 0.20921,0.26401 0,0.06974 -0.00498,0.08967 -0.01494,0.12952 z"
           inkscape:connector-curvature="0" />
        <path
           id="equation_01_07"
           d="m 2.99377,-1.59402 c 0,-0.35866 0,-1.72354 -1.30012,-1.72354 -1.30012,0 -1.300126,1.36488 -1.300126,1.72354 0,0.36363 0,1.703609 1.300126,1.703609 1.300126,0 1.30012,-1.339979 1.30012,-1.703609 z m -1.30012,1.5392255 c -0.18431,0 -0.60274,-0.0647575 -0.727274,-0.5678705 -0.069738,-0.268991 -0.07472,-0.622665 -0.07472,-1.031135 0,-0.36862 0,-0.71233 0.079701,-0.99626 0.124533,-0.41843 0.508093,-0.50312 0.722293,-0.50312 0.36862,0 0.63263,0.18929 0.73225,0.53799 0.06974,0.25404 0.06974,0.66749 0.06974,0.96139 0,0.33873 0,0.742218 -0.07472,1.041098 -0.12951,0.483188 -0.52802,0.5579075 -0.72727,0.5579075 z"
           inkscape:connector-curvature="0" />
        <path
           id="equation_01_08"
           d="m 1.98257,-3.16812 c 0,-0.14944 -0.01495,-0.14944 -0.17933,-0.14944 -0.35368,0.31881 -0.906602,0.31881 -1.006229,0.31881 H 0.712329 v 0.21917 h 0.084682 c 0.114571,0 0.438359,-0.01494 0.727269,-0.13947 v 2.490656 c 0,0.154421 0,0.209216 -0.528016,0.209216 H 0.747198 V 0 C 1.02117,-0.0199253 1.46451,-0.0199253 1.75342,-0.0199253 c 0.28891,0 0.73226,0 1.00623,0.0199253 V -0.219178 H 2.51059 c -0.52802,0 -0.52802,-0.054795 -0.52802,-0.209216 z"
           inkscape:connector-curvature="0" />
        <path
           id="equation_01_09"
           d="m 3.29763,2.39103 c 0,-0.02988 0,-0.04981 -0.16936,-0.21917 -1.24533,-1.255297 -1.56414,-3.138236 -1.56414,-4.66252 0,-1.7335 0.37858,-3.467 1.60399,-4.71233 0.12951,-0.11955 0.12951,-0.13948 0.12951,-0.16936 0,-0.06974 -0.03985,-0.09963 -0.09962,-0.09963 -0.09963,0 -0.99627,0.67746 -1.58406,1.94271 -0.5081,1.0959 -0.627649,2.20175 -0.627649,3.03861 0,0.77709 0.109589,1.982565 0.657539,3.108344 0.59775,1.225406 1.45454,1.872976 1.55417,1.872976 0.05977,0 0.09962,-0.02989 0.09962,-0.09963 z"
           inkscape:connector-curvature="0" />
        <path
           id="equation_01_10"
           d="m 2.8792,-2.49066 c 0,-0.77709 -0.10959,-1.98257 -0.65753,-3.10834 -0.59776,-1.22541 -1.454547,-1.87298 -1.554173,-1.87298 -0.059776,0 -0.099627,0.03985 -0.099627,0.09963 0,0.02988 0,0.04981 0.189291,0.22914 0.976339,0.9863 1.544209,2.57036 1.544209,4.65255 0,1.703611 -0.36862,3.457036 -1.603985,4.71233 C 0.56787,2.34122 0.56787,2.36115 0.56787,2.39103 c 0,0.05978 0.039851,0.09963 0.099627,0.09963 0.099626,0 0.996263,-0.67746 1.584063,-1.942715 C 2.75965,-0.547945 2.8792,-1.6538 2.8792,-2.49066 Z"
           inkscape:connector-curvature="0" />
      </defs>
      <g
         id="equation_01_g">
        <use
           id="use1750"
           y="62.764599"
           xlink:href="#equation_01_09"
           x="76.712303"
           width="100%"
           height="100%" />
        <use
           id="use1752"
           y="62.764599"
           xlink:href="#equation_01_05"
           x="80.5867"
           width="100%"
           height="100%" />
        <use
           id="use1754"
           y="64.259003"
           xlink:href="#equation_01_01"
           x="87.719101"
           width="100%"
           height="100%" />
        <use
           id="use1756"
           y="65.255302"
           xlink:href="#equation_01_07"
           x="92.643997"
           width="100%"
           height="100%" />
        <use
           id="use1758"
           y="62.764599"
           xlink:href="#equation_01_03"
           x="97.030403"
           width="100%"
           height="100%" />
        <use
           id="use1760"
           y="62.764599"
           xlink:href="#equation_01_04"
           x="101.458"
           width="100%"
           height="100%" />
        <use
           id="use1762"
           y="64.259003"
           xlink:href="#equation_01_01"
           x="106.287"
           width="100%"
           height="100%" />
        <use
           id="use1764"
           y="65.255302"
           xlink:href="#equation_01_07"
           x="111.212"
           width="100%"
           height="100%" />
        <use
           id="use1766"
           y="62.764599"
           xlink:href="#equation_01_10"
           x="115.599"
           width="100%"
           height="100%" />
        <use
           id="use1768"
           y="62.764599"
           xlink:href="#equation_01_03"
           x="119.473"
           width="100%"
           height="100%" />
        <use
           id="use1770"
           y="62.764599"
           xlink:href="#equation_01_02"
           x="123.901"
           width="100%"
           height="100%" />
        <use
           id="use1772"
           y="62.764599"
           xlink:href="#equation_01_02"
           x="128.32899"
           width="100%"
           height="100%" />
        <use
           id="use1774"
           y="62.764599"
           xlink:href="#equation_01_02"
           x="132.756"
           width="100%"
           height="100%" />
        <use
           id="use1776"
           y="62.764599"
           xlink:href="#equation_01_03"
           x="137.18401"
           width="100%"
           height="100%" />
        <use
           id="use1778"
           y="62.764599"
           xlink:href="#equation_01_09"
           x="141.612"
           width="100%"
           height="100%" />
        <use
           id="use1780"
           y="62.764599"
           xlink:href="#equation_01_05"
           x="145.48599"
           width="100%"
           height="100%" />
        <use
           id="use1782"
           y="64.259003"
           xlink:href="#equation_01_01"
           x="152.619"
           width="100%"
           height="100%" />
        <use
           id="use1784"
           y="65.255302"
           xlink:href="#equation_01_06"
           x="157.54401"
           width="100%"
           height="100%" />
        <use
           id="use1786"
           y="65.255302"
           xlink:href="#equation_01_00"
           x="160.767"
           width="100%"
           height="100%" />
        <use
           id="use1788"
           y="65.255302"
           xlink:href="#equation_01_08"
           x="166.164"
           width="100%"
           height="100%" />
        <use
           id="use1790"
           y="62.764599"
           xlink:href="#equation_01_03"
           x="170.55"
           width="100%"
           height="100%" />
        <use
           id="use1792"
           y="62.764599"
           xlink:href="#equation_01_04"
           x="174.978"
           width="100%"
           height="100%" />
        <use
           id="use1794"
           y="64.259003"
           xlink:href="#equation_01_01"
           x="179.80701"
           width="100%"
           height="100%" />
        <use
           id="use1796"
           y="65.255302"
           xlink:href="#equation_01_06"
           x="184.73199"
           width="100%"
           height="100%" />
        <use
           id="use1798"
           y="65.255302"
           xlink:href="#equation_01_00"
           x="187.95599"
           width="100%"
           height="100%" />
        <use
           id="use1800"
           y="65.255302"
           xlink:href="#equation_01_08"
           x="193.35201"
           width="100%"
           height="100%" />
        <use
           id="use1802"
           y="62.764599"
           xlink:href="#equation_01_10"
           x="197.739"
           width="100%"
           height="100%" />
        <use
           id="use1804"
           y="62.764599"
           xlink:href="#equation_01_03"
           x="201.61301"
           width="100%"
           height="100%" />
        <use
           id="use1806"
           y="62.764599"
           xlink:href="#equation_01_09"
           x="206.041"
           width="100%"
           height="100%" />
        <use
           id="use1808"
           y="62.764599"
           xlink:href="#equation_01_05"
           x="209.91499"
           width="100%"
           height="100%" />
        <use
           id="use1810"
           y="64.259003"
           xlink:href="#equation_01_01"
           x="217.048"
           width="100%"
           height="100%" />
        <use
           id="use1812"
           y="65.255302"
           xlink:href="#equation_01_06"
           x="221.97301"
           width="100%"
           height="100%" />
        <use
           id="use1814"
           y="62.764599"
           xlink:href="#equation_01_03"
           x="226.19299"
           width="100%"
           height="100%" />
        <use
           id="use1816"
           y="62.764599"
           xlink:href="#equation_01_04"
           x="230.62"
           width="100%"
           height="100%" />
        <use
           id="use1818"
           y="64.259003"
           xlink:href="#equation_01_01"
           x="235.45"
           width="100%"
           height="100%" />
        <use
           id="use1820"
           y="65.255302"
           xlink:href="#equation_01_06"
           x="240.37399"
           width="100%"
           height="100%" />
        <use
           id="use1822"
           y="62.764599"
           xlink:href="#equation_01_10"
           x="244.59399"
           width="100%"
           height="100%" />
      </g>
    </g>
    <rect
       style="opacity:1;fill:none;fill-opacity:1;fill-rule:nonzero;stroke:#ff0000;stroke-width:0.94297391;stroke-miterlimit:4;stroke-dasharray:none;stroke-dashoffset:0;stroke-opacity:0.98360656"
       id="rect1879"
       width="32.512272"
       height="16.676516"
       x="161.79027"
       y="38.252506" />
    <rect
       style="opacity:1;fill:none;fill-opacity:1;fill-rule:nonzero;stroke:#ff0000;stroke-width:0.94297391;stroke-miterlimit:4;stroke-dasharray:none;stroke-dashoffset:0;stroke-opacity:0.98360656"
       id="rect1879-9"
       width="32.512272"
       height="16.676516"
       x="161.77065"
       y="65.466805" />
    <rect
       style="opacity:1;fill:#ff0000;fill-opacity:1;fill-rule:nonzero;stroke:#ff0000;stroke-width:1;stroke-miterlimit:4;stroke-dasharray:none;stroke-dashoffset:0;stroke-opacity:0.98360656"
       id="rect1898"
       width="3.1404169"
       height="6.7485552"
       x="175.72971"
       y="56.724686" />
    <path
       sodipodi:type="star"
       style="opacity:1;fill:#ff0000;fill-opacity:1;fill-rule:nonzero;stroke:#ff0000;stroke-width:1;stroke-miterlimit:4;stroke-dasharray:none;stroke-dashoffset:0;stroke-opacity:0.98360656"
       id="path1900"
       sodipodi:sides="3"
       sodipodi:cx="177.46696"
       sodipodi:cy="63.740509"
       sodipodi:r1="3.7513068"
       sodipodi:r2="1.8756531"
       sodipodi:arg1="1.5707963"
       sodipodi:arg2="2.6179939"
       inkscape:flatsided="true"
       inkscape:rounded="0"
       inkscape:randomized="0"
       d="m 177.46696,67.491816 -3.24872,-5.62696 6.49745,0 z"
       inkscape:transform-center-x="2.4487781e-06"
       inkscape:transform-center-y="0.93782588" />
    <g
       title="$T_2'$"
       style="fill:#000000"
       id="equation_04"
       transform="translate(-118.26676,14.165285)">
      <defs
         id="defs2337">
        <path
           id="equation_04_00"
           d="m 2.02242,-3.29166 c 0.05579,-0.11855 0.06276,-0.17434 0.06276,-0.22316 0,-0.21619 -0.19527,-0.38356 -0.41146,-0.38356 -0.265,0 -0.34869,0.21619 -0.38356,0.32777 l -0.920546,3.019676 c -0.006974,0.013948 -0.034869,0.104608 -0.034869,0.111582 0,0.083686 0.216189,0.153424 0.27198,0.153424 0.048817,0 0.055791,-0.013947 0.104608,-0.118555 z"
           inkscape:connector-curvature="0" />
        <path
           id="equation_04_01"
           d="m 4.25405,-6.04732 c 0.06974,-0.27896 0.10959,-0.33873 0.22914,-0.36862 0.08966,-0.01993 0.41843,-0.01993 0.62764,-0.01993 1.00623,0 1.45455,0.03986 1.45455,0.81694 0,0.14944 -0.03985,0.53798 -0.0797,0.79701 -0.00996,0.03985 -0.02989,0.1594 -0.02989,0.18929 0,0.05978 0.02989,0.12952 0.11955,0.12952 0.10959,0 0.12952,-0.0797 0.14944,-0.22914 l 0.26899,-1.7335 C 7.00374,-6.5056 7.0137,-6.60523 7.0137,-6.63512 c 0,-0.10959 -0.09963,-0.10959 -0.26899,-0.10959 H 1.21544 c -0.239101,0 -0.249064,0.00997 -0.318802,0.19926 l -0.597759,1.75342 c -0.009962,0.01993 -0.059776,0.1594 -0.059776,0.17933 0,0.05977 0.049814,0.10959 0.119552,0.10959 0.099626,0 0.109589,-0.04982 0.169365,-0.20922 C 1.066,-6.25654 1.32503,-6.43587 2.7995,-6.43587 h 0.38854 c 0.27896,0 0.27896,0.03986 0.27896,0.11956 0,0.05977 -0.02989,0.17932 -0.03985,0.20921 l -1.335,5.320051 c -0.08966,0.368618 -0.11955,0.478207 -1.18555,0.478207 -0.358655,0 -0.418431,0 -0.418431,0.18929 C 0.488169,0 0.597758,0 0.657534,0 0.926526,0 1.20548,-0.0199253 1.47447,-0.0199253 c 0.27895,0 0.56787,-0.0099626 0.84683,-0.0099626 0.27896,0 0.5579,0.0099626 0.82689,0.0099626 C 3.43711,-0.0199253 3.73599,0 4.01494,0 c 0.09963,0 0.21918,0 0.21918,-0.199253 0,-0.109589 -0.0797,-0.109589 -0.33873,-0.109589 -0.24906,0 -0.37858,0 -0.63761,-0.019925 -0.28891,-0.029888 -0.36861,-0.059776 -0.36861,-0.219178 0,-0.009963 0,-0.059776 0.03985,-0.209216 z"
           inkscape:connector-curvature="0" />
        <path
           id="equation_04_02"
           d="M 3.52179,-1.26924 H 3.28468 C 3.26376,-1.11582 3.19402,-0.704359 3.10336,-0.63462 3.04757,-0.592777 2.51059,-0.592777 2.41295,-0.592777 H 1.12976 C 1.86202,-1.24134 2.1061,-1.43661 2.52453,-1.76438 3.0406,-2.17584 3.52179,-2.60822 3.52179,-3.27073 c 0,-0.84384 -0.73922,-1.35991 -1.63188,-1.35991 -0.86475,0 -1.450558,0.60673 -1.450558,1.24832 0,0.35567 0.299876,0.39054 0.369614,0.39054 0.167373,0 0.369614,-0.11856 0.369614,-0.36961 0,-0.12553 -0.04882,-0.36962 -0.411457,-0.36962 0.21619,-0.49514 0.690407,-0.64857 1.018187,-0.64857 0.69738,0 1.06002,0.54396 1.06002,1.10885 0,0.60672 -0.43238,1.08792 -0.65554,1.33897 L 0.509091,-0.27198 C 0.439352,-0.209215 0.439352,-0.195268 0.439352,0 H 3.31258 Z"
           inkscape:connector-curvature="0" />
      </defs>
      <g
         id="equation_04_g">
        <use
           id="use2339"
           y="62.764599"
           xlink:href="#equation_04_01"
           x="76.712303"
           width="100%"
           height="100%" />
        <use
           id="use2341"
           y="59.1493"
           xlink:href="#equation_04_00"
           x="83.917999"
           width="100%"
           height="100%" />
        <use
           id="use2343"
           y="65.237503"
           xlink:href="#equation_04_02"
           x="82.534302"
           width="100%"
           height="100%" />
      </g>
    </g>
    <g
       title="$T_2 (Sorted in weight)$"
       style="fill:#000000"
       id="equation_05"
       transform="translate(-118.4004,-13.096207)">
      <defs
         id="defs2516">
        <path
           id="equation_05_00"
           d="m 6.4259,-6.92403 c 0,-0.02989 -0.01992,-0.09963 -0.10959,-0.09963 -0.04981,0 -0.05977,0.00996 -0.17932,0.14944 L 5.65878,-6.30635 C 5.39975,-6.7746 4.88169,-7.02366 4.23412,-7.02366 c -1.26525,0 -2.46077,1.1457 -2.46077,2.35118 0,0.80698 0.52802,1.26526 1.03611,1.4147 l 1.06601,0.27895 c 0.36861,0.08966 0.91656,0.2391 0.91656,1.05604 0,0.89664 -0.81694,1.8331262 -1.79328,1.8331262 -0.6376,0 -1.74346,-0.2191782 -1.74346,-1.4545462 0,-0.2391 0.04982,-0.47821 0.05978,-0.53798 0.00996,-0.03985 0.01992,-0.04981 0.01992,-0.06974 0,-0.09963 -0.06973,-0.10959 -0.11955,-0.10959 -0.04982,0 -0.06974,0.00996 -0.09962,0.03985 -0.03985,0.03985 -0.597763,2.3113338 -0.597763,2.341222 0,0.059776 0.049813,0.099626 0.109589,0.099626 0.049814,0 0.059776,-0.009963 0.179328,-0.1494395 L 1.29514,-0.498132 c 0.4284,0.5778331 1.10586,0.71731 1.68369,0.71731 1.35492,0 2.53051,-1.325028 2.53051,-2.560398 0,-0.68742 -0.33873,-1.02615 -0.48817,-1.16563 C 4.79203,-3.73599 4.64259,-3.77584 3.75592,-4.00498 3.53674,-4.06476 3.17808,-4.16438 3.08842,-4.18431 2.81943,-4.27397 2.4807,-4.56289 2.4807,-5.09091 c 0,-0.80697 0.79701,-1.6538 1.74346,-1.6538 0.8269,0 1.43462,0.4284 1.43462,1.54421 0,0.31881 -0.03985,0.49813 -0.03985,0.55791 0,0.00996 0,0.09963 0.11955,0.09963 0.09963,0 0.10959,-0.02989 0.14944,-0.19926 z"
           inkscape:connector-curvature="0" />
        <path
           id="equation_05_01"
           d="m 4.25405,-6.04732 c 0.06974,-0.27896 0.10959,-0.33873 0.22914,-0.36862 0.08966,-0.01993 0.41843,-0.01993 0.62764,-0.01993 1.00623,0 1.45455,0.03986 1.45455,0.81694 0,0.14944 -0.03985,0.53798 -0.0797,0.79701 -0.00996,0.03985 -0.02989,0.1594 -0.02989,0.18929 0,0.05978 0.02989,0.12952 0.11955,0.12952 0.10959,0 0.12952,-0.0797 0.14944,-0.22914 l 0.26899,-1.7335 C 7.00374,-6.5056 7.0137,-6.60523 7.0137,-6.63512 c 0,-0.10959 -0.09963,-0.10959 -0.26899,-0.10959 H 1.21544 c -0.239101,0 -0.249064,0.00997 -0.318802,0.19926 l -0.597759,1.75342 c -0.009962,0.01993 -0.059776,0.1594 -0.059776,0.17933 0,0.05977 0.049814,0.10959 0.119552,0.10959 0.099626,0 0.109589,-0.04982 0.169365,-0.20922 C 1.066,-6.25654 1.32503,-6.43587 2.7995,-6.43587 h 0.38854 c 0.27896,0 0.27896,0.03986 0.27896,0.11956 0,0.05977 -0.02989,0.17932 -0.03985,0.20921 l -1.335,5.320051 c -0.08966,0.368618 -0.11955,0.478207 -1.18555,0.478207 -0.358655,0 -0.418431,0 -0.418431,0.18929 C 0.488169,0 0.597758,0 0.657534,0 0.926526,0 1.20548,-0.0199253 1.47447,-0.0199253 c 0.27895,0 0.56787,-0.0099626 0.84683,-0.0099626 0.27896,0 0.5579,0.0099626 0.82689,0.0099626 C 3.43711,-0.0199253 3.73599,0 4.01494,0 c 0.09963,0 0.21918,0 0.21918,-0.199253 0,-0.109589 -0.0797,-0.109589 -0.33873,-0.109589 -0.24906,0 -0.37858,0 -0.63761,-0.019925 -0.28891,-0.029888 -0.36861,-0.059776 -0.36861,-0.219178 0,-0.009963 0,-0.059776 0.03985,-0.209216 z"
           inkscape:connector-curvature="0" />
        <path
           id="equation_05_02"
           d="m 5.14072,-6.80448 c 0,-0.00997 0,-0.10959 -0.12951,-0.10959 -0.14944,0 -1.09589,0.08966 -1.26526,0.10959 -0.0797,0.00996 -0.13947,0.05977 -0.13947,0.18929 0,0.11955 0.08966,0.11955 0.2391,0.11955 0.47821,0 0.49813,0.06974 0.49813,0.16936 L 4.31382,-6.12702 3.71606,-3.76588 C 3.53674,-4.1345 3.24782,-4.40349 2.7995,-4.40349 c -1.16563,0 -2.400994,1.46451 -2.400994,2.91906 0,0.936485 0.547945,1.594019 1.325034,1.594019 0.19925,0 0.69738,-0.0398505 1.29514,-0.747198 0.0797,0.418431 0.42839,0.747198 0.9066,0.747198 0.34869,0 0.57783,-0.229141 0.73724,-0.547945 0.16936,-0.358655 0.29887,-0.966374 0.29887,-0.986304 0,-0.09962 -0.08966,-0.09962 -0.11955,-0.09962 -0.09962,0 -0.10959,0.03985 -0.13947,0.17932 -0.16937,0.647575 -0.3487,1.235371 -0.75716,1.235371 -0.269,0 -0.29888,-0.259029 -0.29888,-0.458281 0,-0.239104 0.01992,-0.308842 0.05977,-0.47821 z m -2.07223,5.61893 c -0.04981,0.17932 -0.04981,0.199249 -0.19925,0.368614 -0.43836,0.547945 -0.84682,0.707347 -1.12578,0.707347 -0.49813,0 -0.63761,-0.547945 -0.63761,-0.936491 0,-0.49813 0.31881,-1.72353 0.54795,-2.18182 0.30884,-0.58779 0.75716,-0.95641 1.15566,-0.95641 0.64758,0 0.78705,0.81694 0.78705,0.87671 0,0.05977 -0.01992,0.11956 -0.02988,0.16937 z"
           inkscape:connector-curvature="0" />
        <path
           id="equation_05_03"
           d="m 1.86301,-2.30137 c 0.28892,0 1.02616,-0.01993 1.52429,-0.22914 0.69738,-0.29888 0.7472,-0.88668 0.7472,-1.02615 0,-0.43836 -0.37858,-0.84683 -1.06601,-0.84683 -1.10585,0 -2.610209,0.96638 -2.610209,2.70984 0,1.01619 0.587799,1.803239 1.564139,1.803239 1.42465,0 2.26152,-1.05604 2.26152,-1.175589 0,-0.05978 -0.05978,-0.12952 -0.11956,-0.12952 -0.04981,0 -0.06973,0.01993 -0.12951,0.09963 -0.78705,0.986301 -1.87298,0.986301 -1.99253,0.986301 -0.77708,0 -0.86675,-0.836862 -0.86675,-1.155671 0,-0.11955 0.00996,-0.42839 0.1594,-1.03611 z M 1.39477,-2.52055 c 0.38854,-1.51432 1.41469,-1.66376 1.67372,-1.66376 0.46825,0 0.73724,0.28892 0.73724,0.62765 0,1.03611 -1.59402,1.03611 -2.00249,1.03611 z"
           inkscape:connector-curvature="0" />
        <path
           id="equation_05_04"
           d="m 4.6924,-3.75592 c 0.00997,-0.05977 0.02989,-0.10958 0.02989,-0.17932 0,-0.16937 -0.11955,-0.26899 -0.28892,-0.26899 -0.09962,0 -0.36861,0.06973 -0.40846,0.42839 -0.17933,-0.36862 -0.52802,-0.62765 -0.92653,-0.62765 -1.13574,0 -2.371107,1.39477 -2.371107,2.82939 C 0.727273,-0.587796 1.33499,0 2.0523,0 2.6401,0 3.10834,-0.468244 3.20797,-0.577833 L 3.21793,-0.56787 C 3.00872,0.318804 2.88917,0.727273 2.88917,0.747198 2.84932,0.836862 2.51059,1.82316 1.45455,1.82316 1.26526,1.82316 0.936488,1.8132 0.657534,1.72354 0.956413,1.63387 1.066,1.37484 1.066,1.20548 c 0,-0.1594 -0.109587,-0.348693 -0.378578,-0.348693 -0.219178,0 -0.537982,0.179323 -0.537982,0.577833 0,0.40847 0.368617,0.60772 1.32503,0.60772 1.24533,0 1.96264,-0.77708 2.11208,-1.374843 z m -1.29514,2.4807 c -0.05978,0.25903 -0.28892,0.508097 -0.50809,0.697387 -0.20922,0.179327 -0.51806,0.358655 -0.80698,0.358655 -0.49813,0 -0.64757,-0.518057 -0.64757,-0.916562 0,-0.47821 0.28892,-1.6538 0.55791,-2.16189 0.26899,-0.48817 0.69738,-0.88668 1.11581,-0.88668 0.65754,0 0.79701,0.80698 0.79701,0.85679 0,0.04981 -0.01992,0.10959 -0.02988,0.14944 z"
           inkscape:connector-curvature="0" />
        <path
           id="equation_05_05"
           d="m 2.85928,-6.80448 c 0,-0.00997 0,-0.10959 -0.12952,-0.10959 -0.22914,0 -0.95641,0.0797 -1.21544,0.09962 -0.0797,0.00997 -0.18929,0.01993 -0.18929,0.19926 0,0.11955 0.08966,0.11955 0.2391,0.11955 0.47821,0 0.49814,0.06974 0.49814,0.16936 l -0.02989,0.19926 -1.444584,5.738477 c -0.039851,0.139477 -0.039851,0.159402 -0.039851,0.219178 0,0.2291408 0.199253,0.278954 0.288917,0.278954 0.159402,0 0.318808,-0.11955164 0.368618,-0.259029 L 1.39477,-0.9066 1.61395,-1.80324 c 0.05977,-0.21918 0.11955,-0.43835 0.16936,-0.66749 0.01993,-0.05978 0.09963,-0.38855 0.10959,-0.44832 0.02989,-0.08967 0.33873,-0.64758 0.67746,-0.91657 0.21918,-0.1594 0.52802,-0.34869 0.95641,-0.34869 0.42839,0 0.53799,0.33873 0.53799,0.69739 0,0.53798 -0.37858,1.62391 -0.61769,2.23163 -0.0797,0.22914 -0.12951,0.34869 -0.12951,0.547943 0,0.468244 0.34869,0.816936 0.81694,0.816936 0.93648,0 1.3051,-1.454549 1.3051,-1.534249 0,-0.09962 -0.08966,-0.09962 -0.11955,-0.09962 -0.09963,0 -0.09963,0.02988 -0.14944,0.17932 -0.14944,0.528024 -0.46824,1.235371 -1.01619,1.235371 -0.16936,0 -0.2391,-0.099626 -0.2391,-0.328767 0,-0.249066 0.08966,-0.48817 0.17933,-0.707344 0.1594,-0.4284 0.60772,-1.61395 0.60772,-2.19178 0,-0.64758 -0.39851,-1.06601 -1.14571,-1.06601 -0.62764,0 -1.10585,0.30884 -1.47447,0.76713 z"
           inkscape:connector-curvature="0" />
        <path
           id="equation_05_06"
           d="m 2.82939,-6.22665 c 0,-0.19925 -0.13948,-0.35866 -0.36862,-0.35866 -0.26899,0 -0.53798,0.25903 -0.53798,0.52802 0,0.18929 0.13948,0.35866 0.37858,0.35866 0.22914,0 0.52802,-0.22914 0.52802,-0.52802 z M 2.07223,-2.4807 c 0.11955,-0.28891 0.11955,-0.30884 0.21918,-0.57783 0.0797,-0.19925 0.12951,-0.33873 0.12951,-0.52802 0,-0.44832 -0.3188,-0.81694 -0.81693,-0.81694 -0.936493,0 -1.315073,1.44459 -1.315073,1.53425 0,0.09963 0.099626,0.09963 0.119551,0.09963 0.099627,0 0.109589,-0.01993 0.159402,-0.17933 0.268992,-0.93649 0.6675,-1.23537 1.00623,-1.23537 0.0797,0 0.24906,0 0.24906,0.31881 0,0.20921 -0.06974,0.41843 -0.10959,0.51805 -0.0797,0.25903 -0.52802,1.4147 -0.68742,1.84309 -0.099624,0.25903 -0.229139,0.587797 -0.229139,0.797013 0,0.468244 0.338729,0.816936 0.816939,0.816936 0.93649,0 1.3051,-1.444579 1.3051,-1.534249 0,-0.09962 -0.08966,-0.09962 -0.11955,-0.09962 -0.09962,0 -0.09962,0.02988 -0.14944,0.17932 -0.17933,0.62765 -0.50809,1.235371 -1.01619,1.235371 -0.16936,0 -0.2391,-0.099626 -0.2391,-0.328767 0,-0.249066 0.05978,-0.388543 0.28892,-0.996264 z"
           inkscape:connector-curvature="0" />
        <path
           id="equation_05_07"
           d="m 0.876712,-0.587796 c -0.029888,0.14944 -0.089663,0.378581 -0.089663,0.428394 0,0.1793273 0.139477,0.268991 0.288921,0.268991 0.11955,0 0.29887,-0.0797011 0.36861,-0.278954 C 1.45455,-0.18929 1.5741,-0.657534 1.63387,-0.9066 l 0.21918,-0.89664 c 0.05978,-0.21918 0.11955,-0.43835 0.16937,-0.66749 0.03985,-0.16937 0.11955,-0.45829 0.12951,-0.49814 0.14944,-0.30884 0.67746,-1.21544 1.62391,-1.21544 0.44832,0 0.53798,0.36862 0.53798,0.69739 0,0.61768 -0.48817,1.8929 -0.64757,2.32129 -0.08966,0.229142 -0.09962,0.348694 -0.09962,0.458283 0,0.468244 0.34869,0.816936 0.81693,0.816936 0.93649,0 1.30511,-1.454549 1.30511,-1.534249 0,-0.09962 -0.08967,-0.09962 -0.11955,-0.09962 -0.09963,0 -0.09963,0.02988 -0.14944,0.17932 -0.19926,0.677463 -0.52802,1.235371 -1.01619,1.235371 -0.16937,0 -0.23911,-0.099626 -0.23911,-0.328767 0,-0.249066 0.08967,-0.48817 0.17933,-0.707344 0.18929,-0.52802 0.60772,-1.62391 0.60772,-2.19178 0,-0.6675 -0.42839,-1.06601 -1.1457,-1.06601 -0.89664,0 -1.38481,0.63761 -1.55417,0.86675 -0.04982,-0.55791 -0.45828,-0.86675 -0.91657,-0.86675 -0.45829,0 -0.647568,0.38855 -0.747194,0.56787 -0.159402,0.33873 -0.298879,0.92653 -0.298879,0.96638 0,0.09963 0.099626,0.09963 0.119551,0.09963 0.099627,0 0.109589,-0.00997 0.169365,-0.22914 0.169365,-0.70735 0.368618,-1.18556 0.727277,-1.18556 0.19925,0 0.30884,0.12952 0.30884,0.45828 0,0.20922 -0.02989,0.31881 -0.1594,0.83686 z"
           inkscape:connector-curvature="0" />
        <path
           id="equation_05_08"
           d="m 4.67248,-2.7198 c 0,-1.03612 -0.69739,-1.68369 -1.59402,-1.68369 -1.335,0 -2.669992,1.4147 -2.669992,2.82939 0,0.986304 0.667502,1.683689 1.594022,1.683689 1.32503,0 2.66999,-1.374849 2.66999,-2.829389 z m -2.66003,2.610211 c -0.42839,0 -0.86675,-0.308842 -0.86675,-1.085931 0,-0.48817 0.25903,-1.56413 0.57784,-2.07223 0.49813,-0.76712 1.066,-0.91656 1.34495,-0.91656 0.57784,0 0.87672,0.47821 0.87672,1.07597 0,0.38854 -0.19926,1.43462 -0.57784,2.08219 -0.34869,0.577831 -0.89664,0.916561 -1.35492,0.916561 z"
           inkscape:connector-curvature="0" />
        <path
           id="equation_05_09"
           d="m 0.876712,-0.587796 c -0.029888,0.14944 -0.089663,0.378581 -0.089663,0.428394 0,0.1793273 0.139477,0.268991 0.288921,0.268991 0.11955,0 0.29887,-0.0797011 0.36861,-0.278954 0.01993,-0.03985 0.35866,-1.394765 0.39851,-1.574095 0.0797,-0.32877 0.25903,-1.02615 0.3188,-1.29515 0.03985,-0.12951 0.31881,-0.59775 0.55791,-0.81693 0.0797,-0.06974 0.36862,-0.32877 0.79701,-0.32877 0.25903,0 0.40847,0.11955 0.41843,0.11955 -0.29888,0.04982 -0.51805,0.28892 -0.51805,0.54795 0,0.1594 0.10958,0.34869 0.37858,0.34869 0.269,0 0.54794,-0.22914 0.54794,-0.5878 0,-0.34869 -0.3188,-0.64757 -0.8269,-0.64757 -0.64757,0 -1.08593,0.48817 -1.27522,0.76713 -0.0797,-0.44832 -0.43835,-0.76713 -0.9066,-0.76713 -0.458278,0 -0.647568,0.38855 -0.737232,0.56787 -0.179327,0.33873 -0.308841,0.93649 -0.308841,0.96638 0,0.09963 0.099626,0.09963 0.119551,0.09963 0.099627,0 0.109589,-0.00997 0.169365,-0.22914 0.169365,-0.70735 0.368618,-1.18556 0.727277,-1.18556 0.16936,0 0.30884,0.0797 0.30884,0.45828 0,0.20922 -0.02989,0.31881 -0.1594,0.83686 z"
           inkscape:connector-curvature="0" />
        <path
           id="equation_05_10"
           d="m 2.0523,-3.98506 h 0.93649 c 0.19925,0 0.29888,0 0.29888,-0.19925 0,-0.10959 -0.09963,-0.10959 -0.27895,-0.10959 H 2.132 c 0.35866,-1.41469 0.40847,-1.61395 0.40847,-1.67372 0,-0.16937 -0.11955,-0.26899 -0.28891,-0.26899 -0.02989,0 -0.30885,0.00996 -0.39851,0.35865 L 1.46451,-4.2939 H 0.52802 c -0.199253,0 -0.298879,0 -0.298879,0.18929 0,0.11955 0.079701,0.11955 0.278954,0.11955 H 1.38481 c -0.717313,2.82939 -0.757164,2.998759 -0.757164,3.178086 0,0.537983 0.378584,0.916563 0.916564,0.916563 1.01619,0 1.58406,-1.454549 1.58406,-1.534249 0,-0.09962 -0.0797,-0.09962 -0.11955,-0.09962 -0.08967,0 -0.09963,0.02988 -0.14944,0.13947 -0.4284,1.036118 -0.95642,1.275221 -1.29515,1.275221 -0.20921,0 -0.30884,-0.129514 -0.30884,-0.458281 0,-0.239104 0.01993,-0.308842 0.05978,-0.47821 z"
           inkscape:connector-curvature="0" />
        <path
           id="equation_05_11"
           d="m 4.60274,-3.37733 c 0.04981,-0.21918 0.14944,-0.5878 0.14944,-0.64758 0,-0.17932 -0.13948,-0.26899 -0.28892,-0.26899 -0.11955,0 -0.29888,0.0797 -0.36861,0.27896 -0.02989,0.06973 -0.49814,1.9726 -0.56788,2.23163 -0.06973,0.29888 -0.08966,0.4782 -0.08966,0.65753 0,0.10959 0,0.129516 0.00996,0.179329 -0.22914,0.52802 -0.52802,0.836862 -0.91656,0.836862 -0.79701,0 -0.79701,-0.737235 -0.79701,-0.906601 0,-0.3188 0.04981,-0.70735 0.51806,-1.93275 0.10959,-0.29888 0.16936,-0.43836 0.16936,-0.63761 0,-0.44832 -0.32877,-0.81694 -0.81693,-0.81694 -0.946456,0 -1.315073,1.44459 -1.315073,1.53425 0,0.09963 0.099626,0.09963 0.119551,0.09963 0.099627,0 0.109589,-0.01993 0.159402,-0.17933 0.268992,-0.92653 0.65753,-1.23537 1.00623,-1.23537 0.08966,0 0.24906,0.00996 0.24906,0.32877 0,0.24906 -0.10959,0.52802 -0.17932,0.69738 -0.43836,1.17559 -0.55791,1.63388 -0.55791,2.01246 0,0.906597 0.66749,1.255289 1.41469,1.255289 0.16937,0 0.63761,0 1.03612,-0.697385 0.25903,0.6376092 0.94645,0.697385 1.24533,0.697385 0.7472,0 1.18555,-0.627646 1.44458,-1.225409 0.33873,-0.77708 0.65753,-2.11208 0.65753,-2.59028 0,-0.54795 -0.26899,-0.69739 -0.43835,-0.69739 -0.24907,0 -0.49813,0.25903 -0.49813,0.47821 0,0.12951 0.05977,0.18929 0.14944,0.26899 0.10958,0.10959 0.35865,0.36862 0.35865,0.84683 0,0.33873 -0.28892,1.31506 -0.54794,1.823159 -0.25903,0.52802 -0.60773,0.876712 -1.09589,0.876712 -0.46825,0 -0.73724,-0.298879 -0.73724,-0.86675 0,-0.278951 0.06974,-0.587791 0.10959,-0.727271 z"
           inkscape:connector-curvature="0" />
        <path
           id="equation_05_12"
           d="m 3.29763,2.39103 c 0,-0.02988 0,-0.04981 -0.16936,-0.21917 -1.24533,-1.255297 -1.56414,-3.138236 -1.56414,-4.66252 0,-1.7335 0.37858,-3.467 1.60399,-4.71233 0.12951,-0.11955 0.12951,-0.13948 0.12951,-0.16936 0,-0.06974 -0.03985,-0.09963 -0.09962,-0.09963 -0.09963,0 -0.99627,0.67746 -1.58406,1.94271 -0.5081,1.0959 -0.627649,2.20175 -0.627649,3.03861 0,0.77709 0.109589,1.982565 0.657539,3.108344 0.59775,1.225406 1.45454,1.872976 1.55417,1.872976 0.05977,0 0.09962,-0.02989 0.09962,-0.09963 z"
           inkscape:connector-curvature="0" />
        <path
           id="equation_05_13"
           d="m 2.8792,-2.49066 c 0,-0.77709 -0.10959,-1.98257 -0.65753,-3.10834 -0.59776,-1.22541 -1.454547,-1.87298 -1.554173,-1.87298 -0.059776,0 -0.099627,0.03985 -0.099627,0.09963 0,0.02988 0,0.04981 0.189291,0.22914 0.976339,0.9863 1.544209,2.57036 1.544209,4.65255 0,1.703611 -0.36862,3.457036 -1.603985,4.71233 C 0.56787,2.34122 0.56787,2.36115 0.56787,2.39103 c 0,0.05978 0.039851,0.09963 0.099627,0.09963 0.099626,0 0.996263,-0.67746 1.584063,-1.942715 C 2.75965,-0.547945 2.8792,-1.6538 2.8792,-2.49066 Z"
           inkscape:connector-curvature="0" />
        <path
           id="equation_05_14"
           d="M 3.52179,-1.26924 H 3.28468 C 3.26376,-1.11582 3.19402,-0.704359 3.10336,-0.63462 3.04757,-0.592777 2.51059,-0.592777 2.41295,-0.592777 H 1.12976 C 1.86202,-1.24134 2.1061,-1.43661 2.52453,-1.76438 3.0406,-2.17584 3.52179,-2.60822 3.52179,-3.27073 c 0,-0.84384 -0.73922,-1.35991 -1.63188,-1.35991 -0.86475,0 -1.450558,0.60673 -1.450558,1.24832 0,0.35567 0.299876,0.39054 0.369614,0.39054 0.167373,0 0.369614,-0.11856 0.369614,-0.36961 0,-0.12553 -0.04882,-0.36962 -0.411457,-0.36962 0.21619,-0.49514 0.690407,-0.64857 1.018187,-0.64857 0.69738,0 1.06002,0.54396 1.06002,1.10885 0,0.60672 -0.43238,1.08792 -0.65554,1.33897 L 0.509091,-0.27198 C 0.439352,-0.209215 0.439352,-0.195268 0.439352,0 H 3.31258 Z"
           inkscape:connector-curvature="0" />
      </defs>
      <g
         title="$T_2 \text{(Sorted in weight)}$"
         style="fill:#000000"
         id="equation_06">
        <defs
           id="defs2766">
          <path
             id="equation_06_00"
             d="m 3.29763,2.39103 c 0,-0.02988 0,-0.04981 -0.16936,-0.21917 -1.24533,-1.255297 -1.56414,-3.138236 -1.56414,-4.66252 0,-1.7335 0.37858,-3.467 1.60399,-4.71233 0.12951,-0.11955 0.12951,-0.13948 0.12951,-0.16936 0,-0.06974 -0.03985,-0.09963 -0.09962,-0.09963 -0.09963,0 -0.99627,0.67746 -1.58406,1.94271 -0.5081,1.0959 -0.627649,2.20175 -0.627649,3.03861 0,0.77709 0.109589,1.982565 0.657539,3.108344 0.59775,1.225406 1.45454,1.872976 1.55417,1.872976 0.05977,0 0.09962,-0.02989 0.09962,-0.09963 z"
             inkscape:connector-curvature="0" />
          <path
             id="equation_06_01"
             d="m 2.8792,-2.49066 c 0,-0.77709 -0.10959,-1.98257 -0.65753,-3.10834 -0.59776,-1.22541 -1.454547,-1.87298 -1.554173,-1.87298 -0.059776,0 -0.099627,0.03985 -0.099627,0.09963 0,0.02988 0,0.04981 0.189291,0.22914 0.976339,0.9863 1.544209,2.57036 1.544209,4.65255 0,1.703611 -0.36862,3.457036 -1.603985,4.71233 C 0.56787,2.34122 0.56787,2.36115 0.56787,2.39103 c 0,0.05978 0.039851,0.09963 0.099627,0.09963 0.099626,0 0.996263,-0.67746 1.584063,-1.942715 C 2.75965,-0.547945 2.8792,-1.6538 2.8792,-2.49066 Z"
             inkscape:connector-curvature="0" />
          <path
             id="equation_06_02"
             d="M 3.47696,-3.8655 2.20174,-4.17435 C 1.58406,-4.32379 1.19552,-4.86177 1.19552,-5.4396 c 0,-0.69739 0.53798,-1.30511 1.31507,-1.30511 1.66376,0 1.88293,1.63388 1.94271,2.08219 0.00996,0.05978 0.00996,0.11956 0.11955,0.11956 0.12952,0 0.12952,-0.04982 0.12952,-0.23911 v -2.00249 c 0,-0.16936 0,-0.2391 -0.10959,-0.2391 -0.06974,0 -0.0797,0.00996 -0.14944,0.12951 L 4.09465,-6.32628 C 3.79577,-6.61519 3.3873,-7.02366 2.50062,-7.02366 c -1.10585,0 -1.942712,0.87671 -1.942712,1.93275 0,0.8269 0.528022,1.55417 1.305102,1.82316 0.10959,0.03985 0.61769,0.15941 1.31507,0.32877 0.26899,0.06974 0.56787,0.13948 0.84683,0.5081 0.20921,0.25902 0.30884,0.58779 0.30884,0.91656 0,0.707346 -0.49813,1.4246562 -1.335,1.4246562 -0.28891,0 -1.04607,-0.0498132 -1.57409,-0.5379822 C 0.846824,-1.16563 0.816936,-1.80324 0.806974,-2.16189 0.797011,-2.26152 0.71731,-2.26152 0.687422,-2.26152 c -0.129514,0 -0.129514,0.06974 -0.129514,0.24907 v 1.9925247 c 0,0.1693653 0,0.2391033 0.109589,0.2391033 0.069738,0 0.079701,-0.019925 0.149439,-0.1295142 0,-0.0099627 0.029888,-0.0398506 0.358654,-0.5678708 0.30884,0.33873 0.94645,0.697385 1.83313,0.697385 1.16563,0 1.96264,-0.976339 1.96264,-2.072228 0,-0.99627 -0.65754,-1.8132 -1.4944,-2.01245 z"
             inkscape:connector-curvature="0" />
          <path
             id="equation_06_03"
             d="M 3.7858,-0.547945 V 0.109589 L 5.25031,0 v -0.308842 c -0.69738,0 -0.77708,-0.069738 -0.77708,-0.557908 v -6.04732 l -1.43462,0.10959 v 0.30884 c 0.69738,0 0.77708,0.06974 0.77708,0.55791 V -3.7858 C 3.52677,-4.14446 3.09838,-4.40349 2.5604,-4.40349 c -1.17559,0 -2.22167,0.97634 -2.22167,2.26152 0,1.265258 0.97634,2.251559 2.11208,2.251559 0.63761,0 1.08593,-0.33873 1.33499,-0.657534 z m 0,-2.669985 v 2.04234 c 0,0.179326 0,0.199251 -0.10959,0.368616 -0.29888,0.478207 -0.74719,0.697385 -1.17559,0.697385 -0.44832,0 -0.80697,-0.259029 -1.04607,-0.637609 C 1.19552,-1.15567 1.16563,-1.72354 1.16563,-2.132 c 0,-0.36862 0.01992,-0.96638 0.30884,-1.4147 0.20922,-0.30884 0.5878,-0.63761 1.12578,-0.63761 0.34869,0 0.76712,0.14944 1.07596,0.59776 0.10959,0.16936 0.10959,0.18929 0.10959,0.36862 z"
             inkscape:connector-curvature="0" />
          <path
             id="equation_06_04"
             d="m 1.11582,-2.51059 c 0.05977,-1.48443 0.89663,-1.73349 1.23536,-1.73349 1.02615,0 1.12578,1.34495 1.12578,1.73349 z m -0.00997,0.20922 h 2.77958 c 0.21918,0 0.24907,0 0.24907,-0.20922 0,-0.9863 -0.53799,-1.95267 -1.78332,-1.95267 -1.15566,0 -2.072226,1.02615 -2.072226,2.27148 0,1.334993 1.046076,2.301369 2.191776,2.301369 1.21545,0 1.66377,-1.105853 1.66377,-1.295139 0,-0.09963 -0.07971,-0.11956 -0.12952,-0.11956 -0.08966,0 -0.10959,0.05978 -0.12951,0.13948 -0.3487,1.026153 -1.24533,1.026153 -1.34496,1.026153 -0.49813,0 -0.89664,-0.298879 -1.12578,-0.667497 C 1.10585,-1.28518 1.10585,-1.94271 1.10585,-2.30137 Z"
             inkscape:connector-curvature="0" />
          <path
             id="equation_06_05"
             d="m 2.21171,-1.71357 c -0.86675,0 -0.86675,-0.99627 -0.86675,-1.22541 0,-0.26899 0.00996,-0.58779 0.1594,-0.83686 0.0797,-0.11955 0.30884,-0.39851 0.70735,-0.39851 0.86675,0 0.86675,0.99627 0.86675,1.22541 0,0.26899 -0.00997,0.58779 -0.15941,0.83686 -0.0797,0.11955 -0.30884,0.39851 -0.70734,0.39851 z m -1.15567,0.38854 c 0,-0.03985 0,-0.26899 0.16936,-0.46825 0.38855,0.27896 0.79702,0.30885 0.98631,0.30885 0.92652,0 1.61394,-0.68743 1.61394,-1.45455 0,-0.36862 -0.1594,-0.73723 -0.40846,-0.96637 0.35865,-0.33873 0.71731,-0.38855 0.89663,-0.38855 0.01993,0 0.06974,0 0.09963,0.00996 -0.10959,0.03986 -0.1594,0.14944 -0.1594,0.269 0,0.16936 0.12951,0.28891 0.28891,0.28891 0.09963,0 0.28892,-0.06974 0.28892,-0.29888 0,-0.16936 -0.11955,-0.48817 -0.50809,-0.48817 -0.19926,0 -0.63761,0.05978 -1.05604,0.46825 -0.41843,-0.32877 -0.83687,-0.35866 -1.05604,-0.35866 -0.92653,0 -1.613952,0.68743 -1.613952,1.45455 0,0.43835 0.219178,0.81694 0.468242,1.02615 -0.129512,0.14944 -0.308839,0.47821 -0.308839,0.8269 0,0.308841 0.129514,0.687422 0.438359,0.886675 -0.597762,0.1693644 -0.916566,0.597758 -0.916566,0.996264 0,0.717311 0.986306,1.265251 2.201746,1.265251 1.17559,0 2.2117,-0.50809 2.2117,-1.285177 0,-0.348692 -0.13947,-0.8567868 -0.64757,-1.135741 -0.52802,-0.278954 -1.10585,-0.278954 -1.71357,-0.278954 -0.24907,0 -0.67746,0 -0.7472,-0.009962 C 1.26526,-0.697385 1.05604,-1.00623 1.05604,-1.32503 Z m 1.43462,3.14819 c -1.00623,0 -1.693649,-0.50809 -1.693649,-1.036111 0,-0.458282 0.378579,-0.8268996 0.816939,-0.8567875 h 0.58779 c 0.85679,0 1.97261,0 1.97261,0.8567875 0,0.537981 -0.70735,1.036111 -1.68369,1.036111 z"
             inkscape:connector-curvature="0" />
          <path
             id="equation_06_06"
             d="m 1.09589,-0.757161 c 0,0.448319 -0.109589,0.448319 -0.777086,0.448319 V 0 C 0.667497,-0.00996264 1.17559,-0.0298879 1.44458,-0.0298879 1.70361,-0.0298879 2.22167,-0.00996264 2.5604,0 v -0.308842 c -0.6675,0 -0.77709,0 -0.77709,-0.448319 V -2.59029 c 0,-1.03611 0.70735,-1.59402 1.34496,-1.59402 0.62765,0 0.73723,0.53798 0.73723,1.10585 v 2.321299 c 0,0.448319 -0.10958,0.448319 -0.77708,0.448319 V 0 c 0.34869,-0.00996264 0.85679,-0.0298879 1.12578,-0.0298879 0.25903,0 0.77708,0.01992526 1.11581,0.0298879 v -0.308842 c -0.51805,0 -0.76712,0 -0.77708,-0.298879 V -2.51059 c 0,-0.85678 0,-1.16562 -0.30885,-1.52428 -0.13947,-0.16936 -0.46824,-0.36862 -1.04607,-0.36862 -0.83686,0 -1.27522,0.59776 -1.44459,0.97634 v -3.48692 l -1.434616,0.10959 v 0.30884 c 0.697386,0 0.777086,0.06974 0.777086,0.55791 z"
             inkscape:connector-curvature="0" />
          <path
             id="equation_06_07"
             d="M 1.76339,-4.40349 0.368618,-4.2939 v 0.30884 c 0.647572,0 0.737232,0.05978 0.737232,0.54795 v 2.679949 c 0,0.448319 -0.109586,0.448319 -0.777083,0.448319 V 0 c 0.318805,-0.00996264 0.856783,-0.0298879 1.095893,-0.0298879 0.34869,0 0.69738,0.01992526 1.03611,0.0298879 v -0.308842 c -0.65753,0 -0.69738,-0.049813 -0.69738,-0.438356 z m 0.03985,-1.7335 c 0,-0.3188 -0.24907,-0.52802 -0.52802,-0.52802 -0.308844,0 -0.528022,0.269 -0.528022,0.52802 0,0.26899 0.219178,0.52802 0.528022,0.52802 0.27895,0 0.52802,-0.20921 0.52802,-0.52802 z"
             inkscape:connector-curvature="0" />
          <path
             id="equation_06_08"
             d="m 1.09589,-3.42715 v 2.669989 c 0,0.448319 -0.109589,0.448319 -0.777086,0.448319 V 0 C 0.667497,-0.00996264 1.17559,-0.0298879 1.44458,-0.0298879 1.70361,-0.0298879 2.22167,-0.00996264 2.5604,0 v -0.308842 c -0.6675,0 -0.77709,0 -0.77709,-0.448319 V -2.59029 c 0,-1.03611 0.70735,-1.59402 1.34496,-1.59402 0.62765,0 0.73723,0.53798 0.73723,1.10585 v 2.321299 c 0,0.448319 -0.10958,0.448319 -0.77708,0.448319 V 0 c 0.34869,-0.00996264 0.85679,-0.0298879 1.12578,-0.0298879 0.25903,0 0.77708,0.01992526 1.11581,0.0298879 v -0.308842 c -0.51805,0 -0.76712,0 -0.77708,-0.298879 V -2.51059 c 0,-0.85678 0,-1.16562 -0.30885,-1.52428 -0.13947,-0.16936 -0.46824,-0.36862 -1.04607,-0.36862 -0.72728,0 -1.19552,0.4284 -1.47447,1.04608 V -4.40349 L 0.318804,-4.2939 v 0.30884 c 0.697386,0 0.777086,0.06974 0.777086,0.55791 z"
             inkscape:connector-curvature="0" />
          <path
             id="equation_06_09"
             d="m 4.6924,-2.132 c 0,-1.27522 -0.99626,-2.33126 -2.20174,-2.33126 -1.24533,0 -2.211706,1.08593 -2.211706,2.33126 0,1.285176 1.036116,2.241589 2.201746,2.241589 1.20548,0 2.2117,-0.976339 2.2117,-2.241589 z m -2.20174,1.992523 c -0.42839,0 -0.86675,-0.209215 -1.13574,-0.667497 C 1.10585,-1.24533 1.10585,-1.85305 1.10585,-2.21171 c 0,-0.38854 0,-0.92652 0.23911,-1.36488 0.26899,-0.45828 0.73723,-0.66749 1.13574,-0.66749 0.43835,0 0.86675,0.21917 1.12578,0.64757 0.25903,0.4284 0.25902,1.00622 0.25902,1.3848 0,0.35866 0,0.89664 -0.21917,1.334998 -0.21918,0.448318 -0.65754,0.737235 -1.15567,0.737235 z"
             inkscape:connector-curvature="0" />
          <path
             id="equation_06_10"
             d="M 1.66376,-3.3076 V -4.40349 L 0.278954,-4.2939 v 0.30884 c 0.697385,0 0.777086,0.06974 0.777086,0.55791 v 2.669989 c 0,0.448319 -0.109589,0.448319 -0.777086,0.448319 V 0 c 0.388543,-0.00996264 0.856786,-0.0298879 1.135736,-0.0298879 0.39851,0 0.86675,0 1.26526,0.0298879 V -0.308842 H 2.47073 c -0.73723,0 -0.75716,-0.109589 -0.75716,-0.468244 V -2.31133 c 0,-0.9863 0.41843,-1.87298 1.1756,-1.87298 0.06973,0 0.08966,0 0.10958,0.00996 -0.02988,0.00997 -0.22914,0.12952 -0.22914,0.38855 0,0.27895 0.20922,0.42839 0.4284,0.42839 0.17932,0 0.42839,-0.11955 0.42839,-0.43836 0,-0.31881 -0.30884,-0.60772 -0.73723,-0.60772 -0.72728,0 -1.08593,0.6675 -1.22541,1.09589 z"
             inkscape:connector-curvature="0" />
          <path
             id="equation_06_11"
             d="M 1.72354,-3.98506 H 3.14819 V -4.2939 H 1.72354 V -6.12702 H 1.47447 c -0.00996,0.81693 -0.30884,1.88294 -1.28518,1.92279 v 0.21917 h 0.84682 v 2.74969 c 0,1.22540736 0.92653,1.344959 1.28519,1.344959 0.70734,0 0.9863,-0.707347 0.9863,-1.344959 V -1.80324 H 3.05853 v 0.54795 c 0,0.737233 -0.29888,1.115813 -0.6675,1.115813 -0.66749,0 -0.66749,-0.906603 -0.66749,-1.075963 z"
             inkscape:connector-curvature="0" />
          <path
             id="equation_06_12"
             d="M 6.16687,-3.34745 C 6.3462,-3.84558 6.65504,-3.97509 7.00374,-3.98506 V -4.2939 c -0.21918,0.01993 -0.5081,0.02989 -0.72728,0.02989 -0.28891,0 -0.73723,-0.01993 -0.92652,-0.02989 v 0.30884 c 0.35865,0.00997 0.57783,0.18929 0.57783,0.47821 0,0.05978 0,0.0797 -0.04981,0.20922 L 4.97136,-0.747198 3.98506,-3.52677 C 3.94521,-3.64633 3.93524,-3.66625 3.93524,-3.71606 c 0,-0.269 0.38855,-0.269 0.5878,-0.269 V -4.2939 c -0.28892,0.00996 -0.79701,0.02989 -1.03612,0.02989 -0.29888,0 -0.58779,-0.00996 -0.88667,-0.02989 v 0.30884 c 0.36862,0 0.52802,0.01993 0.62765,0.14944 0.04981,0.05978 0.1594,0.35866 0.22914,0.54795 L 2.60025,-0.876712 1.6538,-3.53674 C 1.60399,-3.65629 1.60399,-3.67621 1.60399,-3.71606 c 0,-0.269 0.38854,-0.269 0.58779,-0.269 V -4.2939 c -0.29888,0.00996 -0.85679,0.02989 -1.08593,0.02989 -0.03985,0 -0.567867,-0.00996 -0.926522,-0.02989 v 0.30884 c 0.498132,0 0.617683,0.02989 0.737235,0.3487 l 1.255297,3.526771 c 0.04981,0.1394769 0.0797,0.219178 0.20921,0.219178 0.12951,0 0.14944,-0.0597758 0.19925,-0.1992528 L 3.58655,-2.90909 4.60274,-0.0797011 c 0.03985,0.109589 0.06974,0.1892901 0.19925,0.1892901 0.12951,0 0.1594,-0.0896637 0.19926,-0.1892901 z"
             inkscape:connector-curvature="0" />
          <path
             id="equation_06_13"
             d="m 4.25405,-6.04732 c 0.06974,-0.27896 0.10959,-0.33873 0.22914,-0.36862 0.08966,-0.01993 0.41843,-0.01993 0.62764,-0.01993 1.00623,0 1.45455,0.03986 1.45455,0.81694 0,0.14944 -0.03985,0.53798 -0.0797,0.79701 -0.00996,0.03985 -0.02989,0.1594 -0.02989,0.18929 0,0.05978 0.02989,0.12952 0.11955,0.12952 0.10959,0 0.12952,-0.0797 0.14944,-0.22914 l 0.26899,-1.7335 C 7.00374,-6.5056 7.0137,-6.60523 7.0137,-6.63512 c 0,-0.10959 -0.09963,-0.10959 -0.26899,-0.10959 H 1.21544 c -0.239101,0 -0.249064,0.00997 -0.318802,0.19926 l -0.597759,1.75342 c -0.009962,0.01993 -0.059776,0.1594 -0.059776,0.17933 0,0.05977 0.049814,0.10959 0.119552,0.10959 0.099626,0 0.109589,-0.04982 0.169365,-0.20922 C 1.066,-6.25654 1.32503,-6.43587 2.7995,-6.43587 h 0.38854 c 0.27896,0 0.27896,0.03986 0.27896,0.11956 0,0.05977 -0.02989,0.17932 -0.03985,0.20921 l -1.335,5.320051 c -0.08966,0.368618 -0.11955,0.478207 -1.18555,0.478207 -0.358655,0 -0.418431,0 -0.418431,0.18929 C 0.488169,0 0.597758,0 0.657534,0 0.926526,0 1.20548,-0.0199253 1.47447,-0.0199253 c 0.27895,0 0.56787,-0.0099626 0.84683,-0.0099626 0.27896,0 0.5579,0.0099626 0.82689,0.0099626 C 3.43711,-0.0199253 3.73599,0 4.01494,0 c 0.09963,0 0.21918,0 0.21918,-0.199253 0,-0.109589 -0.0797,-0.109589 -0.33873,-0.109589 -0.24906,0 -0.37858,0 -0.63761,-0.019925 -0.28891,-0.029888 -0.36861,-0.059776 -0.36861,-0.219178 0,-0.009963 0,-0.059776 0.03985,-0.209216 z"
             inkscape:connector-curvature="0" />
          <path
             id="equation_06_14"
             d="M 3.52179,-1.26924 H 3.28468 C 3.26376,-1.11582 3.19402,-0.704359 3.10336,-0.63462 3.04757,-0.592777 2.51059,-0.592777 2.41295,-0.592777 H 1.12976 C 1.86202,-1.24134 2.1061,-1.43661 2.52453,-1.76438 3.0406,-2.17584 3.52179,-2.60822 3.52179,-3.27073 c 0,-0.84384 -0.73922,-1.35991 -1.63188,-1.35991 -0.86475,0 -1.450558,0.60673 -1.450558,1.24832 0,0.35567 0.299876,0.39054 0.369614,0.39054 0.167373,0 0.369614,-0.11856 0.369614,-0.36961 0,-0.12553 -0.04882,-0.36962 -0.411457,-0.36962 0.21619,-0.49514 0.690407,-0.64857 1.018187,-0.64857 0.69738,0 1.06002,0.54396 1.06002,1.10885 0,0.60672 -0.43238,1.08792 -0.65554,1.33897 L 0.509091,-0.27198 C 0.439352,-0.209215 0.439352,-0.195268 0.439352,0 H 3.31258 Z"
             inkscape:connector-curvature="0" />
        </defs>
        <g
           id="equation_06_g">
          <use
             id="use2768"
             y="62.764599"
             xlink:href="#equation_06_13"
             x="76.712303"
             width="100%"
             height="100%" />
          <use
             id="use2770"
             y="64.259003"
             xlink:href="#equation_06_14"
             x="82.534302"
             width="100%"
             height="100%" />
          <use
             id="use2772"
             y="62.764599"
             xlink:href="#equation_06_00"
             x="87.003601"
             width="100%"
             height="100%" />
          <use
             id="use2774"
             y="62.764599"
             xlink:href="#equation_06_02"
             x="90.877998"
             width="100%"
             height="100%" />
          <use
             id="use2776"
             y="62.764599"
             xlink:href="#equation_06_09"
             x="96.412804"
             width="100%"
             height="100%" />
          <use
             id="use2778"
             y="62.764599"
             xlink:href="#equation_06_10"
             x="101.394"
             width="100%"
             height="100%" />
          <use
             id="use2780"
             y="62.764599"
             xlink:href="#equation_06_11"
             x="105.296"
             width="100%"
             height="100%" />
          <use
             id="use2782"
             y="62.764599"
             xlink:href="#equation_06_04"
             x="109.171"
             width="100%"
             height="100%" />
          <use
             id="use2784"
             y="62.764599"
             xlink:href="#equation_06_03"
             x="113.598"
             width="100%"
             height="100%" />
          <use
             id="use2786"
             y="62.764599"
             xlink:href="#equation_06_07"
             x="122.454"
             width="100%"
             height="100%" />
          <use
             id="use2788"
             y="62.764599"
             xlink:href="#equation_06_08"
             x="125.222"
             width="100%"
             height="100%" />
          <use
             id="use2790"
             y="62.764599"
             xlink:href="#equation_06_12"
             x="134.077"
             width="100%"
             height="100%" />
          <use
             id="use2792"
             y="62.764599"
             xlink:href="#equation_06_04"
             x="140.996"
             width="100%"
             height="100%" />
          <use
             id="use2794"
             y="62.764599"
             xlink:href="#equation_06_07"
             x="145.424"
             width="100%"
             height="100%" />
          <use
             id="use2796"
             y="62.764599"
             xlink:href="#equation_06_05"
             x="148.19099"
             width="100%"
             height="100%" />
          <use
             id="use2798"
             y="62.764599"
             xlink:href="#equation_06_06"
             x="153.172"
             width="100%"
             height="100%" />
          <use
             id="use2800"
             y="62.764599"
             xlink:href="#equation_06_11"
             x="158.42999"
             width="100%"
             height="100%" />
          <use
             id="use2802"
             y="62.764599"
             xlink:href="#equation_06_01"
             x="162.30499"
             width="100%"
             height="100%" />
        </g>
      </g>
    </g>
    <g
       title="$\text{Push}$"
       style="fill:#000000"
       id="equation_03"
       transform="translate(100.54167,0.13444255)">
      <defs
         id="defs3426">
        <path
           id="equation_03_00"
           d="m 2.26152,-3.14819 h 1.68369 c 1.19551,0 2.27148,-0.80698 2.27148,-1.80324 0,-0.97634 -0.9863,-1.85305 -2.35119,-1.85305 H 0.348692 v 0.30884 h 0.239104 c 0.767124,0 0.787044,0.10959 0.787044,0.46824 v 5.250314 c 0,0.358655 -0.01992,0.468244 -0.787044,0.468244 H 0.348692 V 0 C 0.697385,-0.0298879 1.43462,-0.0298879 1.8132,-0.0298879 c 0.37858,0 1.12578,0 1.47447,0.0298879 v -0.308842 h -0.2391 c -0.76713,0 -0.78705,-0.109589 -0.78705,-0.468244 z M 2.23163,-3.40722 v -2.68992 c 0,-0.32876 0.01993,-0.3985 0.48817,-0.3985 h 0.88668 c 1.58406,0 1.58406,1.05604 1.58406,1.54421 0,0.46824 0,1.54421 -1.58406,1.54421 z"
           inkscape:connector-curvature="0" />
        <path
           id="equation_03_01"
           d="m 1.09589,-0.757161 c 0,0.448319 -0.109589,0.448319 -0.777086,0.448319 V 0 C 0.667497,-0.00996264 1.17559,-0.0298879 1.44458,-0.0298879 1.70361,-0.0298879 2.22167,-0.00996264 2.5604,0 v -0.308842 c -0.6675,0 -0.77709,0 -0.77709,-0.448319 V -2.59029 c 0,-1.03611 0.70735,-1.59402 1.34496,-1.59402 0.62765,0 0.73723,0.53798 0.73723,1.10585 v 2.321299 c 0,0.448319 -0.10958,0.448319 -0.77708,0.448319 V 0 c 0.34869,-0.00996264 0.85679,-0.0298879 1.12578,-0.0298879 0.25903,0 0.77708,0.01992526 1.11581,0.0298879 v -0.308842 c -0.51805,0 -0.76712,0 -0.77708,-0.298879 V -2.51059 c 0,-0.85678 0,-1.16562 -0.30885,-1.52428 -0.13947,-0.16936 -0.46824,-0.36862 -1.04607,-0.36862 -0.83686,0 -1.27522,0.59776 -1.44459,0.97634 v -3.48692 l -1.434616,0.10959 v 0.30884 c 0.697386,0 0.777086,0.06974 0.777086,0.55791 z"
           inkscape:connector-curvature="0" />
        <path
           id="equation_03_02"
           d="m 2.07223,-1.93275 c 0.21918,0.03985 1.03611,0.19925 1.03611,0.91656 0,0.508095 -0.34869,0.906601 -1.12577,0.906601 -0.83687,0 -1.195521,-0.567871 -1.384812,-1.414691 -0.029888,-0.12952 -0.03985,-0.16937 -0.139477,-0.16937 -0.129514,0 -0.129514,0.06974 -0.129514,0.24907 v 1.315066 c 0,0.1693646 0,0.239103 0.109589,0.239103 0.049813,0 0.059776,-0.0099626 0.249066,-0.1992528 C 0.707347,-0.109589 0.707347,-0.129514 0.886675,-0.318804 1.32503,0.0996264 1.77335,0.109589 1.98257,0.109589 c 1.1457,0 1.60398,-0.667497 1.60398,-1.384809 0,-0.52802 -0.29888,-0.8269 -0.41843,-0.94645 -0.32877,-0.3188 -0.71731,-0.3985 -1.13574,-0.47821 -0.55791,-0.10958 -1.225406,-0.2391 -1.225406,-0.81693 0,-0.34869 0.259026,-0.75716 1.115816,-0.75716 1.09589,0 1.1457,0.89664 1.16563,1.20548 0.00996,0.08966 0.09962,0.08966 0.11955,0.08966 0.12951,0 0.12951,-0.04981 0.12951,-0.2391 v -1.00623 c 0,-0.16936 0,-0.2391 -0.10958,-0.2391 -0.04982,0 -0.06974,0 -0.19926,0.11955 -0.02989,0.03985 -0.12951,0.12951 -0.16936,0.1594 -0.37858,-0.27895 -0.78705,-0.27895 -0.93649,-0.27895 -1.215443,0 -1.594023,0.66749 -1.594023,1.2254 0,0.34869 0.159402,0.62765 0.428394,0.84683 0.318809,0.25903 0.597759,0.3188 1.315069,0.45828 z"
           inkscape:connector-curvature="0" />
        <path
           id="equation_03_03"
           d="M 3.89539,-0.787049 V 0.109589 L 5.33001,0 v -0.308842 c -0.69738,0 -0.77708,-0.069738 -0.77708,-0.557908 V -4.40349 L 3.08842,-4.2939 v 0.30884 c 0.69738,0 0.77708,0.06974 0.77708,0.55791 v 1.77335 c 0,0.866751 -0.4782,1.544211 -1.20548,1.544211 -0.83686,0 -0.87671,-0.468244 -0.87671,-0.986301 v -3.3076 L 0.318804,-4.2939 v 0.30884 c 0.777086,0 0.777086,0.02989 0.777086,0.91657 v 1.49439 c 0,0.777089 0,1.683689 1.51432,1.683689 0.55791,0 0.99627,-0.278954 1.28518,-0.896638 z"
           inkscape:connector-curvature="0" />
      </defs>
      <g
         id="g3492"
         transform="translate(24.001488)">
        <g
           transform="translate(22.94027,0.4325223)"
           id="equation_02"
           style="fill:#000000"
           title="$\text{if } v_{n_j} &lt; v_i$">
          <defs
             id="defs2016">
            <path
               inkscape:connector-curvature="0"
               d="m 6.72478,-4.96139 c 0.11955,-0.05978 0.18929,-0.10959 0.18929,-0.21918 0,-0.10959 -0.08966,-0.19926 -0.19925,-0.19926 -0.02989,0 -0.04981,0 -0.17933,0.06974 l -5.5193,2.60025 c -0.10959,0.04982 -0.189291,0.09963 -0.189291,0.21918 0,0.11955 0.079701,0.16936 0.189291,0.21918 l 5.5193,2.600247 c 0.12952,0.069739 0.14944,0.069739 0.17933,0.069739 0.10959,0 0.19925,-0.089664 0.19925,-0.199253 0,-0.109589 -0.06974,-0.1594024 -0.18929,-0.2191783 L 1.4944,-2.49066 Z"
               id="equation_02_00" />
            <path
               inkscape:connector-curvature="0"
               d="m 4.66252,-3.7061 c 0,-0.53798 -0.25903,-0.69739 -0.43836,-0.69739 -0.24907,0 -0.48817,0.25903 -0.48817,0.47821 0,0.12951 0.04981,0.18929 0.1594,0.29888 0.20922,0.19925 0.33873,0.45828 0.33873,0.81694 0,0.41843 -0.60772,2.699871 -1.77335,2.699871 -0.50809,0 -0.73723,-0.348692 -0.73723,-0.86675 0,-0.557911 0.26899,-1.285181 0.57783,-2.112081 0.06974,-0.16936 0.11955,-0.30884 0.11955,-0.49813 0,-0.44832 -0.3188,-0.81694 -0.81693,-0.81694 -0.936493,0 -1.315073,1.44459 -1.315073,1.53425 0,0.09963 0.099626,0.09963 0.119551,0.09963 0.099627,0 0.109589,-0.01993 0.159402,-0.17933 0.288917,-1.00623 0.71731,-1.23537 1.00623,-1.23537 0.0797,0 0.24906,0 0.24906,0.31881 0,0.24906 -0.09962,0.51805 -0.16936,0.69738 -0.43836,1.15567 -0.56787,1.61395 -0.56787,2.04234 0,1.0759668 0.87671,1.235369 1.33499,1.235369 1.67373,0 2.2416,-3.297629 2.2416,-3.815689 z"
               id="equation_02_01" />
            <path
               inkscape:connector-curvature="0"
               d="m 2.54047,-3.10834 c 0,-0.11457 -0.08468,-0.2142 -0.21917,-0.2142 -0.15443,0 -0.30885,0.14944 -0.30885,0.29888 0,0.11955 0.09465,0.2142 0.21918,0.2142 0.16937,0 0.30884,-0.15941 0.30884,-0.29888 z M 1.45455,0.224159 C 1.3599,0.60274 1.04608,0.851806 0.742217,0.851806 0.657534,0.851806 0.60274,0.836862 0.562889,0.826899 0.682441,0.757161 0.71731,0.627646 0.71731,0.562889 c 0,-0.084682 -0.059776,-0.204234 -0.224159,-0.204234 -0.169365,0 -0.308842,0.154421 -0.308842,0.318805 0,0.214196 0.224159,0.34371 0.562889,0.34371 0.33873,0 0.986302,-0.174346 1.140722,-0.792029 L 2.33624,-1.55417 c 0.00996,-0.04982 0.02491,-0.09465 0.02491,-0.16439 0,-0.28393 -0.26401,-0.48318 -0.61271,-0.48318 -0.60274,0 -0.971354,0.67247 -0.971354,0.7721 0,0.06974 0.079701,0.06974 0.104608,0.06974 0.074719,0 0.084682,-0.01993 0.109589,-0.06974 0.229137,-0.48817 0.567867,-0.60274 0.737237,-0.60274 0.19925,0 0.20921,0.17933 0.20921,0.26401 0,0.06974 -0.00498,0.08967 -0.01494,0.12952 z"
               id="equation_02_02" />
            <path
               inkscape:connector-curvature="0"
               d="m 1.74346,-4.2939 v -1.15566 c 0,-0.87672 0.47821,-1.35492 0.91656,-1.35492 0.02989,0 0.17933,0 0.32877,0.06974 -0.11955,0.03985 -0.29888,0.16936 -0.29888,0.41843 0,0.22914 0.15941,0.42839 0.4284,0.42839 0.28891,0 0.43835,-0.19925 0.43835,-0.43836 0,-0.36861 -0.36862,-0.69738 -0.89664,-0.69738 -0.69738,0 -1.5442,0.52802 -1.5442,1.58406 v 1.1457 H 0.328767 v 0.30884 H 1.11582 v 3.227899 c 0,0.448319 -0.10959,0.448319 -0.77709,0.448319 V 0 c 0.388543,-0.00996264 0.85679,-0.0298879 1.13574,-0.0298879 0.39851,0 0.86675,0 1.26526,0.0298879 V -0.308842 H 2.53051 c -0.73723,0 -0.75716,-0.109589 -0.75716,-0.468244 V -3.98506 H 2.90909 V -4.2939 Z"
               id="equation_02_03" />
            <path
               inkscape:connector-curvature="0"
               d="M 1.76339,-4.40349 0.368618,-4.2939 v 0.30884 c 0.647572,0 0.737232,0.05978 0.737232,0.54795 v 2.679949 c 0,0.448319 -0.109586,0.448319 -0.777083,0.448319 V 0 c 0.318805,-0.00996264 0.856783,-0.0298879 1.095893,-0.0298879 0.34869,0 0.69738,0.01992526 1.03611,0.0298879 v -0.308842 c -0.65753,0 -0.69738,-0.049813 -0.69738,-0.438356 z m 0.03985,-1.7335 c 0,-0.3188 -0.24907,-0.52802 -0.52802,-0.52802 -0.308844,0 -0.528022,0.269 -0.528022,0.52802 0,0.26899 0.219178,0.52802 0.528022,0.52802 0.27895,0 0.52802,-0.20921 0.52802,-0.52802 z"
               id="equation_02_04" />
            <path
               inkscape:connector-curvature="0"
               d="m 2.25953,-4.35866 c 0,-0.11158 -0.08369,-0.265 -0.27896,-0.265 -0.18829,0 -0.39053,0.18132 -0.39053,0.38356 0,0.11856 0.09066,0.26501 0.27895,0.26501 0.20224,0 0.39054,-0.19527 0.39054,-0.38357 z m -1.422668,3.54272 c -0.027896,0.09066 -0.062765,0.174346 -0.062765,0.292901 0,0.327771 0.278953,0.5927775 0.662513,0.5927775 0.69739,0 1.00424,-0.9623915 1.00424,-1.0669985 0,-0.09066 -0.09066,-0.09066 -0.11158,-0.09066 -0.09764,0 -0.10461,0.04184 -0.13251,0.118555 -0.1604,0.557908 -0.46725,0.843836 -0.73923,0.843836 -0.13947,0 -0.17434,-0.09066 -0.17434,-0.244085 0,-0.160398 0.04881,-0.292902 0.11158,-0.446326 0.06974,-0.18829 0.14645,-0.37659 0.22316,-0.55791 0.06277,-0.16737 0.31383,-0.80199 0.34172,-0.88568 0.02092,-0.06974 0.04184,-0.15342 0.04184,-0.22316 0,-0.32777 -0.27895,-0.59278 -0.66251,-0.59278 -0.690412,0 -1.011209,0.94845 -1.011209,1.067 0,0.09066 0.097634,0.09066 0.118555,0.09066 0.097634,0 0.104608,-0.03487 0.12553,-0.11158 0.18132,-0.59975 0.488164,-0.85081 0.746204,-0.85081 0.11158,0 0.17434,0.05579 0.17434,0.24409 0,0.16039 -0.04184,0.265 -0.21619,0.69738 z"
               id="equation_02_05" />
            <path
               inkscape:connector-curvature="0"
               d="m 0.850809,-0.439352 c -0.027895,0.09066 -0.069738,0.265006 -0.069738,0.285927 0,0.153425 0.125529,0.2231635 0.237109,0.2231635 0.12553,0 0.23711,-0.09066 0.27198,-0.1534247 0.03487,-0.0627647 0.09066,-0.2859278 0.12553,-0.4323788 0.03487,-0.132503 0.11158,-0.4533 0.15343,-0.627645 0.04184,-0.15343 0.08368,-0.30685 0.11855,-0.46725 0.07671,-0.28593 0.09066,-0.34172 0.2929,-0.62765 0.19527,-0.27895 0.52304,-0.64159 1.04608,-0.64159 0.40448,0 0.41146,0.35567 0.41146,0.48817 0,0.41843 -0.29988,1.19253 -0.41146,1.48543 -0.07671,0.195267 -0.10461,0.258032 -0.10461,0.376588 0,0.369613 0.30685,0.5997505 0.66252,0.5997505 0.69738,0 1.00423,-0.9623915 1.00423,-1.0669985 0,-0.09066 -0.09066,-0.09066 -0.11158,-0.09066 -0.09763,0 -0.10461,0.04184 -0.1325,0.118555 -0.1604,0.557908 -0.46028,0.843836 -0.73923,0.843836 -0.14645,0 -0.17435,-0.097634 -0.17435,-0.244085 0,-0.160398 0.03487,-0.251058 0.1604,-0.564882 0.08369,-0.216184 0.36962,-0.955414 0.36962,-1.345954 0,-0.67646 -0.53699,-0.79502 -0.9066,-0.79502 -0.57883,0 -0.96937,0.35567 -1.17858,0.63462 -0.04882,-0.48119 -0.46028,-0.63462 -0.74621,-0.63462 -0.299872,0 -0.460271,0.21619 -0.550931,0.37659 -0.153424,0.25803 -0.251058,0.65554 -0.251058,0.69041 0,0.09066 0.097634,0.09066 0.118555,0.09066 0.097634,0 0.104608,-0.02092 0.153425,-0.20921 0.104608,-0.41146 0.237111,-0.75318 0.509089,-0.75318 0.18132,0 0.23014,0.15343 0.23014,0.34172 0,0.1325 -0.06277,0.39053 -0.11158,0.57883 -0.04881,0.1883 -0.11856,0.47422 -0.15343,0.62765 z"
               id="equation_02_06" />
          </defs>
          <g
             id="equation_02_g">
            <use
               height="100%"
               width="100%"
               x="76.712303"
               xlink:href="#equation_02_04"
               y="62.764599"
               id="use2018" />
            <use
               height="100%"
               width="100%"
               x="79.479698"
               xlink:href="#equation_02_03"
               y="62.764599"
               id="use2020" />
            <use
               height="100%"
               width="100%"
               x="85.844803"
               xlink:href="#equation_02_01"
               y="62.764599"
               id="use2022" />
            <use
               height="100%"
               width="100%"
               x="90.673897"
               xlink:href="#equation_02_06"
               y="64.259003"
               id="use2024" />
            <use
               height="100%"
               width="100%"
               x="95.598801"
               xlink:href="#equation_02_02"
               y="65.255302"
               id="use2026" />
            <use
               height="100%"
               width="100%"
               x="102.586"
               xlink:href="#equation_02_00"
               y="62.764599"
               id="use2028" />
            <use
               height="100%"
               width="100%"
               x="113.102"
               xlink:href="#equation_02_01"
               y="62.764599"
               id="use2030" />
            <use
               height="100%"
               width="100%"
               x="117.931"
               xlink:href="#equation_02_05"
               y="64.259003"
               id="use2032" />
          </g>
        </g>
        <g
           transform="translate(-2.5513393,0.37797619)"
           id="equation_03_g">
          <use
             height="100%"
             width="100%"
             x="76.712303"
             xlink:href="#equation_03_00"
             y="62.764599"
             id="use3428" />
          <use
             height="100%"
             width="100%"
             x="83.4925"
             xlink:href="#equation_03_03"
             y="62.764599"
             id="use3430" />
          <use
             height="100%"
             width="100%"
             x="89.027298"
             xlink:href="#equation_03_02"
             y="62.764599"
             id="use3432" />
          <use
             height="100%"
             width="100%"
             x="92.957001"
             xlink:href="#equation_03_01"
             y="62.764599"
             id="use3434" />
        </g>
      </g>
    </g>
  </g>
</svg>
