<?xml version="1.0" encoding="UTF-8" standalone="no"?>
<svg
   xmlns:dc="http://purl.org/dc/elements/1.1/"
   xmlns:cc="http://creativecommons.org/ns#"
   xmlns:rdf="http://www.w3.org/1999/02/22-rdf-syntax-ns#"
   xmlns:svg="http://www.w3.org/2000/svg"
   xmlns="http://www.w3.org/2000/svg"
   xmlns:xlink="http://www.w3.org/1999/xlink"
   xmlns:sodipodi="http://sodipodi.sourceforge.net/DTD/sodipodi-0.dtd"
   xmlns:inkscape="http://www.inkscape.org/namespaces/inkscape"
   width="1089.8051"
   height="312.26273"
   version="1.1"
   id="svg1844"
   sodipodi:docname="seq_sample_splitted.svg"
   inkscape:version="0.92.4 (5da689c313, 2019-01-14)">
  <metadata
     id="metadata1850">
    <rdf:RDF>
      <cc:Work
         rdf:about="">
        <dc:format>image/svg+xml</dc:format>
        <dc:type
           rdf:resource="http://purl.org/dc/dcmitype/StillImage" />
        <dc:title></dc:title>
      </cc:Work>
    </rdf:RDF>
  </metadata>
  <defs
     id="defs1848" />
  <sodipodi:namedview
     pagecolor="#ffffff"
     bordercolor="#666666"
     borderopacity="1"
     objecttolerance="10"
     gridtolerance="10"
     guidetolerance="10"
     inkscape:pageopacity="0"
     inkscape:pageshadow="2"
     inkscape:window-width="2560"
     inkscape:window-height="1315"
     id="namedview1846"
     showgrid="false"
     fit-margin-top="0"
     fit-margin-left="0"
     fit-margin-right="0"
     fit-margin-bottom="0"
     inkscape:zoom="0.944"
     inkscape:cx="327.10886"
     inkscape:cy="43.141305"
     inkscape:window-x="-13"
     inkscape:window-y="-13"
     inkscape:window-maximized="1"
     inkscape:current-layer="svg1844" />
  <g
     id="g2470"
     transform="translate(217.56346,-64.923634)">
    <circle
       style="fill:#000000;stroke:#000000;stroke-dasharray:none"
       cy="250"
       cx="-84"
       id="circle1774"
       r="40" />
    <text
       y="250"
       x="-84"
       style="font-size:40px;dominant-baseline:central;text-anchor:middle;fill:#ffffff;stroke:#ffffff"
       id="text1776"
       font-size="40px"
       dominant-baseline="central"
       class="num">5</text>
    <circle
       style="fill:#000000;stroke:#000000;stroke-dasharray:none"
       cy="250"
       cx="36"
       id="circle1782"
       r="40" />
    <text
       y="250"
       x="36"
       style="font-size:40px;dominant-baseline:central;text-anchor:middle;fill:#ffffff;stroke:#ffffff"
       id="text1784"
       font-size="40px"
       dominant-baseline="central"
       class="num">7</text>
    <circle
       style="fill:#000000;stroke:#000000;stroke-dasharray:none"
       cy="250"
       cx="156"
       id="circle1790"
       r="40" />
    <text
       y="250"
       x="156"
       style="font-size:40px;dominant-baseline:central;text-anchor:middle;fill:#ffffff;stroke:#ffffff"
       id="text1792"
       font-size="40px"
       dominant-baseline="central"
       class="num">17</text>
    <circle
       style="fill:#000000;stroke:#000000;stroke-dasharray:none"
       cy="250"
       cx="276"
       id="circle1798"
       r="40" />
    <text
       y="250"
       x="276"
       style="font-size:40px;dominant-baseline:central;text-anchor:middle;fill:#ffffff;stroke:#ffffff"
       id="text1800"
       font-size="40px"
       dominant-baseline="central"
       class="num">9</text>
    <circle
       style="fill:#000000;stroke:#000000;stroke-dasharray:none"
       cy="250"
       cx="396"
       id="circle1806"
       r="40" />
    <text
       y="250"
       x="396"
       style="font-size:40px;dominant-baseline:central;text-anchor:middle;fill:#ffffff;stroke:#ffffff"
       id="text1808"
       font-size="40px"
       dominant-baseline="central"
       class="num">25</text>
    <circle
       style="fill:#000000;stroke:#000000;stroke-dasharray:none"
       cy="250"
       cx="516"
       id="circle1814"
       r="40" />
    <text
       y="250"
       x="516"
       style="font-size:40px;dominant-baseline:central;text-anchor:middle;fill:#ffffff;stroke:#ffffff"
       id="text1816"
       font-size="40px"
       dominant-baseline="central"
       class="num">19</text>
    <circle
       style="fill:#000000;stroke:#000000;stroke-dasharray:none"
       cy="250"
       cx="636"
       id="circle1822"
       r="40" />
    <text
       y="250"
       x="636"
       style="font-size:40px;dominant-baseline:central;text-anchor:middle;fill:#ffffff;stroke:#ffffff"
       id="text1824"
       font-size="40px"
       dominant-baseline="central"
       class="num">28</text>
    <circle
       style="fill:#000000;stroke:#000000;stroke-dasharray:none"
       cy="250"
       cx="756"
       id="circle1830"
       r="40" />
    <text
       y="250"
       x="756"
       style="font-size:40px;dominant-baseline:central;text-anchor:middle;fill:#ffffff;stroke:#ffffff"
       id="text1832"
       font-size="40px"
       dominant-baseline="central"
       class="num">16</text>
  </g>
  <rect
     style="opacity:1;fill:none;fill-opacity:1;fill-rule:nonzero;stroke:#040000;stroke-width:4;stroke-miterlimit:4;stroke-dasharray:16, 4;stroke-dashoffset:0;stroke-opacity:0.98360656"
     id="rect859"
     width="509.53391"
     height="188.55933"
     x="31.661016"
     y="92.042374" />
  <rect
     style="opacity:1;fill:none;fill-opacity:1;fill-rule:nonzero;stroke:#040000;stroke-width:4;stroke-miterlimit:4;stroke-dasharray:16, 4;stroke-dashoffset:0;stroke-opacity:0.98360656"
     id="rect859-0"
     width="509.53391"
     height="188.55933"
     x="554.4364"
     y="92.042366" />
  <g
     title="$S_1$"
     style="fill:#000000"
     id="equation_00"
     transform="matrix(7.8518847,0,0,7.8518847,-563.19047,-415.89253)">
    <defs
       id="defs900">
      <path
         id="equation_00_00"
         d="m 6.4259,-6.92403 c 0,-0.02989 -0.01992,-0.09963 -0.10959,-0.09963 -0.04981,0 -0.05977,0.00996 -0.17932,0.14944 L 5.65878,-6.30635 C 5.39975,-6.7746 4.88169,-7.02366 4.23412,-7.02366 c -1.26525,0 -2.46077,1.1457 -2.46077,2.35118 0,0.80698 0.52802,1.26526 1.03611,1.4147 l 1.06601,0.27895 c 0.36861,0.08966 0.91656,0.2391 0.91656,1.05604 0,0.89664 -0.81694,1.8331262 -1.79328,1.8331262 -0.6376,0 -1.74346,-0.2191782 -1.74346,-1.4545462 0,-0.2391 0.04982,-0.47821 0.05978,-0.53798 0.00996,-0.03985 0.01992,-0.04981 0.01992,-0.06974 0,-0.09963 -0.06973,-0.10959 -0.11955,-0.10959 -0.04982,0 -0.06974,0.00996 -0.09962,0.03985 -0.03985,0.03985 -0.597763,2.3113338 -0.597763,2.341222 0,0.059776 0.049813,0.099626 0.109589,0.099626 0.049814,0 0.059776,-0.009963 0.179328,-0.1494395 L 1.29514,-0.498132 c 0.4284,0.5778331 1.10586,0.71731 1.68369,0.71731 1.35492,0 2.53051,-1.325028 2.53051,-2.560398 0,-0.68742 -0.33873,-1.02615 -0.48817,-1.16563 C 4.79203,-3.73599 4.64259,-3.77584 3.75592,-4.00498 3.53674,-4.06476 3.17808,-4.16438 3.08842,-4.18431 2.81943,-4.27397 2.4807,-4.56289 2.4807,-5.09091 c 0,-0.80697 0.79701,-1.6538 1.74346,-1.6538 0.8269,0 1.43462,0.4284 1.43462,1.54421 0,0.31881 -0.03985,0.49813 -0.03985,0.55791 0,0.00996 0,0.09963 0.11955,0.09963 0.09963,0 0.10959,-0.02989 0.14944,-0.19926 z"
         inkscape:connector-curvature="0" />
      <path
         id="equation_00_01"
         d="m 2.33624,-4.43537 c 0,-0.18829 -0.01395,-0.19527 -0.20922,-0.19527 -0.44632,0.43936 -1.08094,0.44633 -1.366871,0.44633 v 0.25106 c 0.167373,0 0.627651,0 1.011211,-0.19527 v 3.556664 c 0,0.230137 0,0.320797 -0.69739,0.320797 H 0.808966 V 0 c 0.12553,-0.00697385 0.983314,-0.0278954 1.241344,-0.0278954 0.21619,0 1.0949,0.02092155 1.24832,0.0278954 V -0.251059 H 3.03362 c -0.69738,0 -0.69738,-0.09066 -0.69738,-0.320797 z"
         inkscape:connector-curvature="0" />
    </defs>
    <g
       id="equation_00_g">
      <use
         id="use902"
         y="62.764599"
         xlink:href="#equation_00_00"
         x="76.712303"
         width="100%"
         height="100%" />
      <use
         id="use904"
         y="64.259003"
         xlink:href="#equation_00_01"
         x="82.821404"
         width="100%"
         height="100%" />
    </g>
  </g>
  <g
     title="$S_2$"
     style="fill:#000000"
     id="equation_01"
     transform="matrix(7.6533581,0,0,7.6533581,-28.260735,-402.60575)">
    <defs
       id="defs947">
      <path
         id="equation_01_00"
         d="m 6.4259,-6.92403 c 0,-0.02989 -0.01992,-0.09963 -0.10959,-0.09963 -0.04981,0 -0.05977,0.00996 -0.17932,0.14944 L 5.65878,-6.30635 C 5.39975,-6.7746 4.88169,-7.02366 4.23412,-7.02366 c -1.26525,0 -2.46077,1.1457 -2.46077,2.35118 0,0.80698 0.52802,1.26526 1.03611,1.4147 l 1.06601,0.27895 c 0.36861,0.08966 0.91656,0.2391 0.91656,1.05604 0,0.89664 -0.81694,1.8331262 -1.79328,1.8331262 -0.6376,0 -1.74346,-0.2191782 -1.74346,-1.4545462 0,-0.2391 0.04982,-0.47821 0.05978,-0.53798 0.00996,-0.03985 0.01992,-0.04981 0.01992,-0.06974 0,-0.09963 -0.06973,-0.10959 -0.11955,-0.10959 -0.04982,0 -0.06974,0.00996 -0.09962,0.03985 -0.03985,0.03985 -0.597763,2.3113338 -0.597763,2.341222 0,0.059776 0.049813,0.099626 0.109589,0.099626 0.049814,0 0.059776,-0.009963 0.179328,-0.1494395 L 1.29514,-0.498132 c 0.4284,0.5778331 1.10586,0.71731 1.68369,0.71731 1.35492,0 2.53051,-1.325028 2.53051,-2.560398 0,-0.68742 -0.33873,-1.02615 -0.48817,-1.16563 C 4.79203,-3.73599 4.64259,-3.77584 3.75592,-4.00498 3.53674,-4.06476 3.17808,-4.16438 3.08842,-4.18431 2.81943,-4.27397 2.4807,-4.56289 2.4807,-5.09091 c 0,-0.80697 0.79701,-1.6538 1.74346,-1.6538 0.8269,0 1.43462,0.4284 1.43462,1.54421 0,0.31881 -0.03985,0.49813 -0.03985,0.55791 0,0.00996 0,0.09963 0.11955,0.09963 0.09963,0 0.10959,-0.02989 0.14944,-0.19926 z"
         inkscape:connector-curvature="0" />
      <path
         id="equation_01_01"
         d="M 3.52179,-1.26924 H 3.28468 C 3.26376,-1.11582 3.19402,-0.704359 3.10336,-0.63462 3.04757,-0.592777 2.51059,-0.592777 2.41295,-0.592777 H 1.12976 C 1.86202,-1.24134 2.1061,-1.43661 2.52453,-1.76438 3.0406,-2.17584 3.52179,-2.60822 3.52179,-3.27073 c 0,-0.84384 -0.73922,-1.35991 -1.63188,-1.35991 -0.86475,0 -1.450558,0.60673 -1.450558,1.24832 0,0.35567 0.299876,0.39054 0.369614,0.39054 0.167373,0 0.369614,-0.11856 0.369614,-0.36961 0,-0.12553 -0.04882,-0.36962 -0.411457,-0.36962 0.21619,-0.49514 0.690407,-0.64857 1.018187,-0.64857 0.69738,0 1.06002,0.54396 1.06002,1.10885 0,0.60672 -0.43238,1.08792 -0.65554,1.33897 L 0.509091,-0.27198 C 0.439352,-0.209215 0.439352,-0.195268 0.439352,0 H 3.31258 Z"
         inkscape:connector-curvature="0" />
    </defs>
    <g
       id="equation_01_g">
      <use
         id="use949"
         y="62.764599"
         xlink:href="#equation_01_00"
         x="76.712303"
         width="100%"
         height="100%" />
      <use
         id="use951"
         y="64.259003"
         xlink:href="#equation_01_01"
         x="82.821404"
         width="100%"
         height="100%" />
    </g>
  </g>
</svg>
