<?xml version="1.0" encoding="UTF-8" standalone="no"?>
<svg
   xmlns:dc="http://purl.org/dc/elements/1.1/"
   xmlns:cc="http://creativecommons.org/ns#"
   xmlns:rdf="http://www.w3.org/1999/02/22-rdf-syntax-ns#"
   xmlns:svg="http://www.w3.org/2000/svg"
   xmlns="http://www.w3.org/2000/svg"
   xmlns:xlink="http://www.w3.org/1999/xlink"
   xmlns:sodipodi="http://sodipodi.sourceforge.net/DTD/sodipodi-0.dtd"
   xmlns:inkscape="http://www.inkscape.org/namespaces/inkscape"
   width="1075.147"
   height="394.25702"
   version="1.1"
   id="svg3401"
   sodipodi:docname="t1_t2_sorted.svg"
   inkscape:version="0.92.4 (5da689c313, 2019-01-14)">
  <metadata
     id="metadata3407">
    <rdf:RDF>
      <cc:Work
         rdf:about="">
        <dc:format>image/svg+xml</dc:format>
        <dc:type
           rdf:resource="http://purl.org/dc/dcmitype/StillImage" />
        <dc:title></dc:title>
      </cc:Work>
    </rdf:RDF>
  </metadata>
  <defs
     id="defs3405">
    <path
       id="equation_00_00"
       d="m 4.25405,-6.04732 c 0.06974,-0.27896 0.10959,-0.33873 0.22914,-0.36862 0.08966,-0.01993 0.41843,-0.01993 0.62764,-0.01993 1.00623,0 1.45455,0.03986 1.45455,0.81694 0,0.14944 -0.03985,0.53798 -0.0797,0.79701 -0.00996,0.03985 -0.02989,0.1594 -0.02989,0.18929 0,0.05978 0.02989,0.12952 0.11955,0.12952 0.10959,0 0.12952,-0.0797 0.14944,-0.22914 l 0.26899,-1.7335 C 7.00374,-6.5056 7.0137,-6.60523 7.0137,-6.63512 c 0,-0.10959 -0.09963,-0.10959 -0.26899,-0.10959 H 1.21544 c -0.239101,0 -0.249064,0.00997 -0.318802,0.19926 l -0.597759,1.75342 c -0.009962,0.01993 -0.059776,0.1594 -0.059776,0.17933 0,0.05977 0.049814,0.10959 0.119552,0.10959 0.099626,0 0.109589,-0.04982 0.169365,-0.20922 C 1.066,-6.25654 1.32503,-6.43587 2.7995,-6.43587 h 0.38854 c 0.27896,0 0.27896,0.03986 0.27896,0.11956 0,0.05977 -0.02989,0.17932 -0.03985,0.20921 l -1.335,5.320051 c -0.08966,0.368618 -0.11955,0.478207 -1.18555,0.478207 -0.358655,0 -0.418431,0 -0.418431,0.18929 C 0.488169,0 0.597758,0 0.657534,0 0.926526,0 1.20548,-0.0199253 1.47447,-0.0199253 c 0.27895,0 0.56787,-0.0099626 0.84683,-0.0099626 0.27896,0 0.5579,0.0099626 0.82689,0.0099626 C 3.43711,-0.0199253 3.73599,0 4.01494,0 c 0.09963,0 0.21918,0 0.21918,-0.199253 0,-0.109589 -0.0797,-0.109589 -0.33873,-0.109589 -0.24906,0 -0.37858,0 -0.63761,-0.019925 -0.28891,-0.029888 -0.36861,-0.059776 -0.36861,-0.219178 0,-0.009963 0,-0.059776 0.03985,-0.209216 z"
       inkscape:connector-curvature="0" />
    <path
       id="equation_00_01"
       d="m 2.33624,-4.43537 c 0,-0.18829 -0.01395,-0.19527 -0.20922,-0.19527 -0.44632,0.43936 -1.08094,0.44633 -1.366871,0.44633 v 0.25106 c 0.167373,0 0.627651,0 1.011211,-0.19527 v 3.556664 c 0,0.230137 0,0.320797 -0.69739,0.320797 H 0.808966 V 0 c 0.12553,-0.00697385 0.983314,-0.0278954 1.241344,-0.0278954 0.21619,0 1.0949,0.02092155 1.24832,0.0278954 V -0.251059 H 3.03362 c -0.69738,0 -0.69738,-0.09066 -0.69738,-0.320797 z"
       inkscape:connector-curvature="0" />
    <path
       id="equation_01_00"
       d="m 4.25405,-6.04732 c 0.06974,-0.27896 0.10959,-0.33873 0.22914,-0.36862 0.08966,-0.01993 0.41843,-0.01993 0.62764,-0.01993 1.00623,0 1.45455,0.03986 1.45455,0.81694 0,0.14944 -0.03985,0.53798 -0.0797,0.79701 -0.00996,0.03985 -0.02989,0.1594 -0.02989,0.18929 0,0.05978 0.02989,0.12952 0.11955,0.12952 0.10959,0 0.12952,-0.0797 0.14944,-0.22914 l 0.26899,-1.7335 C 7.00374,-6.5056 7.0137,-6.60523 7.0137,-6.63512 c 0,-0.10959 -0.09963,-0.10959 -0.26899,-0.10959 H 1.21544 c -0.239101,0 -0.249064,0.00997 -0.318802,0.19926 l -0.597759,1.75342 c -0.009962,0.01993 -0.059776,0.1594 -0.059776,0.17933 0,0.05977 0.049814,0.10959 0.119552,0.10959 0.099626,0 0.109589,-0.04982 0.169365,-0.20922 C 1.066,-6.25654 1.32503,-6.43587 2.7995,-6.43587 h 0.38854 c 0.27896,0 0.27896,0.03986 0.27896,0.11956 0,0.05977 -0.02989,0.17932 -0.03985,0.20921 l -1.335,5.320051 c -0.08966,0.368618 -0.11955,0.478207 -1.18555,0.478207 -0.358655,0 -0.418431,0 -0.418431,0.18929 C 0.488169,0 0.597758,0 0.657534,0 0.926526,0 1.20548,-0.0199253 1.47447,-0.0199253 c 0.27895,0 0.56787,-0.0099626 0.84683,-0.0099626 0.27896,0 0.5579,0.0099626 0.82689,0.0099626 C 3.43711,-0.0199253 3.73599,0 4.01494,0 c 0.09963,0 0.21918,0 0.21918,-0.199253 0,-0.109589 -0.0797,-0.109589 -0.33873,-0.109589 -0.24906,0 -0.37858,0 -0.63761,-0.019925 -0.28891,-0.029888 -0.36861,-0.059776 -0.36861,-0.219178 0,-0.009963 0,-0.059776 0.03985,-0.209216 z"
       inkscape:connector-curvature="0" />
    <path
       id="equation_01_01"
       d="M 3.52179,-1.26924 H 3.28468 C 3.26376,-1.11582 3.19402,-0.704359 3.10336,-0.63462 3.04757,-0.592777 2.51059,-0.592777 2.41295,-0.592777 H 1.12976 C 1.86202,-1.24134 2.1061,-1.43661 2.52453,-1.76438 3.0406,-2.17584 3.52179,-2.60822 3.52179,-3.27073 c 0,-0.84384 -0.73922,-1.35991 -1.63188,-1.35991 -0.86475,0 -1.450558,0.60673 -1.450558,1.24832 0,0.35567 0.299876,0.39054 0.369614,0.39054 0.167373,0 0.369614,-0.11856 0.369614,-0.36961 0,-0.12553 -0.04882,-0.36962 -0.411457,-0.36962 0.21619,-0.49514 0.690407,-0.64857 1.018187,-0.64857 0.69738,0 1.06002,0.54396 1.06002,1.10885 0,0.60672 -0.43238,1.08792 -0.65554,1.33897 L 0.509091,-0.27198 C 0.439352,-0.209215 0.439352,-0.195268 0.439352,0 H 3.31258 Z"
       inkscape:connector-curvature="0" />
  </defs>
  <sodipodi:namedview
     pagecolor="#ffffff"
     bordercolor="#666666"
     borderopacity="1"
     objecttolerance="10"
     gridtolerance="10"
     guidetolerance="10"
     inkscape:pageopacity="0"
     inkscape:pageshadow="2"
     inkscape:window-width="2560"
     inkscape:window-height="1315"
     id="namedview3403"
     showgrid="false"
     fit-margin-top="0"
     fit-margin-left="0"
     fit-margin-right="0"
     fit-margin-bottom="0"
     inkscape:zoom="0.6675088"
     inkscape:cx="827.3795"
     inkscape:cy="133.60442"
     inkscape:window-x="-13"
     inkscape:window-y="-13"
     inkscape:window-maximized="1"
     inkscape:current-layer="svg3401" />
  <g
     id="g4065"
     transform="translate(49.872678,215.86208)">
    <g
       id="g3399"
       transform="translate(0,100)"
       class="circles">
      <g
         id="g3307"
         transform="translate(40)"
         class="circle-text">
        <circle
           id="circle3303"
           r="20"
           cx="0"
           cy="0"
           style="fill:#4682b4;stroke:#0000ff" />
        <text
           id="text3305"
           font-size="20"
           dominant-baseline="central"
           style="font-size:20px;dominant-baseline:central;text-anchor:middle;fill:#ffffff;stroke:#ffffff">0</text>
      </g>
      <g
         id="g3313"
         transform="translate(100)"
         class="circle-text">
        <circle
           id="circle3309"
           r="20"
           cx="0"
           cy="0"
           style="fill:#4682b4;stroke:#0000ff" />
        <text
           id="text3311"
           font-size="20"
           dominant-baseline="central"
           style="font-size:20px;dominant-baseline:central;text-anchor:middle;fill:#ffffff;stroke:#ffffff">16</text>
      </g>
      <g
         id="g3319"
         transform="translate(160)"
         class="circle-text">
        <circle
           id="circle3315"
           r="20"
           cx="0"
           cy="0"
           style="fill:#4682b4;stroke:#0000ff" />
        <text
           id="text3317"
           font-size="20"
           dominant-baseline="central"
           style="font-size:20px;dominant-baseline:central;text-anchor:middle;fill:#ffffff;stroke:#ffffff">19</text>
      </g>
      <g
         id="g3325"
         transform="translate(220)"
         class="circle-text">
        <circle
           id="circle3321"
           r="20"
           cx="0"
           cy="0"
           style="fill:#4682b4;stroke:#0000ff" />
        <text
           id="text3323"
           font-size="20"
           dominant-baseline="central"
           style="font-size:20px;dominant-baseline:central;text-anchor:middle;fill:#ffffff;stroke:#ffffff">25</text>
      </g>
      <g
         id="g3331"
         transform="translate(280)"
         class="circle-text">
        <circle
           id="circle3327"
           r="20"
           cx="0"
           cy="0"
           style="fill:#4682b4;stroke:#0000ff" />
        <text
           id="text3329"
           font-size="20"
           dominant-baseline="central"
           style="font-size:20px;dominant-baseline:central;text-anchor:middle;fill:#ffffff;stroke:#ffffff">28</text>
      </g>
      <g
         id="g3337"
         transform="translate(340)"
         class="circle-text">
        <circle
           id="circle3333"
           r="20"
           cx="0"
           cy="0"
           style="fill:#4682b4;stroke:#0000ff" />
        <text
           id="text3335"
           font-size="20"
           dominant-baseline="central"
           style="font-size:20px;dominant-baseline:central;text-anchor:middle;fill:#ffffff;stroke:#ffffff">35</text>
      </g>
      <g
         id="g3343"
         transform="translate(400)"
         class="circle-text">
        <circle
           id="circle3339"
           r="20"
           cx="0"
           cy="0"
           style="fill:#4682b4;stroke:#0000ff" />
        <text
           id="text3341"
           font-size="20"
           dominant-baseline="central"
           style="font-size:20px;dominant-baseline:central;text-anchor:middle;fill:#ffffff;stroke:#ffffff">41</text>
      </g>
      <g
         id="g3349"
         transform="translate(460)"
         class="circle-text">
        <circle
           id="circle3345"
           r="20"
           cx="0"
           cy="0"
           style="fill:#4682b4;stroke:#0000ff" />
        <text
           id="text3347"
           font-size="20"
           dominant-baseline="central"
           style="font-size:20px;dominant-baseline:central;text-anchor:middle;fill:#ffffff;stroke:#ffffff">44</text>
      </g>
      <g
         id="g3355"
         transform="translate(520)"
         class="circle-text">
        <circle
           id="circle3351"
           r="20"
           cx="0"
           cy="0"
           style="fill:#4682b4;stroke:#0000ff" />
        <text
           id="text3353"
           font-size="20"
           dominant-baseline="central"
           style="font-size:20px;dominant-baseline:central;text-anchor:middle;fill:#ffffff;stroke:#ffffff">44</text>
      </g>
      <g
         id="g3361"
         transform="translate(580)"
         class="circle-text">
        <circle
           id="circle3357"
           r="20"
           cx="0"
           cy="0"
           style="fill:#4682b4;stroke:#0000ff" />
        <text
           id="text3359"
           font-size="20"
           dominant-baseline="central"
           style="font-size:20px;dominant-baseline:central;text-anchor:middle;fill:#ffffff;stroke:#ffffff">47</text>
      </g>
      <g
         id="g3367"
         transform="translate(640)"
         class="circle-text">
        <circle
           id="circle3363"
           r="20"
           cx="0"
           cy="0"
           style="fill:#4682b4;stroke:#0000ff" />
        <text
           id="text3365"
           font-size="20"
           dominant-baseline="central"
           style="font-size:20px;dominant-baseline:central;text-anchor:middle;fill:#ffffff;stroke:#ffffff">53</text>
      </g>
      <g
         id="g3373"
         transform="translate(700)"
         class="circle-text">
        <circle
           id="circle3369"
           r="20"
           cx="0"
           cy="0"
           style="fill:#4682b4;stroke:#0000ff" />
        <text
           id="text3371"
           font-size="20"
           dominant-baseline="central"
           style="font-size:20px;dominant-baseline:central;text-anchor:middle;fill:#ffffff;stroke:#ffffff">60</text>
      </g>
      <g
         id="g3379"
         transform="translate(760)"
         class="circle-text">
        <circle
           id="circle3375"
           r="20"
           cx="0"
           cy="0"
           style="fill:#4682b4;stroke:#0000ff" />
        <text
           id="text3377"
           font-size="20"
           dominant-baseline="central"
           style="font-size:20px;dominant-baseline:central;text-anchor:middle;fill:#ffffff;stroke:#ffffff">63</text>
      </g>
      <g
         id="g3385"
         transform="translate(820)"
         class="circle-text">
        <circle
           id="circle3381"
           r="20"
           cx="0"
           cy="0"
           style="fill:#4682b4;stroke:#0000ff" />
        <text
           id="text3383"
           font-size="20"
           dominant-baseline="central"
           style="font-size:20px;dominant-baseline:central;text-anchor:middle;fill:#ffffff;stroke:#ffffff">69</text>
      </g>
      <g
         id="g3391"
         transform="translate(880)"
         class="circle-text">
        <circle
           id="circle3387"
           r="20"
           cx="0"
           cy="0"
           style="fill:#4682b4;stroke:#0000ff" />
        <text
           id="text3389"
           font-size="20"
           dominant-baseline="central"
           style="font-size:20px;dominant-baseline:central;text-anchor:middle;fill:#ffffff;stroke:#ffffff">72</text>
      </g>
      <g
         id="g3397"
         transform="translate(940)"
         class="circle-text">
        <circle
           id="circle3393"
           r="20"
           cx="0"
           cy="0"
           style="fill:#4682b4;stroke:#0000ff" />
        <text
           id="text3395"
           font-size="20"
           dominant-baseline="central"
           style="font-size:20px;dominant-baseline:central;text-anchor:middle;fill:#ffffff;stroke:#ffffff">88</text>
      </g>
    </g>
  </g>
  <g
     id="g4866"
     transform="translate(49.085196,185.19746)">
    <rect
       y="84.466583"
       x="-22.613361"
       height="92.128723"
       width="1026.4873"
       id="rect4814"
       style="opacity:1;fill:none;fill-opacity:1;fill-rule:nonzero;stroke:#040000;stroke-width:4.00044632;stroke-miterlimit:4;stroke-dasharray:16.00178565, 4.00044641;stroke-dashoffset:0;stroke-opacity:0.98360656" />
  </g>
  <g
     id="g4933"
     transform="translate(43.092834,104.07422)">
    <g
       id="g2348"
       transform="translate(6.6226521,27.391846)"
       class="circles">
      <g
         id="g2256"
         transform="translate(40)"
         class="circle-text">
        <circle
           style="fill:#4682b4;stroke:#0000ff"
           cy="0"
           cx="0"
           id="circle2252"
           r="20" />
        <text
           style="font-size:20px;dominant-baseline:central;text-anchor:middle;fill:#ffffff;stroke:#ffffff"
           id="text2254"
           font-size="20"
           dominant-baseline="central">0</text>
      </g>
      <g
         id="g2262"
         transform="translate(100)"
         class="circle-text">
        <circle
           style="fill:#4682b4;stroke:#0000ff"
           cy="0"
           cx="0"
           id="circle2258"
           r="20" />
        <text
           style="font-size:20px;dominant-baseline:central;text-anchor:middle;fill:#ffffff;stroke:#ffffff"
           id="text2260"
           font-size="20"
           dominant-baseline="central">9</text>
      </g>
      <g
         id="g2268"
         transform="translate(160)"
         class="circle-text">
        <circle
           style="fill:#4682b4;stroke:#0000ff"
           cy="0"
           cx="0"
           id="circle2264"
           r="20" />
        <text
           style="font-size:20px;dominant-baseline:central;text-anchor:middle;fill:#ffffff;stroke:#ffffff"
           id="text2266"
           font-size="20"
           dominant-baseline="central">17</text>
      </g>
      <g
         id="g2274"
         transform="translate(220)"
         class="circle-text">
        <circle
           style="fill:#4682b4;stroke:#0000ff"
           cy="0"
           cx="0"
           id="circle2270"
           r="20" />
        <text
           style="font-size:20px;dominant-baseline:central;text-anchor:middle;fill:#ffffff;stroke:#ffffff"
           id="text2272"
           font-size="20"
           dominant-baseline="central">26</text>
      </g>
      <g
         id="g2280"
         transform="translate(280)"
         class="circle-text">
        <circle
           style="fill:#4682b4;stroke:#0000ff"
           cy="0"
           cx="0"
           id="circle2276"
           r="20" />
        <text
           style="font-size:20px;dominant-baseline:central;text-anchor:middle;fill:#ffffff;stroke:#ffffff"
           id="text2278"
           font-size="20"
           dominant-baseline="central">7</text>
      </g>
      <g
         id="g2286"
         transform="translate(340)"
         class="circle-text">
        <circle
           style="fill:#4682b4;stroke:#0000ff"
           cy="0"
           cx="0"
           id="circle2282"
           r="20" />
        <text
           style="font-size:20px;dominant-baseline:central;text-anchor:middle;fill:#ffffff;stroke:#ffffff"
           id="text2284"
           font-size="20"
           dominant-baseline="central">16</text>
      </g>
      <g
         id="g2292"
         transform="translate(400)"
         class="circle-text">
        <circle
           style="fill:#4682b4;stroke:#0000ff"
           cy="0"
           cx="0"
           id="circle2288"
           r="20" />
        <text
           style="font-size:20px;dominant-baseline:central;text-anchor:middle;fill:#ffffff;stroke:#ffffff"
           id="text2290"
           font-size="20"
           dominant-baseline="central">24</text>
      </g>
      <g
         id="g2298"
         transform="translate(460)"
         class="circle-text">
        <circle
           style="fill:#4682b4;stroke:#0000ff"
           cy="0"
           cx="0"
           id="circle2294"
           r="20" />
        <text
           style="font-size:20px;dominant-baseline:central;text-anchor:middle;fill:#ffffff;stroke:#ffffff"
           id="text2296"
           font-size="20"
           dominant-baseline="central">33</text>
      </g>
      <g
         id="g2304"
         transform="translate(520)"
         class="circle-text">
        <circle
           style="fill:#4682b4;stroke:#0000ff"
           cy="0"
           cx="0"
           id="circle2300"
           r="20" />
        <text
           style="font-size:20px;dominant-baseline:central;text-anchor:middle;fill:#ffffff;stroke:#ffffff"
           id="text2302"
           font-size="20"
           dominant-baseline="central">5</text>
      </g>
      <g
         id="g2310"
         transform="translate(580)"
         class="circle-text">
        <circle
           style="fill:#4682b4;stroke:#0000ff"
           cy="0"
           cx="0"
           id="circle2306"
           r="20" />
        <text
           style="font-size:20px;dominant-baseline:central;text-anchor:middle;fill:#ffffff;stroke:#ffffff"
           id="text2308"
           font-size="20"
           dominant-baseline="central">14</text>
      </g>
      <g
         id="g2316"
         transform="translate(640)"
         class="circle-text">
        <circle
           style="fill:#4682b4;stroke:#0000ff"
           cy="0"
           cx="0"
           id="circle2312"
           r="20" />
        <text
           style="font-size:20px;dominant-baseline:central;text-anchor:middle;fill:#ffffff;stroke:#ffffff"
           id="text2314"
           font-size="20"
           dominant-baseline="central">22</text>
      </g>
      <g
         id="g2322"
         transform="translate(700)"
         class="circle-text">
        <circle
           style="fill:#4682b4;stroke:#0000ff"
           cy="0"
           cx="0"
           id="circle2318"
           r="20" />
        <text
           style="font-size:20px;dominant-baseline:central;text-anchor:middle;fill:#ffffff;stroke:#ffffff"
           id="text2320"
           font-size="20"
           dominant-baseline="central">31</text>
      </g>
      <g
         id="g2328"
         transform="translate(760)"
         class="circle-text">
        <circle
           style="fill:#4682b4;stroke:#0000ff"
           cy="0"
           cx="0"
           id="circle2324"
           r="20" />
        <text
           style="font-size:20px;dominant-baseline:central;text-anchor:middle;fill:#ffffff;stroke:#ffffff"
           id="text2326"
           font-size="20"
           dominant-baseline="central">12</text>
      </g>
      <g
         id="g2334"
         transform="translate(820)"
         class="circle-text">
        <circle
           style="fill:#4682b4;stroke:#0000ff"
           cy="0"
           cx="0"
           id="circle2330"
           r="20" />
        <text
           style="font-size:20px;dominant-baseline:central;text-anchor:middle;fill:#ffffff;stroke:#ffffff"
           id="text2332"
           font-size="20"
           dominant-baseline="central">21</text>
      </g>
      <g
         id="g2340"
         transform="translate(880)"
         class="circle-text">
        <circle
           style="fill:#4682b4;stroke:#0000ff"
           cy="0"
           cx="0"
           id="circle2336"
           r="20" />
        <text
           style="font-size:20px;dominant-baseline:central;text-anchor:middle;fill:#ffffff;stroke:#ffffff"
           id="text2338"
           font-size="20"
           dominant-baseline="central">29</text>
      </g>
      <g
         id="g2346"
         transform="translate(940)"
         class="circle-text">
        <circle
           style="fill:#4682b4;stroke:#0000ff"
           cy="0"
           cx="0"
           id="circle2342"
           r="20" />
        <text
           style="font-size:20px;dominant-baseline:central;text-anchor:middle;fill:#ffffff;stroke:#ffffff"
           id="text2344"
           font-size="20"
           dominant-baseline="central">38</text>
      </g>
    </g>
    <rect
       style="opacity:1;fill:none;fill-opacity:1;fill-rule:nonzero;stroke:#040000;stroke-width:4.00044632;stroke-miterlimit:4;stroke-dasharray:16.00178565, 4.00044641;stroke-dashoffset:0;stroke-opacity:0.98360656"
       id="rect4814-1"
       width="1026.4873"
       height="92.128723"
       x="-16.621"
       y="-18.672516" />
  </g>
  <g
     title="$T_1$"
     style="fill:#000000"
     id="equation_00"
     transform="matrix(6.4548623,0,0,6.4548623,-447.45208,-340.83053)">
    <defs
       id="defs5042">
      <path
         id="path5542"
         d="m 4.25405,-6.04732 c 0.06974,-0.27896 0.10959,-0.33873 0.22914,-0.36862 0.08966,-0.01993 0.41843,-0.01993 0.62764,-0.01993 1.00623,0 1.45455,0.03986 1.45455,0.81694 0,0.14944 -0.03985,0.53798 -0.0797,0.79701 -0.00996,0.03985 -0.02989,0.1594 -0.02989,0.18929 0,0.05978 0.02989,0.12952 0.11955,0.12952 0.10959,0 0.12952,-0.0797 0.14944,-0.22914 l 0.26899,-1.7335 C 7.00374,-6.5056 7.0137,-6.60523 7.0137,-6.63512 c 0,-0.10959 -0.09963,-0.10959 -0.26899,-0.10959 H 1.21544 c -0.239101,0 -0.249064,0.00997 -0.318802,0.19926 l -0.597759,1.75342 c -0.009962,0.01993 -0.059776,0.1594 -0.059776,0.17933 0,0.05977 0.049814,0.10959 0.119552,0.10959 0.099626,0 0.109589,-0.04982 0.169365,-0.20922 C 1.066,-6.25654 1.32503,-6.43587 2.7995,-6.43587 h 0.38854 c 0.27896,0 0.27896,0.03986 0.27896,0.11956 0,0.05977 -0.02989,0.17932 -0.03985,0.20921 l -1.335,5.320051 c -0.08966,0.368618 -0.11955,0.478207 -1.18555,0.478207 -0.358655,0 -0.418431,0 -0.418431,0.18929 C 0.488169,0 0.597758,0 0.657534,0 0.926526,0 1.20548,-0.0199253 1.47447,-0.0199253 c 0.27895,0 0.56787,-0.0099626 0.84683,-0.0099626 0.27896,0 0.5579,0.0099626 0.82689,0.0099626 C 3.43711,-0.0199253 3.73599,0 4.01494,0 c 0.09963,0 0.21918,0 0.21918,-0.199253 0,-0.109589 -0.0797,-0.109589 -0.33873,-0.109589 -0.24906,0 -0.37858,0 -0.63761,-0.019925 -0.28891,-0.029888 -0.36861,-0.059776 -0.36861,-0.219178 0,-0.009963 0,-0.059776 0.03985,-0.209216 z"
         inkscape:connector-curvature="0" />
      <path
         id="path5544"
         d="m 2.33624,-4.43537 c 0,-0.18829 -0.01395,-0.19527 -0.20922,-0.19527 -0.44632,0.43936 -1.08094,0.44633 -1.366871,0.44633 v 0.25106 c 0.167373,0 0.627651,0 1.011211,-0.19527 v 3.556664 c 0,0.230137 0,0.320797 -0.69739,0.320797 H 0.808966 V 0 c 0.12553,-0.00697385 0.983314,-0.0278954 1.241344,-0.0278954 0.21619,0 1.0949,0.02092155 1.24832,0.0278954 V -0.251059 H 3.03362 c -0.69738,0 -0.69738,-0.09066 -0.69738,-0.320797 z"
         inkscape:connector-curvature="0" />
    </defs>
    <g
       id="equation_00_g">
      <use
         id="use5044"
         y="62.764599"
         xlink:href="#equation_00_00"
         x="76.712303"
         width="100%"
         height="100%" />
      <use
         id="use5046"
         y="64.259003"
         xlink:href="#equation_00_01"
         x="82.534302"
         width="100%"
         height="100%" />
    </g>
  </g>
  <g
     title="$T_2$"
     style="fill:#000000"
     id="equation_01"
     transform="matrix(6.4548623,0,0,6.4548623,-447.45208,-153.56708)">
    <defs
       id="defs5172">
      <path
         id="path5551"
         d="m 4.25405,-6.04732 c 0.06974,-0.27896 0.10959,-0.33873 0.22914,-0.36862 0.08966,-0.01993 0.41843,-0.01993 0.62764,-0.01993 1.00623,0 1.45455,0.03986 1.45455,0.81694 0,0.14944 -0.03985,0.53798 -0.0797,0.79701 -0.00996,0.03985 -0.02989,0.1594 -0.02989,0.18929 0,0.05978 0.02989,0.12952 0.11955,0.12952 0.10959,0 0.12952,-0.0797 0.14944,-0.22914 l 0.26899,-1.7335 C 7.00374,-6.5056 7.0137,-6.60523 7.0137,-6.63512 c 0,-0.10959 -0.09963,-0.10959 -0.26899,-0.10959 H 1.21544 c -0.239101,0 -0.249064,0.00997 -0.318802,0.19926 l -0.597759,1.75342 c -0.009962,0.01993 -0.059776,0.1594 -0.059776,0.17933 0,0.05977 0.049814,0.10959 0.119552,0.10959 0.099626,0 0.109589,-0.04982 0.169365,-0.20922 C 1.066,-6.25654 1.32503,-6.43587 2.7995,-6.43587 h 0.38854 c 0.27896,0 0.27896,0.03986 0.27896,0.11956 0,0.05977 -0.02989,0.17932 -0.03985,0.20921 l -1.335,5.320051 c -0.08966,0.368618 -0.11955,0.478207 -1.18555,0.478207 -0.358655,0 -0.418431,0 -0.418431,0.18929 C 0.488169,0 0.597758,0 0.657534,0 0.926526,0 1.20548,-0.0199253 1.47447,-0.0199253 c 0.27895,0 0.56787,-0.0099626 0.84683,-0.0099626 0.27896,0 0.5579,0.0099626 0.82689,0.0099626 C 3.43711,-0.0199253 3.73599,0 4.01494,0 c 0.09963,0 0.21918,0 0.21918,-0.199253 0,-0.109589 -0.0797,-0.109589 -0.33873,-0.109589 -0.24906,0 -0.37858,0 -0.63761,-0.019925 -0.28891,-0.029888 -0.36861,-0.059776 -0.36861,-0.219178 0,-0.009963 0,-0.059776 0.03985,-0.209216 z"
         inkscape:connector-curvature="0" />
      <path
         id="path5553"
         d="M 3.52179,-1.26924 H 3.28468 C 3.26376,-1.11582 3.19402,-0.704359 3.10336,-0.63462 3.04757,-0.592777 2.51059,-0.592777 2.41295,-0.592777 H 1.12976 C 1.86202,-1.24134 2.1061,-1.43661 2.52453,-1.76438 3.0406,-2.17584 3.52179,-2.60822 3.52179,-3.27073 c 0,-0.84384 -0.73922,-1.35991 -1.63188,-1.35991 -0.86475,0 -1.450558,0.60673 -1.450558,1.24832 0,0.35567 0.299876,0.39054 0.369614,0.39054 0.167373,0 0.369614,-0.11856 0.369614,-0.36961 0,-0.12553 -0.04882,-0.36962 -0.411457,-0.36962 0.21619,-0.49514 0.690407,-0.64857 1.018187,-0.64857 0.69738,0 1.06002,0.54396 1.06002,1.10885 0,0.60672 -0.43238,1.08792 -0.65554,1.33897 L 0.509091,-0.27198 C 0.439352,-0.209215 0.439352,-0.195268 0.439352,0 H 3.31258 Z"
         inkscape:connector-curvature="0" />
    </defs>
    <g
       title="$T_2 \text{ (Sorted)}$"
       style="fill:#000000"
       id="equation_02">
      <defs
         id="defs5691">
        <path
           id="equation_02_00"
           d="M 3.52179,-1.26924 H 3.28468 C 3.26376,-1.11582 3.19402,-0.704359 3.10336,-0.63462 3.04757,-0.592777 2.51059,-0.592777 2.41295,-0.592777 H 1.12976 C 1.86202,-1.24134 2.1061,-1.43661 2.52453,-1.76438 3.0406,-2.17584 3.52179,-2.60822 3.52179,-3.27073 c 0,-0.84384 -0.73922,-1.35991 -1.63188,-1.35991 -0.86475,0 -1.450558,0.60673 -1.450558,1.24832 0,0.35567 0.299876,0.39054 0.369614,0.39054 0.167373,0 0.369614,-0.11856 0.369614,-0.36961 0,-0.12553 -0.04882,-0.36962 -0.411457,-0.36962 0.21619,-0.49514 0.690407,-0.64857 1.018187,-0.64857 0.69738,0 1.06002,0.54396 1.06002,1.10885 0,0.60672 -0.43238,1.08792 -0.65554,1.33897 L 0.509091,-0.27198 C 0.439352,-0.209215 0.439352,-0.195268 0.439352,0 H 3.31258 Z"
           inkscape:connector-curvature="0" />
        <path
           id="equation_02_01"
           d="m 4.25405,-6.04732 c 0.06974,-0.27896 0.10959,-0.33873 0.22914,-0.36862 0.08966,-0.01993 0.41843,-0.01993 0.62764,-0.01993 1.00623,0 1.45455,0.03986 1.45455,0.81694 0,0.14944 -0.03985,0.53798 -0.0797,0.79701 -0.00996,0.03985 -0.02989,0.1594 -0.02989,0.18929 0,0.05978 0.02989,0.12952 0.11955,0.12952 0.10959,0 0.12952,-0.0797 0.14944,-0.22914 l 0.26899,-1.7335 C 7.00374,-6.5056 7.0137,-6.60523 7.0137,-6.63512 c 0,-0.10959 -0.09963,-0.10959 -0.26899,-0.10959 H 1.21544 c -0.239101,0 -0.249064,0.00997 -0.318802,0.19926 l -0.597759,1.75342 c -0.009962,0.01993 -0.059776,0.1594 -0.059776,0.17933 0,0.05977 0.049814,0.10959 0.119552,0.10959 0.099626,0 0.109589,-0.04982 0.169365,-0.20922 C 1.066,-6.25654 1.32503,-6.43587 2.7995,-6.43587 h 0.38854 c 0.27896,0 0.27896,0.03986 0.27896,0.11956 0,0.05977 -0.02989,0.17932 -0.03985,0.20921 l -1.335,5.320051 c -0.08966,0.368618 -0.11955,0.478207 -1.18555,0.478207 -0.358655,0 -0.418431,0 -0.418431,0.18929 C 0.488169,0 0.597758,0 0.657534,0 0.926526,0 1.20548,-0.0199253 1.47447,-0.0199253 c 0.27895,0 0.56787,-0.0099626 0.84683,-0.0099626 0.27896,0 0.5579,0.0099626 0.82689,0.0099626 C 3.43711,-0.0199253 3.73599,0 4.01494,0 c 0.09963,0 0.21918,0 0.21918,-0.199253 0,-0.109589 -0.0797,-0.109589 -0.33873,-0.109589 -0.24906,0 -0.37858,0 -0.63761,-0.019925 -0.28891,-0.029888 -0.36861,-0.059776 -0.36861,-0.219178 0,-0.009963 0,-0.059776 0.03985,-0.209216 z"
           inkscape:connector-curvature="0" />
        <path
           id="equation_02_02"
           d="m 3.29763,2.39103 c 0,-0.02988 0,-0.04981 -0.16936,-0.21917 -1.24533,-1.255297 -1.56414,-3.138236 -1.56414,-4.66252 0,-1.7335 0.37858,-3.467 1.60399,-4.71233 0.12951,-0.11955 0.12951,-0.13948 0.12951,-0.16936 0,-0.06974 -0.03985,-0.09963 -0.09962,-0.09963 -0.09963,0 -0.99627,0.67746 -1.58406,1.94271 -0.5081,1.0959 -0.627649,2.20175 -0.627649,3.03861 0,0.77709 0.109589,1.982565 0.657539,3.108344 0.59775,1.225406 1.45454,1.872976 1.55417,1.872976 0.05977,0 0.09962,-0.02989 0.09962,-0.09963 z"
           inkscape:connector-curvature="0" />
        <path
           id="equation_02_03"
           d="m 2.8792,-2.49066 c 0,-0.77709 -0.10959,-1.98257 -0.65753,-3.10834 -0.59776,-1.22541 -1.454547,-1.87298 -1.554173,-1.87298 -0.059776,0 -0.099627,0.03985 -0.099627,0.09963 0,0.02988 0,0.04981 0.189291,0.22914 0.976339,0.9863 1.544209,2.57036 1.544209,4.65255 0,1.703611 -0.36862,3.457036 -1.603985,4.71233 C 0.56787,2.34122 0.56787,2.36115 0.56787,2.39103 c 0,0.05978 0.039851,0.09963 0.099627,0.09963 0.099626,0 0.996263,-0.67746 1.584063,-1.942715 C 2.75965,-0.547945 2.8792,-1.6538 2.8792,-2.49066 Z"
           inkscape:connector-curvature="0" />
        <path
           id="equation_02_04"
           d="M 3.47696,-3.8655 2.20174,-4.17435 C 1.58406,-4.32379 1.19552,-4.86177 1.19552,-5.4396 c 0,-0.69739 0.53798,-1.30511 1.31507,-1.30511 1.66376,0 1.88293,1.63388 1.94271,2.08219 0.00996,0.05978 0.00996,0.11956 0.11955,0.11956 0.12952,0 0.12952,-0.04982 0.12952,-0.23911 v -2.00249 c 0,-0.16936 0,-0.2391 -0.10959,-0.2391 -0.06974,0 -0.0797,0.00996 -0.14944,0.12951 L 4.09465,-6.32628 C 3.79577,-6.61519 3.3873,-7.02366 2.50062,-7.02366 c -1.10585,0 -1.942712,0.87671 -1.942712,1.93275 0,0.8269 0.528022,1.55417 1.305102,1.82316 0.10959,0.03985 0.61769,0.15941 1.31507,0.32877 0.26899,0.06974 0.56787,0.13948 0.84683,0.5081 0.20921,0.25902 0.30884,0.58779 0.30884,0.91656 0,0.707346 -0.49813,1.4246562 -1.335,1.4246562 -0.28891,0 -1.04607,-0.0498132 -1.57409,-0.5379822 C 0.846824,-1.16563 0.816936,-1.80324 0.806974,-2.16189 0.797011,-2.26152 0.71731,-2.26152 0.687422,-2.26152 c -0.129514,0 -0.129514,0.06974 -0.129514,0.24907 v 1.9925247 c 0,0.1693653 0,0.2391033 0.109589,0.2391033 0.069738,0 0.079701,-0.019925 0.149439,-0.1295142 0,-0.0099627 0.029888,-0.0398506 0.358654,-0.5678708 0.30884,0.33873 0.94645,0.697385 1.83313,0.697385 1.16563,0 1.96264,-0.976339 1.96264,-2.072228 0,-0.99627 -0.65754,-1.8132 -1.4944,-2.01245 z"
           inkscape:connector-curvature="0" />
        <path
           id="equation_02_05"
           d="M 3.7858,-0.547945 V 0.109589 L 5.25031,0 v -0.308842 c -0.69738,0 -0.77708,-0.069738 -0.77708,-0.557908 v -6.04732 l -1.43462,0.10959 v 0.30884 c 0.69738,0 0.77708,0.06974 0.77708,0.55791 V -3.7858 C 3.52677,-4.14446 3.09838,-4.40349 2.5604,-4.40349 c -1.17559,0 -2.22167,0.97634 -2.22167,2.26152 0,1.265258 0.97634,2.251559 2.11208,2.251559 0.63761,0 1.08593,-0.33873 1.33499,-0.657534 z m 0,-2.669985 v 2.04234 c 0,0.179326 0,0.199251 -0.10959,0.368616 -0.29888,0.478207 -0.74719,0.697385 -1.17559,0.697385 -0.44832,0 -0.80697,-0.259029 -1.04607,-0.637609 C 1.19552,-1.15567 1.16563,-1.72354 1.16563,-2.132 c 0,-0.36862 0.01992,-0.96638 0.30884,-1.4147 0.20922,-0.30884 0.5878,-0.63761 1.12578,-0.63761 0.34869,0 0.76712,0.14944 1.07596,0.59776 0.10959,0.16936 0.10959,0.18929 0.10959,0.36862 z"
           inkscape:connector-curvature="0" />
        <path
           id="equation_02_06"
           d="m 1.11582,-2.51059 c 0.05977,-1.48443 0.89663,-1.73349 1.23536,-1.73349 1.02615,0 1.12578,1.34495 1.12578,1.73349 z m -0.00997,0.20922 h 2.77958 c 0.21918,0 0.24907,0 0.24907,-0.20922 0,-0.9863 -0.53799,-1.95267 -1.78332,-1.95267 -1.15566,0 -2.072226,1.02615 -2.072226,2.27148 0,1.334993 1.046076,2.301369 2.191776,2.301369 1.21545,0 1.66377,-1.105853 1.66377,-1.295139 0,-0.09963 -0.07971,-0.11956 -0.12952,-0.11956 -0.08966,0 -0.10959,0.05978 -0.12951,0.13948 -0.3487,1.026153 -1.24533,1.026153 -1.34496,1.026153 -0.49813,0 -0.89664,-0.298879 -1.12578,-0.667497 C 1.10585,-1.28518 1.10585,-1.94271 1.10585,-2.30137 Z"
           inkscape:connector-curvature="0" />
        <path
           id="equation_02_07"
           d="m 4.6924,-2.132 c 0,-1.27522 -0.99626,-2.33126 -2.20174,-2.33126 -1.24533,0 -2.211706,1.08593 -2.211706,2.33126 0,1.285176 1.036116,2.241589 2.201746,2.241589 1.20548,0 2.2117,-0.976339 2.2117,-2.241589 z m -2.20174,1.992523 c -0.42839,0 -0.86675,-0.209215 -1.13574,-0.667497 C 1.10585,-1.24533 1.10585,-1.85305 1.10585,-2.21171 c 0,-0.38854 0,-0.92652 0.23911,-1.36488 0.26899,-0.45828 0.73723,-0.66749 1.13574,-0.66749 0.43835,0 0.86675,0.21917 1.12578,0.64757 0.25903,0.4284 0.25902,1.00622 0.25902,1.3848 0,0.35866 0,0.89664 -0.21917,1.334998 -0.21918,0.448318 -0.65754,0.737235 -1.15567,0.737235 z"
           inkscape:connector-curvature="0" />
        <path
           id="equation_02_08"
           d="M 1.66376,-3.3076 V -4.40349 L 0.278954,-4.2939 v 0.30884 c 0.697385,0 0.777086,0.06974 0.777086,0.55791 v 2.669989 c 0,0.448319 -0.109589,0.448319 -0.777086,0.448319 V 0 c 0.388543,-0.00996264 0.856786,-0.0298879 1.135736,-0.0298879 0.39851,0 0.86675,0 1.26526,0.0298879 V -0.308842 H 2.47073 c -0.73723,0 -0.75716,-0.109589 -0.75716,-0.468244 V -2.31133 c 0,-0.9863 0.41843,-1.87298 1.1756,-1.87298 0.06973,0 0.08966,0 0.10958,0.00996 -0.02988,0.00997 -0.22914,0.12952 -0.22914,0.38855 0,0.27895 0.20922,0.42839 0.4284,0.42839 0.17932,0 0.42839,-0.11955 0.42839,-0.43836 0,-0.31881 -0.30884,-0.60772 -0.73723,-0.60772 -0.72728,0 -1.08593,0.6675 -1.22541,1.09589 z"
           inkscape:connector-curvature="0" />
        <path
           id="equation_02_09"
           d="M 1.72354,-3.98506 H 3.14819 V -4.2939 H 1.72354 V -6.12702 H 1.47447 c -0.00996,0.81693 -0.30884,1.88294 -1.28518,1.92279 v 0.21917 h 0.84682 v 2.74969 c 0,1.22540736 0.92653,1.344959 1.28519,1.344959 0.70734,0 0.9863,-0.707347 0.9863,-1.344959 V -1.80324 H 3.05853 v 0.54795 c 0,0.737233 -0.29888,1.115813 -0.6675,1.115813 -0.66749,0 -0.66749,-0.906603 -0.66749,-1.075963 z"
           inkscape:connector-curvature="0" />
      </defs>
      <g
         id="equation_02_g">
        <use
           id="use5693"
           y="62.764599"
           xlink:href="#equation_02_01"
           x="76.712303"
           width="100%"
           height="100%" />
        <use
           id="use5695"
           y="64.259003"
           xlink:href="#equation_02_00"
           x="82.534302"
           width="100%"
           height="100%" />
        <use
           id="use5697"
           y="62.764599"
           xlink:href="#equation_02_02"
           x="90.324501"
           width="100%"
           height="100%" />
        <use
           id="use5699"
           y="62.764599"
           xlink:href="#equation_02_04"
           x="94.198898"
           width="100%"
           height="100%" />
        <use
           id="use5701"
           y="62.764599"
           xlink:href="#equation_02_07"
           x="99.733704"
           width="100%"
           height="100%" />
        <use
           id="use5703"
           y="62.764599"
           xlink:href="#equation_02_08"
           x="104.715"
           width="100%"
           height="100%" />
        <use
           id="use5705"
           y="62.764599"
           xlink:href="#equation_02_09"
           x="108.617"
           width="100%"
           height="100%" />
        <use
           id="use5707"
           y="62.764599"
           xlink:href="#equation_02_06"
           x="112.491"
           width="100%"
           height="100%" />
        <use
           id="use5709"
           y="62.764599"
           xlink:href="#equation_02_05"
           x="116.919"
           width="100%"
           height="100%" />
        <use
           id="use5711"
           y="62.764599"
           xlink:href="#equation_02_03"
           x="122.454"
           width="100%"
           height="100%" />
      </g>
    </g>
  </g>
</svg>
