<?xml version="1.0" encoding="UTF-8" standalone="no"?>
<!-- Created with Inkscape (http://www.inkscape.org/) -->

<svg
   xmlns:dc="http://purl.org/dc/elements/1.1/"
   xmlns:cc="http://creativecommons.org/ns#"
   xmlns:rdf="http://www.w3.org/1999/02/22-rdf-syntax-ns#"
   xmlns:svg="http://www.w3.org/2000/svg"
   xmlns="http://www.w3.org/2000/svg"
   xmlns:xlink="http://www.w3.org/1999/xlink"
   xmlns:sodipodi="http://sodipodi.sourceforge.net/DTD/sodipodi-0.dtd"
   xmlns:inkscape="http://www.inkscape.org/namespaces/inkscape"
   width="200"
   height="200"
   viewBox="0 0 52.916666 52.916666"
   version="1.1"
   id="svg8"
   inkscape:version="0.92.2 5c3e80d, 2017-08-06"
   sodipodi:docname="vec01.svg">
  <sodipodi:namedview
     id="base"
     pagecolor="#ffffff"
     bordercolor="#666666"
     borderopacity="1.0"
     inkscape:pageopacity="0.0"
     inkscape:pageshadow="2"
     inkscape:zoom="5.6568542"
     inkscape:cx="76.057865"
     inkscape:cy="94.750427"
     inkscape:document-units="mm"
     inkscape:current-layer="layer1"
     showgrid="false"
     inkscape:window-width="1440"
     inkscape:window-height="855"
     inkscape:window-x="0"
     inkscape:window-y="1"
     inkscape:window-maximized="1"
     units="px"
     inkscape:snap-bbox="true"
     inkscape:snap-bbox-midpoints="true"
     inkscape:snap-object-midpoints="true"
     inkscape:snap-intersection-paths="true" />
  <defs
     id="defs2">
    <path
       d="m 2.211706,-2.171856 c 0.667497,0 1.315069,-0.059775 1.733499,-0.199252 0.846825,-0.288917 0.986302,-0.856787 0.986302,-1.175592 0,-0.577833 -0.547945,-0.956413 -1.364882,-0.956413 -1.803238,0 -3.078456,1.24533 -3.078456,2.789539 0,1.145704 0.767124,1.793275 2.082192,1.793275 0.259029,0 0.946451,-0.009963 1.544209,-0.239103 0.577833,-0.229141 0.976339,-0.637609 0.976339,-0.757161 0,-0.079701 -0.159402,-0.259029 -0.249066,-0.259029 -0.059776,0 -0.079701,0.029888 -0.14944,0.10959 -0.537982,0.56787 -1.315068,0.787048 -2.092154,0.787048 -0.71731,0 -0.976339,-0.398506 -0.976339,-0.966376 0,-0.18929 0.039851,-0.518057 0.14944,-0.926526 z M 1.863014,-2.530511 c 0.179327,-0.727272 0.418431,-0.996264 0.587795,-1.155666 0.348693,-0.348692 0.806974,-0.458281 1.115816,-0.458281 0.358655,0 0.767123,0.159402 0.767123,0.607721 0,1.006226 -1.504358,1.006226 -2.470734,1.006226 z"
       id="equation_03_00-2"
       inkscape:connector-curvature="0" />
    <path
       d="M 3.521793,-1.26924 H 3.284682 c -0.020921,0.153424 -0.09066,0.564881 -0.18132,0.63462 -0.05579,0.041843 -0.592777,0.041843 -0.690411,0.041843 H 1.129763 c 0.732254,-0.648568 0.976339,-0.843836 1.39477,-1.171607 0.516065,-0.411457 0.99726,-0.843835 0.99726,-1.506351 0,-0.843835 -0.739228,-1.3599 -1.63188,-1.3599 -0.864757,0 -1.450561,0.606725 -1.450561,1.248319 0,0.355666 0.299876,0.390535 0.369614,0.390535 0.167373,0 0.369614,-0.118555 0.369614,-0.369614 0,-0.125529 -0.048817,-0.369614 -0.411457,-0.369614 0.21619,-0.495143 0.690411,-0.648568 1.018182,-0.648568 0.697385,0 1.060025,0.543961 1.060025,1.108842 0,0.606725 -0.432379,1.087921 -0.655542,1.338979 L 0.509091,-0.27198 C 0.439352,-0.209215 0.439352,-0.195268 0.439352,0 h 2.873226 z"
       id="equation_03_01-4"
       inkscape:connector-curvature="0" />
    <path
       d="m 3.73599,-6.117061 c 0.059776,-0.239103 0.089664,-0.33873 0.278954,-0.368618 0.089664,-0.00996 0.408468,-0.00996 0.607721,-0.00996 0.707347,0 1.813201,0 1.813201,0.986301 0,0.33873 -0.159403,1.026152 -0.547946,1.414695 C 5.628892,-3.835614 5.100872,-3.51681 4.204234,-3.51681 H 3.088418 Z m 1.43462,2.729763 c 1.006227,-0.219178 2.191781,-0.916563 2.191781,-1.922789 0,-0.856787 -0.896638,-1.494396 -2.201743,-1.494396 H 2.321295 c -0.199253,0 -0.288916,0 -0.288916,0.199253 0,0.109589 0.089663,0.109589 0.278954,0.109589 0.019925,0 0.209215,0 0.37858,0.019925 0.179327,0.019925 0.268991,0.029888 0.268991,0.159402 0,0.039851 -0.00996,0.069739 -0.03985,0.18929 L 1.58406,-0.777086 c -0.099627,0.388543 -0.119552,0.468244 -0.9066,0.468244 -0.179328,0 -0.268992,0 -0.268992,0.199253 C 0.408468,0 0.52802,0 0.547945,0 0.826899,0 1.524284,-0.029888 1.803238,-0.029888 2.082192,-0.029888 2.789539,0 3.068493,0 c 0.079701,0 0.199253,0 0.199253,-0.199253 0,-0.109589 -0.089664,-0.109589 -0.278954,-0.109589 -0.368618,0 -0.647572,0 -0.647572,-0.179327 0,-0.059776 0.019926,-0.109589 0.029888,-0.169365 l 0.657535,-2.6401 h 1.185554 c 0.9066,0 1.085928,0.557908 1.085928,0.9066 0,0.14944 -0.079702,0.458282 -0.139477,0.687423 -0.069739,0.278953 -0.159403,0.647571 -0.159403,0.846824 0,1.075965 1.195517,1.075965 1.325031,1.075965 0.846825,0 1.195517,-1.006227 1.195517,-1.145704 0,-0.119551 -0.109589,-0.119551 -0.119551,-0.119551 -0.089664,0 -0.109589,0.069738 -0.129515,0.139477 C 7.023661,-0.169365 6.595268,0 6.366127,0 6.03736,0 5.967621,-0.219178 5.967621,-0.607721 c 0,-0.308842 0.059776,-0.816937 0.099627,-1.135741 0.019925,-0.139477 0.03985,-0.328767 0.03985,-0.468244 0,-0.767123 -0.667497,-1.075965 -0.936488,-1.175592 z"
       id="equation_03_02-8"
       inkscape:connector-curvature="0" />
  </defs>
  <metadata
     id="metadata5">
    <rdf:RDF>
      <cc:Work
         rdf:about="">
        <dc:format>image/svg+xml</dc:format>
        <dc:type
           rdf:resource="http://purl.org/dc/dcmitype/StillImage" />
        <dc:title></dc:title>
      </cc:Work>
    </rdf:RDF>
  </metadata>
  <g
     transform="translate(0,-244.08334)"
     inkscape:label="レイヤー 1"
     inkscape:groupmode="layer"
     id="layer1">
    <circle
       r="6.5843406"
       cy="271.34216"
       cx="44.25983"
       id="path847"
       style="fill:none;fill-opacity:1;stroke:#000000;stroke-width:0.35288806;stroke-miterlimit:4;stroke-dasharray:0.35288806,0.35288806;stroke-opacity:1;stroke-dashoffset:0" />
    <g
       transform="matrix(0.33152068,0,0,0.33152068,-10.457067,242.15335)"
       id="equation_02"
       style="fill:#0000fd;fill-opacity:1"
       title="$R_1{\boldsymbol e}$">
      <defs
         id="defs990">
        <path
           inkscape:connector-curvature="0"
           id="equation_02_00"
           d="m 2.211706,-2.171856 c 0.667497,0 1.315069,-0.059775 1.733499,-0.199252 0.846825,-0.288917 0.986302,-0.856787 0.986302,-1.175592 0,-0.577833 -0.547945,-0.956413 -1.364882,-0.956413 -1.803238,0 -3.078456,1.24533 -3.078456,2.789539 0,1.145704 0.767124,1.793275 2.082192,1.793275 0.259029,0 0.946451,-0.009963 1.544209,-0.239103 0.577833,-0.229141 0.976339,-0.637609 0.976339,-0.757161 0,-0.079701 -0.159402,-0.259029 -0.249066,-0.259029 -0.059776,0 -0.079701,0.029888 -0.14944,0.10959 -0.537982,0.56787 -1.315068,0.787048 -2.092154,0.787048 -0.71731,0 -0.976339,-0.398506 -0.976339,-0.966376 0,-0.18929 0.039851,-0.518057 0.14944,-0.926526 z M 1.863014,-2.530511 c 0.179327,-0.727272 0.418431,-0.996264 0.587795,-1.155666 0.348693,-0.348692 0.806974,-0.458281 1.115816,-0.458281 0.358655,0 0.767123,0.159402 0.767123,0.607721 0,1.006226 -1.504358,1.006226 -2.470734,1.006226 z" />
        <path
           inkscape:connector-curvature="0"
           id="equation_02_01"
           d="m 2.336239,-4.435367 c 0,-0.188294 -0.013948,-0.195268 -0.209215,-0.195268 -0.446327,0.439352 -1.080947,0.446326 -1.366875,0.446326 v 0.251059 c 0.167373,0 0.627647,0 1.011208,-0.195268 v 3.556662 c 0,0.230137 0,0.320797 -0.697384,0.320797 H 0.808966 V 0 c 0.12553,-0.006974 0.983313,-0.027895 1.241345,-0.027895 0.21619,0 1.094894,0.020921 1.248319,0.027895 V -0.251059 H 3.033624 c -0.697385,0 -0.697385,-0.09066 -0.697385,-0.320797 z" />
        <path
           inkscape:connector-curvature="0"
           id="equation_02_02"
           d="m 3.73599,-6.117061 c 0.059776,-0.239103 0.089664,-0.33873 0.278954,-0.368618 0.089664,-0.00996 0.408468,-0.00996 0.607721,-0.00996 0.707347,0 1.813201,0 1.813201,0.986301 0,0.33873 -0.159403,1.026152 -0.547946,1.414695 C 5.628892,-3.835614 5.100872,-3.51681 4.204234,-3.51681 H 3.088418 Z m 1.43462,2.729763 c 1.006227,-0.219178 2.191781,-0.916563 2.191781,-1.922789 0,-0.856787 -0.896638,-1.494396 -2.201743,-1.494396 H 2.321295 c -0.199253,0 -0.288916,0 -0.288916,0.199253 0,0.109589 0.089663,0.109589 0.278954,0.109589 0.019925,0 0.209215,0 0.37858,0.019925 0.179327,0.019925 0.268991,0.029888 0.268991,0.159402 0,0.039851 -0.00996,0.069739 -0.03985,0.18929 L 1.58406,-0.777086 c -0.099627,0.388543 -0.119552,0.468244 -0.9066,0.468244 -0.179328,0 -0.268992,0 -0.268992,0.199253 C 0.408468,0 0.52802,0 0.547945,0 0.826899,0 1.524284,-0.029888 1.803238,-0.029888 2.082192,-0.029888 2.789539,0 3.068493,0 c 0.079701,0 0.199253,0 0.199253,-0.199253 0,-0.109589 -0.089664,-0.109589 -0.278954,-0.109589 -0.368618,0 -0.647572,0 -0.647572,-0.179327 0,-0.059776 0.019926,-0.109589 0.029888,-0.169365 l 0.657535,-2.6401 h 1.185554 c 0.9066,0 1.085928,0.557908 1.085928,0.9066 0,0.14944 -0.079702,0.458282 -0.139477,0.687423 -0.069739,0.278953 -0.159403,0.647571 -0.159403,0.846824 0,1.075965 1.195517,1.075965 1.325031,1.075965 0.846825,0 1.195517,-1.006227 1.195517,-1.145704 0,-0.119551 -0.109589,-0.119551 -0.119551,-0.119551 -0.089664,0 -0.109589,0.069738 -0.129515,0.139477 C 7.023661,-0.169365 6.595268,0 6.366127,0 6.03736,0 5.967621,-0.219178 5.967621,-0.607721 c 0,-0.308842 0.059776,-0.816937 0.099627,-1.135741 0.019925,-0.139477 0.03985,-0.328767 0.03985,-0.468244 0,-0.767123 -0.667497,-1.075965 -0.936488,-1.175592 z" />
      </defs>
      <g
         style="fill:#0000fd;fill-opacity:1"
         id="equation_02_g">
        <use
           style="fill:#0000fd;fill-opacity:1"
           height="100%"
           width="100%"
           x="76.712326"
           y="62.764633"
           xlink:href="#equation_02_02"
           id="use992" />
        <use
           style="fill:#0000fd;fill-opacity:1"
           height="100%"
           width="100%"
           x="84.276855"
           y="64.25901"
           xlink:href="#equation_02_01"
           id="use994" />
        <use
           style="fill:#0000fd;fill-opacity:1"
           height="100%"
           width="100%"
           x="88.746231"
           y="62.764633"
           xlink:href="#equation_02_00"
           id="use996" />
      </g>
    </g>
    <g
       title="$R_2{\boldsymbol e}$"
       style="fill:#0000fd;fill-opacity:1"
       id="equation_03"
       transform="matrix(0.33152068,0,0,0.33152068,13.492481,247.41892)">
      <defs
         id="defs1059">
        <path
           d="m 2.211706,-2.171856 c 0.667497,0 1.315069,-0.059775 1.733499,-0.199252 0.846825,-0.288917 0.986302,-0.856787 0.986302,-1.175592 0,-0.577833 -0.547945,-0.956413 -1.364882,-0.956413 -1.803238,0 -3.078456,1.24533 -3.078456,2.789539 0,1.145704 0.767124,1.793275 2.082192,1.793275 0.259029,0 0.946451,-0.009963 1.544209,-0.239103 0.577833,-0.229141 0.976339,-0.637609 0.976339,-0.757161 0,-0.079701 -0.159402,-0.259029 -0.249066,-0.259029 -0.059776,0 -0.079701,0.029888 -0.14944,0.10959 -0.537982,0.56787 -1.315068,0.787048 -2.092154,0.787048 -0.71731,0 -0.976339,-0.398506 -0.976339,-0.966376 0,-0.18929 0.039851,-0.518057 0.14944,-0.926526 z M 1.863014,-2.530511 c 0.179327,-0.727272 0.418431,-0.996264 0.587795,-1.155666 0.348693,-0.348692 0.806974,-0.458281 1.115816,-0.458281 0.358655,0 0.767123,0.159402 0.767123,0.607721 0,1.006226 -1.504358,1.006226 -2.470734,1.006226 z"
           id="equation_03_00"
           inkscape:connector-curvature="0" />
        <path
           d="M 3.521793,-1.26924 H 3.284682 c -0.020921,0.153424 -0.09066,0.564881 -0.18132,0.63462 -0.05579,0.041843 -0.592777,0.041843 -0.690411,0.041843 H 1.129763 c 0.732254,-0.648568 0.976339,-0.843836 1.39477,-1.171607 0.516065,-0.411457 0.99726,-0.843835 0.99726,-1.506351 0,-0.843835 -0.739228,-1.3599 -1.63188,-1.3599 -0.864757,0 -1.450561,0.606725 -1.450561,1.248319 0,0.355666 0.299876,0.390535 0.369614,0.390535 0.167373,0 0.369614,-0.118555 0.369614,-0.369614 0,-0.125529 -0.048817,-0.369614 -0.411457,-0.369614 0.21619,-0.495143 0.690411,-0.648568 1.018182,-0.648568 0.697385,0 1.060025,0.543961 1.060025,1.108842 0,0.606725 -0.432379,1.087921 -0.655542,1.338979 L 0.509091,-0.27198 C 0.439352,-0.209215 0.439352,-0.195268 0.439352,0 h 2.873226 z"
           id="equation_03_01"
           inkscape:connector-curvature="0" />
        <path
           d="m 3.73599,-6.117061 c 0.059776,-0.239103 0.089664,-0.33873 0.278954,-0.368618 0.089664,-0.00996 0.408468,-0.00996 0.607721,-0.00996 0.707347,0 1.813201,0 1.813201,0.986301 0,0.33873 -0.159403,1.026152 -0.547946,1.414695 C 5.628892,-3.835614 5.100872,-3.51681 4.204234,-3.51681 H 3.088418 Z m 1.43462,2.729763 c 1.006227,-0.219178 2.191781,-0.916563 2.191781,-1.922789 0,-0.856787 -0.896638,-1.494396 -2.201743,-1.494396 H 2.321295 c -0.199253,0 -0.288916,0 -0.288916,0.199253 0,0.109589 0.089663,0.109589 0.278954,0.109589 0.019925,0 0.209215,0 0.37858,0.019925 0.179327,0.019925 0.268991,0.029888 0.268991,0.159402 0,0.039851 -0.00996,0.069739 -0.03985,0.18929 L 1.58406,-0.777086 c -0.099627,0.388543 -0.119552,0.468244 -0.9066,0.468244 -0.179328,0 -0.268992,0 -0.268992,0.199253 C 0.408468,0 0.52802,0 0.547945,0 0.826899,0 1.524284,-0.029888 1.803238,-0.029888 2.082192,-0.029888 2.789539,0 3.068493,0 c 0.079701,0 0.199253,0 0.199253,-0.199253 0,-0.109589 -0.089664,-0.109589 -0.278954,-0.109589 -0.368618,0 -0.647572,0 -0.647572,-0.179327 0,-0.059776 0.019926,-0.109589 0.029888,-0.169365 l 0.657535,-2.6401 h 1.185554 c 0.9066,0 1.085928,0.557908 1.085928,0.9066 0,0.14944 -0.079702,0.458282 -0.139477,0.687423 -0.069739,0.278953 -0.159403,0.647571 -0.159403,0.846824 0,1.075965 1.195517,1.075965 1.325031,1.075965 0.846825,0 1.195517,-1.006227 1.195517,-1.145704 0,-0.119551 -0.109589,-0.119551 -0.119551,-0.119551 -0.089664,0 -0.109589,0.069738 -0.129515,0.139477 C 7.023661,-0.169365 6.595268,0 6.366127,0 6.03736,0 5.967621,-0.219178 5.967621,-0.607721 c 0,-0.308842 0.059776,-0.816937 0.099627,-1.135741 0.019925,-0.139477 0.03985,-0.328767 0.03985,-0.468244 0,-0.767123 -0.667497,-1.075965 -0.936488,-1.175592 z"
           id="equation_03_02"
           inkscape:connector-curvature="0" />
      </defs>
      <g
         style="fill:#0000fd;fill-opacity:1"
         id="equation_03_g">
        <use
           style="fill:#0000fd;fill-opacity:1"
           id="use1061"
           xlink:href="#equation_03_02"
           y="62.764633"
           x="76.712326"
           width="100%"
           height="100%" />
        <use
           style="fill:#0000fd;fill-opacity:1"
           id="use1063"
           xlink:href="#equation_03_01"
           y="64.25901"
           x="84.276855"
           width="100%"
           height="100%" />
        <use
           style="fill:#0000fd;fill-opacity:1"
           id="use1065"
           xlink:href="#equation_03_00"
           y="62.764633"
           x="88.746231"
           width="100%"
           height="100%" />
      </g>
    </g>
    <g
       transform="matrix(0.33152068,0,0,0.33152068,2.6269235,248.18664)"
       id="equation_04"
       style="fill:#ef0000;fill-opacity:1"
       title="${\boldsymbol v}$">
      <defs
         id="defs1144">
        <path
           inkscape:connector-curvature="0"
           id="equation_04_00"
           d="m 5.389788,-3.606476 c 0,-0.9066 -0.667497,-0.9066 -0.677459,-0.9066 -0.398506,0 -0.757161,0.418431 -0.757161,0.757161 0,0.278954 0.209216,0.398505 0.298879,0.448318 0.418431,0.249066 0.498132,0.428394 0.498132,0.627647 0,0.219178 -0.577833,2.400996 -1.743462,2.400996 -0.71731,0 -0.71731,-0.597758 -0.71731,-0.777086 0,-0.577833 0.278954,-1.305106 0.597759,-2.102117 0.079701,-0.199253 0.109589,-0.288916 0.109589,-0.448319 0,-0.577833 -0.577833,-0.896637 -1.125779,-0.896637 -1.05604,0 -1.554172,1.354919 -1.554172,1.554172 0,0.139476 0.14944,0.139476 0.239104,0.139476 0.119552,0 0.18929,0 0.229141,-0.129514 0.318804,-1.075965 0.846824,-1.205479 1.026151,-1.205479 0.069739,0 0.169365,0 0.169365,0.209215 0,0.229141 -0.119551,0.518057 -0.149439,0.597759 -0.458282,1.155666 -0.607721,1.603985 -0.607721,2.082191 0,1.05604 0.856787,1.334994 1.723536,1.334994 1.713575,0 2.440847,-2.82939 2.440847,-3.686177 z" />
      </defs>
      <g
         style="fill:#ef0000;fill-opacity:1"
         id="equation_04_g">
        <use
           style="fill:#ef0000;fill-opacity:1"
           height="100%"
           width="100%"
           x="76.712326"
           y="62.764633"
           xlink:href="#equation_04_00"
           id="use1146"
           transform="translate(0.70698411,-5.6161387)" />
      </g>
    </g>
    <circle
       r="8.2241945"
       cy="264.07242"
       cx="13.657473"
       id="path847-7"
       style="fill:none;fill-opacity:1;stroke:#000000;stroke-width:0.441;stroke-miterlimit:4;stroke-dasharray:0.441,0.441;stroke-opacity:1;stroke-dashoffset:0" />
    <path
       inkscape:connector-curvature="0"
       id="path1208"
       d="m 13.657472,264.07242 30.602358,7.26974"
       style="fill:none;stroke:#ff0000;stroke-width:0.26458332px;stroke-linecap:butt;stroke-linejoin:miter;stroke-opacity:1" />
    <path
       inkscape:connector-curvature="0"
       id="path1210"
       d="m 14.031649,262.99666 8.00152,1.9008"
       style="fill:none;stroke:#0000f1;stroke-width:0.26458332px;stroke-linecap:butt;stroke-linejoin:miter;stroke-opacity:1;fill-opacity:1" />
    <path
       inkscape:connector-curvature="0"
       id="path1212"
       d="m 38.087626,268.74461 6.406065,1.52179"
       style="fill:none;stroke:#0000f9;stroke-width:0.26458332px;stroke-linecap:butt;stroke-linejoin:miter;stroke-opacity:1" />
    <path
       transform="rotate(1.2357216,21.844576,264.85263)"
       inkscape:transform-center-y="-0.088455337"
       inkscape:transform-center-x="-0.13441939"
       d="m 21.28331,265.50744 0.137408,-0.73414 0.137409,-0.73415 0.567082,0.48608 0.567082,0.48607 -0.70449,0.24807 z"
       inkscape:randomized="0"
       inkscape:rounded="0"
       inkscape:flatsided="false"
       sodipodi:arg2="3.3266202"
       sodipodi:arg1="2.2794226"
       sodipodi:r2="0.43121806"
       sodipodi:r1="0.86243612"
       sodipodi:cy="264.85263"
       sodipodi:cx="21.844576"
       sodipodi:sides="3"
       id="path1214"
       style="fill:#0000ff;fill-opacity:1;stroke:none;stroke-width:0.26499999;stroke-miterlimit:4;stroke-dasharray:none;stroke-opacity:1"
       sodipodi:type="star" />
    <path
       transform="rotate(1.2357215,-217.83735,1317.6735)"
       inkscape:transform-center-y="-0.088455337"
       inkscape:transform-center-x="-0.13441939"
       d="m 21.28331,265.50744 0.137408,-0.73414 0.137409,-0.73415 0.567082,0.48608 0.567082,0.48607 -0.70449,0.24807 z"
       inkscape:randomized="0"
       inkscape:rounded="0"
       inkscape:flatsided="false"
       sodipodi:arg2="3.3266202"
       sodipodi:arg1="2.2794226"
       sodipodi:r2="0.43121806"
       sodipodi:r1="0.86243612"
       sodipodi:cy="264.85263"
       sodipodi:cx="21.844576"
       sodipodi:sides="3"
       id="path1214-9"
       style="fill:#0000ff;fill-opacity:1;stroke:none;stroke-width:0.26499999;stroke-miterlimit:4;stroke-dasharray:none;stroke-opacity:1"
       sodipodi:type="star" />
    <path
       transform="rotate(1.2357215,-271.99984,1301.1805)"
       inkscape:transform-center-y="-0.088455337"
       inkscape:transform-center-x="-0.13441939"
       d="m 21.28331,265.50744 0.137408,-0.73414 0.137409,-0.73415 0.567082,0.48608 0.567082,0.48607 -0.70449,0.24807 z"
       inkscape:randomized="0"
       inkscape:rounded="0"
       inkscape:flatsided="false"
       sodipodi:arg2="3.3266202"
       sodipodi:arg1="2.2794226"
       sodipodi:r2="0.43121806"
       sodipodi:r1="0.86243612"
       sodipodi:cy="264.85263"
       sodipodi:cx="21.844576"
       sodipodi:sides="3"
       id="path1214-9-3"
       style="fill:#ff0000;fill-opacity:1;stroke:none;stroke-width:0.26499999;stroke-miterlimit:4;stroke-dasharray:none;stroke-opacity:1"
       sodipodi:type="star" />
    <g
       transform="matrix(0.33152068,0,0,0.33152068,-13.252965,245.07299)"
       id="equation_00"
       style="fill:#000000"
       title="${\boldsymbol r}_1$">
      <defs
         id="defs907">
        <path
           inkscape:connector-curvature="0"
           id="equation_00_00"
           d="m 2.336239,-4.435367 c 0,-0.188294 -0.013948,-0.195268 -0.209215,-0.195268 -0.446327,0.439352 -1.080947,0.446326 -1.366875,0.446326 v 0.251059 c 0.167373,0 0.627647,0 1.011208,-0.195268 v 3.556662 c 0,0.230137 0,0.320797 -0.697384,0.320797 H 0.808966 V 0 c 0.12553,-0.006974 0.983313,-0.027895 1.241345,-0.027895 0.21619,0 1.094894,0.020921 1.248319,0.027895 V -0.251059 H 3.033624 c -0.697385,0 -0.697385,-0.09066 -0.697385,-0.320797 z" />
        <path
           inkscape:connector-curvature="0"
           id="equation_00_01"
           d="m 4.423412,-4.004981 c -0.547945,0.109589 -0.607721,0.597758 -0.607721,0.697384 0,0.219179 0.169365,0.458282 0.498132,0.458282 0.33873,0 0.71731,-0.278954 0.71731,-0.787049 0,-0.458281 -0.358655,-0.866749 -0.976338,-0.866749 -0.557908,0 -1.026152,0.278954 -1.325032,0.597758 C 2.49066,-4.363636 1.92279,-4.503113 1.564134,-4.503113 c -0.368617,0 -0.647571,0.209215 -0.866749,0.56787 -0.239104,0.388543 -0.378581,0.926526 -0.378581,0.986302 0,0.139476 0.14944,0.139476 0.239104,0.139476 0.109589,0 0.149439,0 0.199253,-0.049813 0.019925,-0.019925 0.019925,-0.03985 0.079701,-0.288916 0.18929,-0.757161 0.408468,-0.996264 0.677459,-0.996264 0.14944,0 0.229141,0.099626 0.229141,0.358655 0,0.179327 -0.029888,0.288916 -0.139477,0.75716 -0.049813,0.169365 -0.209215,0.8269 -0.278954,1.075966 -0.03985,0.18929 -0.149439,0.637609 -0.199253,0.816936 -0.059776,0.259029 -0.179327,0.707347 -0.179327,0.777086 0,0.209215 0.159402,0.438356 0.468244,0.438356 0.199253,0 0.547945,-0.119552 0.657534,-0.52802 0.00996,-0.029888 0.687422,-2.739726 0.697385,-2.799502 0.039851,-0.149439 0.039851,-0.169365 0.169365,-0.318804 0.229141,-0.288917 0.597758,-0.577833 1.09589,-0.577833 0.249066,0 0.358655,0.109589 0.388543,0.139477 z" />
      </defs>
      <g
         id="equation_00_g">
        <use
           height="100%"
           width="100%"
           x="76.712326"
           y="62.764633"
           xlink:href="#equation_00_01"
           id="use909" />
        <use
           height="100%"
           width="100%"
           x="82.297859"
           y="64.25901"
           xlink:href="#equation_00_00"
           id="use911" />
      </g>
    </g>
    <g
       title="${\boldsymbol r}_2$"
       style="fill:#000000"
       id="equation_01"
       transform="matrix(0.33152068,0,0,0.33152068,17.218857,252.71692)">
      <defs
         id="defs941">
        <path
           d="M 3.521793,-1.26924 H 3.284682 c -0.020921,0.153424 -0.09066,0.564881 -0.18132,0.63462 -0.05579,0.041843 -0.592777,0.041843 -0.690411,0.041843 H 1.129763 c 0.732254,-0.648568 0.976339,-0.843836 1.39477,-1.171607 0.516065,-0.411457 0.99726,-0.843835 0.99726,-1.506351 0,-0.843835 -0.739228,-1.3599 -1.63188,-1.3599 -0.864757,0 -1.450561,0.606725 -1.450561,1.248319 0,0.355666 0.299876,0.390535 0.369614,0.390535 0.167373,0 0.369614,-0.118555 0.369614,-0.369614 0,-0.125529 -0.048817,-0.369614 -0.411457,-0.369614 0.21619,-0.495143 0.690411,-0.648568 1.018182,-0.648568 0.697385,0 1.060025,0.543961 1.060025,1.108842 0,0.606725 -0.432379,1.087921 -0.655542,1.338979 L 0.509091,-0.27198 C 0.439352,-0.209215 0.439352,-0.195268 0.439352,0 h 2.873226 z"
           id="equation_01_00"
           inkscape:connector-curvature="0" />
        <path
           d="m 4.423412,-4.004981 c -0.547945,0.109589 -0.607721,0.597758 -0.607721,0.697384 0,0.219179 0.169365,0.458282 0.498132,0.458282 0.33873,0 0.71731,-0.278954 0.71731,-0.787049 0,-0.458281 -0.358655,-0.866749 -0.976338,-0.866749 -0.557908,0 -1.026152,0.278954 -1.325032,0.597758 C 2.49066,-4.363636 1.92279,-4.503113 1.564134,-4.503113 c -0.368617,0 -0.647571,0.209215 -0.866749,0.56787 -0.239104,0.388543 -0.378581,0.926526 -0.378581,0.986302 0,0.139476 0.14944,0.139476 0.239104,0.139476 0.109589,0 0.149439,0 0.199253,-0.049813 0.019925,-0.019925 0.019925,-0.03985 0.079701,-0.288916 0.18929,-0.757161 0.408468,-0.996264 0.677459,-0.996264 0.14944,0 0.229141,0.099626 0.229141,0.358655 0,0.179327 -0.029888,0.288916 -0.139477,0.75716 -0.049813,0.169365 -0.209215,0.8269 -0.278954,1.075966 -0.03985,0.18929 -0.149439,0.637609 -0.199253,0.816936 -0.059776,0.259029 -0.179327,0.707347 -0.179327,0.777086 0,0.209215 0.159402,0.438356 0.468244,0.438356 0.199253,0 0.547945,-0.119552 0.657534,-0.52802 0.00996,-0.029888 0.687422,-2.739726 0.697385,-2.799502 0.039851,-0.149439 0.039851,-0.169365 0.169365,-0.318804 0.229141,-0.288917 0.597758,-0.577833 1.09589,-0.577833 0.249066,0 0.358655,0.109589 0.388543,0.139477 z"
           id="equation_01_01"
           inkscape:connector-curvature="0" />
      </defs>
      <g
         id="equation_01_g">
        <use
           id="use943"
           xlink:href="#equation_01_01"
           y="62.764633"
           x="76.712326"
           width="100%"
           height="100%" />
        <use
           id="use945"
           xlink:href="#equation_01_00"
           y="64.25901"
           x="82.297859"
           width="100%"
           height="100%" />
      </g>
    </g>
    <path
       sodipodi:nodetypes="cc"
       inkscape:connector-curvature="0"
       id="path1212-3"
       d="m 36.146722,268.28054 1.207504,0.31339"
       style="fill:none;stroke:#0000f9;stroke-width:0.26458332px;stroke-linecap:butt;stroke-linejoin:miter;stroke-opacity:1" />
    <path
       transform="matrix(0.50634828,0.01092231,-0.01092231,0.50634828,29.186065,134.24766)"
       inkscape:transform-center-y="-0.044794316"
       inkscape:transform-center-x="-0.068079988"
       d="m 21.28331,265.50744 0.137408,-0.73414 0.137409,-0.73415 0.567082,0.48608 0.567082,0.48607 -0.70449,0.24807 z"
       inkscape:randomized="0"
       inkscape:rounded="0"
       inkscape:flatsided="false"
       sodipodi:arg2="3.3266202"
       sodipodi:arg1="2.2794226"
       sodipodi:r2="0.43121806"
       sodipodi:r1="0.86243612"
       sodipodi:cy="264.85263"
       sodipodi:cx="21.844576"
       sodipodi:sides="3"
       id="path1214-9-7"
       style="fill:#0000ff;fill-opacity:1;stroke:none;stroke-width:0.26499999;stroke-miterlimit:4;stroke-dasharray:none;stroke-opacity:1"
       sodipodi:type="star" />
    <g
       title="$W{\boldsymbol e}$"
       style="fill:#0000ff;fill-opacity:1"
       id="equation_05"
       transform="matrix(0.18757406,0,0,0.18757406,20.508752,255.53671)">
      <defs
         id="defs1443">
        <path
           d="m 2.211706,-2.171856 c 0.667497,0 1.315069,-0.059775 1.733499,-0.199252 0.846825,-0.288917 0.986302,-0.856787 0.986302,-1.175592 0,-0.577833 -0.547945,-0.956413 -1.364882,-0.956413 -1.803238,0 -3.078456,1.24533 -3.078456,2.789539 0,1.145704 0.767124,1.793275 2.082192,1.793275 0.259029,0 0.946451,-0.009963 1.544209,-0.239103 0.577833,-0.229141 0.976339,-0.637609 0.976339,-0.757161 0,-0.079701 -0.159402,-0.259029 -0.249066,-0.259029 -0.059776,0 -0.079701,0.029888 -0.14944,0.10959 -0.537982,0.56787 -1.315068,0.787048 -2.092154,0.787048 -0.71731,0 -0.976339,-0.398506 -0.976339,-0.966376 0,-0.18929 0.039851,-0.518057 0.14944,-0.926526 z M 1.863014,-2.530511 c 0.179327,-0.727272 0.418431,-0.996264 0.587795,-1.155666 0.348693,-0.348692 0.806974,-0.458281 1.115816,-0.458281 0.358655,0 0.767123,0.159402 0.767123,0.607721 0,1.006226 -1.504358,1.006226 -2.470734,1.006226 z"
           id="equation_05_00"
           inkscape:connector-curvature="0" />
        <path
           d="m 9.135741,-5.648817 c 0.249066,-0.438356 0.488169,-0.797011 1.115816,-0.846824 0.08966,-0.00996 0.18929,-0.00996 0.18929,-0.199253 0,-0.039851 -0.03985,-0.109589 -0.119552,-0.109589 -0.239103,0 -0.518057,0.029888 -0.767123,0.029888 -0.33873,0 -0.707348,-0.029888 -1.036115,-0.029888 -0.059776,0 -0.18929,0 -0.18929,0.18929 0,0.109589 0.089664,0.119552 0.14944,0.119552 0.239103,0.00996 0.587795,0.089663 0.587795,0.388543 0,0.109589 -0.049813,0.18929 -0.129514,0.328767 L 6.246575,-1.085928 5.877958,-6.027397 C 5.867995,-6.22665 5.84807,-6.485679 6.575342,-6.495641 c 0.169365,0 0.268992,0 0.268992,-0.199253 0,-0.099627 -0.109589,-0.109589 -0.14944,-0.109589 -0.398505,0 -0.816936,0.029888 -1.215442,0.029888 -0.229141,0 -0.816936,-0.029888 -1.046077,-0.029888 -0.059776,0 -0.18929,0 -0.18929,0.199253 0,0.109589 0.099626,0.109589 0.239103,0.109589 0.438356,0 0.508095,0.059775 0.52802,0.249066 l 0.059776,0.767123 -2.520548,4.393524 -0.37858,-5.051058 c 0,-0.119552 0,-0.348693 0.75716,-0.358655 0.099627,0 0.209216,0 0.209216,-0.199253 0,-0.109589 -0.119552,-0.109589 -0.139477,-0.109589 -0.398506,0 -0.816937,0.029888 -1.225405,0.029888 -0.348692,0 -0.707348,-0.029888 -1.046077,-0.029888 -0.049813,0 -0.179328,0 -0.179328,0.18929 0,0.119552 0.089664,0.119552 0.249066,0.119552 0.498132,0 0.508095,0.089663 0.52802,0.368617 l 0.448319,6.087173 c 0.00996,0.179328 0.019925,0.259029 0.159402,0.259029 0.119552,0 0.14944,-0.059776 0.239104,-0.209215 l 2.929016,-5.080947 0.368617,5.031133 c 0.019926,0.209216 0.039851,0.259029 0.159403,0.259029 0.129514,0 0.18929,-0.099626 0.239103,-0.18929 z"
           id="equation_05_01"
           inkscape:connector-curvature="0" />
      </defs>
      <g
         id="equation_05_g"
         style="fill:#0000ff;fill-opacity:1">
        <use
           id="use1445"
           xlink:href="#equation_05_01"
           y="62.764633"
           x="76.712326"
           width="100%"
           height="100%"
           style="fill:#0000ff;fill-opacity:1" />
        <use
           id="use1447"
           xlink:href="#equation_05_00"
           y="62.764633"
           x="87.505211"
           width="100%"
           height="100%"
           style="fill:#0000ff;fill-opacity:1" />
      </g>
    </g>
    <path
       style="fill:none;stroke:#000000;stroke-width:0.26458332px;stroke-linecap:butt;stroke-linejoin:miter;stroke-opacity:1"
       d="m 20.302599,269.5279 16.194773,3.84715"
       id="path1513"
       inkscape:connector-curvature="0" />
    <path
       transform="matrix(1.8030369,0.03879825,-0.03889287,1.7986503,6.8153271,-204.00175)"
       inkscape:transform-center-y="-0.15913383"
       inkscape:transform-center-x="-0.24241864"
       d="m 21.28331,265.50744 0.137408,-0.73414 0.137409,-0.73415 0.567082,0.48608 0.567082,0.48607 -0.70449,0.24807 z"
       inkscape:randomized="0"
       inkscape:rounded="0"
       inkscape:flatsided="false"
       sodipodi:arg2="3.3266202"
       sodipodi:arg1="2.2794226"
       sodipodi:r2="0.43121806"
       sodipodi:r1="0.86243612"
       sodipodi:cy="264.85263"
       sodipodi:cx="21.844576"
       sodipodi:sides="3"
       id="path1214-9-7-9"
       style="fill:#000000;fill-opacity:1;stroke:none;stroke-width:0.26499999;stroke-miterlimit:4;stroke-dasharray:none;stroke-opacity:1"
       sodipodi:type="star" />
    <g
       id="equation_06"
       style="fill:#000000"
       title="${\boldsymbol r}_1'$"
       transform="matrix(0.25732767,0,0,0.25732767,-0.42806876,256.00725)">
      <defs
         id="defs1595">
        <path
           id="equation_06_00"
           d="m 2.336239,-4.435367 c 0,-0.188294 -0.013948,-0.195268 -0.209215,-0.195268 -0.446327,0.439352 -1.080947,0.446326 -1.366875,0.446326 v 0.251059 c 0.167373,0 0.627647,0 1.011208,-0.195268 v 3.556662 c 0,0.230137 0,0.320797 -0.697384,0.320797 H 0.808966 V 0 c 0.12553,-0.006974 0.983313,-0.027895 1.241345,-0.027895 0.21619,0 1.094894,0.020921 1.248319,0.027895 V -0.251059 H 3.033624 c -0.697385,0 -0.697385,-0.09066 -0.697385,-0.320797 z"
           inkscape:connector-curvature="0" />
        <path
           id="equation_06_01"
           d="m 2.022416,-3.291656 c 0.055791,-0.118556 0.062765,-0.174346 0.062765,-0.223163 0,-0.21619 -0.195268,-0.383562 -0.411457,-0.383562 -0.265007,0 -0.348693,0.216189 -0.383562,0.327771 l -0.920548,3.019676 c -0.006974,0.013948 -0.034869,0.104608 -0.034869,0.111582 0,0.083686 0.216189,0.153424 0.27198,0.153424 0.048817,0 0.055791,-0.013947 0.104608,-0.118555 z"
           inkscape:connector-curvature="0" />
        <path
           id="equation_06_02"
           d="m 4.423412,-4.004981 c -0.547945,0.109589 -0.607721,0.597758 -0.607721,0.697384 0,0.219179 0.169365,0.458282 0.498132,0.458282 0.33873,0 0.71731,-0.278954 0.71731,-0.787049 0,-0.458281 -0.358655,-0.866749 -0.976338,-0.866749 -0.557908,0 -1.026152,0.278954 -1.325032,0.597758 C 2.49066,-4.363636 1.92279,-4.503113 1.564134,-4.503113 c -0.368617,0 -0.647571,0.209215 -0.866749,0.56787 -0.239104,0.388543 -0.378581,0.926526 -0.378581,0.986302 0,0.139476 0.14944,0.139476 0.239104,0.139476 0.109589,0 0.149439,0 0.199253,-0.049813 0.019925,-0.019925 0.019925,-0.03985 0.079701,-0.288916 0.18929,-0.757161 0.408468,-0.996264 0.677459,-0.996264 0.14944,0 0.229141,0.099626 0.229141,0.358655 0,0.179327 -0.029888,0.288916 -0.139477,0.75716 -0.049813,0.169365 -0.209215,0.8269 -0.278954,1.075966 -0.03985,0.18929 -0.149439,0.637609 -0.199253,0.816936 -0.059776,0.259029 -0.179327,0.707347 -0.179327,0.777086 0,0.209215 0.159402,0.438356 0.468244,0.438356 0.199253,0 0.547945,-0.119552 0.657534,-0.52802 0.00996,-0.029888 0.687422,-2.739726 0.697385,-2.799502 0.039851,-0.149439 0.039851,-0.169365 0.169365,-0.318804 0.229141,-0.288917 0.597758,-0.577833 1.09589,-0.577833 0.249066,0 0.358655,0.109589 0.388543,0.139477 z"
           inkscape:connector-curvature="0" />
      </defs>
      <g
         id="equation_06_g">
        <use
           x="76.712326"
           y="62.764633"
           xlink:href="#equation_06_02"
           id="use1597"
           width="100%"
           height="100%" />
        <use
           x="82.297859"
           y="59.149269"
           xlink:href="#equation_06_01"
           id="use1599"
           width="100%"
           height="100%" />
        <use
           x="82.297859"
           y="65.237457"
           xlink:href="#equation_06_00"
           id="use1601"
           width="100%"
           height="100%" />
      </g>
    </g>
    <g
       title="${\boldsymbol r}_2'$"
       style="fill:#000000"
       id="equation_07"
       transform="matrix(0.25732767,0,0,0.25732767,15.079352,260.38131)">
      <defs
         id="defs1752">
        <path
           d="M 3.521793,-1.26924 H 3.284682 c -0.020921,0.153424 -0.09066,0.564881 -0.18132,0.63462 -0.05579,0.041843 -0.592777,0.041843 -0.690411,0.041843 H 1.129763 c 0.732254,-0.648568 0.976339,-0.843836 1.39477,-1.171607 0.516065,-0.411457 0.99726,-0.843835 0.99726,-1.506351 0,-0.843835 -0.739228,-1.3599 -1.63188,-1.3599 -0.864757,0 -1.450561,0.606725 -1.450561,1.248319 0,0.355666 0.299876,0.390535 0.369614,0.390535 0.167373,0 0.369614,-0.118555 0.369614,-0.369614 0,-0.125529 -0.048817,-0.369614 -0.411457,-0.369614 0.21619,-0.495143 0.690411,-0.648568 1.018182,-0.648568 0.697385,0 1.060025,0.543961 1.060025,1.108842 0,0.606725 -0.432379,1.087921 -0.655542,1.338979 L 0.509091,-0.27198 C 0.439352,-0.209215 0.439352,-0.195268 0.439352,0 h 2.873226 z"
           id="equation_07_00"
           inkscape:connector-curvature="0" />
        <path
           d="m 2.022416,-3.291656 c 0.055791,-0.118556 0.062765,-0.174346 0.062765,-0.223163 0,-0.21619 -0.195268,-0.383562 -0.411457,-0.383562 -0.265007,0 -0.348693,0.216189 -0.383562,0.327771 l -0.920548,3.019676 c -0.006974,0.013948 -0.034869,0.104608 -0.034869,0.111582 0,0.083686 0.216189,0.153424 0.27198,0.153424 0.048817,0 0.055791,-0.013947 0.104608,-0.118555 z"
           id="equation_07_01"
           inkscape:connector-curvature="0" />
        <path
           d="m 4.423412,-4.004981 c -0.547945,0.109589 -0.607721,0.597758 -0.607721,0.697384 0,0.219179 0.169365,0.458282 0.498132,0.458282 0.33873,0 0.71731,-0.278954 0.71731,-0.787049 0,-0.458281 -0.358655,-0.866749 -0.976338,-0.866749 -0.557908,0 -1.026152,0.278954 -1.325032,0.597758 C 2.49066,-4.363636 1.92279,-4.503113 1.564134,-4.503113 c -0.368617,0 -0.647571,0.209215 -0.866749,0.56787 -0.239104,0.388543 -0.378581,0.926526 -0.378581,0.986302 0,0.139476 0.14944,0.139476 0.239104,0.139476 0.109589,0 0.149439,0 0.199253,-0.049813 0.019925,-0.019925 0.019925,-0.03985 0.079701,-0.288916 0.18929,-0.757161 0.408468,-0.996264 0.677459,-0.996264 0.14944,0 0.229141,0.099626 0.229141,0.358655 0,0.179327 -0.029888,0.288916 -0.139477,0.75716 -0.049813,0.169365 -0.209215,0.8269 -0.278954,1.075966 -0.03985,0.18929 -0.149439,0.637609 -0.199253,0.816936 -0.059776,0.259029 -0.179327,0.707347 -0.179327,0.777086 0,0.209215 0.159402,0.438356 0.468244,0.438356 0.199253,0 0.547945,-0.119552 0.657534,-0.52802 0.00996,-0.029888 0.687422,-2.739726 0.697385,-2.799502 0.039851,-0.149439 0.039851,-0.169365 0.169365,-0.318804 0.229141,-0.288917 0.597758,-0.577833 1.09589,-0.577833 0.249066,0 0.358655,0.109589 0.388543,0.139477 z"
           id="equation_07_02"
           inkscape:connector-curvature="0" />
      </defs>
      <g
         id="equation_07_g">
        <use
           id="use1754"
           xlink:href="#equation_07_02"
           y="62.764633"
           x="76.712326"
           width="100%"
           height="100%" />
        <use
           id="use1756"
           xlink:href="#equation_07_01"
           y="59.149269"
           x="82.297859"
           width="100%"
           height="100%" />
        <use
           id="use1758"
           xlink:href="#equation_07_00"
           y="65.237457"
           x="82.297859"
           width="100%"
           height="100%" />
      </g>
    </g>
  </g>
</svg>
