<?xml version="1.0" encoding="UTF-8" standalone="no"?>
<!-- Created with Inkscape (http://www.inkscape.org/) -->

<svg
   xmlns:dc="http://purl.org/dc/elements/1.1/"
   xmlns:cc="http://creativecommons.org/ns#"
   xmlns:rdf="http://www.w3.org/1999/02/22-rdf-syntax-ns#"
   xmlns:svg="http://www.w3.org/2000/svg"
   xmlns="http://www.w3.org/2000/svg"
   xmlns:xlink="http://www.w3.org/1999/xlink"
   xmlns:sodipodi="http://sodipodi.sourceforge.net/DTD/sodipodi-0.dtd"
   xmlns:inkscape="http://www.inkscape.org/namespaces/inkscape"
   width="57.931553mm"
   height="34.295921mm"
   viewBox="0 0 57.931553 34.295921"
   version="1.1"
   id="svg8"
   inkscape:version="0.92.4 (5da689c313, 2019-01-14)"
   sodipodi:docname="lcs_trans1.svg">
  <defs
     id="defs2" />
  <sodipodi:namedview
     id="base"
     pagecolor="#ffffff"
     bordercolor="#666666"
     borderopacity="1.0"
     inkscape:pageopacity="0.0"
     inkscape:pageshadow="2"
     inkscape:zoom="3.959798"
     inkscape:cx="66.543542"
     inkscape:cy="37.893807"
     inkscape:document-units="mm"
     inkscape:current-layer="layer1"
     showgrid="false"
     inkscape:window-width="2560"
     inkscape:window-height="1315"
     inkscape:window-x="-13"
     inkscape:window-y="-13"
     inkscape:window-maximized="1"
     fit-margin-top="0"
     fit-margin-left="0"
     fit-margin-right="0"
     fit-margin-bottom="0" />
  <metadata
     id="metadata5">
    <rdf:RDF>
      <cc:Work
         rdf:about="">
        <dc:format>image/svg+xml</dc:format>
        <dc:type
           rdf:resource="http://purl.org/dc/dcmitype/StillImage" />
        <dc:title></dc:title>
      </cc:Work>
    </rdf:RDF>
  </metadata>
  <g
     inkscape:label="レイヤー 1"
     inkscape:groupmode="layer"
     id="layer1"
     transform="translate(-73.683434,-50.216847)">
    <rect
       style="opacity:1;fill:#90ee90;fill-opacity:1;fill-rule:nonzero;stroke:none;stroke-width:0.49171212;stroke-miterlimit:4;stroke-dasharray:none;stroke-dashoffset:0;stroke-opacity:1"
       id="rect1162"
       width="23.586535"
       height="10.557146"
       x="73.783661"
       y="55.437904" />
    <g
       title="a\ b\ c\ b\ d\ a\ b"
       style="fill:#000000"
       id="equation_01"
       transform="translate(-1.2085551,0.66979764)">
      <defs
         id="defs901">
        <path
           id="equation_01_00"
           d="m 3.31756,-0.757161 c 0.03985,0.398506 0.30884,0.8169368 0.77709,0.8169368 0.20921,0 0.81693,-0.1394769 0.81693,-0.9464508 V -1.44458 H 4.66252 v 0.557905 c 0,0.577833 -0.24907,0.637609 -0.35866,0.637609 -0.32877,0 -0.36862,-0.448319 -0.36862,-0.498132 V -2.73973 c 0,-0.41843 0,-0.80697 -0.35865,-1.17559 -0.38855,-0.38854 -0.88668,-0.54794 -1.36488,-0.54794 -0.81694,0 -1.504363,0.46824 -1.504363,1.12578 0,0.29887 0.199253,0.46824 0.458283,0.46824 0.27895,0 0.45828,-0.19925 0.45828,-0.45828 0,-0.11955 -0.04981,-0.44832 -0.50809,-0.45828 0.26899,-0.3487 0.75716,-0.45828 1.07596,-0.45828 0.48817,0 1.05604,0.38854 1.05604,1.27521 v 0.36862 c -0.50809,0.02989 -1.20548,0.05978 -1.83313,0.35866 -0.747193,0.33873 -0.996259,0.85678 -0.996259,1.295139 0,0.806974 0.966379,1.05604 1.594019,1.05604 0.65754,0 1.11582,-0.398506 1.30511,-0.86675 z M 3.24782,-2.39103 v 0.99626 c 0,0.946451 -0.71731,1.285181 -1.16563,1.285181 -0.48817,0 -0.89664,-0.348692 -0.89664,-0.846824 0,-0.547947 0.41844,-1.374847 2.06227,-1.434617 z"
           inkscape:connector-curvature="0" />
        <path
           id="equation_01_01"
           d="m 1.71357,-3.75592 v -3.15815 l -1.434616,0.10959 v 0.30884 c 0.697385,0 0.777086,0.06974 0.777086,0.55791 V 0 h 0.24907 c 0.00996,-0.00996264 0.08966,-0.14944 0.35865,-0.617684 0.14944,0.229141 0.56787,0.727273 1.30511,0.727273 1.18555,0 2.22167,-0.976339 2.22167,-2.261519 0,-1.26526 -0.97634,-2.25156 -2.11208,-2.25156 -0.77709,0 -1.20548,0.46825 -1.36489,0.64757 z m 0.02989,2.62018 v -2.0523 c 0,-0.18929 0,-0.19926 0.10959,-0.35866 0.38854,-0.55791 0.93649,-0.63761 1.17559,-0.63761 0.44832,0 0.80698,0.25903 1.04608,0.63761 0.25903,0.40847 0.28892,0.97634 0.28892,1.38481 0,0.36861 -0.01993,0.96637 -0.30885,1.414692 -0.20921,0.308842 -0.58779,0.637609 -1.12577,0.637609 -0.44832,0 -0.80698,-0.239103 -1.04608,-0.607721 C 1.74346,-0.926526 1.74346,-0.956413 1.74346,-1.13574 Z"
           inkscape:connector-curvature="0" />
        <path
           id="equation_01_02"
           d="m 1.16563,-2.17186 c 0,-1.62391 0.81694,-2.04234 1.34496,-2.04234 0.08966,0 0.71731,0.00997 1.066,0.36862 -0.40847,0.02989 -0.46825,0.32877 -0.46825,0.45828 0,0.25903 0.17933,0.45828 0.45829,0.45828 0.25902,0 0.45828,-0.16936 0.45828,-0.46824 0,-0.67746 -0.75716,-1.066 -1.52429,-1.066 -1.24533,0 -2.16189,1.07596 -2.16189,2.31133 0,1.275218 0.9863,2.261519 2.14197,2.261519 1.33499,0 1.6538,-1.195519 1.6538,-1.295139 0,-0.09962 -0.09963,-0.09963 -0.12952,-0.09963 -0.08966,0 -0.10959,0.03985 -0.12951,0.09963 -0.28892,0.926521 -0.93649,1.046073 -1.30511,1.046073 -0.52802,0 -1.40473,-0.428393 -1.40473,-2.032383 z"
           inkscape:connector-curvature="0" />
        <path
           id="equation_01_03"
           d="M 3.7858,-0.547945 V 0.109589 L 5.25031,0 v -0.308842 c -0.69738,0 -0.77708,-0.069738 -0.77708,-0.557908 v -6.04732 l -1.43462,0.10959 v 0.30884 c 0.69738,0 0.77708,0.06974 0.77708,0.55791 V -3.7858 C 3.52677,-4.14446 3.09838,-4.40349 2.5604,-4.40349 c -1.17559,0 -2.22167,0.97634 -2.22167,2.26152 0,1.265258 0.97634,2.251559 2.11208,2.251559 0.63761,0 1.08593,-0.33873 1.33499,-0.657534 z m 0,-2.669985 v 2.04234 c 0,0.179326 0,0.199251 -0.10959,0.368616 -0.29888,0.478207 -0.74719,0.697385 -1.17559,0.697385 -0.44832,0 -0.80697,-0.259029 -1.04607,-0.637609 C 1.19552,-1.15567 1.16563,-1.72354 1.16563,-2.132 c 0,-0.36862 0.01992,-0.96638 0.30884,-1.4147 0.20922,-0.30884 0.5878,-0.63761 1.12578,-0.63761 0.34869,0 0.76712,0.14944 1.07596,0.59776 0.10959,0.16936 0.10959,0.18929 0.10959,0.36862 z"
           inkscape:connector-curvature="0" />
      </defs>
      <g
         id="equation_01_g">
        <use
           id="use903"
           y="62.764599"
           xlink:href="#equation_01_00"
           x="76.712303"
           width="100%"
           height="100%" />
        <use
           id="use905"
           y="62.764599"
           xlink:href="#equation_01_01"
           x="85.014503"
           width="100%"
           height="100%" />
        <use
           id="use907"
           y="62.764599"
           xlink:href="#equation_01_02"
           x="93.870201"
           width="100%"
           height="100%" />
        <use
           id="use909"
           y="62.764599"
           xlink:href="#equation_01_01"
           x="101.619"
           width="100%"
           height="100%" />
        <use
           id="use911"
           y="62.764599"
           xlink:href="#equation_01_03"
           x="110.475"
           width="100%"
           height="100%" />
        <use
           id="use913"
           y="62.764599"
           xlink:href="#equation_01_00"
           x="119.33"
           width="100%"
           height="100%" />
        <use
           id="use915"
           y="62.764599"
           xlink:href="#equation_01_01"
           x="127.633"
           width="100%"
           height="100%" />
      </g>
    </g>
    <rect
       style="opacity:1;fill:#90ee90;fill-opacity:1;fill-rule:nonzero;stroke:none;stroke-width:0.58579063;stroke-miterlimit:4;stroke-dasharray:none;stroke-dashoffset:0;stroke-opacity:1"
       id="rect1162-8"
       width="33.475506"
       height="10.557146"
       x="73.683434"
       y="67.665482" />
    <g
       title="b\ d\ c\ a\ b\ a"
       style="fill:#000000"
       id="equation_02"
       transform="translate(-1.0690781,14.200321)">
      <defs
         id="defs996">
        <path
           id="equation_02_00"
           d="m 3.31756,-0.757161 c 0.03985,0.398506 0.30884,0.8169368 0.77709,0.8169368 0.20921,0 0.81693,-0.1394769 0.81693,-0.9464508 V -1.44458 H 4.66252 v 0.557905 c 0,0.577833 -0.24907,0.637609 -0.35866,0.637609 -0.32877,0 -0.36862,-0.448319 -0.36862,-0.498132 V -2.73973 c 0,-0.41843 0,-0.80697 -0.35865,-1.17559 -0.38855,-0.38854 -0.88668,-0.54794 -1.36488,-0.54794 -0.81694,0 -1.504363,0.46824 -1.504363,1.12578 0,0.29887 0.199253,0.46824 0.458283,0.46824 0.27895,0 0.45828,-0.19925 0.45828,-0.45828 0,-0.11955 -0.04981,-0.44832 -0.50809,-0.45828 0.26899,-0.3487 0.75716,-0.45828 1.07596,-0.45828 0.48817,0 1.05604,0.38854 1.05604,1.27521 v 0.36862 c -0.50809,0.02989 -1.20548,0.05978 -1.83313,0.35866 -0.747193,0.33873 -0.996259,0.85678 -0.996259,1.295139 0,0.806974 0.966379,1.05604 1.594019,1.05604 0.65754,0 1.11582,-0.398506 1.30511,-0.86675 z M 3.24782,-2.39103 v 0.99626 c 0,0.946451 -0.71731,1.285181 -1.16563,1.285181 -0.48817,0 -0.89664,-0.348692 -0.89664,-0.846824 0,-0.547947 0.41844,-1.374847 2.06227,-1.434617 z"
           inkscape:connector-curvature="0" />
        <path
           id="equation_02_01"
           d="m 1.71357,-3.75592 v -3.15815 l -1.434616,0.10959 v 0.30884 c 0.697385,0 0.777086,0.06974 0.777086,0.55791 V 0 h 0.24907 c 0.00996,-0.00996264 0.08966,-0.14944 0.35865,-0.617684 0.14944,0.229141 0.56787,0.727273 1.30511,0.727273 1.18555,0 2.22167,-0.976339 2.22167,-2.261519 0,-1.26526 -0.97634,-2.25156 -2.11208,-2.25156 -0.77709,0 -1.20548,0.46825 -1.36489,0.64757 z m 0.02989,2.62018 v -2.0523 c 0,-0.18929 0,-0.19926 0.10959,-0.35866 0.38854,-0.55791 0.93649,-0.63761 1.17559,-0.63761 0.44832,0 0.80698,0.25903 1.04608,0.63761 0.25903,0.40847 0.28892,0.97634 0.28892,1.38481 0,0.36861 -0.01993,0.96637 -0.30885,1.414692 -0.20921,0.308842 -0.58779,0.637609 -1.12577,0.637609 -0.44832,0 -0.80698,-0.239103 -1.04608,-0.607721 C 1.74346,-0.926526 1.74346,-0.956413 1.74346,-1.13574 Z"
           inkscape:connector-curvature="0" />
        <path
           id="equation_02_02"
           d="m 1.16563,-2.17186 c 0,-1.62391 0.81694,-2.04234 1.34496,-2.04234 0.08966,0 0.71731,0.00997 1.066,0.36862 -0.40847,0.02989 -0.46825,0.32877 -0.46825,0.45828 0,0.25903 0.17933,0.45828 0.45829,0.45828 0.25902,0 0.45828,-0.16936 0.45828,-0.46824 0,-0.67746 -0.75716,-1.066 -1.52429,-1.066 -1.24533,0 -2.16189,1.07596 -2.16189,2.31133 0,1.275218 0.9863,2.261519 2.14197,2.261519 1.33499,0 1.6538,-1.195519 1.6538,-1.295139 0,-0.09962 -0.09963,-0.09963 -0.12952,-0.09963 -0.08966,0 -0.10959,0.03985 -0.12951,0.09963 -0.28892,0.926521 -0.93649,1.046073 -1.30511,1.046073 -0.52802,0 -1.40473,-0.428393 -1.40473,-2.032383 z"
           inkscape:connector-curvature="0" />
        <path
           id="equation_02_03"
           d="M 3.7858,-0.547945 V 0.109589 L 5.25031,0 v -0.308842 c -0.69738,0 -0.77708,-0.069738 -0.77708,-0.557908 v -6.04732 l -1.43462,0.10959 v 0.30884 c 0.69738,0 0.77708,0.06974 0.77708,0.55791 V -3.7858 C 3.52677,-4.14446 3.09838,-4.40349 2.5604,-4.40349 c -1.17559,0 -2.22167,0.97634 -2.22167,2.26152 0,1.265258 0.97634,2.251559 2.11208,2.251559 0.63761,0 1.08593,-0.33873 1.33499,-0.657534 z m 0,-2.669985 v 2.04234 c 0,0.179326 0,0.199251 -0.10959,0.368616 -0.29888,0.478207 -0.74719,0.697385 -1.17559,0.697385 -0.44832,0 -0.80697,-0.259029 -1.04607,-0.637609 C 1.19552,-1.15567 1.16563,-1.72354 1.16563,-2.132 c 0,-0.36862 0.01992,-0.96638 0.30884,-1.4147 0.20922,-0.30884 0.5878,-0.63761 1.12578,-0.63761 0.34869,0 0.76712,0.14944 1.07596,0.59776 0.10959,0.16936 0.10959,0.18929 0.10959,0.36862 z"
           inkscape:connector-curvature="0" />
      </defs>
      <g
         id="equation_02_g">
        <use
           id="use998"
           y="62.764599"
           xlink:href="#equation_02_01"
           x="76.712303"
           width="100%"
           height="100%" />
        <use
           id="use1000"
           y="62.764599"
           xlink:href="#equation_02_03"
           x="85.568001"
           width="100%"
           height="100%" />
        <use
           id="use1002"
           y="62.764599"
           xlink:href="#equation_02_02"
           x="94.423698"
           width="100%"
           height="100%" />
        <use
           id="use1004"
           y="62.764599"
           xlink:href="#equation_02_00"
           x="102.172"
           width="100%"
           height="100%" />
        <use
           id="use1006"
           y="62.764599"
           xlink:href="#equation_02_01"
           x="110.475"
           width="100%"
           height="100%" />
        <use
           id="use1008"
           y="62.764599"
           xlink:href="#equation_02_00"
           x="119.33"
           width="100%"
           height="100%" />
      </g>
    </g>
    <circle
       style="opacity:1;fill:none;fill-opacity:1;fill-rule:nonzero;stroke:#ff0000;stroke-width:0.5;stroke-miterlimit:4;stroke-dasharray:none;stroke-dashoffset:0;stroke-opacity:1"
       id="path1055-0-8"
       cx="103.16604"
       cy="60.032158"
       r="4.3431296" />
    <circle
       style="opacity:1;fill:none;fill-opacity:1;fill-rule:nonzero;stroke:#ff0000;stroke-width:0.5;stroke-miterlimit:4;stroke-dasharray:none;stroke-dashoffset:0;stroke-opacity:1"
       id="path1055-0-8-5-3-7-0"
       cx="112.18639"
       cy="73.562683"
       r="4.3431296" />
    <text
       xml:space="preserve"
       style="font-style:normal;font-weight:normal;font-size:5.64444447px;line-height:1.25;font-family:sans-serif;letter-spacing:0px;word-spacing:0px;fill:#000000;fill-opacity:1;stroke:none;stroke-width:0.26458332"
       x="94.416679"
       y="54.348206"
       id="text1181"><tspan
         sodipodi:role="line"
         id="tspan1179"
         x="94.416679"
         y="54.348206"
         style="stroke-width:0.26458332">i</tspan></text>
    <text
       xml:space="preserve"
       style="font-style:normal;font-weight:normal;font-size:5.64444447px;line-height:1.25;font-family:sans-serif;letter-spacing:0px;word-spacing:0px;fill:#000000;fill-opacity:1;stroke:none;stroke-width:0.26458332"
       x="102.70204"
       y="83.346947"
       id="text1185"><tspan
         sodipodi:role="line"
         id="tspan1183"
         x="102.70204"
         y="83.346947"
         style="stroke-width:0.26458332">j</tspan></text>
  </g>
</svg>
