<svg xmlns="http://www.w3.org/2000/svg" xmlns:xlink="http://www.w3.org/1999/xlink" width="600" height="600">
        <circle fill="black" stroke="black" r="2" cx="200" cy="266.6666666666667"></circle><circle fill="black" stroke="black" r="2" cx="400" cy="200"></circle><circle fill="black" stroke="black" r="2" cx="500" cy="300"></circle><circle fill="black" stroke="black" r="2" cx="400" cy="400"></circle><circle fill="black" stroke="black" r="2" cx="200" cy="333.3333333333333"></circle><circle fill="black" stroke="black" r="2" cx="100" cy="300"></circle><path fill="none" stroke="black" d="M200,266.6666666666667L233.33333333333334,255.55555555555557C266.6666666666667,244.44444444444446,333.3333333333333,222.22222222222226,383.3333333333333,227.7777777777778C433.3333333333333,233.33333333333334,466.6666666666667,266.6666666666667,466.6666666666667,300C466.6666666666667,333.3333333333333,433.3333333333333,366.6666666666667,383.3333333333333,372.22222222222223C333.3333333333333,377.77777777777777,266.6666666666667,355.5555555555555,233.33333333333334,344.4444444444444L200,333.3333333333333"></path><path fill="none" stroke="black" d="M100,300L200,266.6666666666667L400,200L500,300L400,400L200,333.3333333333333L100,300" stroke-dasharray="2 2"></path></svg>
