<?xml version="1.0" encoding="UTF-8" standalone="no"?>
<svg
   xmlns:dc="http://purl.org/dc/elements/1.1/"
   xmlns:cc="http://creativecommons.org/ns#"
   xmlns:rdf="http://www.w3.org/1999/02/22-rdf-syntax-ns#"
   xmlns:svg="http://www.w3.org/2000/svg"
   xmlns="http://www.w3.org/2000/svg"
   xmlns:xlink="http://www.w3.org/1999/xlink"
   xmlns:sodipodi="http://sodipodi.sourceforge.net/DTD/sodipodi-0.dtd"
   xmlns:inkscape="http://www.inkscape.org/namespaces/inkscape"
   width="425"
   height="284.36377"
   version="1.1"
   id="svg874"
   sodipodi:docname="selfloop02.svg"
   inkscape:version="0.92.2 5c3e80d, 2017-08-06">
  <sodipodi:namedview
     pagecolor="#ffffff"
     bordercolor="#666666"
     borderopacity="1"
     objecttolerance="10"
     gridtolerance="10"
     guidetolerance="10"
     inkscape:pageopacity="0"
     inkscape:pageshadow="2"
     inkscape:window-width="1374"
     inkscape:window-height="744"
     id="namedview876"
     showgrid="false"
     inkscape:zoom="1.3128616"
     inkscape:cx="199.95796"
     inkscape:cy="176.95088"
     inkscape:window-x="46"
     inkscape:window-y="7"
     inkscape:window-maximized="0"
     inkscape:current-layer="svg874"
     fit-margin-top="10"
     fit-margin-left="10"
     fit-margin-right="10"
     fit-margin-bottom="10" />
  <metadata
     id="metadata880">
    <rdf:RDF>
      <cc:Work
         rdf:about="">
        <dc:format>image/svg+xml</dc:format>
        <dc:type
           rdf:resource="http://purl.org/dc/dcmitype/StillImage" />
        <dc:title />
      </cc:Work>
    </rdf:RDF>
  </metadata>
  <defs
     id="defs878" />
  <circle
     style="fill:#000000;stroke:#000000"
     id="circle858"
     cy="79.166656"
     cx="112.5"
     r="2" />
  <circle
     style="fill:#000000;stroke:#000000"
     id="circle860"
     cy="12.5"
     cx="312.5"
     r="2" />
  <circle
     style="fill:#000000;stroke:#000000"
     id="circle862"
     cy="112.5"
     cx="412.5"
     r="2" />
  <circle
     style="fill:#000000;stroke:#000000"
     id="circle864"
     cy="212.5"
     cx="312.5"
     r="2" />
  <circle
     style="fill:#000000;stroke:#000000"
     id="circle866"
     cy="145.83334"
     cx="112.5"
     r="2" />
  <circle
     style="fill:#000000;stroke:#000000"
     id="circle868"
     cy="112.5"
     cx="12.5"
     r="2" />
  <path
     style="fill:none;stroke:#000000"
     inkscape:connector-curvature="0"
     id="path870"
     d="m 112.5,79.16667 33.33333,-11.11111 c 33.33334,-11.11112 100,-33.33334 150,-27.77778 50,5.55555 83.33334,38.88889 83.33334,72.22222 0,33.33333 -33.33334,66.66667 -83.33334,72.22222 -50,5.55556 -116.66666,-16.66666 -150,-27.77778 L 112.5,145.83333" />
  <path
     style="fill:none;stroke:#000000;stroke-dasharray:2, 2"
     inkscape:connector-curvature="0"
     id="path872"
     d="m 12.5,112.5 100,-33.33333 200,-66.66667 100,100 -100,100 -200,-66.66667 L 12.5,112.5" />
  <path
     inkscape:connector-curvature="0"
     id="path4572"
     d="m 12.5,112.5 h 400"
     style="fill:none;stroke:#ff0000;stroke-width:1px;stroke-linecap:butt;stroke-linejoin:miter;stroke-opacity:1" />
  <path
     inkscape:connector-curvature="0"
     id="path4574"
     d="m 312.5,12.5 v 200"
     style="fill:none;stroke:#0000ff;stroke-width:1px;stroke-linecap:butt;stroke-linejoin:miter;stroke-opacity:1" />
  <g
     transform="matrix(2.5377374,0,0,2.5377374,48.26861,-52.47314)"
     title="$l_1$"
     style="fill:#ff0000;fill-opacity:1"
     id="equation_00">
    <defs
       id="defs4591">
      <path
         inkscape:connector-curvature="0"
         d="m 2.336239,-4.435367 c 0,-0.188294 -0.013948,-0.195268 -0.209215,-0.195268 -0.446327,0.439352 -1.080947,0.446326 -1.366875,0.446326 v 0.251059 c 0.167373,0 0.627647,0 1.011208,-0.195268 v 3.556662 c 0,0.230137 0,0.320797 -0.697384,0.320797 H 0.808966 V 0 c 0.12553,-0.006974 0.983313,-0.027895 1.241345,-0.027895 0.21619,0 1.094894,0.020921 1.248319,0.027895 V -0.251059 H 3.033624 c -0.697385,0 -0.697385,-0.09066 -0.697385,-0.320797 z"
         id="equation_00_00" />
      <path
         inkscape:connector-curvature="0"
         d="m 2.570361,-6.804483 c 0,-0.00996 0,-0.109589 -0.129514,-0.109589 -0.229141,0 -0.956414,0.079701 -1.215442,0.099626 -0.079701,0.00996 -0.18929,0.019925 -0.18929,0.209216 0,0.109589 0.099626,0.109589 0.249066,0.109589 0.478206,0 0.488169,0.089663 0.488169,0.169365 l -0.029888,0.199252 -1.255293,4.98132 c -0.029888,0.109589 -0.049813,0.179328 -0.049813,0.33873 0,0.567871 0.438356,0.916563 0.9066,0.916563 0.328768,0 0.577834,-0.199253 0.747198,-0.557908 0.179328,-0.37858 0.29888,-0.956413 0.29888,-0.976339 0,-0.099626 -0.089664,-0.099626 -0.119552,-0.099626 -0.099626,0 -0.109589,0.039851 -0.139477,0.179328 -0.169365,0.647571 -0.358655,1.235367 -0.757161,1.235367 -0.298879,0 -0.298879,-0.318805 -0.298879,-0.458281 0,-0.239104 0.00996,-0.288917 0.059776,-0.478207 z"
         id="equation_00_01" />
    </defs>
    <g
       style="fill:#ff0000;fill-opacity:1"
       id="equation_00_g">
      <use
         style="fill:#ff0000;fill-opacity:1"
         height="100%"
         width="100%"
         id="use4593"
         xlink:href="#equation_00_01"
         y="62.764633"
         x="76.712326" />
      <use
         style="fill:#ff0000;fill-opacity:1"
         height="100%"
         width="100%"
         id="use4595"
         xlink:href="#equation_00_00"
         y="64.25901"
         x="79.684982" />
    </g>
  </g>
  <g
     transform="matrix(2.5377374,0,0,2.5377374,122.74237,-74.55511)"
     id="equation_01"
     style="fill:#0000ff;fill-opacity:1"
     title="$l_2$">
    <defs
       id="defs4641">
      <path
         inkscape:connector-curvature="0"
         id="equation_01_00"
         d="M 3.521793,-1.26924 H 3.284682 c -0.020921,0.153424 -0.09066,0.564881 -0.18132,0.63462 -0.05579,0.041843 -0.592777,0.041843 -0.690411,0.041843 H 1.129763 c 0.732254,-0.648568 0.976339,-0.843836 1.39477,-1.171607 0.516065,-0.411457 0.99726,-0.843835 0.99726,-1.506351 0,-0.843835 -0.739228,-1.3599 -1.63188,-1.3599 -0.864757,0 -1.450561,0.606725 -1.450561,1.248319 0,0.355666 0.299876,0.390535 0.369614,0.390535 0.167373,0 0.369614,-0.118555 0.369614,-0.369614 0,-0.125529 -0.048817,-0.369614 -0.411457,-0.369614 0.21619,-0.495143 0.690411,-0.648568 1.018182,-0.648568 0.697385,0 1.060025,0.543961 1.060025,1.108842 0,0.606725 -0.432379,1.087921 -0.655542,1.338979 L 0.509091,-0.27198 C 0.439352,-0.209215 0.439352,-0.195268 0.439352,0 h 2.873226 z" />
      <path
         inkscape:connector-curvature="0"
         id="equation_01_01"
         d="m 2.570361,-6.804483 c 0,-0.00996 0,-0.109589 -0.129514,-0.109589 -0.229141,0 -0.956414,0.079701 -1.215442,0.099626 -0.079701,0.00996 -0.18929,0.019925 -0.18929,0.209216 0,0.109589 0.099626,0.109589 0.249066,0.109589 0.478206,0 0.488169,0.089663 0.488169,0.169365 l -0.029888,0.199252 -1.255293,4.98132 c -0.029888,0.109589 -0.049813,0.179328 -0.049813,0.33873 0,0.567871 0.438356,0.916563 0.9066,0.916563 0.328768,0 0.577834,-0.199253 0.747198,-0.557908 0.179328,-0.37858 0.29888,-0.956413 0.29888,-0.976339 0,-0.099626 -0.089664,-0.099626 -0.119552,-0.099626 -0.099626,0 -0.109589,0.039851 -0.139477,0.179328 -0.169365,0.647571 -0.358655,1.235367 -0.757161,1.235367 -0.298879,0 -0.298879,-0.318805 -0.298879,-0.458281 0,-0.239104 0.00996,-0.288917 0.059776,-0.478207 z" />
    </defs>
    <g
       style="fill:#0000ff;fill-opacity:1"
       id="equation_01_g">
      <use
         style="fill:#0000ff;fill-opacity:1"
         height="100%"
         width="100%"
         x="76.712326"
         y="62.764633"
         xlink:href="#equation_01_01"
         id="use4643" />
      <use
         style="fill:#0000ff;fill-opacity:1"
         height="100%"
         width="100%"
         x="79.684982"
         y="64.25901"
         xlink:href="#equation_01_00"
         id="use4645" />
    </g>
  </g>
  <path
     inkscape:connector-curvature="0"
     id="path4676"
     d="m 112.5,79.16667 v 66.66666"
     style="fill:none;stroke:#008000;stroke-width:1px;stroke-linecap:butt;stroke-linejoin:miter;stroke-opacity:1" />
  <path
     inkscape:connector-curvature="0"
     id="path4876"
     d="m 12.5,175.72068 99.56407,-0.1078"
     style="fill:none;stroke:#e60000;stroke-width:1px;stroke-linecap:butt;stroke-linejoin:miter;stroke-opacity:1" />
  <path
     inkscape:connector-curvature="0"
     id="path4878"
     d="m 12.5,249.60509 300.65153,-0.1078"
     style="fill:none;stroke:#e60000;stroke-width:1px;stroke-linecap:butt;stroke-linejoin:miter;stroke-opacity:1" />
  <path
     inkscape:connector-curvature="0"
     id="path4880"
     d="M 12.5,112.5 V 249.60509"
     style="fill:none;stroke:#ff0000;stroke-width:1.00157475;stroke-linecap:butt;stroke-linejoin:miter;stroke-miterlimit:4;stroke-dasharray:1.00157475, 2.00314951;stroke-dashoffset:0;stroke-opacity:1" />
  <path
     inkscape:connector-curvature="0"
     id="path4882"
     d="m 112.5,145.83333 -0.43593,29.77955"
     style="fill:none;stroke:#ff0000;stroke-width:1;stroke-linecap:butt;stroke-linejoin:miter;stroke-miterlimit:4;stroke-dasharray:1, 1;stroke-dashoffset:0;stroke-opacity:1" />
  <path
     inkscape:connector-curvature="0"
     id="path4884"
     d="m 312.5,212.5 0.65153,36.99729"
     style="fill:none;stroke:#ff0000;stroke-width:1;stroke-linecap:butt;stroke-linejoin:miter;stroke-miterlimit:4;stroke-dasharray:1, 1;stroke-dashoffset:0;stroke-opacity:1" />
  <g
     transform="matrix(1.8980677,0,0,1.8980677,-92.764874,71.293299)"
     title="$x_s$"
     style="fill:#ff0000;fill-opacity:1"
     id="equation_02">
    <defs
       id="defs1053">
      <path
         inkscape:connector-curvature="0"
         d="m 3.005729,-2.622167 c -0.181321,0.041843 -0.292902,0.188294 -0.292902,0.327771 0,0.160398 0.139477,0.223163 0.230137,0.223163 0.069738,0 0.334745,-0.041843 0.334745,-0.397509 0,-0.4533 -0.502117,-0.606725 -0.927522,-0.606725 -1.08792,0 -1.283188,0.801993 -1.283188,1.018182 0,0.258032 0.146451,0.425405 0.244084,0.509091 0.18132,0.139477 0.30685,0.167372 0.788045,0.251058 0.146451,0.027896 0.592777,0.111582 0.592777,0.460274 0,0.118556 -0.076712,0.383562 -0.369614,0.557908 -0.27198,0.153425 -0.613698,0.153425 -0.697384,0.153425 -0.278954,0 -0.676464,-0.062765 -0.836862,-0.292902 0.230137,-0.027895 0.383561,-0.202241 0.383561,-0.397509 0,-0.174346 -0.125529,-0.258033 -0.27198,-0.258033 -0.202241,0 -0.404483,0.160399 -0.404483,0.467248 0,0.418431 0.446326,0.676463 1.12279,0.676463 1.283188,0 1.520299,-0.878704 1.520299,-1.150684 0,-0.641594 -0.704359,-0.767124 -0.962391,-0.815941 C 2.113076,-1.910834 1.93873,-1.93873 1.896887,-1.952677 1.638854,-2.001494 1.513325,-2.147945 1.513325,-2.30137 c 0,-0.160398 0.125529,-0.348692 0.278954,-0.446326 0.188294,-0.118556 0.432379,-0.132503 0.550934,-0.132503 0.146451,0 0.509091,0.020921 0.662516,0.258032 z"
         id="equation_02_00" />
      <path
         inkscape:connector-curvature="0"
         d="m 3.327522,-3.008717 c 0.059776,-0.259029 0.288916,-1.175592 0.986301,-1.175592 0.049813,0 0.288917,0 0.498132,0.129514 -0.278954,0.049814 -0.478207,0.29888 -0.478207,0.537983 0,0.159402 0.109589,0.348692 0.378581,0.348692 0.219178,0 0.537982,-0.179327 0.537982,-0.577833 0,-0.518057 -0.587795,-0.657534 -0.926525,-0.657534 -0.577833,0 -0.926526,0.52802 -1.046077,0.757161 -0.249066,-0.657535 -0.787049,-0.757161 -1.075966,-0.757161 -1.036114,0 -1.603985,1.285181 -1.603985,1.534247 0,0.099626 0.099627,0.099626 0.119552,0.099626 0.079701,0 0.109589,-0.019925 0.129514,-0.109589 0.33873,-1.05604 0.996264,-1.305106 1.334994,-1.305106 0.18929,0 0.537983,0.089664 0.537983,0.667497 0,0.308842 -0.169365,0.976339 -0.537983,2.371108 -0.159402,0.617684 -0.508094,1.036115 -0.946451,1.036115 -0.059775,0 -0.288916,0 -0.498132,-0.129514 0.249066,-0.049814 0.468244,-0.259029 0.468244,-0.537983 0,-0.268991 -0.219178,-0.348692 -0.368617,-0.348692 -0.298879,0 -0.547945,0.259028 -0.547945,0.577833 0,0.458281 0.498132,0.657534 0.936488,0.657534 0.657534,0 1.016189,-0.697385 1.046077,-0.757161 0.119552,0.368618 0.478207,0.757161 1.075965,0.757161 1.026152,0 1.594022,-1.285181 1.594022,-1.534247 0,-0.099626 -0.089663,-0.099626 -0.119551,-0.099626 -0.089664,0 -0.109589,0.039851 -0.129515,0.109589 -0.328767,1.066003 -1.006226,1.305106 -1.325031,1.305106 -0.388543,0 -0.547945,-0.318805 -0.547945,-0.657534 0,-0.219178 0.059776,-0.438356 0.169365,-0.876713 z"
         id="equation_02_01" />
    </defs>
    <g
       style="fill:#ff0000;fill-opacity:1"
       id="equation_02_g">
      <use
         style="fill:#ff0000;fill-opacity:1"
         height="100%"
         width="100%"
         id="use1055"
         xlink:href="#equation_02_01"
         y="62.764633"
         x="76.712326" />
      <use
         style="fill:#ff0000;fill-opacity:1"
         height="100%"
         width="100%"
         id="use1057"
         xlink:href="#equation_02_00"
         y="64.25901"
         x="82.406258" />
    </g>
  </g>
  <g
     transform="matrix(1.8980677,0,0,1.8980677,2.3756634,144.87007)"
     id="equation_03"
     style="fill:#ff0000;fill-opacity:1"
     title="$x_l$">
    <defs
       id="defs1143">
      <path
         inkscape:connector-curvature="0"
         id="equation_03_00"
         d="m 1.966625,-4.630635 c 0.00697,-0.013948 0.027896,-0.104608 0.027896,-0.111582 0,-0.034869 -0.027896,-0.097634 -0.111582,-0.097634 -0.139477,0 -0.718306,0.055791 -0.892653,0.069739 -0.048817,0.00697 -0.14645,0.013948 -0.14645,0.160398 0,0.097634 0.097633,0.097634 0.174346,0.097634 0.334745,0 0.334745,0.048817 0.334745,0.104608 0,0.048817 -0.013948,0.09066 -0.027896,0.153425 l -0.864757,3.445081 c -0.020922,0.069738 -0.027895,0.14645 -0.027895,0.216189 0,0.446326 0.397509,0.662515 0.732254,0.662515 0.167372,0 0.376587,-0.05579 0.557907,-0.369613 0.146451,-0.258033 0.244085,-0.66949 0.244085,-0.697385 0,-0.09066 -0.09066,-0.09066 -0.111581,-0.09066 -0.097634,0 -0.111582,0.041843 -0.139477,0.167372 -0.09066,0.348692 -0.223164,0.795019 -0.523039,0.795019 -0.188294,0 -0.237111,-0.174346 -0.237111,-0.341719 0,-0.076712 0.020922,-0.209215 0.041843,-0.285928 z" />
      <path
         inkscape:connector-curvature="0"
         id="equation_03_01"
         d="m 3.327522,-3.008717 c 0.059776,-0.259029 0.288916,-1.175592 0.986301,-1.175592 0.049813,0 0.288917,0 0.498132,0.129514 -0.278954,0.049814 -0.478207,0.29888 -0.478207,0.537983 0,0.159402 0.109589,0.348692 0.378581,0.348692 0.219178,0 0.537982,-0.179327 0.537982,-0.577833 0,-0.518057 -0.587795,-0.657534 -0.926525,-0.657534 -0.577833,0 -0.926526,0.52802 -1.046077,0.757161 -0.249066,-0.657535 -0.787049,-0.757161 -1.075966,-0.757161 -1.036114,0 -1.603985,1.285181 -1.603985,1.534247 0,0.099626 0.099627,0.099626 0.119552,0.099626 0.079701,0 0.109589,-0.019925 0.129514,-0.109589 0.33873,-1.05604 0.996264,-1.305106 1.334994,-1.305106 0.18929,0 0.537983,0.089664 0.537983,0.667497 0,0.308842 -0.169365,0.976339 -0.537983,2.371108 -0.159402,0.617684 -0.508094,1.036115 -0.946451,1.036115 -0.059775,0 -0.288916,0 -0.498132,-0.129514 0.249066,-0.049814 0.468244,-0.259029 0.468244,-0.537983 0,-0.268991 -0.219178,-0.348692 -0.368617,-0.348692 -0.298879,0 -0.547945,0.259028 -0.547945,0.577833 0,0.458281 0.498132,0.657534 0.936488,0.657534 0.657534,0 1.016189,-0.697385 1.046077,-0.757161 0.119552,0.368618 0.478207,0.757161 1.075965,0.757161 1.026152,0 1.594022,-1.285181 1.594022,-1.534247 0,-0.099626 -0.089663,-0.099626 -0.119551,-0.099626 -0.089664,0 -0.109589,0.039851 -0.129515,0.109589 -0.328767,1.066003 -1.006226,1.305106 -1.325031,1.305106 -0.388543,0 -0.547945,-0.318805 -0.547945,-0.657534 0,-0.219178 0.059776,-0.438356 0.169365,-0.876713 z" />
    </defs>
    <g
       style="fill:#ff0000;fill-opacity:1"
       id="equation_03_g">
      <use
         style="fill:#ff0000;fill-opacity:1"
         height="100%"
         width="100%"
         x="76.712326"
         y="62.764633"
         xlink:href="#equation_03_01"
         id="use1145" />
      <use
         style="fill:#ff0000;fill-opacity:1"
         height="100%"
         width="100%"
         x="82.406258"
         y="64.25901"
         xlink:href="#equation_03_00"
         id="use1147" />
    </g>
  </g>
  <g
     title="$\displaystyle\frac{l_2}{x_l}x_s$"
     style="fill:#008000;fill-opacity:1"
     id="equation_04"
     transform="matrix(1.518116,0,0,1.518116,6.0980889,24.435403)">
    <defs
       id="defs1540">
      <path
         d="m 1.966625,-4.630635 c 0.00697,-0.013948 0.027896,-0.104608 0.027896,-0.111582 0,-0.034869 -0.027896,-0.097634 -0.111582,-0.097634 -0.139477,0 -0.718306,0.055791 -0.892653,0.069739 -0.048817,0.00697 -0.14645,0.013948 -0.14645,0.160398 0,0.097634 0.097633,0.097634 0.174346,0.097634 0.334745,0 0.334745,0.048817 0.334745,0.104608 0,0.048817 -0.013948,0.09066 -0.027896,0.153425 l -0.864757,3.445081 c -0.020922,0.069738 -0.027895,0.14645 -0.027895,0.216189 0,0.446326 0.397509,0.662515 0.732254,0.662515 0.167372,0 0.376587,-0.05579 0.557907,-0.369613 0.146451,-0.258033 0.244085,-0.66949 0.244085,-0.697385 0,-0.09066 -0.09066,-0.09066 -0.111581,-0.09066 -0.097634,0 -0.111582,0.041843 -0.139477,0.167372 -0.09066,0.348692 -0.223164,0.795019 -0.523039,0.795019 -0.188294,0 -0.237111,-0.174346 -0.237111,-0.341719 0,-0.076712 0.020922,-0.209215 0.041843,-0.285928 z"
         id="equation_04_00"
         inkscape:connector-curvature="0" />
      <path
         d="m 3.005729,-2.622167 c -0.181321,0.041843 -0.292902,0.188294 -0.292902,0.327771 0,0.160398 0.139477,0.223163 0.230137,0.223163 0.069738,0 0.334745,-0.041843 0.334745,-0.397509 0,-0.4533 -0.502117,-0.606725 -0.927522,-0.606725 -1.08792,0 -1.283188,0.801993 -1.283188,1.018182 0,0.258032 0.146451,0.425405 0.244084,0.509091 0.18132,0.139477 0.30685,0.167372 0.788045,0.251058 0.146451,0.027896 0.592777,0.111582 0.592777,0.460274 0,0.118556 -0.076712,0.383562 -0.369614,0.557908 -0.27198,0.153425 -0.613698,0.153425 -0.697384,0.153425 -0.278954,0 -0.676464,-0.062765 -0.836862,-0.292902 0.230137,-0.027895 0.383561,-0.202241 0.383561,-0.397509 0,-0.174346 -0.125529,-0.258033 -0.27198,-0.258033 -0.202241,0 -0.404483,0.160399 -0.404483,0.467248 0,0.418431 0.446326,0.676463 1.12279,0.676463 1.283188,0 1.520299,-0.878704 1.520299,-1.150684 0,-0.641594 -0.704359,-0.767124 -0.962391,-0.815941 C 2.113076,-1.910834 1.93873,-1.93873 1.896887,-1.952677 1.638854,-2.001494 1.513325,-2.147945 1.513325,-2.30137 c 0,-0.160398 0.125529,-0.348692 0.278954,-0.446326 0.188294,-0.118556 0.432379,-0.132503 0.550934,-0.132503 0.146451,0 0.509091,0.020921 0.662516,0.258032 z"
         id="equation_04_01"
         inkscape:connector-curvature="0" />
      <path
         d="M 3.521793,-1.26924 H 3.284682 c -0.020921,0.153424 -0.09066,0.564881 -0.18132,0.63462 -0.05579,0.041843 -0.592777,0.041843 -0.690411,0.041843 H 1.129763 c 0.732254,-0.648568 0.976339,-0.843836 1.39477,-1.171607 0.516065,-0.411457 0.99726,-0.843835 0.99726,-1.506351 0,-0.843835 -0.739228,-1.3599 -1.63188,-1.3599 -0.864757,0 -1.450561,0.606725 -1.450561,1.248319 0,0.355666 0.299876,0.390535 0.369614,0.390535 0.167373,0 0.369614,-0.118555 0.369614,-0.369614 0,-0.125529 -0.048817,-0.369614 -0.411457,-0.369614 0.21619,-0.495143 0.690411,-0.648568 1.018182,-0.648568 0.697385,0 1.060025,0.543961 1.060025,1.108842 0,0.606725 -0.432379,1.087921 -0.655542,1.338979 L 0.509091,-0.27198 C 0.439352,-0.209215 0.439352,-0.195268 0.439352,0 h 2.873226 z"
         id="equation_04_02"
         inkscape:connector-curvature="0" />
      <path
         d="m 2.570361,-6.804483 c 0,-0.00996 0,-0.109589 -0.129514,-0.109589 -0.229141,0 -0.956414,0.079701 -1.215442,0.099626 -0.079701,0.00996 -0.18929,0.019925 -0.18929,0.209216 0,0.109589 0.099626,0.109589 0.249066,0.109589 0.478206,0 0.488169,0.089663 0.488169,0.169365 l -0.029888,0.199252 -1.255293,4.98132 c -0.029888,0.109589 -0.049813,0.179328 -0.049813,0.33873 0,0.567871 0.438356,0.916563 0.9066,0.916563 0.328768,0 0.577834,-0.199253 0.747198,-0.557908 0.179328,-0.37858 0.29888,-0.956413 0.29888,-0.976339 0,-0.099626 -0.089664,-0.099626 -0.119552,-0.099626 -0.099626,0 -0.109589,0.039851 -0.139477,0.179328 -0.169365,0.647571 -0.358655,1.235367 -0.757161,1.235367 -0.298879,0 -0.298879,-0.318805 -0.298879,-0.458281 0,-0.239104 0.00996,-0.288917 0.059776,-0.478207 z"
         id="equation_04_03"
         inkscape:connector-curvature="0" />
      <path
         d="m 3.327522,-3.008717 c 0.059776,-0.259029 0.288916,-1.175592 0.986301,-1.175592 0.049813,0 0.288917,0 0.498132,0.129514 -0.278954,0.049814 -0.478207,0.29888 -0.478207,0.537983 0,0.159402 0.109589,0.348692 0.378581,0.348692 0.219178,0 0.537982,-0.179327 0.537982,-0.577833 0,-0.518057 -0.587795,-0.657534 -0.926525,-0.657534 -0.577833,0 -0.926526,0.52802 -1.046077,0.757161 -0.249066,-0.657535 -0.787049,-0.757161 -1.075966,-0.757161 -1.036114,0 -1.603985,1.285181 -1.603985,1.534247 0,0.099626 0.099627,0.099626 0.119552,0.099626 0.079701,0 0.109589,-0.019925 0.129514,-0.109589 0.33873,-1.05604 0.996264,-1.305106 1.334994,-1.305106 0.18929,0 0.537983,0.089664 0.537983,0.667497 0,0.308842 -0.169365,0.976339 -0.537983,2.371108 -0.159402,0.617684 -0.508094,1.036115 -0.946451,1.036115 -0.059775,0 -0.288916,0 -0.498132,-0.129514 0.249066,-0.049814 0.468244,-0.259029 0.468244,-0.537983 0,-0.268991 -0.219178,-0.348692 -0.368617,-0.348692 -0.298879,0 -0.547945,0.259028 -0.547945,0.577833 0,0.458281 0.498132,0.657534 0.936488,0.657534 0.657534,0 1.016189,-0.697385 1.046077,-0.757161 0.119552,0.368618 0.478207,0.757161 1.075965,0.757161 1.026152,0 1.594022,-1.285181 1.594022,-1.534247 0,-0.099626 -0.089663,-0.099626 -0.119551,-0.099626 -0.089664,0 -0.109589,0.039851 -0.129515,0.109589 -0.328767,1.066003 -1.006226,1.305106 -1.325031,1.305106 -0.388543,0 -0.547945,-0.318805 -0.547945,-0.657534 0,-0.219178 0.059776,-0.438356 0.169365,-0.876713 z"
         id="equation_04_04"
         inkscape:connector-curvature="0" />
    </defs>
    <g
       id="equation_04_g"
       style="fill:#008000;fill-opacity:1">
      <use
         id="use1542"
         xlink:href="#equation_04_03"
         y="59.72049"
         x="78.562798"
         width="100%"
         height="100%"
         style="fill:#008000;fill-opacity:1" />
      <use
         id="use1544"
         xlink:href="#equation_04_02"
         y="61.21487"
         x="81.535446"
         width="100%"
         height="100%"
         style="fill:#008000;fill-opacity:1" />
      <rect
         id="rect1546"
         width="8.7519093"
         height="0.39848399"
         y="63.770382"
         x="77.907845"
         style="fill:#008000;fill-opacity:1" />
      <use
         id="use1548"
         xlink:href="#equation_04_04"
         y="73.294159"
         x="77.907845"
         width="100%"
         height="100%"
         style="fill:#008000;fill-opacity:1" />
      <use
         id="use1550"
         xlink:href="#equation_04_00"
         y="74.788544"
         x="83.601776"
         width="100%"
         height="100%"
         style="fill:#008000;fill-opacity:1" />
      <use
         id="use1552"
         xlink:href="#equation_04_04"
         y="66.460289"
         x="87.855263"
         width="100%"
         height="100%"
         style="fill:#008000;fill-opacity:1" />
      <use
         id="use1554"
         xlink:href="#equation_04_01"
         y="67.954674"
         x="93.549194"
         width="100%"
         height="100%"
         style="fill:#008000;fill-opacity:1" />
    </g>
  </g>
</svg>
