<svg xmlns="http://www.w3.org/2000/svg" width="800" height="800" xmlns:xlink="http://www.w3.org/1999/xlink">
<g transform="translate(0, 50)"><path fill="none" stroke="#000" d="M440,30C440,44.16666666666667,290,44.16666666666667,290,58.333333333333336"></path><path fill="none" stroke="#000" d="M440,30C440,44.16666666666667,440,44.16666666666667,440,58.333333333333336"></path><path fill="none" stroke="#000" d="M440,30C440,44.16666666666667,590,44.16666666666667,590,58.333333333333336"></path><path fill="none" stroke="#000" d="M290,88.33333333333334C290,102.5,290,102.5,290,116.66666666666667"></path><path fill="none" stroke="#000" d="M590,88.33333333333334C590,102.5,590,102.5,590,116.66666666666667"></path><path fill="none" stroke="#000" d="M290,146.66666666666669C290,160.83333333333334,190,160.83333333333334,190,175"></path><path fill="none" stroke="#000" d="M290,146.66666666666669C290,160.83333333333334,290,160.83333333333334,290,175"></path><path fill="none" stroke="#000" d="M290,146.66666666666669C290,160.83333333333334,390,160.83333333333334,390,175"></path><path fill="none" stroke="#000" d="M590,146.66666666666669C590,160.83333333333334,590,160.83333333333334,590,175"></path><path fill="none" stroke="#000" d="M290,205C290,219.16666666666669,140,219.16666666666669,140,233.33333333333334"></path><path fill="none" stroke="#000" d="M290,205C290,219.16666666666669,290,219.16666666666669,290,233.33333333333334"></path><path fill="none" stroke="#000" d="M290,205C290,219.16666666666669,440,219.16666666666669,440,233.33333333333334"></path><path fill="none" stroke="#000" d="M140,263.33333333333337C140,277.5,140,277.5,140,291.6666666666667"></path><path fill="none" stroke="#000" d="M440,263.33333333333337C440,277.5,440,277.5,440,291.6666666666667"></path><path fill="none" stroke="#000" d="M140,321.6666666666667C140,335.83333333333337,140,335.83333333333337,140,350"></path><path fill="none" stroke="#000" d="M440,321.6666666666667C440,335.83333333333337,340,335.83333333333337,340,350"></path><path fill="none" stroke="#000" d="M440,321.6666666666667C440,335.83333333333337,440,335.83333333333337,440,350"></path><path fill="none" stroke="#000" d="M440,321.6666666666667C440,335.83333333333337,540,335.83333333333337,540,350"></path><path fill="none" stroke="#000" d="M440,380C440,394.1666666666667,140,394.1666666666667,140,408.33333333333337"></path><path fill="none" stroke="#000" d="M440,380C440,394.1666666666667,290,394.1666666666667,290,408.33333333333337"></path><path fill="none" stroke="#000" d="M440,380C440,394.1666666666667,440,394.1666666666667,440,408.33333333333337"></path><path fill="none" stroke="#000" d="M440,380C440,394.1666666666667,590,394.1666666666667,590,408.33333333333337"></path><path fill="none" stroke="#000" d="M440,380C440,394.1666666666667,740,394.1666666666667,740,408.33333333333337"></path><path fill="none" stroke="#000" d="M140,438.33333333333337C140,452.5,140,452.5,140,466.6666666666667"></path><path fill="none" stroke="#000" d="M440,438.33333333333337C440,452.5,440,452.5,440,466.6666666666667"></path><path fill="none" stroke="#000" d="M740,438.33333333333337C740,452.5,740,452.5,740,466.6666666666667"></path><path fill="none" stroke="#000" d="M140,496.6666666666667C140,510.83333333333337,140,510.83333333333337,140,525"></path><path fill="none" stroke="#000" d="M440,496.6666666666667C440,510.83333333333337,340,510.83333333333337,340,525"></path><path fill="none" stroke="#000" d="M440,496.6666666666667C440,510.83333333333337,440,510.83333333333337,440,525"></path><path fill="none" stroke="#000" d="M440,496.6666666666667C440,510.83333333333337,540,510.83333333333337,540,525"></path><path fill="none" stroke="#000" d="M740,496.6666666666667C740,510.83333333333337,740,510.83333333333337,740,525"></path><path fill="none" stroke="#000" d="M440,555C440,569.1666666666667,440,569.1666666666667,440,583.3333333333334"></path><path fill="none" stroke="#000" d="M440,613.3333333333334C440,627.5,340,627.5,340,641.6666666666667"></path><path fill="none" stroke="#000" d="M440,613.3333333333334C440,627.5,440,627.5,440,641.6666666666667"></path><path fill="none" stroke="#000" d="M440,613.3333333333334C440,627.5,540,627.5,540,641.6666666666667"></path><path fill="none" stroke="#000" d="M340,671.6666666666667C340,685.8333333333334,340,685.8333333333334,340,700"></path><path fill="none" stroke="#000" d="M540,671.6666666666667C540,685.8333333333334,540,685.8333333333334,540,700"></path><g transform="translate(400, 0)"><rect width="80" height="30" fill="#ccc" stroke="#000"></rect><text dx="40" dy="15" text-anchor="middle" dominant-baseline="central">expr</text></g><g transform="translate(250, 58.333333333333336)"><rect width="80" height="30" fill="#ccc" stroke="#000"></rect><text dx="40" dy="15" text-anchor="middle" dominant-baseline="central">term</text></g><g transform="translate(400, 58.333333333333336)"><rect width="80" height="30" fill="#fff" stroke="#000"></rect><text dx="40" dy="15" text-anchor="middle" dominant-baseline="central">+</text></g><g transform="translate(550, 58.333333333333336)"><rect width="80" height="30" fill="#ccc" stroke="#000"></rect><text dx="40" dy="15" text-anchor="middle" dominant-baseline="central">term</text></g><g transform="translate(250, 116.66666666666667)"><rect width="80" height="30" fill="#ccc" stroke="#000"></rect><text dx="40" dy="15" text-anchor="middle" dominant-baseline="central">fact</text></g><g transform="translate(550, 116.66666666666667)"><rect width="80" height="30" fill="#ccc" stroke="#000"></rect><text dx="40" dy="15" text-anchor="middle" dominant-baseline="central">fact</text></g><g transform="translate(150, 175)"><rect width="80" height="30" fill="#fff" stroke="#000"></rect><text dx="40" dy="15" text-anchor="middle" dominant-baseline="central">(</text></g><g transform="translate(250, 175)"><rect width="80" height="30" fill="#ccc" stroke="#000"></rect><text dx="40" dy="15" text-anchor="middle" dominant-baseline="central">expr</text></g><g transform="translate(350, 175)"><rect width="80" height="30" fill="#fff" stroke="#000"></rect><text dx="40" dy="15" text-anchor="middle" dominant-baseline="central">)</text></g><g transform="translate(550, 175)"><rect width="80" height="30" fill="#fff" stroke="#000"></rect><text dx="40" dy="15" text-anchor="middle" dominant-baseline="central">4</text></g><g transform="translate(100, 233.33333333333334)"><rect width="80" height="30" fill="#ccc" stroke="#000"></rect><text dx="40" dy="15" text-anchor="middle" dominant-baseline="central">term</text></g><g transform="translate(250, 233.33333333333334)"><rect width="80" height="30" fill="#fff" stroke="#000"></rect><text dx="40" dy="15" text-anchor="middle" dominant-baseline="central">+</text></g><g transform="translate(400, 233.33333333333334)"><rect width="80" height="30" fill="#ccc" stroke="#000"></rect><text dx="40" dy="15" text-anchor="middle" dominant-baseline="central">term</text></g><g transform="translate(100, 291.6666666666667)"><rect width="80" height="30" fill="#ccc" stroke="#000"></rect><text dx="40" dy="15" text-anchor="middle" dominant-baseline="central">fact</text></g><g transform="translate(400, 291.6666666666667)"><rect width="80" height="30" fill="#ccc" stroke="#000"></rect><text dx="40" dy="15" text-anchor="middle" dominant-baseline="central">fact</text></g><g transform="translate(100, 350)"><rect width="80" height="30" fill="#fff" stroke="#000"></rect><text dx="40" dy="15" text-anchor="middle" dominant-baseline="central">1</text></g><g transform="translate(300, 350)"><rect width="80" height="30" fill="#fff" stroke="#000"></rect><text dx="40" dy="15" text-anchor="middle" dominant-baseline="central">(</text></g><g transform="translate(400, 350)"><rect width="80" height="30" fill="#ccc" stroke="#000"></rect><text dx="40" dy="15" text-anchor="middle" dominant-baseline="central">expr</text></g><g transform="translate(500, 350)"><rect width="80" height="30" fill="#fff" stroke="#000"></rect><text dx="40" dy="15" text-anchor="middle" dominant-baseline="central">)</text></g><g transform="translate(100, 408.33333333333337)"><rect width="80" height="30" fill="#ccc" stroke="#000"></rect><text dx="40" dy="15" text-anchor="middle" dominant-baseline="central">term</text></g><g transform="translate(250, 408.33333333333337)"><rect width="80" height="30" fill="#fff" stroke="#000"></rect><text dx="40" dy="15" text-anchor="middle" dominant-baseline="central">+</text></g><g transform="translate(400, 408.33333333333337)"><rect width="80" height="30" fill="#ccc" stroke="#000"></rect><text dx="40" dy="15" text-anchor="middle" dominant-baseline="central">term</text></g><g transform="translate(550, 408.33333333333337)"><rect width="80" height="30" fill="#fff" stroke="#000"></rect><text dx="40" dy="15" text-anchor="middle" dominant-baseline="central">+</text></g><g transform="translate(700, 408.33333333333337)"><rect width="80" height="30" fill="#ccc" stroke="#000"></rect><text dx="40" dy="15" text-anchor="middle" dominant-baseline="central">term</text></g><g transform="translate(100, 466.6666666666667)"><rect width="80" height="30" fill="#ccc" stroke="#000"></rect><text dx="40" dy="15" text-anchor="middle" dominant-baseline="central">fact</text></g><g transform="translate(400, 466.6666666666667)"><rect width="80" height="30" fill="#ccc" stroke="#000"></rect><text dx="40" dy="15" text-anchor="middle" dominant-baseline="central">fact</text></g><g transform="translate(700, 466.6666666666667)"><rect width="80" height="30" fill="#ccc" stroke="#000"></rect><text dx="40" dy="15" text-anchor="middle" dominant-baseline="central">fact</text></g><g transform="translate(100, 525)"><rect width="80" height="30" fill="#fff" stroke="#000"></rect><text dx="40" dy="15" text-anchor="middle" dominant-baseline="central">2</text></g><g transform="translate(300, 525)"><rect width="80" height="30" fill="#fff" stroke="#000"></rect><text dx="40" dy="15" text-anchor="middle" dominant-baseline="central">(</text></g><g transform="translate(400, 525)"><rect width="80" height="30" fill="#ccc" stroke="#000"></rect><text dx="40" dy="15" text-anchor="middle" dominant-baseline="central">expr</text></g><g transform="translate(500, 525)"><rect width="80" height="30" fill="#fff" stroke="#000"></rect><text dx="40" dy="15" text-anchor="middle" dominant-baseline="central">)</text></g><g transform="translate(700, 525)"><rect width="80" height="30" fill="#fff" stroke="#000"></rect><text dx="40" dy="15" text-anchor="middle" dominant-baseline="central">1</text></g><g transform="translate(400, 583.3333333333334)"><rect width="80" height="30" fill="#ccc" stroke="#000"></rect><text dx="40" dy="15" text-anchor="middle" dominant-baseline="central">term</text></g><g transform="translate(300, 641.6666666666667)"><rect width="80" height="30" fill="#ccc" stroke="#000"></rect><text dx="40" dy="15" text-anchor="middle" dominant-baseline="central">fact</text></g><g transform="translate(400, 641.6666666666667)"><rect width="80" height="30" fill="#fff" stroke="#000"></rect><text dx="40" dy="15" text-anchor="middle" dominant-baseline="central">*</text></g><g transform="translate(500, 641.6666666666667)"><rect width="80" height="30" fill="#ccc" stroke="#000"></rect><text dx="40" dy="15" text-anchor="middle" dominant-baseline="central">fact</text></g><g transform="translate(300, 700)"><rect width="80" height="30" fill="#fff" stroke="#000"></rect><text dx="40" dy="15" text-anchor="middle" dominant-baseline="central">3</text></g><g transform="translate(500, 700)"><rect width="80" height="30" fill="#fff" stroke="#000"></rect><text dx="40" dy="15" text-anchor="middle" dominant-baseline="central">4</text></g></g></svg>

