<svg width="800" height="500" xmlns="http://www.w3.org/2000/svg" xmlns:xlink="http://www.w3.org/1999/xlink">
<g transform="translate(400, 200)"><g class="pies"><g class="pie"><path fill="rgb(170, 170, 170)" stroke="rgb(0, 0, 0)" d="M9.184850993605149e-15,-150A150,150,0,0,1,46.35254915624212,-142.65847744427302L21.631189606246323,-66.57395614066074A70,70,0,0,0,4.2862637970157365e-15,-70Z"></path><g transform="translate(17.2077911544254,-108.64571746546515)"><text text-anchor="middle" dominant-baseline="central">?</text></g></g><g class="pie"><path fill="rgb(170, 170, 170)" stroke="rgb(0, 0, 0)" d="M46.35254915624212,-142.65847744427302A150,150,0,0,1,88.16778784387098,-121.3525491562421L41.14496766047313,-56.631189606246316A70,70,0,0,0,21.631189606246323,-66.57395614066074Z"></path><g transform="translate(49.93895497135015,-98.01071766072046)"><text text-anchor="middle" dominant-baseline="central">?</text></g></g><g class="pie"><path fill="rgb(170, 170, 170)" stroke="rgb(0, 0, 0)" d="M88.16778784387098,-121.3525491562421A150,150,0,0,1,121.35254915624212,-88.16778784387097L56.63118960624632,-41.14496766047312A70,70,0,0,0,41.14496766047313,-56.631189606246316Z"></path><g transform="translate(77.78174593052023,-77.78174593052022)"><text text-anchor="middle" dominant-baseline="central">?</text></g></g><g class="pie"><path fill="rgb(170, 170, 170)" stroke="rgb(0, 0, 0)" d="M121.35254915624212,-88.16778784387097A150,150,0,0,1,142.65847744427302,-46.35254915624211L66.57395614066074,-21.631189606246316A70,70,0,0,0,56.63118960624632,-41.14496766047312Z"></path><g transform="translate(98.01071766072047,-49.93895497135014)"><text text-anchor="middle" dominant-baseline="central">?</text></g></g><g class="pie"><path fill="rgb(255, 255, 255)" stroke="rgb(0, 0, 0)" d="M142.65847744427302,-46.35254915624211A150,150,0,0,1,150,0L70,0A70,70,0,0,0,66.57395614066074,-21.631189606246316Z"></path><g transform="translate(108.64571746546515,-17.207791154425397)"><text text-anchor="middle" dominant-baseline="central">-93</text></g></g><g class="pie"><path fill="rgb(255, 255, 255)" stroke="rgb(0, 0, 0)" d="M150,0A150,150,0,0,1,142.65847744427302,46.35254915624211L66.57395614066074,21.631189606246316A70,70,0,0,0,70,0Z"></path><g transform="translate(108.64571746546515,17.207791154425397)"><text text-anchor="middle" dominant-baseline="central">-96</text></g></g><g class="pie"><path fill="rgb(255, 255, 255)" stroke="rgb(0, 0, 0)" d="M142.65847744427302,46.35254915624211A150,150,0,0,1,121.35254915624212,88.16778784387097L56.63118960624632,41.14496766047312A70,70,0,0,0,66.57395614066074,21.631189606246316Z"></path><g transform="translate(98.01071766072047,49.93895497135014)"><text text-anchor="middle" dominant-baseline="central">-56</text></g></g><g class="pie"><path fill="rgb(255, 255, 255)" stroke="rgb(0, 0, 0)" d="M121.35254915624212,88.16778784387097A150,150,0,0,1,88.16778784387098,121.3525491562421L41.14496766047313,56.631189606246316A70,70,0,0,0,56.63118960624632,41.14496766047312Z"></path><g transform="translate(77.78174593052023,77.78174593052022)"><text text-anchor="middle" dominant-baseline="central">-96</text></g></g><g class="pie"><path fill="rgb(255, 255, 255)" stroke="rgb(0, 0, 0)" d="M88.16778784387098,121.3525491562421A150,150,0,0,1,46.35254915624212,142.65847744427302L21.631189606246323,66.57395614066074A70,70,0,0,0,41.14496766047313,56.631189606246316Z"></path><g transform="translate(49.93895497135015,98.01071766072046)"><text text-anchor="middle" dominant-baseline="central">-54</text></g></g><g class="pie"><path fill="rgb(255, 255, 255)" stroke="rgb(0, 0, 0)" d="M46.35254915624212,142.65847744427302A150,150,0,0,1,9.184850993605149e-15,150L4.2862637970157365e-15,70A70,70,0,0,0,21.631189606246323,66.57395614066074Z"></path><g transform="translate(17.2077911544254,108.64571746546515)"><text text-anchor="middle" dominant-baseline="central">40</text></g></g><g class="pie"><path fill="rgb(255, 255, 255)" stroke="rgb(0, 0, 0)" d="M9.184850993605149e-15,150A150,150,0,0,1,-46.3525491562421,142.65847744427305L-21.631189606246313,66.57395614066075A70,70,0,0,0,4.2862637970157365e-15,70Z"></path><g transform="translate(-17.20779115442539,108.64571746546515)"><text text-anchor="middle" dominant-baseline="central">-85</text></g></g><g class="pie"><path fill="rgb(255, 255, 255)" stroke="rgb(0, 0, 0)" d="M-46.3525491562421,142.65847744427305A150,150,0,0,1,-88.16778784387095,121.35254915624212L-41.144967660473114,56.63118960624632A70,70,0,0,0,-21.631189606246313,66.57395614066075Z"></path><g transform="translate(-49.93895497135014,98.01071766072047)"><text text-anchor="middle" dominant-baseline="central">48</text></g></g><g class="pie"><path fill="rgb(255, 255, 255)" stroke="rgb(0, 0, 0)" d="M-88.16778784387095,121.35254915624212A150,150,0,0,1,-121.3525491562421,88.16778784387098L-56.631189606246316,41.14496766047313A70,70,0,0,0,-41.144967660473114,56.63118960624632Z"></path><g transform="translate(-77.78174593052022,77.78174593052023)"><text text-anchor="middle" dominant-baseline="central">-70</text></g></g><g class="pie"><path fill="rgb(255, 255, 255)" stroke="rgb(0, 0, 0)" d="M-121.3525491562421,88.16778784387098A150,150,0,0,1,-142.65847744427302,46.35254915624213L-66.57395614066074,21.631189606246327A70,70,0,0,0,-56.631189606246316,41.14496766047313Z"></path><g transform="translate(-98.01071766072046,49.93895497135016)"><text text-anchor="middle" dominant-baseline="central">83</text></g></g><g class="pie"><path fill="rgb(255, 255, 255)" stroke="rgb(0, 0, 0)" d="M-142.65847744427302,46.35254915624213A150,150,0,0,1,-150,1.8369701987210297e-14L-70,8.572527594031473e-15A70,70,0,0,0,-66.57395614066074,21.631189606246327Z"></path><g transform="translate(-108.64571746546514,17.207791154425408)"><text text-anchor="middle" dominant-baseline="central">-47</text></g></g><g class="pie"><path fill="rgb(255, 255, 255)" stroke="rgb(0, 0, 0)" d="M-150,1.8369701987210297e-14A150,150,0,0,1,-142.65847744427305,-46.35254915624209L-66.57395614066075,-21.63118960624631A70,70,0,0,0,-70,8.572527594031473e-15Z"></path><g transform="translate(-108.64571746546515,-17.207791154425383)"><text text-anchor="middle" dominant-baseline="central">12</text></g></g><g class="pie"><path fill="rgb(255, 255, 255)" stroke="rgb(0, 0, 0)" d="M-142.65847744427305,-46.35254915624209A150,150,0,0,1,-121.35254915624212,-88.16778784387095L-56.63118960624632,-41.144967660473114A70,70,0,0,0,-66.57395614066075,-21.63118960624631Z"></path><g transform="translate(-98.01071766072047,-49.938954971350135)"><text text-anchor="middle" dominant-baseline="central">4</text></g></g><g class="pie"><path fill="rgb(170, 170, 170)" stroke="rgb(0, 0, 0)" d="M-121.35254915624212,-88.16778784387095A150,150,0,0,1,-88.16778784387098,-121.3525491562421L-41.14496766047313,-56.631189606246316A70,70,0,0,0,-56.63118960624632,-41.144967660473114Z"></path><g transform="translate(-77.78174593052024,-77.78174593052022)"><text text-anchor="middle" dominant-baseline="central">?</text></g></g><g class="pie"><path fill="rgb(170, 170, 170)" stroke="rgb(0, 0, 0)" d="M-88.16778784387098,-121.3525491562421A150,150,0,0,1,-46.352549156242134,-142.65847744427302L-21.63118960624633,-66.57395614066074A70,70,0,0,0,-41.14496766047313,-56.631189606246316Z"></path><g transform="translate(-49.938954971350164,-98.01071766072046)"><text text-anchor="middle" dominant-baseline="central">?</text></g></g><g class="pie"><path fill="rgb(170, 170, 170)" stroke="rgb(0, 0, 0)" d="M-46.352549156242134,-142.65847744427302A150,150,0,0,1,-2.7554552980815446e-14,-150L-1.2858791391047208e-14,-70A70,70,0,0,0,-21.63118960624633,-66.57395614066074Z"></path><g transform="translate(-17.20779115442542,-108.64571746546514)"><text text-anchor="middle" dominant-baseline="central">?</text></g></g></g><g class="ticks"><g class="tick" transform="translate(26.984945219439833,-170.37623875266127)"><text text-anchor="middle" dominant-baseline="central">0</text></g><g class="tick" transform="translate(78.31336120507183,-153.69862542249345)"><text text-anchor="middle" dominant-baseline="central">1</text></g><g class="tick" transform="translate(121.97591975467945,-121.97591975467944)"><text text-anchor="middle" dominant-baseline="central">2</text></g><g class="tick" transform="translate(153.69862542249345,-78.31336120507181)"><text text-anchor="middle" dominant-baseline="central">3</text></g><g class="tick" transform="translate(170.37623875266127,-26.984945219439826)"><text text-anchor="middle" dominant-baseline="central">4</text></g><g class="tick" transform="translate(170.37623875266127,26.984945219439826)"><text text-anchor="middle" dominant-baseline="central">5</text></g><g class="tick" transform="translate(153.69862542249345,78.31336120507181)"><text text-anchor="middle" dominant-baseline="central">6</text></g><g class="tick" transform="translate(121.97591975467945,121.97591975467944)"><text text-anchor="middle" dominant-baseline="central">7</text></g><g class="tick" transform="translate(78.31336120507183,153.69862542249345)"><text text-anchor="middle" dominant-baseline="central">8</text></g><g class="tick" transform="translate(26.984945219439833,170.37623875266127)"><text text-anchor="middle" dominant-baseline="central">9</text></g><g class="tick" transform="translate(-26.984945219439815,170.37623875266127)"><text text-anchor="middle" dominant-baseline="central">10</text></g><g class="tick" transform="translate(-78.31336120507181,153.69862542249345)"><text text-anchor="middle" dominant-baseline="central">11</text></g><g class="tick" transform="translate(-121.97591975467944,121.97591975467945)"><text text-anchor="middle" dominant-baseline="central">12</text></g><g class="tick" transform="translate(-153.69862542249345,78.31336120507183)"><text text-anchor="middle" dominant-baseline="central">13</text></g><g class="tick" transform="translate(-170.37623875266124,26.984945219439844)"><text text-anchor="middle" dominant-baseline="central">14</text></g><g class="tick" transform="translate(-170.37623875266127,-26.984945219439805)"><text text-anchor="middle" dominant-baseline="central">15</text></g><g class="tick" transform="translate(-153.69862542249345,-78.3133612050718)"><text text-anchor="middle" dominant-baseline="central">16</text></g><g class="tick" transform="translate(-121.97591975467948,-121.97591975467944)"><text text-anchor="middle" dominant-baseline="central">17</text></g><g class="tick" transform="translate(-78.31336120507184,-153.69862542249345)"><text text-anchor="middle" dominant-baseline="central">18</text></g><g class="tick" transform="translate(-26.984945219439858,-170.37623875266124)"><text text-anchor="middle" dominant-baseline="central">19</text></g></g><g class="array" transform="translate(-300, 200)"><g class="elem" transform="translate(120, 0)"><rect fill="rgb(170, 170, 170)" stroke="rgb(0, 0, 0)" width="30" height="30"></rect><text dx="15" dy="15" text-anchor="middle" dominant-baseline="central"></text></g><g class="elem" transform="translate(150, 0)"><rect fill="rgb(170, 170, 170)" stroke="rgb(0, 0, 0)" width="30" height="30"></rect><text dx="15" dy="15" text-anchor="middle" dominant-baseline="central"></text></g><g class="elem" transform="translate(180, 0)"><rect fill="rgb(170, 170, 170)" stroke="rgb(0, 0, 0)" width="30" height="30"></rect><text dx="15" dy="15" text-anchor="middle" dominant-baseline="central"></text></g><g class="elem" transform="translate(210, 0)"><rect fill="rgb(255, 255, 255)" stroke="rgb(0, 0, 0)" width="30" height="30"></rect><text dx="15" dy="15" text-anchor="middle" dominant-baseline="central">4</text></g><g class="elem" transform="translate(240, 0)"><rect fill="rgb(255, 255, 255)" stroke="rgb(0, 0, 0)" width="30" height="30"></rect><text dx="15" dy="15" text-anchor="middle" dominant-baseline="central">12</text></g><g class="elem" transform="translate(270, 0)"><rect fill="rgb(255, 255, 255)" stroke="rgb(0, 0, 0)" width="30" height="30"></rect><text dx="15" dy="15" text-anchor="middle" dominant-baseline="central">-47</text></g><g class="elem" transform="translate(300, 0)"><rect fill="rgb(255, 255, 255)" stroke="rgb(0, 0, 0)" width="30" height="30"></rect><text dx="15" dy="15" text-anchor="middle" dominant-baseline="central">83</text></g><g class="elem" transform="translate(330, 0)"><rect fill="rgb(255, 255, 255)" stroke="rgb(0, 0, 0)" width="30" height="30"></rect><text dx="15" dy="15" text-anchor="middle" dominant-baseline="central">-70</text></g><g class="elem" transform="translate(360, 0)"><rect fill="rgb(255, 255, 255)" stroke="rgb(0, 0, 0)" width="30" height="30"></rect><text dx="15" dy="15" text-anchor="middle" dominant-baseline="central">48</text></g><g class="elem" transform="translate(390, 0)"><rect fill="rgb(255, 255, 255)" stroke="rgb(0, 0, 0)" width="30" height="30"></rect><text dx="15" dy="15" text-anchor="middle" dominant-baseline="central">-85</text></g><g class="elem" transform="translate(420, 0)"><rect fill="rgb(255, 255, 255)" stroke="rgb(0, 0, 0)" width="30" height="30"></rect><text dx="15" dy="15" text-anchor="middle" dominant-baseline="central">40</text></g><g class="elem" transform="translate(450, 0)"><rect fill="rgb(255, 255, 255)" stroke="rgb(0, 0, 0)" width="30" height="30"></rect><text dx="15" dy="15" text-anchor="middle" dominant-baseline="central">-54</text></g><g class="elem" transform="translate(480, 0)"><rect fill="rgb(255, 255, 255)" stroke="rgb(0, 0, 0)" width="30" height="30"></rect><text dx="15" dy="15" text-anchor="middle" dominant-baseline="central">-96</text></g><g class="elem" transform="translate(510, 0)"><rect fill="rgb(255, 255, 255)" stroke="rgb(0, 0, 0)" width="30" height="30"></rect><text dx="15" dy="15" text-anchor="middle" dominant-baseline="central">-56</text></g><g class="elem" transform="translate(540, 0)"><rect fill="rgb(255, 255, 255)" stroke="rgb(0, 0, 0)" width="30" height="30"></rect><text dx="15" dy="15" text-anchor="middle" dominant-baseline="central">-96</text></g><g class="elem" transform="translate(570, 0)"><rect fill="rgb(255, 255, 255)" stroke="rgb(0, 0, 0)" width="30" height="30"></rect><text dx="15" dy="15" text-anchor="middle" dominant-baseline="central">-93</text></g><g class="elem" transform="translate(0, 0)"><rect fill="rgb(170, 170, 170)" stroke="rgb(0, 0, 0)" width="30" height="30"></rect><text dx="15" dy="15" text-anchor="middle" dominant-baseline="central"></text></g><g class="elem" transform="translate(30, 0)"><rect fill="rgb(170, 170, 170)" stroke="rgb(0, 0, 0)" width="30" height="30"></rect><text dx="15" dy="15" text-anchor="middle" dominant-baseline="central"></text></g><g class="elem" transform="translate(60, 0)"><rect fill="rgb(170, 170, 170)" stroke="rgb(0, 0, 0)" width="30" height="30"></rect><text dx="15" dy="15" text-anchor="middle" dominant-baseline="central"></text></g><g class="elem" transform="translate(90, 0)"><rect fill="rgb(170, 170, 170)" stroke="rgb(0, 0, 0)" width="30" height="30"></rect><text dx="15" dy="15" text-anchor="middle" dominant-baseline="central"></text></g></g></g>
</svg>

