<svg width="800" height="600" xmlns="http://www.w3.org/2000/svg" xmlns:xlink="http://www.w3.org/1999/xlink">
<g><g class="node-group"><circle r="2" cx="50" cy="442.01859472540286"></circle><circle r="2" cx="51.7543859649123" cy="442.85946222727466"></circle><circle r="2" cx="53.50877192982455" cy="443.88867408053164"></circle><circle r="2" cx="55.26315789473686" cy="445.09785436766424"></circle><circle r="2" cx="57.017543859649095" cy="446.47675380868424"></circle><circle r="2" cx="58.771929824561404" cy="448.0133323231596"></circle><circle r="2" cx="60.526315789473706" cy="449.6938600195394"></circle><circle r="2" cx="62.28070175438595" cy="451.503035802285"></circle><circle r="2" cx="64.03508771929826" cy="453.42412260817923"></circle><circle r="2" cx="65.78947368421049" cy="455.43909811198057"></circle><circle r="2" cx="67.54385964912281" cy="457.52881958005"></circle><circle r="2" cx="69.29824561403511" cy="459.6732014003357"></circle><circle r="2" cx="71.05263157894736" cy="461.8514036797206"></circle><circle r="2" cx="72.80701754385966" cy="464.0420301766428"></circle><circle r="2" cx="74.5614035087719" cy="466.2233337294105"></circle><circle r="2" cx="76.3157894736842" cy="468.3734272499284"></circle><circle r="2" cx="78.07017543859652" cy="470.470498279644"></circle><circle r="2" cx="79.82456140350875" cy="472.49302505029067"></circle><circle r="2" cx="81.57894736842107" cy="474.4199919571182"></circle><circle r="2" cx="83.3333333333333" cy="476.23110233729267"></circle><circle r="2" cx="85.08771929824562" cy="477.90698645132795"></circle><circle r="2" cx="86.84210526315792" cy="479.4294025909212"></circle><circle r="2" cx="88.59649122807016" cy="480.7814292823452"></circle><circle r="2" cx="90.35087719298247" cy="481.94764662034925"></circle><circle r="2" cx="92.10526315789471" cy="482.91430485289106"></circle><circle r="2" cx="93.85964912280701" cy="483.66947844132596"></circle><circle r="2" cx="95.61403508771932" cy="484.20320394309726"></circle><circle r="2" cx="97.36842105263156" cy="484.50760020349577"></circle><circle r="2" cx="99.12280701754386" cy="484.57696949851106"></circle><circle r="2" cx="100.87719298245611" cy="484.40787844084787"></circle><circle r="2" cx="102.63157894736841" cy="483.9992176443363"></circle><circle r="2" cx="104.38596491228071" cy="483.3522393365939"></circle><circle r="2" cx="106.14035087719296" cy="482.47057231415874"></circle><circle r="2" cx="107.89473684210526" cy="481.360213846535"></circle><circle r="2" cx="109.6491228070175" cy="480.0294983537353"></circle><circle r="2" cx="111.40350877192981" cy="478.48904290393386"></circle><circle r="2" cx="113.15789473684212" cy="476.7516698016876"></circle><circle r="2" cx="114.91228070175437" cy="474.83230676071844"></circle><circle r="2" cx="116.66666666666667" cy="472.74786537634594"></circle><circle r="2" cx="118.42105263157892" cy="470.51709882919454"></circle><circle r="2" cx="120.17543859649122" cy="468.1604399616499"></circle><circle r="2" cx="121.92982456140352" cy="465.6998210696687"></circle><circle r="2" cx="123.68421052631577" cy="463.1584769429341"></circle><circle r="2" cx="125.43859649122808" cy="460.56073286409503"></circle><circle r="2" cx="127.19298245614034" cy="457.9317794411156"></circle><circle r="2" cx="128.9473684210526" cy="455.297436293894"></circle><circle r="2" cx="130.70175438596493" cy="452.6839067457414"></circle><circle r="2" cx="132.45614035087715" cy="450.11752578062743"></circle><circle r="2" cx="134.21052631578948" cy="447.6245036170711"></circle><circle r="2" cx="135.96491228070175" cy="445.2306673181307"></circle><circle r="2" cx="137.71929824561403" cy="442.9612029032455"></circle><circle r="2" cx="139.47368421052633" cy="440.84040045106764"></circle><circle r="2" cx="141.22807017543857" cy="438.8914046824167"></circle><circle r="2" cx="142.98245614035088" cy="437.1359734888729"></circle><circle r="2" cx="144.73684210526315" cy="435.5942468252738"></circle><circle r="2" cx="146.49122807017545" cy="434.28452831369634"></circle><circle r="2" cx="148.24561403508773" cy="433.22308181282335"></circle><circle r="2" cx="149.99999999999997" cy="432.4239450905514"></circle><circle r="2" cx="151.75438596491227" cy="431.89876260016223"></circle><circle r="2" cx="153.50877192982455" cy="431.6566392024202"></circle><circle r="2" cx="155.26315789473682" cy="431.70401649884917"></circle><circle r="2" cx="157.01754385964915" cy="432.04457324664634"></circle><circle r="2" cx="158.77192982456137" cy="432.6791511148517"></circle><circle r="2" cx="160.5263157894737" cy="433.6057068163192"></circle><circle r="2" cx="162.28070175438597" cy="434.81929141268716"></circle><circle r="2" cx="164.03508771929822" cy="436.31205734201683"></circle><circle r="2" cx="165.78947368421052" cy="438.0732934632599"></circle><circle r="2" cx="167.5438596491228" cy="440.08948815054026"></circle><circle r="2" cx="169.29824561403507" cy="442.3444202057608"></circle><circle r="2" cx="171.05263157894734" cy="444.8192770927115"></circle><circle r="2" cx="172.80701754385962" cy="447.49279973211793"></circle><circle r="2" cx="174.56140350877195" cy="450.34145283740406"></circle><circle r="2" cx="176.3157894736842" cy="453.33961951780725"></circle><circle r="2" cx="178.0701754385965" cy="456.45981863129884"></circle><circle r="2" cx="179.82456140350877" cy="459.6729431368866"></circle><circle r="2" cx="181.578947368421" cy="462.9485174765978"></circle><circle r="2" cx="183.33333333333334" cy="466.25497181392404"></circle><circle r="2" cx="185.0877192982456" cy="469.5599307698176"></circle><circle r="2" cx="186.8421052631579" cy="472.8305141313644"></circle><circle r="2" cx="188.59649122807016" cy="476.03364686376085"></circle><circle r="2" cx="190.35087719298244" cy="479.13637563476755"></circle><circle r="2" cx="192.1052631578947" cy="482.1061889637508"></circle><circle r="2" cx="193.859649122807" cy="484.91133803592544"></circle><circle r="2" cx="195.6140350877193" cy="487.52115517739657"></circle><circle r="2" cx="197.36842105263156" cy="489.9063669687756"></circle><circle r="2" cx="199.12280701754383" cy="492.03939898495923"></circle><circle r="2" cx="200.8771929824561" cy="493.89466918632513"></circle><circle r="2" cx="202.6315789473684" cy="495.44886705206756"></circle><circle r="2" cx="204.38596491228068" cy="496.68121563936194"></circle><circle r="2" cx="206.140350877193" cy="497.57371387196645"></circle><circle r="2" cx="207.89473684210523" cy="498.11135650792426"></circle><circle r="2" cx="209.6491228070175" cy="498.28232940718"></circle><circle r="2" cx="211.4035087719298" cy="498.07817791486735"></circle><circle r="2" cx="213.1578947368421" cy="497.4939463932545"></circle><circle r="2" cx="214.91228070175438" cy="496.5282871731022"></circle><circle r="2" cx="216.66666666666663" cy="495.18353745156656"></circle><circle r="2" cx="218.42105263157896" cy="493.46576293663037"></circle><circle r="2" cx="220.1754385964912" cy="491.3847673250848"></circle><circle r="2" cx="221.9298245614035" cy="488.9540669998537"></circle><circle r="2" cx="223.68421052631578" cy="486.1908306403874"></circle><circle r="2" cx="225.43859649122805" cy="483.1157837542647"></circle><circle r="2" cx="227.19298245614033" cy="479.7530784562648"></circle><circle r="2" cx="228.94736842105263" cy="476.1301291401851"></circle><circle r="2" cx="230.7017543859649" cy="472.2774150057154"></circle><circle r="2" cx="232.45614035087718" cy="468.2282507148784"></circle><circle r="2" cx="234.21052631578945" cy="464.0185267570474"></circle><circle r="2" cx="235.96491228070175" cy="459.6864213955477"></circle><circle r="2" cx="237.71929824561403" cy="455.2720863496059"></circle><circle r="2" cx="239.4736842105263" cy="450.81730863026513"></circle><circle r="2" cx="241.22807017543857" cy="446.36515119532453"></circle><circle r="2" cx="242.98245614035088" cy="441.95957531398267"></circle><circle r="2" cx="244.73684210526315" cy="437.6450477344522"></circle><circle r="2" cx="246.49122807017542" cy="433.4661359253256"></circle><circle r="2" cx="248.2456140350877" cy="429.4670948120694"></circle><circle r="2" cx="250" cy="425.6914485521083"></circle><circle r="2" cx="251.75438596491227" cy="422.1815709841418"></circle><circle r="2" cx="253.50877192982455" cy="418.97826844851147"></circle><circle r="2" cx="255.26315789473682" cy="416.1203687047438"></circle><circle r="2" cx="257.0175438596491" cy="413.64431966925156"></circle><circle r="2" cx="258.7719298245614" cy="411.5838016603012"></circle><circle r="2" cx="260.52631578947364" cy="409.9693567687159"></circle><circle r="2" cx="262.280701754386" cy="408.82803887168257"></circle><circle r="2" cx="264.03508771929825" cy="408.18308767401777"></circle><circle r="2" cx="265.7894736842105" cy="408.0536299971909"></circle><circle r="2" cx="267.5438596491228" cy="408.4544113424251"></circle><circle r="2" cx="269.29824561403507" cy="409.39556053171134"></circle><circle r="2" cx="271.0526315789474" cy="410.8823899812533"></circle><circle r="2" cx="272.8070175438596" cy="412.9152338876119"></circle><circle r="2" cx="274.56140350877195" cy="415.4893263098153"></circle><circle r="2" cx="276.31578947368416" cy="418.59472081328965"></circle><circle r="2" cx="278.07017543859644" cy="422.2162530062349"></circle><circle r="2" cx="279.82456140350877" cy="426.3335469487482"></circle><circle r="2" cx="281.57894736842104" cy="430.92106605248966"></circle><circle r="2" cx="283.3333333333333" cy="435.948208717019"></circle><circle r="2" cx="285.0877192982456" cy="441.379448571231"></circle><circle r="2" cx="286.8421052631578" cy="447.1745188077938"></circle><circle r="2" cx="288.59649122807014" cy="453.28863971840445"></circle><circle r="2" cx="290.35087719298247" cy="459.6727881612909"></circle><circle r="2" cx="292.1052631578947" cy="466.2740073229868"></circle><circle r="2" cx="293.859649122807" cy="473.03575477720864"></circle><circle r="2" cx="295.61403508771923" cy="479.89828649785096"></circle><circle r="2" cx="297.36842105263156" cy="486.7990741537562"></circle><circle r="2" cx="299.12280701754383" cy="493.67325270296413"></circle><circle r="2" cx="300.8771929824561" cy="500.45409501641984"></circle><circle r="2" cx="302.63157894736844" cy="507.0735099982425"></circle><circle r="2" cx="304.38596491228066" cy="513.4625604340863"></circle><circle r="2" cx="306.140350877193" cy="519.5519965930715"></circle><circle r="2" cx="307.89473684210526" cy="525.2728014342152"></circle><circle r="2" cx="309.64912280701753" cy="530.556743126977"></circle><circle r="2" cx="311.4035087719298" cy="535.3369304889065"></circle><circle r="2" cx="313.157894736842" cy="539.548366872597"></circle><circle r="2" cx="314.91228070175436" cy="543.1284980000887"></circle><circle r="2" cx="316.66666666666663" cy="546.0177492460697"></circle><circle r="2" cx="318.42105263157896" cy="548.1600479119429"></circle><circle r="2" cx="320.17543859649123" cy="549.5033261109836"></circle><circle r="2" cx="321.92982456140345" cy="550"></circle><circle r="2" cx="323.6842105263158" cy="549.6074212444231"></circle><circle r="2" cx="325.43859649122805" cy="548.2882967905525"></circle><circle r="2" cx="327.1929824561403" cy="546.0110732394402"></circle><circle r="2" cx="328.9473684210526" cy="542.7502823699704"></circle><circle r="2" cx="330.7017543859649" cy="538.4868446421759"></circle><circle r="2" cx="332.45614035087715" cy="533.2083278235317"></circle><circle r="2" cx="334.2105263157894" cy="526.9091582184508"></circle><circle r="2" cx="335.96491228070175" cy="519.5907823418072"></circle><circle r="2" cx="337.719298245614" cy="511.2617772581565"></circle><circle r="2" cx="339.47368421052624" cy="501.9379082063335"></circle><circle r="2" cx="341.2280701754386" cy="491.6421325410857"></circle><circle r="2" cx="342.98245614035085" cy="480.40454944597366"></circle><circle r="2" cx="344.7368421052631" cy="468.26229530146674"></circle><circle r="2" cx="346.4912280701754" cy="455.25938502549377"></circle><circle r="2" cx="348.24561403508767" cy="441.44650013701596"></circle><circle r="2" cx="350" cy="426.88072472295346"></circle><circle r="2" cx="351.7543859649122" cy="411.62523091138746"></circle><circle r="2" cx="353.50877192982455" cy="395.7489158658303"></circle><circle r="2" cx="355.2631578947368" cy="379.3259927131141"></circle><circle r="2" cx="357.0175438596491" cy="362.4355381976331"></circle><circle r="2" cx="358.77192982456137" cy="345.16100021417446"></circle><circle r="2" cx="360.52631578947364" cy="327.5896687072589"></circle><circle r="2" cx="362.280701754386" cy="309.812113733921"></circle><circle r="2" cx="364.03508771929825" cy="291.9215947666019"></circle><circle r="2" cx="365.78947368421046" cy="274.0134455607809"></circle><circle r="2" cx="367.5438596491228" cy="256.1844391260834"></circle><circle r="2" cx="369.298245614035" cy="238.53213751793317"></circle><circle r="2" cx="371.05263157894734" cy="221.15423130776202"></circle><circle r="2" cx="372.8070175438596" cy="204.1478736921672"></circle><circle r="2" cx="374.5614035087719" cy="187.60901426411903"></circle><circle r="2" cx="376.3157894736842" cy="171.63173749187638"></circle><circle r="2" cx="378.07017543859644" cy="156.30761093328454"></circle><circle r="2" cx="379.82456140350877" cy="141.72504815466334"></circle><circle r="2" cx="381.57894736842104" cy="127.96869122498566"></circle><circle r="2" cx="383.33333333333326" cy="115.1188175181187"></circle><circle r="2" cx="385.0877192982456" cy="103.25077537969361"></circle><circle r="2" cx="386.8421052631579" cy="92.43445300199852"></circle><circle r="2" cx="388.59649122807014" cy="82.73378460183386"></circle><circle r="2" cx="390.3508771929824" cy="74.2062977145502"></circle><circle r="2" cx="392.1052631578947" cy="66.9027051047147"></circle><circle r="2" cx="393.859649122807" cy="60.86654445255931"></circle><circle r="2" cx="395.61403508771934" cy="56.13386860833447"></circle><circle r="2" cx="397.36842105263156" cy="52.73298881685423"></circle><circle r="2" cx="399.12280701754383" cy="50.68427290509612"></circle><circle r="2" cx="400.8771929824561" cy="50"></circle><circle r="2" cx="402.6315789473684" cy="50.68427290509612"></circle><circle r="2" cx="404.38596491228066" cy="52.732988816854345"></circle><circle r="2" cx="406.14035087719293" cy="56.133868608334524"></circle><circle r="2" cx="407.89473684210526" cy="60.86654445255954"></circle><circle r="2" cx="409.6491228070175" cy="66.9027051047147"></circle><circle r="2" cx="411.4035087719298" cy="74.20629771455049"></circle><circle r="2" cx="413.15789473684214" cy="82.7337846018342"></circle><circle r="2" cx="414.91228070175436" cy="92.4344530019988"></circle><circle r="2" cx="416.6666666666667" cy="103.250775379694"></circle><circle r="2" cx="418.4210526315789" cy="115.1188175181187"></circle><circle r="2" cx="420.1754385964912" cy="127.96869122498623"></circle><circle r="2" cx="421.9298245614035" cy="141.7250481546639"></circle><circle r="2" cx="423.6842105263157" cy="156.30761093328454"></circle><circle r="2" cx="425.43859649122805" cy="171.63173749187695"></circle><circle r="2" cx="427.19298245614027" cy="187.60901426411903"></circle><circle r="2" cx="428.9473684210526" cy="204.14787369216788"></circle><circle r="2" cx="430.70175438596493" cy="221.15423130776264"></circle><circle r="2" cx="432.45614035087715" cy="238.53213751793317"></circle><circle r="2" cx="434.2105263157895" cy="256.1844391260841"></circle><circle r="2" cx="435.96491228070175" cy="274.0134455607809"></circle><circle r="2" cx="437.71929824561397" cy="291.92159476660265"></circle><circle r="2" cx="439.4736842105263" cy="309.8121137339216"></circle><circle r="2" cx="441.2280701754385" cy="327.5896687072589"></circle><circle r="2" cx="442.98245614035085" cy="345.16100021417503"></circle><circle r="2" cx="444.7368421052631" cy="362.4355381976331"></circle><circle r="2" cx="446.4912280701754" cy="379.32599271311466"></circle><circle r="2" cx="448.2456140350877" cy="395.74891586583084"></circle><circle r="2" cx="450" cy="411.62523091138746"></circle><circle r="2" cx="451.7543859649123" cy="426.88072472295397"></circle><circle r="2" cx="453.50877192982455" cy="441.44650013701596"></circle><circle r="2" cx="455.26315789473676" cy="455.2593850254942"></circle><circle r="2" cx="457.0175438596491" cy="468.2622953014672"></circle><circle r="2" cx="458.77192982456137" cy="480.40454944597366"></circle><circle r="2" cx="460.52631578947364" cy="491.6421325410861"></circle><circle r="2" cx="462.2807017543859" cy="501.9379082063335"></circle><circle r="2" cx="464.03508771929825" cy="511.2617772581568"></circle><circle r="2" cx="465.7894736842105" cy="519.5907823418075"></circle><circle r="2" cx="467.5438596491228" cy="526.9091582184508"></circle><circle r="2" cx="469.2982456140351" cy="533.2083278235319"></circle><circle r="2" cx="471.05263157894734" cy="538.4868446421759"></circle><circle r="2" cx="472.8070175438596" cy="542.7502823699705"></circle><circle r="2" cx="474.5614035087719" cy="546.0110732394403"></circle><circle r="2" cx="476.31578947368416" cy="548.2882967905526"></circle><circle r="2" cx="478.0701754385965" cy="549.6074212444231"></circle><circle r="2" cx="479.8245614035087" cy="550"></circle><circle r="2" cx="481.57894736842104" cy="549.5033261109836"></circle><circle r="2" cx="483.33333333333337" cy="548.1600479119428"></circle><circle r="2" cx="485.0877192982456" cy="546.0177492460696"></circle><circle r="2" cx="486.8421052631578" cy="543.1284980000886"></circle><circle r="2" cx="488.59649122807014" cy="539.548366872597"></circle><circle r="2" cx="490.3508771929824" cy="535.3369304889064"></circle><circle r="2" cx="492.10526315789474" cy="530.5567431269769"></circle><circle r="2" cx="493.85964912280696" cy="525.2728014342151"></circle><circle r="2" cx="495.6140350877193" cy="519.5519965930713"></circle><circle r="2" cx="497.3684210526315" cy="513.4625604340863"></circle><circle r="2" cx="499.12280701754383" cy="507.07350999824234"></circle><circle r="2" cx="500.87719298245617" cy="500.4540950164196"></circle><circle r="2" cx="502.6315789473684" cy="493.673252702964"></circle><circle r="2" cx="504.38596491228066" cy="486.79907415375595"></circle><circle r="2" cx="506.1403508771929" cy="479.89828649785096"></circle><circle r="2" cx="507.8947368421052" cy="473.0357547772085"></circle><circle r="2" cx="509.64912280701753" cy="466.27400732298656"></circle><circle r="2" cx="511.40350877192975" cy="459.6727881612908"></circle><circle r="2" cx="513.1578947368421" cy="453.2886397184042"></circle><circle r="2" cx="514.9122807017543" cy="447.1745188077938"></circle><circle r="2" cx="516.6666666666666" cy="441.3794485712309"></circle><circle r="2" cx="518.421052631579" cy="435.9482087170188"></circle><circle r="2" cx="520.1754385964912" cy="430.92106605248955"></circle><circle r="2" cx="521.9298245614034" cy="426.3335469487481"></circle><circle r="2" cx="523.6842105263156" cy="422.2162530062349"></circle><circle r="2" cx="525.438596491228" cy="418.59472081328954"></circle><circle r="2" cx="527.1929824561403" cy="415.4893263098152"></circle><circle r="2" cx="528.9473684210525" cy="412.91523388761186"></circle><circle r="2" cx="530.7017543859649" cy="410.88238998125325"></circle><circle r="2" cx="532.4561403508771" cy="409.39556053171134"></circle><circle r="2" cx="534.2105263157894" cy="408.45441134242503"></circle><circle r="2" cx="535.9649122807018" cy="408.0536299971909"></circle><circle r="2" cx="537.719298245614" cy="408.18308767401777"></circle><circle r="2" cx="539.4736842105262" cy="408.82803887168257"></circle><circle r="2" cx="541.2280701754385" cy="409.9693567687159"></circle><circle r="2" cx="542.9824561403508" cy="411.5838016603012"></circle><circle r="2" cx="544.7368421052631" cy="413.6443196692517"></circle><circle r="2" cx="546.4912280701753" cy="416.12036870474384"></circle><circle r="2" cx="548.2456140350877" cy="418.9782684485116"></circle><circle r="2" cx="550" cy="422.1815709841418"></circle><circle r="2" cx="551.7543859649122" cy="425.69144855210834"></circle><circle r="2" cx="553.5087719298245" cy="429.46709481206955"></circle><circle r="2" cx="555.2631578947369" cy="433.46613592532566"></circle><circle r="2" cx="557.0175438596491" cy="437.6450477344523"></circle><circle r="2" cx="558.7719298245613" cy="441.95957531398267"></circle><circle r="2" cx="560.5263157894736" cy="446.36515119532464"></circle><circle r="2" cx="562.280701754386" cy="450.8173086302653"></circle><circle r="2" cx="564.0350877192982" cy="455.27208634960596"></circle><circle r="2" cx="565.7894736842105" cy="459.6864213955479"></circle><circle r="2" cx="567.5438596491227" cy="464.0185267570474"></circle><circle r="2" cx="569.2982456140351" cy="468.2282507148785"></circle><circle r="2" cx="571.0526315789474" cy="472.2774150057155"></circle><circle r="2" cx="572.8070175438596" cy="476.1301291401852"></circle><circle r="2" cx="574.5614035087718" cy="479.7530784562649"></circle><circle r="2" cx="576.315789473684" cy="483.1157837542647"></circle><circle r="2" cx="578.0701754385964" cy="486.19083064038745"></circle><circle r="2" cx="579.8245614035087" cy="488.95406699985375"></circle><circle r="2" cx="581.578947368421" cy="491.38476732508485"></circle><circle r="2" cx="583.3333333333333" cy="493.4657629366304"></circle><circle r="2" cx="585.0877192982456" cy="495.18353745156656"></circle><circle r="2" cx="586.8421052631579" cy="496.5282871731022"></circle><circle r="2" cx="588.5964912280701" cy="497.49394639325453"></circle><circle r="2" cx="590.3508771929825" cy="498.07817791486735"></circle><circle r="2" cx="592.1052631578947" cy="498.28232940718"></circle><circle r="2" cx="593.8596491228069" cy="498.11135650792426"></circle><circle r="2" cx="595.6140350877192" cy="497.5737138719664"></circle><circle r="2" cx="597.3684210526316" cy="496.68121563936194"></circle><circle r="2" cx="599.1228070175438" cy="495.4488670520675"></circle><circle r="2" cx="600.8771929824561" cy="493.8946691863251"></circle><circle r="2" cx="602.6315789473683" cy="492.03939898495923"></circle><circle r="2" cx="604.3859649122807" cy="489.9063669687756"></circle><circle r="2" cx="606.140350877193" cy="487.52115517739645"></circle><circle r="2" cx="607.8947368421052" cy="484.9113380359254"></circle><circle r="2" cx="609.6491228070174" cy="482.10618896375075"></circle><circle r="2" cx="611.4035087719298" cy="479.13637563476755"></circle><circle r="2" cx="613.1578947368421" cy="476.03364686376085"></circle><circle r="2" cx="614.9122807017543" cy="472.8305141313643"></circle><circle r="2" cx="616.6666666666666" cy="469.5599307698174"></circle><circle r="2" cx="618.4210526315788" cy="466.25497181392404"></circle><circle r="2" cx="620.1754385964912" cy="462.9485174765978"></circle><circle r="2" cx="621.9298245614035" cy="459.67294313688654"></circle><circle r="2" cx="623.6842105263157" cy="456.45981863129873"></circle><circle r="2" cx="625.438596491228" cy="453.33961951780714"></circle><circle r="2" cx="627.1929824561403" cy="450.34145283740406"></circle><circle r="2" cx="628.9473684210525" cy="447.49279973211793"></circle><circle r="2" cx="630.7017543859648" cy="444.81927709271145"></circle><circle r="2" cx="632.4561403508771" cy="442.3444202057607"></circle><circle r="2" cx="634.2105263157895" cy="440.0894881505402"></circle><circle r="2" cx="635.9649122807017" cy="438.0732934632599"></circle><circle r="2" cx="637.7192982456139" cy="436.31205734201683"></circle><circle r="2" cx="639.4736842105262" cy="434.8192914126871"></circle><circle r="2" cx="641.2280701754386" cy="433.6057068163192"></circle><circle r="2" cx="642.9824561403508" cy="432.6791511148517"></circle><circle r="2" cx="644.7368421052631" cy="432.04457324664634"></circle><circle r="2" cx="646.4912280701753" cy="431.70401649884917"></circle><circle r="2" cx="648.2456140350877" cy="431.6566392024202"></circle><circle r="2" cx="650" cy="431.89876260016223"></circle><circle r="2" cx="651.7543859649123" cy="432.42394509055146"></circle><circle r="2" cx="653.5087719298244" cy="433.22308181282335"></circle><circle r="2" cx="655.2631578947368" cy="434.28452831369634"></circle><circle r="2" cx="657.0175438596491" cy="435.5942468252738"></circle><circle r="2" cx="658.7719298245613" cy="437.13597348887293"></circle><circle r="2" cx="660.5263157894736" cy="438.8914046824168"></circle><circle r="2" cx="662.2807017543859" cy="440.84040045106764"></circle><circle r="2" cx="664.0350877192982" cy="442.9612029032455"></circle><circle r="2" cx="665.7894736842104" cy="445.23066731813077"></circle><circle r="2" cx="667.5438596491227" cy="447.62450361707124"></circle><circle r="2" cx="669.2982456140351" cy="450.1175257806275"></circle><circle r="2" cx="671.0526315789473" cy="452.6839067457414"></circle><circle r="2" cx="672.8070175438596" cy="455.297436293894"></circle><circle r="2" cx="674.561403508772" cy="457.9317794411156"></circle><circle r="2" cx="676.3157894736842" cy="460.56073286409514"></circle><circle r="2" cx="678.0701754385965" cy="463.1584769429342"></circle><circle r="2" cx="679.8245614035086" cy="465.6998210696687"></circle><circle r="2" cx="681.5789473684209" cy="468.1604399616499"></circle><circle r="2" cx="683.3333333333333" cy="470.51709882919454"></circle><circle r="2" cx="685.0877192982456" cy="472.747865376346"></circle><circle r="2" cx="686.8421052631579" cy="474.8323067607185"></circle><circle r="2" cx="688.59649122807" cy="476.7516698016876"></circle><circle r="2" cx="690.3508771929824" cy="478.48904290393386"></circle><circle r="2" cx="692.1052631578947" cy="480.0294983537353"></circle><circle r="2" cx="693.8596491228069" cy="481.36021384653503"></circle><circle r="2" cx="695.6140350877192" cy="482.4705723141588"></circle><circle r="2" cx="697.3684210526314" cy="483.3522393365939"></circle><circle r="2" cx="699.1228070175438" cy="483.9992176443363"></circle><circle r="2" cx="700.8771929824561" cy="484.40787844084787"></circle><circle r="2" cx="702.6315789473684" cy="484.57696949851106"></circle><circle r="2" cx="704.3859649122807" cy="484.50760020349577"></circle><circle r="2" cx="706.1403508771929" cy="484.20320394309726"></circle><circle r="2" cx="707.8947368421052" cy="483.66947844132596"></circle><circle r="2" cx="709.6491228070175" cy="482.91430485289106"></circle><circle r="2" cx="711.4035087719298" cy="481.94764662034925"></circle><circle r="2" cx="713.1578947368421" cy="480.78142928234513"></circle><circle r="2" cx="714.9122807017542" cy="479.4294025909212"></circle><circle r="2" cx="716.6666666666665" cy="477.90698645132795"></circle><circle r="2" cx="718.4210526315788" cy="476.23110233729267"></circle><circle r="2" cx="720.1754385964912" cy="474.41999195711816"></circle><circle r="2" cx="721.9298245614035" cy="472.4930250502906"></circle><circle r="2" cx="723.6842105263158" cy="470.47049827964383"></circle><circle r="2" cx="725.4385964912279" cy="468.3734272499284"></circle><circle r="2" cx="727.1929824561403" cy="466.2233337294105"></circle><circle r="2" cx="728.9473684210526" cy="464.0420301766427"></circle><circle r="2" cx="730.7017543859648" cy="461.85140367972053"></circle><circle r="2" cx="732.4561403508771" cy="459.67320140033553"></circle><circle r="2" cx="734.2105263157894" cy="457.52881958005"></circle><circle r="2" cx="735.9649122807017" cy="455.43909811198057"></circle><circle r="2" cx="737.719298245614" cy="453.4241226081792"></circle><circle r="2" cx="739.4736842105264" cy="451.50303580228496"></circle><circle r="2" cx="741.2280701754387" cy="449.6938600195393"></circle><circle r="2" cx="742.9824561403508" cy="448.0133323231596"></circle><circle r="2" cx="744.7368421052631" cy="446.47675380868424"></circle><circle r="2" cx="746.4912280701753" cy="445.09785436766424"></circle><circle r="2" cx="748.2456140350877" cy="443.8886740805316"></circle><circle r="2" cx="750" cy="442.85946222727455"></circle></g><g class="links-group"><path fill="none" stroke="#000" d="M50,442.01859472540286L51.7543859649123,442.85946222727466L53.50877192982455,443.88867408053164L55.26315789473686,445.09785436766424L57.017543859649095,446.47675380868424L58.771929824561404,448.0133323231596L60.526315789473706,449.6938600195394L62.28070175438595,451.503035802285L64.03508771929826,453.42412260817923L65.78947368421049,455.43909811198057L67.54385964912281,457.52881958005L69.29824561403511,459.6732014003357L71.05263157894736,461.8514036797206L72.80701754385966,464.0420301766428L74.5614035087719,466.2233337294105L76.3157894736842,468.3734272499284L78.07017543859652,470.470498279644L79.82456140350875,472.49302505029067L81.57894736842107,474.4199919571182L83.3333333333333,476.23110233729267L85.08771929824562,477.90698645132795L86.84210526315792,479.4294025909212L88.59649122807016,480.7814292823452L90.35087719298247,481.94764662034925L92.10526315789471,482.91430485289106L93.85964912280701,483.66947844132596L95.61403508771932,484.20320394309726L97.36842105263156,484.50760020349577L99.12280701754386,484.57696949851106L100.87719298245611,484.40787844084787L102.63157894736841,483.9992176443363L104.38596491228071,483.3522393365939L106.14035087719296,482.47057231415874L107.89473684210526,481.360213846535L109.6491228070175,480.0294983537353L111.40350877192981,478.48904290393386L113.15789473684212,476.7516698016876L114.91228070175437,474.83230676071844L116.66666666666667,472.74786537634594L118.42105263157892,470.51709882919454L120.17543859649122,468.1604399616499L121.92982456140352,465.6998210696687L123.68421052631577,463.1584769429341L125.43859649122808,460.56073286409503L127.19298245614034,457.9317794411156L128.9473684210526,455.297436293894L130.70175438596493,452.6839067457414L132.45614035087715,450.11752578062743L134.21052631578948,447.6245036170711L135.96491228070175,445.2306673181307L137.71929824561403,442.9612029032455L139.47368421052633,440.84040045106764L141.22807017543857,438.8914046824167L142.98245614035088,437.1359734888729L144.73684210526315,435.5942468252738L146.49122807017545,434.28452831369634L148.24561403508773,433.22308181282335L149.99999999999997,432.4239450905514L151.75438596491227,431.89876260016223L153.50877192982455,431.6566392024202L155.26315789473682,431.70401649884917L157.01754385964915,432.04457324664634L158.77192982456137,432.6791511148517L160.5263157894737,433.6057068163192L162.28070175438597,434.81929141268716L164.03508771929822,436.31205734201683L165.78947368421052,438.0732934632599L167.5438596491228,440.08948815054026L169.29824561403507,442.3444202057608L171.05263157894734,444.8192770927115L172.80701754385962,447.49279973211793L174.56140350877195,450.34145283740406L176.3157894736842,453.33961951780725L178.0701754385965,456.45981863129884L179.82456140350877,459.6729431368866L181.578947368421,462.9485174765978L183.33333333333334,466.25497181392404L185.0877192982456,469.5599307698176L186.8421052631579,472.8305141313644L188.59649122807016,476.03364686376085L190.35087719298244,479.13637563476755L192.1052631578947,482.1061889637508L193.859649122807,484.91133803592544L195.6140350877193,487.52115517739657L197.36842105263156,489.9063669687756L199.12280701754383,492.03939898495923L200.8771929824561,493.89466918632513L202.6315789473684,495.44886705206756L204.38596491228068,496.68121563936194L206.140350877193,497.57371387196645L207.89473684210523,498.11135650792426L209.6491228070175,498.28232940718L211.4035087719298,498.07817791486735L213.1578947368421,497.4939463932545L214.91228070175438,496.5282871731022L216.66666666666663,495.18353745156656L218.42105263157896,493.46576293663037L220.1754385964912,491.3847673250848L221.9298245614035,488.9540669998537L223.68421052631578,486.1908306403874L225.43859649122805,483.1157837542647L227.19298245614033,479.7530784562648L228.94736842105263,476.1301291401851L230.7017543859649,472.2774150057154L232.45614035087718,468.2282507148784L234.21052631578945,464.0185267570474L235.96491228070175,459.6864213955477L237.71929824561403,455.2720863496059L239.4736842105263,450.81730863026513L241.22807017543857,446.36515119532453L242.98245614035088,441.95957531398267L244.73684210526315,437.6450477344522L246.49122807017542,433.4661359253256L248.2456140350877,429.4670948120694L250,425.6914485521083L251.75438596491227,422.1815709841418L253.50877192982455,418.97826844851147L255.26315789473682,416.1203687047438L257.0175438596491,413.64431966925156L258.7719298245614,411.5838016603012L260.52631578947364,409.9693567687159L262.280701754386,408.82803887168257L264.03508771929825,408.18308767401777L265.7894736842105,408.0536299971909L267.5438596491228,408.4544113424251L269.29824561403507,409.39556053171134L271.0526315789474,410.8823899812533L272.8070175438596,412.9152338876119L274.56140350877195,415.4893263098153L276.31578947368416,418.59472081328965L278.07017543859644,422.2162530062349L279.82456140350877,426.3335469487482L281.57894736842104,430.92106605248966L283.3333333333333,435.948208717019L285.0877192982456,441.379448571231L286.8421052631578,447.1745188077938L288.59649122807014,453.28863971840445L290.35087719298247,459.6727881612909L292.1052631578947,466.2740073229868L293.859649122807,473.03575477720864L295.61403508771923,479.89828649785096L297.36842105263156,486.7990741537562L299.12280701754383,493.67325270296413L300.8771929824561,500.45409501641984L302.63157894736844,507.0735099982425L304.38596491228066,513.4625604340863L306.140350877193,519.5519965930715L307.89473684210526,525.2728014342152L309.64912280701753,530.556743126977L311.4035087719298,535.3369304889065L313.157894736842,539.548366872597L314.91228070175436,543.1284980000887L316.66666666666663,546.0177492460697L318.42105263157896,548.1600479119429L320.17543859649123,549.5033261109836L321.92982456140345,550L323.6842105263158,549.6074212444231L325.43859649122805,548.2882967905525L327.1929824561403,546.0110732394402L328.9473684210526,542.7502823699704L330.7017543859649,538.4868446421759L332.45614035087715,533.2083278235317L334.2105263157894,526.9091582184508L335.96491228070175,519.5907823418072L337.719298245614,511.2617772581565L339.47368421052624,501.9379082063335L341.2280701754386,491.6421325410857L342.98245614035085,480.40454944597366L344.7368421052631,468.26229530146674L346.4912280701754,455.25938502549377L348.24561403508767,441.44650013701596L350,426.88072472295346L351.7543859649122,411.62523091138746L353.50877192982455,395.7489158658303L355.2631578947368,379.3259927131141L357.0175438596491,362.4355381976331L358.77192982456137,345.16100021417446L360.52631578947364,327.5896687072589L362.280701754386,309.812113733921L364.03508771929825,291.9215947666019L365.78947368421046,274.0134455607809L367.5438596491228,256.1844391260834L369.298245614035,238.53213751793317L371.05263157894734,221.15423130776202L372.8070175438596,204.1478736921672L374.5614035087719,187.60901426411903L376.3157894736842,171.63173749187638L378.07017543859644,156.30761093328454L379.82456140350877,141.72504815466334L381.57894736842104,127.96869122498566L383.33333333333326,115.1188175181187L385.0877192982456,103.25077537969361L386.8421052631579,92.43445300199852L388.59649122807014,82.73378460183386L390.3508771929824,74.2062977145502L392.1052631578947,66.9027051047147L393.859649122807,60.86654445255931L395.61403508771934,56.13386860833447L397.36842105263156,52.73298881685423L399.12280701754383,50.68427290509612L400.8771929824561,50L402.6315789473684,50.68427290509612L404.38596491228066,52.732988816854345L406.14035087719293,56.133868608334524L407.89473684210526,60.86654445255954L409.6491228070175,66.9027051047147L411.4035087719298,74.20629771455049L413.15789473684214,82.7337846018342L414.91228070175436,92.4344530019988L416.6666666666667,103.250775379694L418.4210526315789,115.1188175181187L420.1754385964912,127.96869122498623L421.9298245614035,141.7250481546639L423.6842105263157,156.30761093328454L425.43859649122805,171.63173749187695L427.19298245614027,187.60901426411903L428.9473684210526,204.14787369216788L430.70175438596493,221.15423130776264L432.45614035087715,238.53213751793317L434.2105263157895,256.1844391260841L435.96491228070175,274.0134455607809L437.71929824561397,291.92159476660265L439.4736842105263,309.8121137339216L441.2280701754385,327.5896687072589L442.98245614035085,345.16100021417503L444.7368421052631,362.4355381976331L446.4912280701754,379.32599271311466L448.2456140350877,395.74891586583084L450,411.62523091138746L451.7543859649123,426.88072472295397L453.50877192982455,441.44650013701596L455.26315789473676,455.2593850254942L457.0175438596491,468.2622953014672L458.77192982456137,480.40454944597366L460.52631578947364,491.6421325410861L462.2807017543859,501.9379082063335L464.03508771929825,511.2617772581568L465.7894736842105,519.5907823418075L467.5438596491228,526.9091582184508L469.2982456140351,533.2083278235319L471.05263157894734,538.4868446421759L472.8070175438596,542.7502823699705L474.5614035087719,546.0110732394403L476.31578947368416,548.2882967905526L478.0701754385965,549.6074212444231L479.8245614035087,550L481.57894736842104,549.5033261109836L483.33333333333337,548.1600479119428L485.0877192982456,546.0177492460696L486.8421052631578,543.1284980000886L488.59649122807014,539.548366872597L490.3508771929824,535.3369304889064L492.10526315789474,530.5567431269769L493.85964912280696,525.2728014342151L495.6140350877193,519.5519965930713L497.3684210526315,513.4625604340863L499.12280701754383,507.07350999824234L500.87719298245617,500.4540950164196L502.6315789473684,493.673252702964L504.38596491228066,486.79907415375595L506.1403508771929,479.89828649785096L507.8947368421052,473.0357547772085L509.64912280701753,466.27400732298656L511.40350877192975,459.6727881612908L513.1578947368421,453.2886397184042L514.9122807017543,447.1745188077938L516.6666666666666,441.3794485712309L518.421052631579,435.9482087170188L520.1754385964912,430.92106605248955L521.9298245614034,426.3335469487481L523.6842105263156,422.2162530062349L525.438596491228,418.59472081328954L527.1929824561403,415.4893263098152L528.9473684210525,412.91523388761186L530.7017543859649,410.88238998125325L532.4561403508771,409.39556053171134L534.2105263157894,408.45441134242503L535.9649122807018,408.0536299971909L537.719298245614,408.18308767401777L539.4736842105262,408.82803887168257L541.2280701754385,409.9693567687159L542.9824561403508,411.5838016603012L544.7368421052631,413.6443196692517L546.4912280701753,416.12036870474384L548.2456140350877,418.9782684485116L550,422.1815709841418L551.7543859649122,425.69144855210834L553.5087719298245,429.46709481206955L555.2631578947369,433.46613592532566L557.0175438596491,437.6450477344523L558.7719298245613,441.95957531398267L560.5263157894736,446.36515119532464L562.280701754386,450.8173086302653L564.0350877192982,455.27208634960596L565.7894736842105,459.6864213955479L567.5438596491227,464.0185267570474L569.2982456140351,468.2282507148785L571.0526315789474,472.2774150057155L572.8070175438596,476.1301291401852L574.5614035087718,479.7530784562649L576.315789473684,483.1157837542647L578.0701754385964,486.19083064038745L579.8245614035087,488.95406699985375L581.578947368421,491.38476732508485L583.3333333333333,493.4657629366304L585.0877192982456,495.18353745156656L586.8421052631579,496.5282871731022L588.5964912280701,497.49394639325453L590.3508771929825,498.07817791486735L592.1052631578947,498.28232940718L593.8596491228069,498.11135650792426L595.6140350877192,497.5737138719664L597.3684210526316,496.68121563936194L599.1228070175438,495.4488670520675L600.8771929824561,493.8946691863251L602.6315789473683,492.03939898495923L604.3859649122807,489.9063669687756L606.140350877193,487.52115517739645L607.8947368421052,484.9113380359254L609.6491228070174,482.10618896375075L611.4035087719298,479.13637563476755L613.1578947368421,476.03364686376085L614.9122807017543,472.8305141313643L616.6666666666666,469.5599307698174L618.4210526315788,466.25497181392404L620.1754385964912,462.9485174765978L621.9298245614035,459.67294313688654L623.6842105263157,456.45981863129873L625.438596491228,453.33961951780714L627.1929824561403,450.34145283740406L628.9473684210525,447.49279973211793L630.7017543859648,444.81927709271145L632.4561403508771,442.3444202057607L634.2105263157895,440.0894881505402L635.9649122807017,438.0732934632599L637.7192982456139,436.31205734201683L639.4736842105262,434.8192914126871L641.2280701754386,433.6057068163192L642.9824561403508,432.6791511148517L644.7368421052631,432.04457324664634L646.4912280701753,431.70401649884917L648.2456140350877,431.6566392024202L650,431.89876260016223L651.7543859649123,432.42394509055146L653.5087719298244,433.22308181282335L655.2631578947368,434.28452831369634L657.0175438596491,435.5942468252738L658.7719298245613,437.13597348887293L660.5263157894736,438.8914046824168L662.2807017543859,440.84040045106764L664.0350877192982,442.9612029032455L665.7894736842104,445.23066731813077L667.5438596491227,447.62450361707124L669.2982456140351,450.1175257806275L671.0526315789473,452.6839067457414L672.8070175438596,455.297436293894L674.561403508772,457.9317794411156L676.3157894736842,460.56073286409514L678.0701754385965,463.1584769429342L679.8245614035086,465.6998210696687L681.5789473684209,468.1604399616499L683.3333333333333,470.51709882919454L685.0877192982456,472.747865376346L686.8421052631579,474.8323067607185L688.59649122807,476.7516698016876L690.3508771929824,478.48904290393386L692.1052631578947,480.0294983537353L693.8596491228069,481.36021384653503L695.6140350877192,482.4705723141588L697.3684210526314,483.3522393365939L699.1228070175438,483.9992176443363L700.8771929824561,484.40787844084787L702.6315789473684,484.57696949851106L704.3859649122807,484.50760020349577L706.1403508771929,484.20320394309726L707.8947368421052,483.66947844132596L709.6491228070175,482.91430485289106L711.4035087719298,481.94764662034925L713.1578947368421,480.78142928234513L714.9122807017542,479.4294025909212L716.6666666666665,477.90698645132795L718.4210526315788,476.23110233729267L720.1754385964912,474.41999195711816L721.9298245614035,472.4930250502906L723.6842105263158,470.47049827964383L725.4385964912279,468.3734272499284L727.1929824561403,466.2233337294105L728.9473684210526,464.0420301766427L730.7017543859648,461.85140367972053L732.4561403508771,459.67320140033553L734.2105263157894,457.52881958005L735.9649122807017,455.43909811198057L737.719298245614,453.4241226081792L739.4736842105264,451.50303580228496L741.2280701754387,449.6938600195393L742.9824561403508,448.0133323231596L744.7368421052631,446.47675380868424L746.4912280701753,445.09785436766424L748.2456140350877,443.8886740805316L750,442.85946222727455"></path></g><g class="x-axis" transform="translate(0, 460.76907870277597)" fill="none" font-size="10" font-family="sans-serif" text-anchor="middle"><path class="domain" stroke="currentColor" d="M50.5,6V0.5H750.5V6"></path><g class="tick" opacity="1" transform="translate(50.5,0)"><line stroke="currentColor" y2="6"></line><text fill="currentColor" y="9" dy="0.71em">-20</text></g><g class="tick" opacity="1" transform="translate(138.21929824561403,0)"><line stroke="currentColor" y2="6"></line><text fill="currentColor" y="9" dy="0.71em">-15</text></g><g class="tick" opacity="1" transform="translate(225.93859649122805,0)"><line stroke="currentColor" y2="6"></line><text fill="currentColor" y="9" dy="0.71em">-10</text></g><g class="tick" opacity="1" transform="translate(313.657894736842,0)"><line stroke="currentColor" y2="6"></line><text fill="currentColor" y="9" dy="0.71em">-5</text></g><g class="tick" opacity="1" transform="translate(401.3771929824561,0)"><line stroke="currentColor" y2="6"></line><text fill="currentColor" y="9" dy="0.71em">0</text></g><g class="tick" opacity="1" transform="translate(489.09649122807014,0)"><line stroke="currentColor" y2="6"></line><text fill="currentColor" y="9" dy="0.71em">5</text></g><g class="tick" opacity="1" transform="translate(576.815789473684,0)"><line stroke="currentColor" y2="6"></line><text fill="currentColor" y="9" dy="0.71em">10</text></g><g class="tick" opacity="1" transform="translate(664.5350877192982,0)"><line stroke="currentColor" y2="6"></line><text fill="currentColor" y="9" dy="0.71em">15</text></g></g><g class="y-axis" transform="translate(400.8771929824561, 0)" fill="none" font-size="10" font-family="sans-serif" text-anchor="end"><path class="domain" stroke="currentColor" d="M-6,550.5H0.5V50.5H-6"></path><g class="tick" opacity="1" transform="translate(0,543.4228944433312)"><line stroke="currentColor" x2="-6"></line><text fill="currentColor" x="-9" dy="0.32em">-0.2</text></g><g class="tick" opacity="1" transform="translate(0,502.34598657305355)"><line stroke="currentColor" x2="-6"></line><text fill="currentColor" x="-9" dy="0.32em">-0.1</text></g><g class="tick" opacity="1" transform="translate(0,461.26907870277597)"><line stroke="currentColor" x2="-6"></line><text fill="currentColor" x="-9" dy="0.32em">0.0</text></g><g class="tick" opacity="1" transform="translate(0,420.1921708324984)"><line stroke="currentColor" x2="-6"></line><text fill="currentColor" x="-9" dy="0.32em">0.1</text></g><g class="tick" opacity="1" transform="translate(0,379.11526296222075)"><line stroke="currentColor" x2="-6"></line><text fill="currentColor" x="-9" dy="0.32em">0.2</text></g><g class="tick" opacity="1" transform="translate(0,338.0383550919432)"><line stroke="currentColor" x2="-6"></line><text fill="currentColor" x="-9" dy="0.32em">0.3</text></g><g class="tick" opacity="1" transform="translate(0,296.9614472216655)"><line stroke="currentColor" x2="-6"></line><text fill="currentColor" x="-9" dy="0.32em">0.4</text></g><g class="tick" opacity="1" transform="translate(0,255.884539351388)"><line stroke="currentColor" x2="-6"></line><text fill="currentColor" x="-9" dy="0.32em">0.5</text></g><g class="tick" opacity="1" transform="translate(0,214.80763148111038)"><line stroke="currentColor" x2="-6"></line><text fill="currentColor" x="-9" dy="0.32em">0.6</text></g><g class="tick" opacity="1" transform="translate(0,173.7307236108328)"><line stroke="currentColor" x2="-6"></line><text fill="currentColor" x="-9" dy="0.32em">0.7</text></g><g class="tick" opacity="1" transform="translate(0,132.65381574055522)"><line stroke="currentColor" x2="-6"></line><text fill="currentColor" x="-9" dy="0.32em">0.8</text></g><g class="tick" opacity="1" transform="translate(0,91.57690787027758)"><line stroke="currentColor" x2="-6"></line><text fill="currentColor" x="-9" dy="0.32em">0.9</text></g><g class="tick" opacity="1" transform="translate(0,50.5)"><line stroke="currentColor" x2="-6"></line><text fill="currentColor" x="-9" dy="0.32em">1.0</text></g></g></g></svg>
