<?xml version="1.0" encoding="UTF-8" standalone="no"?><!-- Generator: Gravit.io --><svg xmlns="http://www.w3.org/2000/svg" xmlns:xlink="http://www.w3.org/1999/xlink" style="isolation:isolate" viewBox="0 0 400 200" width="400pt" height="200pt"><defs><clipPath id="_clipPath_0DwB0luWysRhqM0PIE2rbaHXNWufRki2"><rect width="400" height="200"/></clipPath></defs><g clip-path="url(#_clipPath_0DwB0luWysRhqM0PIE2rbaHXNWufRki2)"><circle vector-effect="non-scaling-stroke" cx="95.08621426542939" cy="106.91378573457044" r="43" fill="rgb(204,204,204)"/><circle vector-effect="non-scaling-stroke" cx="195.58621426542942" cy="106.9137857345705" r="26.5" fill="rgb(204,204,204)"/><path d=" M 253.103 108.332 C 252.32 74.422 279.215 46.256 313.125 45.474 C 347.035 44.691 375.201 71.586 375.983 105.496 C 376.766 139.405 349.871 167.571 315.961 168.354 C 282.051 169.137 253.886 142.242 253.103 108.332 Z " fill="rgb(204,204,204)"/><line x1="95.086" y1="106.914" x2="138.086" y2="106.914" vector-effect="non-scaling-stroke" stroke-width="1" stroke="rgb(0,0,0)" stroke-linejoin="miter" stroke-linecap="square" stroke-miterlimit="3"/><line x1="138.086" y1="106.914" x2="169.086" y2="106.914" vector-effect="non-scaling-stroke" stroke-width="1" stroke="rgb(255,0,0)" stroke-linejoin="miter" stroke-linecap="square" stroke-miterlimit="3"/><line x1="222.086" y1="106.914" x2="253.086" y2="106.914" vector-effect="non-scaling-stroke" stroke-width="1" stroke="rgb(255,0,0)" stroke-linejoin="miter" stroke-linecap="square" stroke-miterlimit="3"/><text transform="matrix(1,0,0,1,40.086,189.157)" style="font-family:'Ricty Diminished';font-weight:400;font-size:20px;font-style:normal;fill:#000000;stroke:none;">data[i]*mag</text><g><line x1="115.51" y1="117.498" x2="89.553" y2="162.457" vector-effect="non-scaling-stroke" stroke-width="1" stroke="rgb(0,0,0)" stroke-linejoin="miter" stroke-linecap="square" stroke-miterlimit="3"/><polygon points="116.214,122.327,111.06,119.156,118.086,113.212" fill="rgb(0,0,0)" vector-effect="non-scaling-stroke" stroke-width="1" stroke="rgb(0,0,0)" stroke-linejoin="miter" stroke-linecap="square" stroke-miterlimit="4"/></g><g><line x1="155.138" y1="95.669" x2="191.563" y2="32.578" vector-effect="non-scaling-stroke" stroke-width="1" stroke="rgb(0,0,0)" stroke-linejoin="miter" stroke-linecap="square" stroke-miterlimit="3"/><polygon points="155.206,89.502,160.325,92.733,151.553,101.702" fill="rgb(0,0,0)" vector-effect="non-scaling-stroke" stroke-width="1" stroke="rgb(0,0,0)" stroke-linejoin="miter" stroke-linecap="square" stroke-miterlimit="5"/></g><g><line x1="235.502" y1="95.669" x2="199.076" y2="32.578" vector-effect="non-scaling-stroke" stroke-width="1" stroke="rgb(0,0,0)" stroke-linejoin="miter" stroke-linecap="square" stroke-miterlimit="3"/><polygon points="235.433,89.502,230.314,92.733,239.086,101.702" fill="rgb(0,0,0)" vector-effect="non-scaling-stroke" stroke-width="1" stroke="rgb(0,0,0)" stroke-linejoin="miter" stroke-linecap="square" stroke-miterlimit="5"/></g><text transform="matrix(1,0,0,1,167.086,25.834)" style="font-family:'Open Sans';font-weight:400;font-size:20px;font-style:normal;fill:#000000;stroke:none;">space</text></g></svg>