<?xml version="1.0" encoding="UTF-8" standalone="no"?><!-- Generator: Gravit.io --><svg xmlns="http://www.w3.org/2000/svg" xmlns:xlink="http://www.w3.org/1999/xlink" style="isolation:isolate" viewBox="0 0 320 200" width="320pt" height="200pt"><defs><clipPath id="_clipPath_HyKGwUeSmJhIKCPmdS4VV25JQBWgaauY"><rect width="320" height="200"/></clipPath></defs><g clip-path="url(#_clipPath_HyKGwUeSmJhIKCPmdS4VV25JQBWgaauY)"><line x1="63.585" y1="9.415" x2="63.585" y2="147.415" vector-effect="non-scaling-stroke" stroke-width="1" stroke="rgb(0,0,0)" stroke-linejoin="miter" stroke-linecap="square" stroke-miterlimit="3"/><line x1="63.585" y1="147.415" x2="295.585" y2="147.415" vector-effect="non-scaling-stroke" stroke-width="1" stroke="rgb(0,0,0)" stroke-linejoin="miter" stroke-linecap="square" stroke-miterlimit="3"/><line x1="63.585" y1="119.415" x2="295.585" y2="119.415" vector-effect="non-scaling-stroke" stroke-width="1" stroke-dasharray="2,2,2,2" stroke="rgb(0,0,0)" stroke-linejoin="miter" stroke-linecap="square" stroke-miterlimit="3"/><line x1="63.585" y1="35.415" x2="295.585" y2="35.415" vector-effect="non-scaling-stroke" stroke-width="1" stroke-dasharray="2,2,2,2" stroke="rgb(0,0,0)" stroke-linejoin="miter" stroke-linecap="square" stroke-miterlimit="3"/><polygon points="67.109,13.83,60.06,13.66,63.688,5" fill="rgb(0,0,0)"/><polygon points="291.17,150.94,291.34,143.891,300,147.518" fill="rgb(0,0,0)"/><text transform="matrix(1,0,0,1,43.06,124.07)" style="font-family:'Open Sans';font-weight:400;font-size:12px;font-style:normal;fill:#000000;stroke:none;">y</text><text transform="matrix(1,0,0,1,49.107,125.828)" style="font-family:'Open Sans';font-weight:400;font-size:9.6px;font-style:normal;fill:#000000;stroke:none;">m</text><text transform="matrix(1,0,0,1,103.585,160.241)" style="font-family:'Open Sans';font-weight:400;font-size:12px;font-style:normal;fill:#000000;stroke:none;">x</text><text transform="matrix(1,0,0,1,109.872,161.999)" style="font-family:'Open Sans';font-weight:400;font-size:9.6px;font-style:normal;fill:#000000;stroke:none;">m</text><text transform="matrix(1,0,0,1,242.585,160.241)" style="font-family:'Open Sans';font-weight:400;font-size:12px;font-style:normal;fill:#000000;stroke:none;">x</text><text transform="matrix(1,0,0,1,248.872,161.999)" style="font-family:'Open Sans';font-weight:400;font-size:9.6px;font-style:normal;fill:#000000;stroke:none;">M</text><text transform="matrix(1,0,0,1,44.874,40.07)" style="font-family:'Open Sans';font-weight:400;font-size:12px;font-style:normal;fill:#000000;stroke:none;">y</text><text transform="matrix(1,0,0,1,50.921,41.828)" style="font-family:'Open Sans';font-weight:400;font-size:9.6px;font-style:normal;fill:#000000;stroke:none;">M</text><line x1="109.585" y1="13.83" x2="109.585" y2="147.415" vector-effect="non-scaling-stroke" stroke-width="1" stroke-dasharray="2,2,2,2" stroke="rgb(0,0,0)" stroke-linejoin="miter" stroke-linecap="square" stroke-miterlimit="3"/><line x1="251.085" y1="13.83" x2="251.085" y2="147.415" vector-effect="non-scaling-stroke" stroke-width="1" stroke-dasharray="2,2,2,2" stroke="rgb(0,0,0)" stroke-linejoin="miter" stroke-linecap="square" stroke-miterlimit="3"/><line x1="109.585" y1="119.415" x2="251.085" y2="35.415" vector-effect="non-scaling-stroke" stroke-width="1" stroke="rgb(0,0,0)" stroke-linejoin="miter" stroke-linecap="square" stroke-miterlimit="3"/><g><path d=" M 39.875 38.448 C 27.5 38.448 40.438 80.103 26 80.103" fill="none" vector-effect="non-scaling-stroke" stroke-width="1" stroke="rgb(0,0,0)" stroke-linejoin="miter" stroke-linecap="square" stroke-miterlimit="3"/><path d=" M 39.875 121.757 C 27.5 121.757 40.438 80.103 26 80.103" fill="none" vector-effect="non-scaling-stroke" stroke-width="1" stroke="rgb(0,0,0)" stroke-linejoin="miter" stroke-linecap="square" stroke-miterlimit="3"/></g><g><path d=" M 112.585 166.757 C 112.585 179.132 181.835 166.194 181.835 180.632" fill="none" vector-effect="non-scaling-stroke" stroke-width="1" stroke="rgb(0,0,0)" stroke-linejoin="miter" stroke-linecap="square" stroke-miterlimit="3"/><path d=" M 251.085 166.757 C 251.085 179.132 181.835 166.194 181.835 180.632" fill="none" vector-effect="non-scaling-stroke" stroke-width="1" stroke="rgb(0,0,0)" stroke-linejoin="miter" stroke-linecap="square" stroke-miterlimit="3"/></g><text transform="matrix(1,0,0,1,158.835,193.458)" style="font-family:'Open Sans';font-weight:400;font-size:12px;font-style:normal;fill:#000000;stroke:none;">domain</text><text transform="matrix(0,-1,1,0,5,109.866)" style="font-family:'Open Sans';font-weight:400;font-size:12px;font-style:normal;fill:#000000;stroke:none;">range</text></g></svg>