<?xml version="1.0" encoding="UTF-8" standalone="no"?>
<!DOCTYPE svg PUBLIC "-//W3C//DTD SVG 1.1//EN"
 "http://www.w3.org/Graphics/SVG/1.1/DTD/svg11.dtd">
<!-- Generated by graphviz version 2.40.1 (20161225.0304)
 -->
<!-- Title: MSTgviz Pages: 1 -->
<svg width="110pt" height="234pt"
 viewBox="0.00 0.00 109.90 233.95" xmlns="http://www.w3.org/2000/svg" xmlns:xlink="http://www.w3.org/1999/xlink">
<g id="graph0" class="graph" transform="scale(1 1) rotate(0) translate(4 229.9527)">
<title>MSTgviz</title>
<polygon fill="#ffffff" stroke="transparent" points="-4,4 -4,-229.9527 105.8954,-229.9527 105.8954,4 -4,4"/>
<!-- 0 -->
<g id="node1" class="node">
<title>0</title>
<ellipse fill="none" stroke="#000000" cx="80.4658" cy="-18" rx="18" ry="18"/>
<text text-anchor="middle" x="80.4658" y="-14.3" font-family="Times,serif" font-size="14.00" fill="#000000">0</text>
</g>
<!-- 1 -->
<g id="node2" class="node">
<title>1</title>
<ellipse fill="none" stroke="#000000" cx="81.6165" cy="-92.0305" rx="18" ry="18"/>
<text text-anchor="middle" x="81.6165" y="-88.3305" font-family="Times,serif" font-size="14.00" fill="#000000">1</text>
</g>
<!-- 0&#45;&#45;1 -->
<g id="edge1" class="edge">
<title>0&#45;&#45;1</title>
<path fill="none" stroke="#000000" d="M80.7502,-36.2997C80.9286,-47.7748 81.1576,-62.5064 81.3353,-73.9413"/>
</g>
<!-- 2 -->
<g id="node3" class="node">
<title>2</title>
<ellipse fill="none" stroke="#000000" cx="18" cy="-58.5623" rx="18" ry="18"/>
<text text-anchor="middle" x="18" y="-54.8623" font-family="Times,serif" font-size="14.00" fill="#000000">2</text>
</g>
<!-- 0&#45;&#45;2 -->
<g id="edge2" class="edge">
<title>0&#45;&#45;2</title>
<path fill="none" stroke="#000000" d="M65.3446,-27.819C55.6678,-34.1026 43.1496,-42.2314 33.4159,-48.552"/>
</g>
<!-- 1&#45;&#45;2 -->
<g id="edge3" class="edge">
<title>1&#45;&#45;2</title>
<path fill="none" stroke="#000000" d="M65.5634,-83.5851C55.9932,-78.5503 43.8774,-72.1763 34.2693,-67.1215"/>
</g>
<!-- 3 -->
<g id="node4" class="node">
<title>3</title>
<ellipse fill="none" stroke="#000000" cx="83.8954" cy="-167.6894" rx="18" ry="18"/>
<text text-anchor="middle" x="83.8954" y="-163.9894" font-family="Times,serif" font-size="14.00" fill="#000000">3</text>
</g>
<!-- 1&#45;&#45;3 -->
<g id="edge4" class="edge">
<title>1&#45;&#45;3</title>
<path fill="none" stroke="#000000" d="M82.1681,-110.3454C82.5264,-122.2409 82.9915,-137.6814 83.3488,-149.5431"/>
</g>
<!-- 4 -->
<g id="node5" class="node">
<title>4</title>
<ellipse fill="none" stroke="#000000" cx="20.5085" cy="-134.0528" rx="18" ry="18"/>
<text text-anchor="middle" x="20.5085" y="-130.3528" font-family="Times,serif" font-size="14.00" fill="#000000">4</text>
</g>
<!-- 1&#45;&#45;4 -->
<g id="edge6" class="edge">
<title>1&#45;&#45;4</title>
<path fill="none" stroke="#000000" d="M66.5111,-102.4181C57.0391,-108.9317 44.879,-117.2939 35.4401,-123.7848"/>
</g>
<!-- 2&#45;&#45;4 -->
<g id="edge5" class="edge">
<title>2&#45;&#45;4</title>
<path fill="none" stroke="#000000" d="M18.6072,-76.8365C19.0016,-88.7055 19.5136,-104.1116 19.9069,-115.947"/>
</g>
<!-- 3&#45;&#45;4 -->
<g id="edge7" class="edge">
<title>3&#45;&#45;4</title>
<path fill="none" stroke="#000000" d="M67.9002,-159.2015C58.3646,-154.1413 46.2925,-147.7352 36.7191,-142.655"/>
</g>
<!-- 5 -->
<g id="node6" class="node">
<title>5</title>
<ellipse fill="none" stroke="#000000" cx="21.0562" cy="-207.9527" rx="18" ry="18"/>
<text text-anchor="middle" x="21.0562" y="-204.2527" font-family="Times,serif" font-size="14.00" fill="#000000">5</text>
</g>
<!-- 3&#45;&#45;5 -->
<g id="edge8" class="edge">
<title>3&#45;&#45;5</title>
<path fill="none" stroke="#000000" d="M68.6838,-177.436C58.9492,-183.6733 46.3562,-191.7421 36.5643,-198.0161"/>
</g>
<!-- 4&#45;&#45;5 -->
<g id="edge9" class="edge">
<title>4&#45;&#45;5</title>
<path fill="none" stroke="#000000" d="M20.6439,-152.3202C20.7288,-163.7751 20.8378,-178.4807 20.9224,-189.8955"/>
</g>
</g>
</svg>
