<?xml version="1.0" encoding="UTF-8" standalone="no"?>
<!DOCTYPE svg PUBLIC "-//W3C//DTD SVG 1.1//EN"
 "http://www.w3.org/Graphics/SVG/1.1/DTD/svg11.dtd">
<!-- Generated by graphviz version 2.40.1 (20161225.0304)
 -->
<!-- Title: MSTgviz Pages: 1 -->
<svg width="320pt" height="331pt"
 viewBox="0.00 0.00 320.40 331.46" xmlns="http://www.w3.org/2000/svg" xmlns:xlink="http://www.w3.org/1999/xlink">
<g id="graph0" class="graph" transform="scale(1 1) rotate(0) translate(4 327.4627)">
<title>MSTgviz</title>
<polygon fill="#ffffff" stroke="transparent" points="-4,4 -4,-327.4627 316.4009,-327.4627 316.4009,4 -4,4"/>
<!-- 0 -->
<g id="node1" class="node">
<title>0</title>
<ellipse fill="none" stroke="#000000" cx="97.6736" cy="-225.904" rx="18" ry="18"/>
<text text-anchor="middle" x="97.6736" y="-222.204" font-family="Times,serif" font-size="14.00" fill="#000000">0</text>
</g>
<!-- 1 -->
<g id="node2" class="node">
<title>1</title>
<ellipse fill="none" stroke="#000000" cx="152.9476" cy="-163.3326" rx="18" ry="18"/>
<text text-anchor="middle" x="152.9476" y="-159.6326" font-family="Times,serif" font-size="14.00" fill="#000000">1</text>
</g>
<!-- 0&#45;&#45;1 -->
<g id="edge1" class="edge">
<title>0&#45;&#45;1</title>
<path fill="none" stroke="#000000" d="M109.6673,-212.327C118.9386,-201.8316 131.712,-187.3718 140.9774,-176.8832"/>
</g>
<!-- 2 -->
<g id="node3" class="node">
<title>2</title>
<ellipse fill="none" stroke="#000000" cx="18" cy="-228.8685" rx="18" ry="18"/>
<text text-anchor="middle" x="18" y="-225.1685" font-family="Times,serif" font-size="14.00" fill="#000000">2</text>
</g>
<!-- 0&#45;&#45;2 -->
<g id="edge2" class="edge">
<title>0&#45;&#45;2</title>
<path fill="none" stroke="#000000" d="M79.5945,-226.5767C66.5554,-227.0618 49.0303,-227.7139 36.0076,-228.1984"/>
</g>
<!-- 3 -->
<g id="node4" class="node">
<title>3</title>
<ellipse fill="none" stroke="#000000" cx="97.7395" cy="-305.4627" rx="18" ry="18"/>
<text text-anchor="middle" x="97.7395" y="-301.7627" font-family="Times,serif" font-size="14.00" fill="#000000">3</text>
</g>
<!-- 0&#45;&#45;3 -->
<g id="edge3" class="edge">
<title>0&#45;&#45;3</title>
<path fill="none" stroke="#000000" d="M97.6886,-243.9571C97.6993,-256.8857 97.7137,-274.2309 97.7244,-287.2056"/>
</g>
<!-- 4 -->
<g id="node5" class="node">
<title>4</title>
<ellipse fill="none" stroke="#000000" cx="121.5231" cy="-87.7907" rx="18" ry="18"/>
<text text-anchor="middle" x="121.5231" y="-84.0907" font-family="Times,serif" font-size="14.00" fill="#000000">4</text>
</g>
<!-- 1&#45;&#45;4 -->
<g id="edge4" class="edge">
<title>1&#45;&#45;4</title>
<path fill="none" stroke="#000000" d="M145.9735,-146.5674C140.7659,-134.0488 133.6806,-117.0163 128.4777,-104.509"/>
</g>
<!-- 5 -->
<g id="node6" class="node">
<title>5</title>
<ellipse fill="none" stroke="#000000" cx="236.3213" cy="-167.9334" rx="18" ry="18"/>
<text text-anchor="middle" x="236.3213" y="-164.2334" font-family="Times,serif" font-size="14.00" fill="#000000">5</text>
</g>
<!-- 1&#45;&#45;5 -->
<g id="edge5" class="edge">
<title>1&#45;&#45;5</title>
<path fill="none" stroke="#000000" d="M171.0385,-164.3309C185.023,-165.1026 204.2901,-166.1659 218.2658,-166.9371"/>
</g>
<!-- 6 -->
<g id="node7" class="node">
<title>6</title>
<ellipse fill="none" stroke="#000000" cx="91.2774" cy="-18" rx="18" ry="18"/>
<text text-anchor="middle" x="91.2774" y="-14.3" font-family="Times,serif" font-size="14.00" fill="#000000">6</text>
</g>
<!-- 4&#45;&#45;6 -->
<g id="edge6" class="edge">
<title>4&#45;&#45;6</title>
<path fill="none" stroke="#000000" d="M114.3553,-71.2512C109.6037,-60.2873 103.3875,-45.9436 98.6038,-34.9055"/>
</g>
<!-- 7 -->
<g id="node8" class="node">
<title>7</title>
<ellipse fill="none" stroke="#000000" cx="292.8384" cy="-223.9343" rx="18" ry="18"/>
<text text-anchor="middle" x="292.8384" y="-220.2343" font-family="Times,serif" font-size="14.00" fill="#000000">7</text>
</g>
<!-- 5&#45;&#45;7 -->
<g id="edge7" class="edge">
<title>5&#45;&#45;7</title>
<path fill="none" stroke="#000000" d="M249.1459,-180.6409C258.265,-189.6767 270.4773,-201.7775 279.6723,-210.8885"/>
</g>
<!-- 8 -->
<g id="node9" class="node">
<title>8</title>
<ellipse fill="none" stroke="#000000" cx="294.4009" cy="-113.3135" rx="18" ry="18"/>
<text text-anchor="middle" x="294.4009" y="-109.6135" font-family="Times,serif" font-size="14.00" fill="#000000">8</text>
</g>
<!-- 5&#45;&#45;8 -->
<g id="edge8" class="edge">
<title>5&#45;&#45;8</title>
<path fill="none" stroke="#000000" d="M249.5005,-155.5393C259.0055,-146.6005 271.7808,-134.5862 281.2739,-125.6586"/>
</g>
</g>
</svg>
