<?xml version="1.0" encoding="UTF-8" standalone="no"?>
<!-- Created with Inkscape (http://www.inkscape.org/) -->

<svg
   xmlns:dc="http://purl.org/dc/elements/1.1/"
   xmlns:cc="http://creativecommons.org/ns#"
   xmlns:rdf="http://www.w3.org/1999/02/22-rdf-syntax-ns#"
   xmlns:svg="http://www.w3.org/2000/svg"
   xmlns="http://www.w3.org/2000/svg"
   xmlns:xlink="http://www.w3.org/1999/xlink"
   xmlns:sodipodi="http://sodipodi.sourceforge.net/DTD/sodipodi-0.dtd"
   xmlns:inkscape="http://www.inkscape.org/namespaces/inkscape"
   width="145.53851mm"
   height="66.535675mm"
   viewBox="0 0 145.53853 66.535677"
   version="1.1"
   id="svg8"
   inkscape:version="0.92.4 (5da689c313, 2019-01-14)"
   sodipodi:docname="two_pointers_sample08.svg">
  <defs
     id="defs2">
    <path
       id="equation_01_00-0"
       d="m 1.91283,-2.49066 c 0,-0.28892 -0.23911,-0.52802 -0.52802,-0.52802 -0.28891,0 -0.528023,0.2391 -0.528023,0.52802 0,0.28892 0.239103,0.52802 0.528023,0.52802 0.28892,0 0.52802,-0.2391 0.52802,-0.52802 z"
       inkscape:connector-curvature="0" />
    <path
       id="equation_00_00-8"
       d="M 3.71606,-3.76588 C 3.53674,-4.1345 3.24782,-4.40349 2.7995,-4.40349 c -1.16563,0 -2.400994,1.46451 -2.400994,2.91906 0,0.936485 0.547945,1.594019 1.325034,1.594019 0.19925,0 0.69738,-0.0398505 1.29514,-0.747198 0.0797,0.418431 0.42839,0.747198 0.9066,0.747198 0.34869,0 0.57783,-0.229141 0.73724,-0.547945 0.16936,-0.358655 0.29887,-0.966374 0.29887,-0.986304 0,-0.09962 -0.08966,-0.09962 -0.11955,-0.09962 -0.09962,0 -0.10959,0.03985 -0.13947,0.17932 -0.16937,0.647575 -0.3487,1.235371 -0.75716,1.235371 -0.269,0 -0.29888,-0.259029 -0.29888,-0.458281 0,-0.219179 0.01992,-0.29888 0.12951,-0.73724 0.10959,-0.41843 0.12951,-0.51805 0.21918,-0.89663 l 0.35865,-1.39477 c 0.06974,-0.27896 0.06974,-0.29888 0.06974,-0.33873 0,-0.16937 -0.11955,-0.26899 -0.28891,-0.26899 -0.23911,0 -0.38855,0.21917 -0.41844,0.43835 z m -0.64757,2.58033 c -0.04981,0.17932 -0.04981,0.199249 -0.19925,0.368614 -0.43836,0.547945 -0.84682,0.707347 -1.12578,0.707347 -0.49813,0 -0.63761,-0.547945 -0.63761,-0.936491 0,-0.49813 0.31881,-1.72353 0.54795,-2.18182 0.30884,-0.58779 0.75716,-0.95641 1.15566,-0.95641 0.64758,0 0.78705,0.81694 0.78705,0.87671 0,0.05977 -0.01992,0.11956 -0.02988,0.16937 z"
       inkscape:connector-curvature="0" />
    <path
       id="equation_00_01-1"
       d="m 1.96663,-4.63064 c 0.00697,-0.01394 0.02789,-0.1046 0.02789,-0.11158 0,-0.03487 -0.02789,-0.09763 -0.11158,-0.09763 -0.13948,0 -0.71831,0.05579 -0.892654,0.06974 -0.048817,0.00697 -0.14645,0.01395 -0.14645,0.1604 0,0.09763 0.097633,0.09763 0.174344,0.09763 0.33475,0 0.33475,0.04882 0.33475,0.10461 0,0.04881 -0.01395,0.09066 -0.0279,0.15342 l -0.864756,3.445084 c -0.020922,0.069738 -0.027895,0.14645 -0.027895,0.216189 0,0.446326 0.397509,0.6625155 0.732251,0.6625155 0.16737,0 0.37659,-0.0557908 0.55791,-0.3696135 0.14645,-0.258033 0.24409,-0.66949 0.24409,-0.697385 0,-0.09066 -0.09066,-0.09066 -0.11159,-0.09066 -0.09763,0 -0.11158,0.04184 -0.13947,0.167372 -0.09066,0.348692 -0.22317,0.795019 -0.52304,0.795019 -0.1883,0 -0.237113,-0.174346 -0.237113,-0.341719 0,-0.076712 0.020922,-0.209215 0.041843,-0.285928 z"
       inkscape:connector-curvature="0" />
    <path
       id="equation_01_00-5"
       d="m 1.91283,-2.49066 c 0,-0.28892 -0.23911,-0.52802 -0.52802,-0.52802 -0.28891,0 -0.528023,0.2391 -0.528023,0.52802 0,0.28892 0.239103,0.52802 0.528023,0.52802 0.28892,0 0.52802,-0.2391 0.52802,-0.52802 z"
       inkscape:connector-curvature="0" />
    <path
       id="equation_01_00-3"
       d="m 1.91283,-2.49066 c 0,-0.28892 -0.23911,-0.52802 -0.52802,-0.52802 -0.28891,0 -0.528023,0.2391 -0.528023,0.52802 0,0.28892 0.239103,0.52802 0.528023,0.52802 0.28892,0 0.52802,-0.2391 0.52802,-0.52802 z"
       inkscape:connector-curvature="0" />
  </defs>
  <sodipodi:namedview
     id="base"
     pagecolor="#ffffff"
     bordercolor="#666666"
     borderopacity="1.0"
     inkscape:pageopacity="0.0"
     inkscape:pageshadow="2"
     inkscape:zoom="1.979899"
     inkscape:cx="402.76568"
     inkscape:cy="160.91296"
     inkscape:document-units="mm"
     inkscape:current-layer="layer1"
     showgrid="false"
     fit-margin-top="5"
     fit-margin-left="5"
     fit-margin-bottom="5"
     fit-margin-right="5"
     inkscape:window-width="2560"
     inkscape:window-height="1315"
     inkscape:window-x="-13"
     inkscape:window-y="-13"
     inkscape:window-maximized="1" />
  <metadata
     id="metadata5">
    <rdf:RDF>
      <cc:Work
         rdf:about="">
        <dc:format>image/svg+xml</dc:format>
        <dc:type
           rdf:resource="http://purl.org/dc/dcmitype/StillImage" />
        <dc:title></dc:title>
      </cc:Work>
    </rdf:RDF>
  </metadata>
  <g
     inkscape:label="レイヤー 1"
     inkscape:groupmode="layer"
     id="layer1"
     transform="translate(-0.23834616,-32.3049)">
    <path
       style="fill:none;stroke:#000000;stroke-width:1;stroke-linecap:butt;stroke-linejoin:miter;stroke-miterlimit:4;stroke-dasharray:none;stroke-opacity:1"
       d="M 33.713855,52.335678 H 77.479237"
       id="path2099"
       inkscape:connector-curvature="0" />
    <rect
       style="opacity:1;fill:none;fill-opacity:1;fill-rule:nonzero;stroke:#000000;stroke-width:0.35277778;stroke-miterlimit:4;stroke-dasharray:none;stroke-dashoffset:0;stroke-opacity:1"
       id="rect3715"
       width="10.958051"
       height="10.958051"
       x="28.33057"
       y="37.481289"
       inkscape:tile-cx="33.809595"
       inkscape:tile-cy="42.960313"
       inkscape:tile-w="11.45805"
       inkscape:tile-h="11.45805"
       inkscape:tile-x0="28.08057"
       inkscape:tile-y0="37.231288" />
    <use
       x="0"
       y="0"
       inkscape:tiled-clone-of="#rect3715"
       xlink:href="#rect3715"
       transform="translate(10.95805)"
       id="use3719"
       width="100%"
       height="100%"
       style="stroke-width:0.35277778;stroke-miterlimit:4;stroke-dasharray:none" />
    <use
       x="0"
       y="0"
       inkscape:tiled-clone-of="#rect3715"
       xlink:href="#rect3715"
       transform="translate(21.9161)"
       id="use3721"
       width="100%"
       height="100%"
       style="stroke-width:0.35277778;stroke-miterlimit:4;stroke-dasharray:none" />
    <use
       x="0"
       y="0"
       inkscape:tiled-clone-of="#rect3715"
       xlink:href="#rect3715"
       transform="translate(32.87415)"
       id="use3723"
       width="100%"
       height="100%"
       style="stroke-width:0.35277778;stroke-miterlimit:4;stroke-dasharray:none" />
    <use
       x="0"
       y="0"
       inkscape:tiled-clone-of="#rect3715"
       xlink:href="#rect3715"
       transform="translate(43.8322)"
       id="use3725"
       width="100%"
       height="100%"
       style="stroke-width:0.35277778;stroke-miterlimit:4;stroke-dasharray:none" />
    <use
       x="0"
       y="0"
       inkscape:tiled-clone-of="#rect3715"
       xlink:href="#rect3715"
       transform="translate(54.79025)"
       id="use3727"
       width="100%"
       height="100%"
       style="stroke-width:0.35277778;stroke-miterlimit:4;stroke-dasharray:none" />
    <rect
       style="opacity:1;fill:none;fill-opacity:1;fill-rule:nonzero;stroke:#000000;stroke-width:0.35277778;stroke-miterlimit:4;stroke-dasharray:none;stroke-dashoffset:0;stroke-opacity:1"
       id="rect3715-6"
       width="10.958051"
       height="10.958051"
       x="17.37252"
       y="37.481289"
       inkscape:tile-cx="33.809595"
       inkscape:tile-cy="42.960313"
       inkscape:tile-w="11.45805"
       inkscape:tile-h="11.45805"
       inkscape:tile-x0="28.08057"
       inkscape:tile-y0="37.231288" />
    <rect
       style="opacity:1;fill:none;fill-opacity:1;fill-rule:nonzero;stroke:#000000;stroke-width:0.35277778;stroke-miterlimit:4;stroke-dasharray:none;stroke-dashoffset:0;stroke-opacity:1"
       id="rect3715-6-3"
       width="10.958051"
       height="10.958051"
       x="94.078857"
       y="37.481289"
       inkscape:tile-cx="33.809595"
       inkscape:tile-cy="42.960313"
       inkscape:tile-w="11.45805"
       inkscape:tile-h="11.45805"
       inkscape:tile-x0="28.08057"
       inkscape:tile-y0="37.231288" />
    <flowRoot
       xml:space="preserve"
       id="flowRoot5556"
       style="font-style:normal;font-variant:normal;font-weight:normal;font-stretch:normal;font-size:21.33333397px;line-height:1.25;font-family:Meiryo;-inkscape-font-specification:Meiryo;letter-spacing:0px;word-spacing:0px;fill:#000000;fill-opacity:1;stroke:none"
       transform="matrix(0.26458333,0,0,0.26458333,18.604137,16.450164)"><flowRegion
         id="flowRegion5558"><rect
           id="rect5560"
           width="25.714285"
           height="30"
           x="44.642857"
           y="84.336395" /></flowRegion><flowPara
         id="flowPara5562" /></flowRoot>    <g
       title="$a_l$"
       style="fill:#000000"
       id="equation_00"
       transform="matrix(0.88904661,0,0,0.88904661,-37.923674,-11.289518)">
      <defs
         id="defs5618">
        <path
           id="equation_00_00"
           d="M 3.71606,-3.76588 C 3.53674,-4.1345 3.24782,-4.40349 2.7995,-4.40349 c -1.16563,0 -2.400994,1.46451 -2.400994,2.91906 0,0.936485 0.547945,1.594019 1.325034,1.594019 0.19925,0 0.69738,-0.0398505 1.29514,-0.747198 0.0797,0.418431 0.42839,0.747198 0.9066,0.747198 0.34869,0 0.57783,-0.229141 0.73724,-0.547945 0.16936,-0.358655 0.29887,-0.966374 0.29887,-0.986304 0,-0.09962 -0.08966,-0.09962 -0.11955,-0.09962 -0.09962,0 -0.10959,0.03985 -0.13947,0.17932 -0.16937,0.647575 -0.3487,1.235371 -0.75716,1.235371 -0.269,0 -0.29888,-0.259029 -0.29888,-0.458281 0,-0.219179 0.01992,-0.29888 0.12951,-0.73724 0.10959,-0.41843 0.12951,-0.51805 0.21918,-0.89663 l 0.35865,-1.39477 c 0.06974,-0.27896 0.06974,-0.29888 0.06974,-0.33873 0,-0.16937 -0.11955,-0.26899 -0.28891,-0.26899 -0.23911,0 -0.38855,0.21917 -0.41844,0.43835 z m -0.64757,2.58033 c -0.04981,0.17932 -0.04981,0.199249 -0.19925,0.368614 -0.43836,0.547945 -0.84682,0.707347 -1.12578,0.707347 -0.49813,0 -0.63761,-0.547945 -0.63761,-0.936491 0,-0.49813 0.31881,-1.72353 0.54795,-2.18182 0.30884,-0.58779 0.75716,-0.95641 1.15566,-0.95641 0.64758,0 0.78705,0.81694 0.78705,0.87671 0,0.05977 -0.01992,0.11956 -0.02988,0.16937 z"
           inkscape:connector-curvature="0" />
        <path
           id="equation_00_01"
           d="m 1.96663,-4.63064 c 0.00697,-0.01394 0.02789,-0.1046 0.02789,-0.11158 0,-0.03487 -0.02789,-0.09763 -0.11158,-0.09763 -0.13948,0 -0.71831,0.05579 -0.892654,0.06974 -0.048817,0.00697 -0.14645,0.01395 -0.14645,0.1604 0,0.09763 0.097633,0.09763 0.174344,0.09763 0.33475,0 0.33475,0.04882 0.33475,0.10461 0,0.04881 -0.01395,0.09066 -0.0279,0.15342 l -0.864756,3.445084 c -0.020922,0.069738 -0.027895,0.14645 -0.027895,0.216189 0,0.446326 0.397509,0.6625155 0.732251,0.6625155 0.16737,0 0.37659,-0.0557908 0.55791,-0.3696135 0.14645,-0.258033 0.24409,-0.66949 0.24409,-0.697385 0,-0.09066 -0.09066,-0.09066 -0.11159,-0.09066 -0.09763,0 -0.11158,0.04184 -0.13947,0.167372 -0.09066,0.348692 -0.22317,0.795019 -0.52304,0.795019 -0.1883,0 -0.237113,-0.174346 -0.237113,-0.341719 0,-0.076712 0.020922,-0.209215 0.041843,-0.285928 z"
           inkscape:connector-curvature="0" />
      </defs>
      <g
         id="equation_00_g">
        <use
           id="use5620"
           y="62.764599"
           xlink:href="#equation_00_00"
           x="76.712303"
           width="100%"
           height="100%" />
        <use
           id="use5622"
           y="64.259003"
           xlink:href="#equation_00_01"
           x="81.9785"
           width="100%"
           height="100%" />
      </g>
    </g>
    <g
       aria-label="l"
       style="font-style:normal;font-variant:normal;font-weight:normal;font-stretch:normal;font-size:5.64444447px;line-height:1.25;font-family:Meiryo;-inkscape-font-specification:Meiryo;letter-spacing:0px;word-spacing:0px;fill:#000000;fill-opacity:1;stroke:none;stroke-width:0.26458332"
       id="text5715">
      <path
         d="m 29.579621,54.733662 h -0.48507 v -4.338065 h 0.48507 z"
         style="stroke-width:0.26458332"
         id="path5890"
         inkscape:connector-curvature="0" />
    </g>
    <g
       title="$\cdots$"
       style="fill:#000000"
       id="equation_01"
       transform="translate(42.799763,-16.630952)">
      <defs
         id="defs5836">
        <path
           id="equation_01_00"
           d="m 1.91283,-2.49066 c 0,-0.28892 -0.23911,-0.52802 -0.52802,-0.52802 -0.28891,0 -0.528023,0.2391 -0.528023,0.52802 0,0.28892 0.239103,0.52802 0.528023,0.52802 0.28892,0 0.52802,-0.2391 0.52802,-0.52802 z"
           inkscape:connector-curvature="0" />
      </defs>
      <g
         id="equation_01_g">
        <use
           id="use5838"
           y="62.764599"
           xlink:href="#equation_01_00"
           x="76.712303"
           width="100%"
           height="100%" />
        <use
           id="use5840"
           y="62.764599"
           xlink:href="#equation_01_00"
           x="81.140099"
           width="100%"
           height="100%" />
        <use
           id="use5842"
           y="62.764599"
           xlink:href="#equation_01_00"
           x="85.567902"
           width="100%"
           height="100%" />
      </g>
    </g>
    <g
       title="$\cdots$"
       style="fill:#000000"
       id="equation_01-1"
       transform="translate(-72.330744,-17.163045)">
      <defs
         id="defs5836-4">
        <path
           id="path5882"
           d="m 1.91283,-2.49066 c 0,-0.28892 -0.23911,-0.52802 -0.52802,-0.52802 -0.28891,0 -0.528023,0.2391 -0.528023,0.52802 0,0.28892 0.239103,0.52802 0.528023,0.52802 0.28892,0 0.52802,-0.2391 0.52802,-0.52802 z"
           inkscape:connector-curvature="0" />
      </defs>
      <g
         id="equation_01_g-7">
        <use
           id="use5838-1"
           y="62.764599"
           xlink:href="#equation_01_00-0"
           x="76.712303"
           width="100%"
           height="100%" />
        <use
           id="use5840-6"
           y="62.764599"
           xlink:href="#equation_01_00-0"
           x="81.140099"
           width="100%"
           height="100%" />
        <use
           id="use5842-1"
           y="62.764599"
           xlink:href="#equation_01_00-0"
           x="85.567902"
           width="100%"
           height="100%" />
      </g>
    </g>
    <flowRoot
       xml:space="preserve"
       id="flowRoot7432"
       style="font-style:normal;font-variant:normal;font-weight:normal;font-stretch:normal;font-size:21.33333397px;line-height:1.25;font-family:Meiryo;-inkscape-font-specification:Meiryo;letter-spacing:0px;word-spacing:0px;fill:#000000;fill-opacity:1;stroke:none"
       transform="matrix(0.26458333,0,0,0.26458333,0.23834616,32.3049)"><flowRegion
         id="flowRegion7434"><rect
           id="rect7436"
           width="52.5"
           height="44.642857"
           x="278.92856"
           y="223.34155" /></flowRegion><flowPara
         id="flowPara7438" /></flowRoot>    <g
       aria-label="f(l)"
       style="font-style:normal;font-variant:normal;font-weight:normal;font-stretch:normal;font-size:5.64444447px;line-height:1.25;font-family:Meiryo;-inkscape-font-specification:Meiryo;letter-spacing:0px;word-spacing:0px;fill:#000000;fill-opacity:1;stroke:none;stroke-width:0.26458332"
       id="text7442"
       transform="translate(-0.54010234,-28.460888)">
      <path
         d="m 84.580158,78.360237 h -0.01654 q -0.253559,-0.08268 -0.449241,-0.08268 -0.37207,0 -0.529167,0.173633 -0.157096,0.173633 -0.157096,0.570508 v 0.09095 h 0.953602 v 0.396875 h -0.937065 v 2.717492 h -0.48507 v -2.717492 h -0.355534 v -0.396875 h 0.355534 v -0.121267 q 0,-0.548459 0.275608,-0.840603 0.275607,-0.292144 0.788238,-0.292144 0.250803,0 0.556727,0.05512 z"
         style="stroke-width:0.26458332"
         id="path10484"
         inkscape:connector-curvature="0" />
      <path
         d="M 86.465314,83.376296 H 85.87827 q -0.56224,-0.65319 -0.815799,-1.311892 -0.250803,-0.658702 -0.250803,-1.43316 0,-1.496549 1.066602,-2.742296 h 0.587044 v 0.02756 q -0.548459,0.482314 -0.879188,1.204406 -0.327973,0.719335 -0.327973,1.510329 0,0.79375 0.327973,1.513086 0.327973,0.71658 0.879188,1.204406 z"
         style="stroke-width:0.26458332"
         id="path10486"
         inkscape:connector-curvature="0" />
      <path
         d="m 87.790987,82.227013 h -0.485069 v -4.338065 h 0.485069 z"
         style="stroke-width:0.26458332"
         id="path10488"
         inkscape:connector-curvature="0" />
      <path
         d="M 89.218634,83.376296 H 88.63159 v -0.02756 q 0.553971,-0.493338 0.879188,-1.207162 0.327973,-0.71658 0.327973,-1.51033 0,-0.790994 -0.327973,-1.507573 -0.327973,-0.719336 -0.879188,-1.207162 v -0.02756 h 0.587044 q 1.066602,1.245747 1.066602,2.742296 0,0.771702 -0.250803,1.427648 -0.248047,0.655946 -0.815799,1.317404 z"
         style="stroke-width:0.26458332"
         id="path10490"
         inkscape:connector-curvature="0" />
    </g>
    <g
       title="$a_{f(l)}$"
       style="fill:#000000"
       id="equation_04"
       transform="translate(-5.9531249,-17.292411)">
      <defs
         id="defs7592">
        <path
           id="equation_04_00"
           d="M 3.71606,-3.76588 C 3.53674,-4.1345 3.24782,-4.40349 2.7995,-4.40349 c -1.16563,0 -2.400994,1.46451 -2.400994,2.91906 0,0.936485 0.547945,1.594019 1.325034,1.594019 0.19925,0 0.69738,-0.0398505 1.29514,-0.747198 0.0797,0.418431 0.42839,0.747198 0.9066,0.747198 0.34869,0 0.57783,-0.229141 0.73724,-0.547945 0.16936,-0.358655 0.29887,-0.966374 0.29887,-0.986304 0,-0.09962 -0.08966,-0.09962 -0.11955,-0.09962 -0.09962,0 -0.10959,0.03985 -0.13947,0.17932 -0.16937,0.647575 -0.3487,1.235371 -0.75716,1.235371 -0.269,0 -0.29888,-0.259029 -0.29888,-0.458281 0,-0.219179 0.01992,-0.29888 0.12951,-0.73724 0.10959,-0.41843 0.12951,-0.51805 0.21918,-0.89663 l 0.35865,-1.39477 c 0.06974,-0.27896 0.06974,-0.29888 0.06974,-0.33873 0,-0.16937 -0.11955,-0.26899 -0.28891,-0.26899 -0.23911,0 -0.38855,0.21917 -0.41844,0.43835 z m -0.64757,2.58033 c -0.04981,0.17932 -0.04981,0.199249 -0.19925,0.368614 -0.43836,0.547945 -0.84682,0.707347 -1.12578,0.707347 -0.49813,0 -0.63761,-0.547945 -0.63761,-0.936491 0,-0.49813 0.31881,-1.72353 0.54795,-2.18182 0.30884,-0.58779 0.75716,-0.95641 1.15566,-0.95641 0.64758,0 0.78705,0.81694 0.78705,0.87671 0,0.05977 -0.01992,0.11956 -0.02988,0.16937 z"
           inkscape:connector-curvature="0" />
        <path
           id="equation_04_01"
           d="m 2.83836,-2.75467 h 0.68343 c 0.13948,0 0.23014,0 0.23014,-0.15342 0,-0.09764 -0.09066,-0.09764 -0.21619,-0.09764 H 2.88717 c 0.1604,-0.88568 0.21619,-1.20647 0.27198,-1.40872 0.03487,-0.15342 0.1883,-0.29987 0.35567,-0.29987 0.00697,0 0.19527,0 0.32777,0.08368 -0.28593,0.09066 -0.30685,0.34172 -0.30685,0.38357 0,0.15342 0.11856,0.25803 0.27895,0.25803 0.1883,0 0.39751,-0.1604 0.39751,-0.42541 0,-0.32079 -0.34171,-0.49514 -0.69738,-0.49514 -0.30685,0 -0.64857,0.17435 -0.83686,0.52304 -0.13948,0.25803 -0.19527,0.57186 -0.34172,1.38082 H 1.78531 c -0.13948,0 -0.23014,0 -0.23014,0.15343 0,0.09763 0.09066,0.09763 0.21619,0.09763 H 2.28742 C 2.28045,-2.71283 1.8411,-0.202242 1.67372,0.54396 1.63885,0.697385 1.5203,1.2274 1.18555,1.2274 c -0.00697,0 -0.17434,0 -0.306845,-0.08369 C 1.16463,1.05305 1.18555,0.801993 1.18555,0.760149 1.18555,0.606725 1.067,0.502117 0.9066,0.502117 c -0.188294,0 -0.397509,0.160399 -0.397509,0.425405 0,0.313818 0.327771,0.495148 0.676459,0.495148 0.44633,0 0.75318,-0.460279 0.83687,-0.613704 0.25105,-0.467247 0.41145,-1.325031 0.4254,-1.408717 z"
           inkscape:connector-curvature="0" />
        <path
           id="equation_04_02"
           d="m 1.96663,-4.63064 c 0.00697,-0.01394 0.02789,-0.1046 0.02789,-0.11158 0,-0.03487 -0.02789,-0.09763 -0.11158,-0.09763 -0.13948,0 -0.71831,0.05579 -0.892654,0.06974 -0.048817,0.00697 -0.14645,0.01395 -0.14645,0.1604 0,0.09763 0.097633,0.09763 0.174344,0.09763 0.33475,0 0.33475,0.04882 0.33475,0.10461 0,0.04881 -0.01395,0.09066 -0.0279,0.15342 l -0.864756,3.445084 c -0.020922,0.069738 -0.027895,0.14645 -0.027895,0.216189 0,0.446326 0.397509,0.6625155 0.732251,0.6625155 0.16737,0 0.37659,-0.0557908 0.55791,-0.3696135 0.14645,-0.258033 0.24409,-0.66949 0.24409,-0.697385 0,-0.09066 -0.09066,-0.09066 -0.11159,-0.09066 -0.09763,0 -0.11158,0.04184 -0.13947,0.167372 -0.09066,0.348692 -0.22317,0.795019 -0.52304,0.795019 -0.1883,0 -0.237113,-0.174346 -0.237113,-0.341719 0,-0.076712 0.020922,-0.209215 0.041843,-0.285928 z"
           inkscape:connector-curvature="0" />
        <path
           id="equation_04_03"
           d="m 2.47572,-5.23039 c -1.32504,0.9345 -1.673727,2.41296 -1.673727,3.47995 0,0.983317 0.292897,2.510589 1.673727,3.48693 0.05579,0 0.13947,0 0.13947,-0.08369 0,-0.04184 -0.02092,-0.05579 -0.06974,-0.10461 -0.92752,-0.836857 -1.26924,-2.022412 -1.26924,-3.29165 0,-1.88294 0.71831,-2.80349 1.29017,-3.31955 0.02789,-0.0279 0.04881,-0.04882 0.04881,-0.08369 0,-0.08369 -0.08368,-0.08369 -0.13947,-0.08369 z"
           inkscape:connector-curvature="0" />
        <path
           id="equation_04_04"
           d="m 0.627646,-5.23039 c -0.048817,0 -0.132503,0 -0.132503,0.08369 0,0.03487 0.020922,0.05579 0.062765,0.10461 0.599752,0.55093 1.269242,1.4924 1.269242,3.29165 0,1.457538 -0.4533,2.559406 -1.206478,3.24284 -0.118555,0.11856 -0.125529,0.12553 -0.125529,0.1604 0,0.03487 0.020922,0.08369 0.09066,0.08369 0.083686,0 0.746197,-0.46028 1.206477,-1.332007 0.30685,-0.578829 0.50909,-1.332005 0.50909,-2.147943 0,-0.98331 -0.2929,-2.51059 -1.673724,-3.48693 z"
           inkscape:connector-curvature="0" />
      </defs>
      <g
         id="equation_04_g"
         transform="matrix(0.88097308,0,0,0.88097308,10.784661,6.4740731)">
        <use
           id="use7594"
           y="62.764599"
           xlink:href="#equation_04_00"
           x="76.712303"
           width="100%"
           height="100%" />
        <use
           id="use7596"
           y="64.563499"
           xlink:href="#equation_04_01"
           x="81.9785"
           width="100%"
           height="100%"
           transform="matrix(0.49193717,0,0,0.49193717,41.104421,32.156092)" />
        <use
           id="use7598"
           y="64.563499"
           xlink:href="#equation_04_03"
           x="86.645103"
           width="100%"
           height="100%"
           transform="matrix(0.49193717,0,0,0.49193717,41.104421,32.156092)" />
        <use
           id="use7600"
           y="64.563499"
           xlink:href="#equation_04_02"
           x="89.7584"
           width="100%"
           height="100%"
           transform="matrix(0.49193717,0,0,0.49193717,41.104421,32.156092)" />
        <use
           id="use7602"
           y="64.563499"
           xlink:href="#equation_04_04"
           x="92.318298"
           width="100%"
           height="100%"
           transform="matrix(0.49193717,0,0,0.49193717,41.104421,32.156092)" />
      </g>
    </g>
    <flowRoot
       xml:space="preserve"
       id="flowRoot7875"
       style="font-style:normal;font-variant:normal;font-weight:normal;font-stretch:normal;font-size:21.33333397px;line-height:1.25;font-family:Meiryo;-inkscape-font-specification:Meiryo;letter-spacing:0px;word-spacing:0px;fill:#000000;fill-opacity:1;stroke:none"
       transform="matrix(0.26458333,0,0,0.26458333,0.23834616,32.3049)"><flowRegion
         id="flowRegion7877"><rect
           id="rect7879"
           width="36.42857"
           height="22.142857"
           x="132.14285"
           y="-36.301308" /></flowRegion><flowPara
         id="flowPara7881" /></flowRoot>    <g
       aria-label="→r"
       transform="matrix(0.26458333,0,0,0.26458333,-39.646231,26.729751)"
       style="font-style:normal;font-variant:normal;font-weight:normal;font-stretch:normal;font-size:21.33333397px;line-height:1.25;font-family:Meiryo;-inkscape-font-specification:Meiryo;letter-spacing:0px;word-spacing:0px;fill:#000000;fill-opacity:1;stroke:none"
       id="flowRoot1700">
      <path
         d="m 270.61458,116.55404 v -1.21875 h 17.79167 l -4.64583,-4.34375 h 1.70833 l 5.35417,4.92708 -5.25,5.19792 h -1.77084 l 4.625,-4.5625 z"
         style=""
         id="path2263" />
      <path
         d="m 293.10417,123.89779 v -11.77084 h 1.83333 v 1.8125 q 2.20833,-1.8125 4.07292,-1.8125 0.65625,0 1.32291,0.10417 v 1.91667 h -0.0729 q -0.86459,-0.20834 -1.75,-0.20834 -1.77084,0 -3.57292,1.5 v 8.45834 z"
         style=""
         id="path2265" />
    </g>
    <g
       aria-label="→r"
       transform="matrix(0.26458333,0,0,0.26458333,6.0579809,37.517356)"
       style="font-style:normal;font-variant:normal;font-weight:normal;font-stretch:normal;font-size:21.33333397px;line-height:1.25;font-family:Meiryo;-inkscape-font-specification:Meiryo;letter-spacing:0px;word-spacing:0px;fill:#000000;fill-opacity:1;stroke:none"
       id="flowRoot1700-7">
      <path
         d="m 270.61458,116.55404 v -1.21875 h 17.79167 l -4.64583,-4.34375 h 1.70833 l 5.35417,4.92708 -5.25,5.19792 h -1.77084 l 4.625,-4.5625 z"
         style=""
         id="path2258" />
      <path
         d="m 293.10417,123.89779 v -11.77084 h 1.83333 v 1.8125 q 2.20833,-1.8125 4.07292,-1.8125 0.65625,0 1.32291,0.10417 v 1.91667 h -0.0729 q -0.86459,-0.20834 -1.75,-0.20834 -1.77084,0 -3.57292,1.5 v 8.45834 z"
         style=""
         id="path2260" />
    </g>
    <text
       id="text1785"
       y="64.528008"
       x="103.38695"
       style="font-style:normal;font-variant:normal;font-weight:normal;font-stretch:normal;font-size:5.64444447px;line-height:1.25;font-family:Meiryo;-inkscape-font-specification:Meiryo;letter-spacing:0px;word-spacing:0px;fill:#000000;fill-opacity:1;stroke:none;stroke-width:0.07000434"
       xml:space="preserve"><tspan
         style="stroke-width:0.07000434"
         y="64.528008"
         x="103.38695"
         id="tspan1783"
         sodipodi:role="line">f(l+1)</tspan></text>
    <g
       aria-label="→r"
       transform="matrix(0.26458333,0,0,0.26458333,26.161688,47.021587)"
       style="font-style:normal;font-variant:normal;font-weight:normal;font-stretch:normal;font-size:21.33333397px;line-height:1.25;font-family:Meiryo;-inkscape-font-specification:Meiryo;letter-spacing:0px;word-spacing:0px;fill:#000000;fill-opacity:1;stroke:none;stroke-width:0.26458332"
       id="flowRoot1700-7-3">
      <path
         d="m 270.61458,116.55404 v -1.21875 h 17.79167 l -4.64583,-4.34375 h 1.70833 l 5.35417,4.92708 -5.25,5.19792 h -1.77084 l 4.625,-4.5625 z"
         style=""
         id="path2253" />
      <path
         d="m 293.10417,123.89779 v -11.77084 h 1.83333 v 1.8125 q 2.20833,-1.8125 4.07292,-1.8125 0.65625,0 1.32291,0.10417 v 1.91667 h -0.0729 q -0.86459,-0.20834 -1.75,-0.20834 -1.77084,0 -3.57292,1.5 v 8.45834 z"
         style=""
         id="path2255" />
    </g>
    <text
       id="text1785-7"
       y="74.032234"
       x="106.32249"
       style="font-style:normal;font-variant:normal;font-weight:normal;font-stretch:normal;font-size:5.64444447px;line-height:1.25;font-family:Meiryo;-inkscape-font-specification:Meiryo;letter-spacing:0px;word-spacing:0px;fill:#000000;fill-opacity:1;stroke:none;stroke-width:0.07000434"
       xml:space="preserve"><tspan
         style="stroke-width:0.07000434"
         y="74.032234"
         x="106.32249"
         id="tspan1783-2"
         sodipodi:role="line">f(l+2)</tspan></text>
    <g
       aria-label="→r"
       transform="matrix(0.26458333,0,0,0.26458333,27.233422,59.406676)"
       style="font-style:normal;font-variant:normal;font-weight:normal;font-stretch:normal;font-size:21.33333397px;line-height:1.25;font-family:Meiryo;-inkscape-font-specification:Meiryo;letter-spacing:0px;word-spacing:0px;fill:#000000;fill-opacity:1;stroke:none;stroke-width:0.26458332"
       id="flowRoot1700-7-3-8">
      <path
         d="m 270.61458,116.55404 v -1.21875 h 17.79167 l -4.64583,-4.34375 h 1.70833 l 5.35417,4.92708 -5.25,5.19792 h -1.77084 l 4.625,-4.5625 z"
         style=""
         id="path2248" />
      <path
         d="m 293.10417,123.89779 v -11.77084 h 1.83333 v 1.8125 q 2.20833,-1.8125 4.07292,-1.8125 0.65625,0 1.32291,0.10417 v 1.91667 h -0.0729 q -0.86459,-0.20834 -1.75,-0.20834 -1.77084,0 -3.57292,1.5 v 8.45834 z"
         style=""
         id="path2250" />
    </g>
    <rect
       style="opacity:1;fill:none;fill-opacity:1;fill-rule:nonzero;stroke:#000000;stroke-width:0.35277778;stroke-miterlimit:4;stroke-dasharray:none;stroke-dashoffset:0;stroke-opacity:1"
       id="rect3715-6-3-4"
       width="10.958051"
       height="10.958051"
       x="105.03691"
       y="37.481289"
       inkscape:tile-cx="33.809595"
       inkscape:tile-cy="42.960313"
       inkscape:tile-w="11.45805"
       inkscape:tile-h="11.45805"
       inkscape:tile-x0="28.08057"
       inkscape:tile-y0="37.231288" />
    <text
       id="text1785-7-0"
       y="86.637421"
       x="124.89911"
       style="font-style:normal;font-variant:normal;font-weight:normal;font-stretch:normal;font-size:5.64444447px;line-height:1.25;font-family:Meiryo;-inkscape-font-specification:Meiryo;letter-spacing:0px;word-spacing:0px;fill:#000000;fill-opacity:1;stroke:none;stroke-width:0.07000434"
       xml:space="preserve"><tspan
         style="stroke-width:0.07000434"
         y="86.637421"
         x="124.89911"
         id="tspan1783-2-1"
         sodipodi:role="line">f(l+3)</tspan></text>
    <g
       title="$\cdots$"
       style="fill:#000000"
       id="equation_01-4"
       transform="translate(44.265556,33.038617)">
      <defs
         id="defs5836-5">
        <path
           id="path2074"
           d="m 1.91283,-2.49066 c 0,-0.28892 -0.23911,-0.52802 -0.52802,-0.52802 -0.28891,0 -0.528023,0.2391 -0.528023,0.52802 0,0.28892 0.239103,0.52802 0.528023,0.52802 0.28892,0 0.52802,-0.2391 0.52802,-0.52802 z"
           inkscape:connector-curvature="0" />
      </defs>
      <g
         id="equation_01_g-1">
        <use
           id="use5838-8"
           y="62.764599"
           xlink:href="#equation_01_00-3"
           x="76.712303"
           width="100%"
           height="100%" />
        <use
           id="use5840-4"
           y="62.764599"
           xlink:href="#equation_01_00-3"
           x="81.140099"
           width="100%"
           height="100%" />
        <use
           id="use5842-0"
           y="62.764599"
           xlink:href="#equation_01_00-3"
           x="85.567902"
           width="100%"
           height="100%" />
      </g>
    </g>
    <circle
       style="opacity:1;fill:#ffffff;fill-opacity:1;fill-rule:nonzero;stroke:#000000;stroke-width:0.5;stroke-miterlimit:4;stroke-dasharray:none;stroke-dashoffset:0;stroke-opacity:1"
       id="path2082-9"
       cx="77.612869"
       cy="52.268864"
       r="1.6704345" />
    <circle
       style="opacity:1;fill:#000000;fill-opacity:1;fill-rule:nonzero;stroke:#000000;stroke-width:0.5;stroke-miterlimit:4;stroke-dasharray:none;stroke-dashoffset:0;stroke-opacity:1"
       id="path2082-7"
       cx="33.500248"
       cy="52.160515"
       r="1.6704345" />
    <path
       style="fill:none;stroke:#000000;stroke-width:1;stroke-linecap:butt;stroke-linejoin:miter;stroke-miterlimit:4;stroke-dasharray:none;stroke-opacity:1"
       d="M 77.992369,62.912086 H 98.701213"
       id="path2099-2"
       inkscape:connector-curvature="0"
       sodipodi:nodetypes="cc" />
    <circle
       style="opacity:1;fill:#ffffff;fill-opacity:1;fill-rule:nonzero;stroke:#000000;stroke-width:0.5;stroke-miterlimit:4;stroke-dasharray:none;stroke-dashoffset:0;stroke-opacity:1"
       id="path2082-9-1"
       cx="99.496292"
       cy="62.845272"
       r="1.6704345" />
    <circle
       style="opacity:1;fill:#000000;fill-opacity:1;fill-rule:nonzero;stroke:#000000;stroke-width:0.5;stroke-miterlimit:4;stroke-dasharray:none;stroke-dashoffset:0;stroke-opacity:1"
       id="path2082-7-3"
       cx="44.138882"
       cy="62.736923"
       r="1.6704345" />
    <circle
       style="opacity:1;fill:#ffffff;fill-opacity:1;fill-rule:nonzero;stroke:#000000;stroke-width:0.5;stroke-miterlimit:4;stroke-dasharray:none;stroke-dashoffset:0;stroke-opacity:1"
       id="path2082-9-1-2"
       cx="99.562378"
       cy="71.779533"
       r="1.6704345" />
    <path
       style="fill:none;stroke:#000000;stroke-width:1;stroke-linecap:butt;stroke-linejoin:miter;stroke-miterlimit:4;stroke-dasharray:none;stroke-opacity:1"
       d="M 99.841868,84.729462 H 120.55072"
       id="path2099-2-3"
       inkscape:connector-curvature="0"
       sodipodi:nodetypes="cc" />
    <circle
       style="opacity:1;fill:#ffffff;fill-opacity:1;fill-rule:nonzero;stroke:#000000;stroke-width:0.5;stroke-miterlimit:4;stroke-dasharray:none;stroke-dashoffset:0;stroke-opacity:1"
       id="path2082-9-1-6"
       cx="121.3458"
       cy="84.662651"
       r="1.6704345" />
    <path
       style="fill:none;stroke:#000000;stroke-width:1;stroke-linecap:butt;stroke-linejoin:miter;stroke-miterlimit:4;stroke-dasharray:1.00000003, 1.00000003;stroke-dashoffset:0;stroke-opacity:1"
       d="m 43.934523,62.932837 34.693954,0"
       id="path2099-0"
       inkscape:connector-curvature="0"
       sodipodi:nodetypes="cc" />
    <path
       style="fill:none;stroke:#000000;stroke-width:1;stroke-linecap:butt;stroke-linejoin:miter;stroke-miterlimit:4;stroke-dasharray:1.00000004, 1.00000004;stroke-dashoffset:0;stroke-opacity:1"
       d="m 56.563008,71.886366 41.308063,0"
       id="path2099-0-4"
       inkscape:connector-curvature="0"
       sodipodi:nodetypes="cc" />
    <path
       style="fill:none;stroke:#000000;stroke-width:1;stroke-linecap:butt;stroke-linejoin:miter;stroke-miterlimit:4;stroke-dasharray:1.00000005, 1.00000005;stroke-dashoffset:0;stroke-opacity:1"
       d="M 66.919698,84.74298 H 100.70589"
       id="path2099-0-4-3"
       inkscape:connector-curvature="0"
       sodipodi:nodetypes="cc" />
    <circle
       style="opacity:1;fill:#000000;fill-opacity:1;fill-rule:nonzero;stroke:#000000;stroke-width:0.5;stroke-miterlimit:4;stroke-dasharray:none;stroke-dashoffset:0;stroke-opacity:1"
       id="path2082-7-3-7"
       cx="56.178822"
       cy="71.815277"
       r="1.6704345" />
    <circle
       style="opacity:1;fill:#000000;fill-opacity:1;fill-rule:nonzero;stroke:#000000;stroke-width:0.5;stroke-miterlimit:4;stroke-dasharray:none;stroke-dashoffset:0;stroke-opacity:1"
       id="path2082-7-3-7-4"
       cx="66.478676"
       cy="84.571976"
       r="1.6704345" />
  </g>
</svg>
