<?xml version="1.0" encoding="UTF-8" standalone="no"?>
<!-- Created with Inkscape (http://www.inkscape.org/) -->

<svg
   xmlns:dc="http://purl.org/dc/elements/1.1/"
   xmlns:cc="http://creativecommons.org/ns#"
   xmlns:rdf="http://www.w3.org/1999/02/22-rdf-syntax-ns#"
   xmlns:svg="http://www.w3.org/2000/svg"
   xmlns="http://www.w3.org/2000/svg"
   xmlns:xlink="http://www.w3.org/1999/xlink"
   xmlns:sodipodi="http://sodipodi.sourceforge.net/DTD/sodipodi-0.dtd"
   xmlns:inkscape="http://www.inkscape.org/namespaces/inkscape"
   width="101.26061mm"
   height="56.09206mm"
   viewBox="0 0 101.26061 56.09206"
   version="1.1"
   id="svg8"
   inkscape:version="0.92.4 (5da689c313, 2019-01-14)"
   sodipodi:docname="child_to_parent_idx.svg">
  <defs
     id="defs2" />
  <sodipodi:namedview
     id="base"
     pagecolor="#ffffff"
     bordercolor="#666666"
     borderopacity="1.0"
     inkscape:pageopacity="0.0"
     inkscape:pageshadow="2"
     inkscape:zoom="0.98994949"
     inkscape:cx="141.50529"
     inkscape:cy="42.332377"
     inkscape:document-units="mm"
     inkscape:current-layer="layer1"
     showgrid="false"
     inkscape:window-width="2560"
     inkscape:window-height="1315"
     inkscape:window-x="-13"
     inkscape:window-y="-13"
     inkscape:window-maximized="1"
     fit-margin-top="0"
     fit-margin-left="0"
     fit-margin-right="0"
     fit-margin-bottom="0" />
  <metadata
     id="metadata5">
    <rdf:RDF>
      <cc:Work
         rdf:about="">
        <dc:format>image/svg+xml</dc:format>
        <dc:type
           rdf:resource="http://purl.org/dc/dcmitype/StillImage" />
        <dc:title></dc:title>
      </cc:Work>
    </rdf:RDF>
  </metadata>
  <g
     inkscape:label="レイヤー 1"
     inkscape:groupmode="layer"
     id="layer1"
     transform="translate(-32.35688,-22.798725)">
    <rect
       inkscape:tile-y0="49.931548"
       inkscape:tile-x0="39.437499"
       y="50.181549"
       x="39.6875"
       height="20.788691"
       width="43.278275"
       id="use851"
       style="opacity:1;fill:none;fill-opacity:1;fill-rule:nonzero;stroke:#1a1a1a;stroke-width:0.5;stroke-miterlimit:4;stroke-dasharray:none;stroke-dashoffset:0;stroke-opacity:1" />
    <rect
       inkscape:tile-y0="49.931548"
       inkscape:tile-x0="39.437499"
       y="50.181549"
       x="82.965775"
       height="20.788691"
       width="43.278275"
       id="use853"
       style="opacity:1;fill:none;fill-opacity:1;fill-rule:nonzero;stroke:#1a1a1a;stroke-width:0.5;stroke-miterlimit:4;stroke-dasharray:none;stroke-dashoffset:0;stroke-opacity:1" />
    <rect
       style="opacity:1;fill:none;fill-opacity:1;fill-rule:nonzero;stroke:#1a1a1a;stroke-width:0.4985621;stroke-miterlimit:4;stroke-dasharray:none;stroke-dashoffset:0;stroke-opacity:1"
       id="rect859"
       width="86.556549"
       height="20.788687"
       x="39.6875"
       y="29.39286" />
    <g
       title="$k$"
       style="fill:#000000"
       id="equation_00"
       transform="matrix(1.1500993,0,0,1.1500993,-29.94748,-7.5685472)">
      <defs
         id="defs876">
        <path
           id="equation_00_00"
           d="m 2.85928,-6.80448 c 0,-0.00997 0,-0.10959 -0.12952,-0.10959 -0.22914,0 -0.95641,0.0797 -1.21544,0.09962 -0.0797,0.00997 -0.18929,0.01993 -0.18929,0.19926 0,0.11955 0.08966,0.11955 0.2391,0.11955 0.47821,0 0.49814,0.06974 0.49814,0.16936 l -0.02989,0.19926 -1.444584,5.738477 c -0.039851,0.139477 -0.039851,0.159402 -0.039851,0.219178 0,0.2291408 0.199253,0.278954 0.288917,0.278954 0.129514,0 0.278958,-0.0896637 0.338728,-0.2092154 C 1.2254,-0.18929 1.67372,-2.03238 1.7335,-2.28144 c 0.33873,0.02988 1.15567,0.18929 1.15567,0.84682 0,0.06974 0,0.10959 -0.02989,0.20922 -0.01993,0.11955 -0.03985,0.239099 -0.03985,0.348688 0,0.587795 0.3985,0.986301 0.91656,0.986301 0.29888,0 0.56787,-0.1594022 0.78705,-0.52802 0.24906,-0.438356 0.35865,-0.986299 0.35865,-1.006229 0,-0.09962 -0.08966,-0.09962 -0.11955,-0.09962 -0.09962,0 -0.10959,0.03985 -0.13947,0.17932 -0.19926,0.727276 -0.4284,1.235371 -0.86675,1.235371 -0.18929,0 -0.31881,-0.109589 -0.31881,-0.468244 0,-0.169365 0.03985,-0.398506 0.0797,-0.557907 0.03985,-0.16937 0.03985,-0.20922 0.03985,-0.30884 0,-0.64757 -0.62764,-0.93649 -1.47447,-1.04608 0.30884,-0.17933 0.62765,-0.49813 0.85679,-0.73724 0.47821,-0.52802 0.93649,-0.95641 1.42466,-0.95641 0.05977,0 0.06973,0 0.08966,0.00996 0.11955,0.01993 0.12951,0.01993 0.20922,0.0797 0.01992,0.00997 0.01992,0.01993 0.03985,0.03986 -0.47821,0.02988 -0.56787,0.41843 -0.56787,0.53798 0,0.1594 0.10958,0.34869 0.37858,0.34869 0.25902,0 0.54794,-0.21918 0.54794,-0.60772 0,-0.29888 -0.22914,-0.62765 -0.67746,-0.62765 -0.27895,0 -0.73723,0.0797 -1.45454,0.87672 -0.33873,0.37858 -0.72728,0.77708 -1.10586,0.92652 z"
           inkscape:connector-curvature="0" />
      </defs>
      <g
         id="equation_00_g">
        <use
           id="use878"
           y="62.764599"
           xlink:href="#equation_00_00"
           x="76.712303"
           width="100%"
           height="100%" />
      </g>
    </g>
    <g
       title="$\lfloor \frac{k-1}{2} \rfloor$"
       style="fill:#000000"
       id="equation_03"
       transform="translate(-6.9925595,-20.221726)">
      <defs
         id="defs1119">
        <path
           id="equation_03_00"
           d="m 5.18854,-1.57609 c 0.11158,0 0.27896,0 0.27896,-0.16737 0,-0.17435 -0.1604,-0.17435 -0.27896,-0.17435 H 1.03213 c -0.111582,0 -0.278954,0 -0.278954,0.16737 0,0.17435 0.160398,0.17435 0.278954,0.17435 z"
           inkscape:connector-curvature="0" />
        <path
           id="equation_03_01"
           d="m 3.84558,2.49066 c 0.14944,0 0.35865,0 0.35865,-0.19925 0,-0.19925 -0.20921,-0.19926 -0.35865,-0.19926 H 2.132 v -9.20548 c 0,-0.17932 0,-0.35865 -0.19925,-0.35865 -0.19925,0 -0.19925,0.20922 -0.19925,0.35865 V 2.132 c 0,0.31881 0.03985,0.35866 0.35865,0.35866 z"
           inkscape:connector-curvature="0" />
        <path
           id="equation_03_02"
           d="m 2.67995,-7.11333 c 0,-0.17932 0,-0.35865 -0.19925,-0.35865 -0.19925,0 -0.19926,0.20922 -0.19926,0.35865 V 2.09215 H 0.56787 c -0.149439,0 -0.358655,0 -0.358655,0.19926 0,0.19926 0.209216,0.19925 0.358655,0.19925 h 1.76339 c 0.3188,0 0.34869,-0.02989 0.34869,-0.35866 z"
           inkscape:connector-curvature="0" />
        <path
           id="equation_03_03"
           d="m 2.18281,-4.63064 c 0.00698,-0.01394 0.0279,-0.1046 0.0279,-0.11158 0,-0.03487 -0.0279,-0.09763 -0.11158,-0.09763 -0.13948,0 -0.71831,0.05579 -0.89265,0.06974 -0.0558,0.00697 -0.15343,0.01395 -0.15343,0.1604 0,0.09763 0.09763,0.09763 0.18132,0.09763 0.33475,0 0.33475,0.04882 0.33475,0.10461 0,0.04881 -0.01395,0.09066 -0.0279,0.15342 l -0.983312,3.947201 c -0.034869,0.125529 -0.034869,0.139477 -0.034869,0.153424 0,0.1046081 0.083686,0.2231635 0.23711,0.2231635 0.188294,0 0.278951,-0.139477 0.320801,-0.2929015 0.01394,-0.027896 0.31382,-1.255297 0.34172,-1.352927 0.49514,0.04882 0.89265,0.20922 0.89265,0.57186 0,0.034865 0,0.069734 -0.01395,0.139473 -0.0279,0.104608 -0.0279,0.139477 -0.0279,0.216189 0,0.495143 0.40449,0.7183065 0.73923,0.7183065 0.67647,0 0.88568,-1.0600245 0.88568,-1.0669985 0,-0.09066 -0.09066,-0.09066 -0.11158,-0.09066 -0.09763,0 -0.10461,0.03487 -0.13948,0.167372 -0.08368,0.299876 -0.27198,0.795019 -0.6137,0.795019 -0.18829,0 -0.24408,-0.174346 -0.24408,-0.36264 0,-0.118556 0,-0.132503 0.04184,-0.313824 0.00698,-0.020921 0.03487,-0.139476 0.03487,-0.216187 0,-0.62067 -0.83686,-0.71831 -1.12976,-0.73923 0.20224,-0.12553 0.46027,-0.35567 0.57883,-0.46027 0.35566,-0.33475 0.70436,-0.66252 1.09489,-0.66252 0.08369,0 0.17435,0.02092 0.23014,0.09066 -0.29988,0.04882 -0.36264,0.28593 -0.36264,0.39054 0,0.15342 0.11855,0.25803 0.27895,0.25803 0.1883,0 0.39751,-0.15343 0.39751,-0.44633 0,-0.23013 -0.16737,-0.48817 -0.53698,-0.48817 -0.39751,0 -0.76015,0.28593 -1.11582,0.6137 -0.2929,0.27896 -0.52304,0.49514 -0.80897,0.6137 z"
           inkscape:connector-curvature="0" />
        <path
           id="equation_03_04"
           d="m 2.33624,-4.43537 c 0,-0.18829 -0.01395,-0.19527 -0.20922,-0.19527 -0.44632,0.43936 -1.08094,0.44633 -1.366871,0.44633 v 0.25106 c 0.167373,0 0.627651,0 1.011211,-0.19527 v 3.556664 c 0,0.230137 0,0.320797 -0.69739,0.320797 H 0.808966 V 0 c 0.12553,-0.00697385 0.983314,-0.0278954 1.241344,-0.0278954 0.21619,0 1.0949,0.02092155 1.24832,0.0278954 V -0.251059 H 3.03362 c -0.69738,0 -0.69738,-0.09066 -0.69738,-0.320797 z"
           inkscape:connector-curvature="0" />
        <path
           id="equation_03_05"
           d="M 3.52179,-1.26924 H 3.28468 C 3.26376,-1.11582 3.19402,-0.704359 3.10336,-0.63462 3.04757,-0.592777 2.51059,-0.592777 2.41295,-0.592777 H 1.12976 C 1.86202,-1.24134 2.1061,-1.43661 2.52453,-1.76438 3.0406,-2.17584 3.52179,-2.60822 3.52179,-3.27073 c 0,-0.84384 -0.73922,-1.35991 -1.63188,-1.35991 -0.86475,0 -1.450558,0.60673 -1.450558,1.24832 0,0.35567 0.299876,0.39054 0.369614,0.39054 0.167373,0 0.369614,-0.11856 0.369614,-0.36961 0,-0.12553 -0.04882,-0.36962 -0.411457,-0.36962 0.21619,-0.49514 0.690407,-0.64857 1.018187,-0.64857 0.69738,0 1.06002,0.54396 1.06002,1.10885 0,0.60672 -0.43238,1.08792 -0.65554,1.33897 L 0.509091,-0.27198 C 0.439352,-0.209215 0.439352,-0.195268 0.439352,0 H 3.31258 Z"
           inkscape:connector-curvature="0" />
      </defs>
      <g
         id="equation_03_g">
        <use
           id="use1121"
           y="62.764599"
           xlink:href="#equation_03_01"
           x="76.712303"
           width="100%"
           height="100%" />
        <use
           id="use1123"
           y="58.841999"
           xlink:href="#equation_03_03"
           x="82.335701"
           width="100%"
           height="100%" />
        <use
           id="use1125"
           y="58.841999"
           xlink:href="#equation_03_00"
           x="86.739304"
           width="100%"
           height="100%" />
        <use
           id="use1127"
           y="58.841999"
           xlink:href="#equation_03_04"
           x="92.966003"
           width="100%"
           height="100%" />
        <rect
           id="rect1129"
           y="60.074699"
           x="82.335701"
           width="14.6016"
           height="0.39848399" />
        <use
           id="use1131"
           y="66.200104"
           xlink:href="#equation_03_05"
           x="87.650902"
           width="100%"
           height="100%" />
        <use
           id="use1133"
           y="62.764599"
           xlink:href="#equation_03_02"
           x="98.132797"
           width="100%"
           height="100%" />
      </g>
    </g>
  </g>
</svg>
