<?xml version="1.0" encoding="UTF-8" standalone="no"?>
<!-- Created with Inkscape (http://www.inkscape.org/) -->

<svg
   xmlns:dc="http://purl.org/dc/elements/1.1/"
   xmlns:cc="http://creativecommons.org/ns#"
   xmlns:rdf="http://www.w3.org/1999/02/22-rdf-syntax-ns#"
   xmlns:svg="http://www.w3.org/2000/svg"
   xmlns="http://www.w3.org/2000/svg"
   xmlns:xlink="http://www.w3.org/1999/xlink"
   xmlns:sodipodi="http://sodipodi.sourceforge.net/DTD/sodipodi-0.dtd"
   xmlns:inkscape="http://www.inkscape.org/namespaces/inkscape"
   width="106.7113mm"
   height="56.818451mm"
   viewBox="0 0 106.7113 56.818451"
   version="1.1"
   id="svg8"
   inkscape:version="0.92.4 (5da689c313, 2019-01-14)"
   sodipodi:docname="parent_to_child_idx.svg">
  <defs
     id="defs2" />
  <sodipodi:namedview
     id="base"
     pagecolor="#ffffff"
     bordercolor="#666666"
     borderopacity="1.0"
     inkscape:pageopacity="0.0"
     inkscape:pageshadow="2"
     inkscape:zoom="1.4"
     inkscape:cx="120.95805"
     inkscape:cy="104.77464"
     inkscape:document-units="mm"
     inkscape:current-layer="layer1"
     showgrid="false"
     inkscape:window-width="2560"
     inkscape:window-height="1315"
     inkscape:window-x="-13"
     inkscape:window-y="-13"
     inkscape:window-maximized="1"
     fit-margin-top="0"
     fit-margin-left="0"
     fit-margin-right="0"
     fit-margin-bottom="0" />
  <metadata
     id="metadata5">
    <rdf:RDF>
      <cc:Work
         rdf:about="">
        <dc:format>image/svg+xml</dc:format>
        <dc:type
           rdf:resource="http://purl.org/dc/dcmitype/StillImage" />
        <dc:title></dc:title>
      </cc:Work>
    </rdf:RDF>
  </metadata>
  <g
     inkscape:label="レイヤー 1"
     inkscape:groupmode="layer"
     id="layer1"
     transform="translate(-29.988094,-22.339287)">
    <g
       id="g1813"
       transform="translate(0.37797132)">
      <rect
         style="opacity:1;fill:none;fill-opacity:1;fill-rule:nonzero;stroke:#1a1a1a;stroke-width:0.5;stroke-miterlimit:4;stroke-dasharray:none;stroke-dashoffset:0;stroke-opacity:1"
         id="use851"
         width="43.278275"
         height="20.788691"
         x="39.6875"
         y="50.181549"
         inkscape:tile-x0="39.437499"
         inkscape:tile-y0="49.931548" />
      <rect
         style="opacity:1;fill:none;fill-opacity:1;fill-rule:nonzero;stroke:#1a1a1a;stroke-width:0.5;stroke-miterlimit:4;stroke-dasharray:none;stroke-dashoffset:0;stroke-opacity:1"
         id="use853"
         width="43.278275"
         height="20.788691"
         x="82.965775"
         y="50.181549"
         inkscape:tile-x0="39.437499"
         inkscape:tile-y0="49.931548" />
      <rect
         y="29.39286"
         x="39.6875"
         height="20.788687"
         width="86.556549"
         id="rect859"
         style="opacity:1;fill:none;fill-opacity:1;fill-rule:nonzero;stroke:#1a1a1a;stroke-width:0.4985621;stroke-miterlimit:4;stroke-dasharray:none;stroke-dashoffset:0;stroke-opacity:1" />
      <g
         transform="matrix(1.1500993,0,0,1.1500993,-8.3083431,-28.924202)"
         id="equation_00"
         style="fill:#000000"
         title="$k$">
        <defs
           id="defs876">
          <path
             inkscape:connector-curvature="0"
             d="m 2.85928,-6.80448 c 0,-0.00997 0,-0.10959 -0.12952,-0.10959 -0.22914,0 -0.95641,0.0797 -1.21544,0.09962 -0.0797,0.00997 -0.18929,0.01993 -0.18929,0.19926 0,0.11955 0.08966,0.11955 0.2391,0.11955 0.47821,0 0.49814,0.06974 0.49814,0.16936 l -0.02989,0.19926 -1.444584,5.738477 c -0.039851,0.139477 -0.039851,0.159402 -0.039851,0.219178 0,0.2291408 0.199253,0.278954 0.288917,0.278954 0.129514,0 0.278958,-0.0896637 0.338728,-0.2092154 C 1.2254,-0.18929 1.67372,-2.03238 1.7335,-2.28144 c 0.33873,0.02988 1.15567,0.18929 1.15567,0.84682 0,0.06974 0,0.10959 -0.02989,0.20922 -0.01993,0.11955 -0.03985,0.239099 -0.03985,0.348688 0,0.587795 0.3985,0.986301 0.91656,0.986301 0.29888,0 0.56787,-0.1594022 0.78705,-0.52802 0.24906,-0.438356 0.35865,-0.986299 0.35865,-1.006229 0,-0.09962 -0.08966,-0.09962 -0.11955,-0.09962 -0.09962,0 -0.10959,0.03985 -0.13947,0.17932 -0.19926,0.727276 -0.4284,1.235371 -0.86675,1.235371 -0.18929,0 -0.31881,-0.109589 -0.31881,-0.468244 0,-0.169365 0.03985,-0.398506 0.0797,-0.557907 0.03985,-0.16937 0.03985,-0.20922 0.03985,-0.30884 0,-0.64757 -0.62764,-0.93649 -1.47447,-1.04608 0.30884,-0.17933 0.62765,-0.49813 0.85679,-0.73724 0.47821,-0.52802 0.93649,-0.95641 1.42466,-0.95641 0.05977,0 0.06973,0 0.08966,0.00996 0.11955,0.01993 0.12951,0.01993 0.20922,0.0797 0.01992,0.00997 0.01992,0.01993 0.03985,0.03986 -0.47821,0.02988 -0.56787,0.41843 -0.56787,0.53798 0,0.1594 0.10958,0.34869 0.37858,0.34869 0.25902,0 0.54794,-0.21918 0.54794,-0.60772 0,-0.29888 -0.22914,-0.62765 -0.67746,-0.62765 -0.27895,0 -0.73723,0.0797 -1.45454,0.87672 -0.33873,0.37858 -0.72728,0.77708 -1.10586,0.92652 z"
             id="equation_00_00" />
        </defs>
        <g
           id="equation_00_g">
          <use
             height="100%"
             width="100%"
             x="76.712303"
             xlink:href="#equation_00_00"
             y="62.764599"
             id="use878" />
        </g>
      </g>
      <g
         transform="matrix(1.1500993,0,0,1.1500993,-42.52568,-7.8579322)"
         id="equation_01"
         style="fill:#000000"
         title="$2k+1$">
        <defs
           id="defs904">
          <path
             inkscape:connector-curvature="0"
             d="m 2.85928,-6.80448 c 0,-0.00997 0,-0.10959 -0.12952,-0.10959 -0.22914,0 -0.95641,0.0797 -1.21544,0.09962 -0.0797,0.00997 -0.18929,0.01993 -0.18929,0.19926 0,0.11955 0.08966,0.11955 0.2391,0.11955 0.47821,0 0.49814,0.06974 0.49814,0.16936 l -0.02989,0.19926 -1.444584,5.738477 c -0.039851,0.139477 -0.039851,0.159402 -0.039851,0.219178 0,0.2291408 0.199253,0.278954 0.288917,0.278954 0.129514,0 0.278958,-0.0896637 0.338728,-0.2092154 C 1.2254,-0.18929 1.67372,-2.03238 1.7335,-2.28144 c 0.33873,0.02988 1.15567,0.18929 1.15567,0.84682 0,0.06974 0,0.10959 -0.02989,0.20922 -0.01993,0.11955 -0.03985,0.239099 -0.03985,0.348688 0,0.587795 0.3985,0.986301 0.91656,0.986301 0.29888,0 0.56787,-0.1594022 0.78705,-0.52802 0.24906,-0.438356 0.35865,-0.986299 0.35865,-1.006229 0,-0.09962 -0.08966,-0.09962 -0.11955,-0.09962 -0.09962,0 -0.10959,0.03985 -0.13947,0.17932 -0.19926,0.727276 -0.4284,1.235371 -0.86675,1.235371 -0.18929,0 -0.31881,-0.109589 -0.31881,-0.468244 0,-0.169365 0.03985,-0.398506 0.0797,-0.557907 0.03985,-0.16937 0.03985,-0.20922 0.03985,-0.30884 0,-0.64757 -0.62764,-0.93649 -1.47447,-1.04608 0.30884,-0.17933 0.62765,-0.49813 0.85679,-0.73724 0.47821,-0.52802 0.93649,-0.95641 1.42466,-0.95641 0.05977,0 0.06973,0 0.08966,0.00996 0.11955,0.01993 0.12951,0.01993 0.20922,0.0797 0.01992,0.00997 0.01992,0.01993 0.03985,0.03986 -0.47821,0.02988 -0.56787,0.41843 -0.56787,0.53798 0,0.1594 0.10958,0.34869 0.37858,0.34869 0.25902,0 0.54794,-0.21918 0.54794,-0.60772 0,-0.29888 -0.22914,-0.62765 -0.67746,-0.62765 -0.27895,0 -0.73723,0.0797 -1.45454,0.87672 -0.33873,0.37858 -0.72728,0.77708 -1.10586,0.92652 z"
             id="equation_01_00" />
          <path
             inkscape:connector-curvature="0"
             d="M 4.07472,-2.29141 H 6.8543 c 0.13947,0 0.32876,0 0.32876,-0.19925 0,-0.19925 -0.18929,-0.19925 -0.32876,-0.19925 H 4.07472 v -2.78954 c 0,-0.13948 0,-0.32877 -0.19925,-0.32877 -0.19925,0 -0.19926,0.18929 -0.19926,0.32877 v 2.78954 H 0.886675 c -0.139477,0 -0.328767,0 -0.328767,0.19925 0,0.19925 0.18929,0.19925 0.328767,0.19925 H 3.67621 v 2.789542 c 0,0.139477 0,0.328767 0.19926,0.328767 0.19926,0 0.19925,-0.18929 0.19925,-0.328767 z"
             id="equation_01_01" />
          <path
             inkscape:connector-curvature="0"
             d="m 2.92902,-6.37609 c 0,-0.2391 0,-0.25903 -0.22914,-0.25903 -0.61769,0.63761 -1.4944,0.63761 -1.813205,0.63761 v 0.30884 c 0.199255,0 0.787045,0 1.305105,-0.25903 v 5.160651 c 0,0.358655 -0.02989,0.478207 -0.92652,0.478207 H 0.946451 V 0 C 1.29514,-0.0298879 2.16189,-0.0298879 2.5604,-0.0298879 c 0.39851,0 1.26525,0 1.61395,0.0298879 V -0.308842 H 3.85554 c -0.89664,0 -0.92652,-0.109589 -0.92652,-0.478207 z"
             id="equation_01_02" />
          <path
             inkscape:connector-curvature="0"
             d="M 1.26526,-0.767123 2.3213,-1.79328 c 1.55417,-1.37484 2.15193,-1.91282 2.15193,-2.90909 0,-1.13574 -0.89664,-1.93275 -2.11208,-1.93275 -1.12578,0 -1.863018,0.91656 -1.863018,1.80324 0,0.55791 0.498132,0.55791 0.528018,0.55791 0.16937,0 0.51806,-0.11955 0.51806,-0.52802 0,-0.25903 -0.17933,-0.51806 -0.52802,-0.51806 -0.079702,0 -0.099627,0 -0.129515,0.00996 0.229145,-0.64757 0.767125,-1.01619 1.344955,-1.01619 0.9066,0 1.335,0.80698 1.335,1.62391 0,0.79702 -0.49814,1.58406 -1.04608,2.20175 L 0.607721,-0.368618 C 0.498132,-0.259029 0.498132,-0.239103 0.498132,0 H 4.19427 L 4.47323,-1.7335 H 4.22416 c -0.04981,0.29888 -0.11955,0.737236 -0.21918,0.886676 -0.06974,0.079701 -0.72727,0.079701 -0.94645,0.079701 z"
             id="equation_01_03" />
        </defs>
        <g
           id="equation_01_g">
          <use
             height="100%"
             width="100%"
             x="76.712303"
             xlink:href="#equation_01_03"
             y="62.764599"
             id="use906" />
          <use
             height="100%"
             width="100%"
             x="81.693703"
             xlink:href="#equation_01_00"
             y="62.764599"
             id="use908" />
          <use
             height="100%"
             width="100%"
             x="89.407799"
             xlink:href="#equation_01_01"
             y="62.764599"
             id="use910" />
          <use
             height="100%"
             width="100%"
             x="99.370399"
             xlink:href="#equation_01_02"
             y="62.764599"
             id="use912" />
        </g>
      </g>
      <g
         transform="matrix(1.1500993,0,0,1.1500993,0.04841172,-7.8579322)"
         id="equation_02"
         style="fill:#000000"
         title="$2k+2$">
        <defs
           id="defs954">
          <path
             inkscape:connector-curvature="0"
             d="M 4.07472,-2.29141 H 6.8543 c 0.13947,0 0.32876,0 0.32876,-0.19925 0,-0.19925 -0.18929,-0.19925 -0.32876,-0.19925 H 4.07472 v -2.78954 c 0,-0.13948 0,-0.32877 -0.19925,-0.32877 -0.19925,0 -0.19926,0.18929 -0.19926,0.32877 v 2.78954 H 0.886675 c -0.139477,0 -0.328767,0 -0.328767,0.19925 0,0.19925 0.18929,0.19925 0.328767,0.19925 H 3.67621 v 2.789542 c 0,0.139477 0,0.328767 0.19926,0.328767 0.19926,0 0.19925,-0.18929 0.19925,-0.328767 z"
             id="equation_02_00" />
          <path
             inkscape:connector-curvature="0"
             d="M 1.26526,-0.767123 2.3213,-1.79328 c 1.55417,-1.37484 2.15193,-1.91282 2.15193,-2.90909 0,-1.13574 -0.89664,-1.93275 -2.11208,-1.93275 -1.12578,0 -1.863018,0.91656 -1.863018,1.80324 0,0.55791 0.498132,0.55791 0.528018,0.55791 0.16937,0 0.51806,-0.11955 0.51806,-0.52802 0,-0.25903 -0.17933,-0.51806 -0.52802,-0.51806 -0.079702,0 -0.099627,0 -0.129515,0.00996 0.229145,-0.64757 0.767125,-1.01619 1.344955,-1.01619 0.9066,0 1.335,0.80698 1.335,1.62391 0,0.79702 -0.49814,1.58406 -1.04608,2.20175 L 0.607721,-0.368618 C 0.498132,-0.259029 0.498132,-0.239103 0.498132,0 H 4.19427 L 4.47323,-1.7335 H 4.22416 c -0.04981,0.29888 -0.11955,0.737236 -0.21918,0.886676 -0.06974,0.079701 -0.72727,0.079701 -0.94645,0.079701 z"
             id="equation_02_01" />
          <path
             inkscape:connector-curvature="0"
             d="m 2.85928,-6.80448 c 0,-0.00997 0,-0.10959 -0.12952,-0.10959 -0.22914,0 -0.95641,0.0797 -1.21544,0.09962 -0.0797,0.00997 -0.18929,0.01993 -0.18929,0.19926 0,0.11955 0.08966,0.11955 0.2391,0.11955 0.47821,0 0.49814,0.06974 0.49814,0.16936 l -0.02989,0.19926 -1.444584,5.738477 c -0.039851,0.139477 -0.039851,0.159402 -0.039851,0.219178 0,0.2291408 0.199253,0.278954 0.288917,0.278954 0.129514,0 0.278958,-0.0896637 0.338728,-0.2092154 C 1.2254,-0.18929 1.67372,-2.03238 1.7335,-2.28144 c 0.33873,0.02988 1.15567,0.18929 1.15567,0.84682 0,0.06974 0,0.10959 -0.02989,0.20922 -0.01993,0.11955 -0.03985,0.239099 -0.03985,0.348688 0,0.587795 0.3985,0.986301 0.91656,0.986301 0.29888,0 0.56787,-0.1594022 0.78705,-0.52802 0.24906,-0.438356 0.35865,-0.986299 0.35865,-1.006229 0,-0.09962 -0.08966,-0.09962 -0.11955,-0.09962 -0.09962,0 -0.10959,0.03985 -0.13947,0.17932 -0.19926,0.727276 -0.4284,1.235371 -0.86675,1.235371 -0.18929,0 -0.31881,-0.109589 -0.31881,-0.468244 0,-0.169365 0.03985,-0.398506 0.0797,-0.557907 0.03985,-0.16937 0.03985,-0.20922 0.03985,-0.30884 0,-0.64757 -0.62764,-0.93649 -1.47447,-1.04608 0.30884,-0.17933 0.62765,-0.49813 0.85679,-0.73724 0.47821,-0.52802 0.93649,-0.95641 1.42466,-0.95641 0.05977,0 0.06973,0 0.08966,0.00996 0.11955,0.01993 0.12951,0.01993 0.20922,0.0797 0.01992,0.00997 0.01992,0.01993 0.03985,0.03986 -0.47821,0.02988 -0.56787,0.41843 -0.56787,0.53798 0,0.1594 0.10958,0.34869 0.37858,0.34869 0.25902,0 0.54794,-0.21918 0.54794,-0.60772 0,-0.29888 -0.22914,-0.62765 -0.67746,-0.62765 -0.27895,0 -0.73723,0.0797 -1.45454,0.87672 -0.33873,0.37858 -0.72728,0.77708 -1.10586,0.92652 z"
             id="equation_02_02" />
        </defs>
        <g
           id="equation_02_g">
          <use
             height="100%"
             width="100%"
             x="76.712303"
             xlink:href="#equation_02_01"
             y="62.764599"
             id="use956" />
          <use
             height="100%"
             width="100%"
             x="81.693703"
             xlink:href="#equation_02_02"
             y="62.764599"
             id="use958" />
          <use
             height="100%"
             width="100%"
             x="89.407799"
             xlink:href="#equation_02_00"
             y="62.764599"
             id="use960" />
          <use
             height="100%"
             width="100%"
             x="99.370399"
             xlink:href="#equation_02_01"
             y="62.764599"
             id="use962" />
        </g>
      </g>
    </g>
  </g>
</svg>
