<?xml version="1.0" encoding="UTF-8" standalone="no"?>
<svg
   xmlns:dc="http://purl.org/dc/elements/1.1/"
   xmlns:cc="http://creativecommons.org/ns#"
   xmlns:rdf="http://www.w3.org/1999/02/22-rdf-syntax-ns#"
   xmlns:svg="http://www.w3.org/2000/svg"
   xmlns="http://www.w3.org/2000/svg"
   xmlns:xlink="http://www.w3.org/1999/xlink"
   xmlns:sodipodi="http://sodipodi.sourceforge.net/DTD/sodipodi-0.dtd"
   xmlns:inkscape="http://www.inkscape.org/namespaces/inkscape"
   width="1075.147"
   height="394.25702"
   version="1.1"
   id="svg2448"
   sodipodi:docname="t1_t2.svg"
   inkscape:version="0.92.4 (5da689c313, 2019-01-14)">
  <metadata
     id="metadata2454">
    <rdf:RDF>
      <cc:Work
         rdf:about="">
        <dc:format>image/svg+xml</dc:format>
        <dc:type
           rdf:resource="http://purl.org/dc/dcmitype/StillImage" />
        <dc:title></dc:title>
      </cc:Work>
    </rdf:RDF>
  </metadata>
  <defs
     id="defs2452" />
  <sodipodi:namedview
     pagecolor="#ffffff"
     bordercolor="#666666"
     borderopacity="1"
     objecttolerance="10"
     gridtolerance="10"
     guidetolerance="10"
     inkscape:pageopacity="0"
     inkscape:pageshadow="2"
     inkscape:window-width="2560"
     inkscape:window-height="1315"
     id="namedview2450"
     showgrid="false"
     fit-margin-top="0"
     fit-margin-left="0"
     fit-margin-right="0"
     fit-margin-bottom="0"
     inkscape:zoom="0.944"
     inkscape:cx="789.65255"
     inkscape:cy="188.01723"
     inkscape:window-x="-13"
     inkscape:window-y="-13"
     inkscape:window-maximized="1"
     inkscape:current-layer="svg2448" />
  <g
     id="g4866"
     transform="translate(49.085198,185.19744)">
    <g
       id="g2446"
       transform="translate(0.63029099,130.53094)"
       class="circles">
      <g
         id="g2354"
         transform="translate(40)"
         class="circle-text">
        <circle
           style="fill:#4682b4;stroke:#0000ff"
           cy="0"
           cx="0"
           id="circle2350"
           r="20" />
        <text
           style="font-size:20px;dominant-baseline:central;text-anchor:middle;fill:#ffffff;stroke:#ffffff"
           id="text2352"
           font-size="20"
           dominant-baseline="central">0</text>
      </g>
      <g
         id="g2360"
         transform="translate(100)"
         class="circle-text">
        <circle
           style="fill:#4682b4;stroke:#0000ff"
           cy="0"
           cx="0"
           id="circle2356"
           r="20" />
        <text
           style="font-size:20px;dominant-baseline:central;text-anchor:middle;fill:#ffffff;stroke:#ffffff"
           id="text2358"
           font-size="20"
           dominant-baseline="central">25</text>
      </g>
      <g
         id="g2366"
         transform="translate(160)"
         class="circle-text">
        <circle
           style="fill:#4682b4;stroke:#0000ff"
           cy="0"
           cx="0"
           id="circle2362"
           r="20" />
        <text
           style="font-size:20px;dominant-baseline:central;text-anchor:middle;fill:#ffffff;stroke:#ffffff"
           id="text2364"
           font-size="20"
           dominant-baseline="central">19</text>
      </g>
      <g
         id="g2372"
         transform="translate(220)"
         class="circle-text">
        <circle
           style="fill:#4682b4;stroke:#0000ff"
           cy="0"
           cx="0"
           id="circle2368"
           r="20" />
        <text
           style="font-size:20px;dominant-baseline:central;text-anchor:middle;fill:#ffffff;stroke:#ffffff"
           id="text2370"
           font-size="20"
           dominant-baseline="central">44</text>
      </g>
      <g
         id="g2378"
         transform="translate(280)"
         class="circle-text">
        <circle
           style="fill:#4682b4;stroke:#0000ff"
           cy="0"
           cx="0"
           id="circle2374"
           r="20" />
        <text
           style="font-size:20px;dominant-baseline:central;text-anchor:middle;fill:#ffffff;stroke:#ffffff"
           id="text2376"
           font-size="20"
           dominant-baseline="central">28</text>
      </g>
      <g
         id="g2384"
         transform="translate(340)"
         class="circle-text">
        <circle
           style="fill:#4682b4;stroke:#0000ff"
           cy="0"
           cx="0"
           id="circle2380"
           r="20" />
        <text
           style="font-size:20px;dominant-baseline:central;text-anchor:middle;fill:#ffffff;stroke:#ffffff"
           id="text2382"
           font-size="20"
           dominant-baseline="central">53</text>
      </g>
      <g
         id="g2390"
         transform="translate(400)"
         class="circle-text">
        <circle
           style="fill:#4682b4;stroke:#0000ff"
           cy="0"
           cx="0"
           id="circle2386"
           r="20" />
        <text
           style="font-size:20px;dominant-baseline:central;text-anchor:middle;fill:#ffffff;stroke:#ffffff"
           id="text2388"
           font-size="20"
           dominant-baseline="central">47</text>
      </g>
      <g
         id="g2396"
         transform="translate(460)"
         class="circle-text">
        <circle
           style="fill:#4682b4;stroke:#0000ff"
           cy="0"
           cx="0"
           id="circle2392"
           r="20" />
        <text
           style="font-size:20px;dominant-baseline:central;text-anchor:middle;fill:#ffffff;stroke:#ffffff"
           id="text2394"
           font-size="20"
           dominant-baseline="central">72</text>
      </g>
      <g
         id="g2402"
         transform="translate(520)"
         class="circle-text">
        <circle
           style="fill:#4682b4;stroke:#0000ff"
           cy="0"
           cx="0"
           id="circle2398"
           r="20" />
        <text
           style="font-size:20px;dominant-baseline:central;text-anchor:middle;fill:#ffffff;stroke:#ffffff"
           id="text2400"
           font-size="20"
           dominant-baseline="central">16</text>
      </g>
      <g
         id="g2408"
         transform="translate(580)"
         class="circle-text">
        <circle
           style="fill:#4682b4;stroke:#0000ff"
           cy="0"
           cx="0"
           id="circle2404"
           r="20" />
        <text
           style="font-size:20px;dominant-baseline:central;text-anchor:middle;fill:#ffffff;stroke:#ffffff"
           id="text2406"
           font-size="20"
           dominant-baseline="central">41</text>
      </g>
      <g
         id="g2414"
         transform="translate(640)"
         class="circle-text">
        <circle
           style="fill:#4682b4;stroke:#0000ff"
           cy="0"
           cx="0"
           id="circle2410"
           r="20" />
        <text
           style="font-size:20px;dominant-baseline:central;text-anchor:middle;fill:#ffffff;stroke:#ffffff"
           id="text2412"
           font-size="20"
           dominant-baseline="central">35</text>
      </g>
      <g
         id="g2420"
         transform="translate(700)"
         class="circle-text">
        <circle
           style="fill:#4682b4;stroke:#0000ff"
           cy="0"
           cx="0"
           id="circle2416"
           r="20" />
        <text
           style="font-size:20px;dominant-baseline:central;text-anchor:middle;fill:#ffffff;stroke:#ffffff"
           id="text2418"
           font-size="20"
           dominant-baseline="central">60</text>
      </g>
      <g
         id="g2426"
         transform="translate(760)"
         class="circle-text">
        <circle
           style="fill:#4682b4;stroke:#0000ff"
           cy="0"
           cx="0"
           id="circle2422"
           r="20" />
        <text
           style="font-size:20px;dominant-baseline:central;text-anchor:middle;fill:#ffffff;stroke:#ffffff"
           id="text2424"
           font-size="20"
           dominant-baseline="central">44</text>
      </g>
      <g
         id="g2432"
         transform="translate(820)"
         class="circle-text">
        <circle
           style="fill:#4682b4;stroke:#0000ff"
           cy="0"
           cx="0"
           id="circle2428"
           r="20" />
        <text
           style="font-size:20px;dominant-baseline:central;text-anchor:middle;fill:#ffffff;stroke:#ffffff"
           id="text2430"
           font-size="20"
           dominant-baseline="central">69</text>
      </g>
      <g
         id="g2438"
         transform="translate(880)"
         class="circle-text">
        <circle
           style="fill:#4682b4;stroke:#0000ff"
           cy="0"
           cx="0"
           id="circle2434"
           r="20" />
        <text
           style="font-size:20px;dominant-baseline:central;text-anchor:middle;fill:#ffffff;stroke:#ffffff"
           id="text2436"
           font-size="20"
           dominant-baseline="central">63</text>
      </g>
      <g
         id="g2444"
         transform="translate(940)"
         class="circle-text">
        <circle
           style="fill:#4682b4;stroke:#0000ff"
           cy="0"
           cx="0"
           id="circle2440"
           r="20" />
        <text
           style="font-size:20px;dominant-baseline:central;text-anchor:middle;fill:#ffffff;stroke:#ffffff"
           id="text2442"
           font-size="20"
           dominant-baseline="central">88</text>
      </g>
    </g>
    <rect
       y="84.466583"
       x="-22.613361"
       height="92.128723"
       width="1026.4873"
       id="rect4814"
       style="opacity:1;fill:none;fill-opacity:1;fill-rule:nonzero;stroke:#040000;stroke-width:4.00044632;stroke-miterlimit:4;stroke-dasharray:16.00178565, 4.00044641;stroke-dashoffset:0;stroke-opacity:0.98360656" />
  </g>
  <g
     id="g4933"
     transform="translate(43.092836,104.0742)">
    <g
       id="g2348"
       transform="translate(6.6226521,27.391846)"
       class="circles">
      <g
         id="g2256"
         transform="translate(40)"
         class="circle-text">
        <circle
           style="fill:#4682b4;stroke:#0000ff"
           cy="0"
           cx="0"
           id="circle2252"
           r="20" />
        <text
           style="font-size:20px;dominant-baseline:central;text-anchor:middle;fill:#ffffff;stroke:#ffffff"
           id="text2254"
           font-size="20"
           dominant-baseline="central">0</text>
      </g>
      <g
         id="g2262"
         transform="translate(100)"
         class="circle-text">
        <circle
           style="fill:#4682b4;stroke:#0000ff"
           cy="0"
           cx="0"
           id="circle2258"
           r="20" />
        <text
           style="font-size:20px;dominant-baseline:central;text-anchor:middle;fill:#ffffff;stroke:#ffffff"
           id="text2260"
           font-size="20"
           dominant-baseline="central">9</text>
      </g>
      <g
         id="g2268"
         transform="translate(160)"
         class="circle-text">
        <circle
           style="fill:#4682b4;stroke:#0000ff"
           cy="0"
           cx="0"
           id="circle2264"
           r="20" />
        <text
           style="font-size:20px;dominant-baseline:central;text-anchor:middle;fill:#ffffff;stroke:#ffffff"
           id="text2266"
           font-size="20"
           dominant-baseline="central">17</text>
      </g>
      <g
         id="g2274"
         transform="translate(220)"
         class="circle-text">
        <circle
           style="fill:#4682b4;stroke:#0000ff"
           cy="0"
           cx="0"
           id="circle2270"
           r="20" />
        <text
           style="font-size:20px;dominant-baseline:central;text-anchor:middle;fill:#ffffff;stroke:#ffffff"
           id="text2272"
           font-size="20"
           dominant-baseline="central">26</text>
      </g>
      <g
         id="g2280"
         transform="translate(280)"
         class="circle-text">
        <circle
           style="fill:#4682b4;stroke:#0000ff"
           cy="0"
           cx="0"
           id="circle2276"
           r="20" />
        <text
           style="font-size:20px;dominant-baseline:central;text-anchor:middle;fill:#ffffff;stroke:#ffffff"
           id="text2278"
           font-size="20"
           dominant-baseline="central">7</text>
      </g>
      <g
         id="g2286"
         transform="translate(340)"
         class="circle-text">
        <circle
           style="fill:#4682b4;stroke:#0000ff"
           cy="0"
           cx="0"
           id="circle2282"
           r="20" />
        <text
           style="font-size:20px;dominant-baseline:central;text-anchor:middle;fill:#ffffff;stroke:#ffffff"
           id="text2284"
           font-size="20"
           dominant-baseline="central">16</text>
      </g>
      <g
         id="g2292"
         transform="translate(400)"
         class="circle-text">
        <circle
           style="fill:#4682b4;stroke:#0000ff"
           cy="0"
           cx="0"
           id="circle2288"
           r="20" />
        <text
           style="font-size:20px;dominant-baseline:central;text-anchor:middle;fill:#ffffff;stroke:#ffffff"
           id="text2290"
           font-size="20"
           dominant-baseline="central">24</text>
      </g>
      <g
         id="g2298"
         transform="translate(460)"
         class="circle-text">
        <circle
           style="fill:#4682b4;stroke:#0000ff"
           cy="0"
           cx="0"
           id="circle2294"
           r="20" />
        <text
           style="font-size:20px;dominant-baseline:central;text-anchor:middle;fill:#ffffff;stroke:#ffffff"
           id="text2296"
           font-size="20"
           dominant-baseline="central">33</text>
      </g>
      <g
         id="g2304"
         transform="translate(520)"
         class="circle-text">
        <circle
           style="fill:#4682b4;stroke:#0000ff"
           cy="0"
           cx="0"
           id="circle2300"
           r="20" />
        <text
           style="font-size:20px;dominant-baseline:central;text-anchor:middle;fill:#ffffff;stroke:#ffffff"
           id="text2302"
           font-size="20"
           dominant-baseline="central">5</text>
      </g>
      <g
         id="g2310"
         transform="translate(580)"
         class="circle-text">
        <circle
           style="fill:#4682b4;stroke:#0000ff"
           cy="0"
           cx="0"
           id="circle2306"
           r="20" />
        <text
           style="font-size:20px;dominant-baseline:central;text-anchor:middle;fill:#ffffff;stroke:#ffffff"
           id="text2308"
           font-size="20"
           dominant-baseline="central">14</text>
      </g>
      <g
         id="g2316"
         transform="translate(640)"
         class="circle-text">
        <circle
           style="fill:#4682b4;stroke:#0000ff"
           cy="0"
           cx="0"
           id="circle2312"
           r="20" />
        <text
           style="font-size:20px;dominant-baseline:central;text-anchor:middle;fill:#ffffff;stroke:#ffffff"
           id="text2314"
           font-size="20"
           dominant-baseline="central">22</text>
      </g>
      <g
         id="g2322"
         transform="translate(700)"
         class="circle-text">
        <circle
           style="fill:#4682b4;stroke:#0000ff"
           cy="0"
           cx="0"
           id="circle2318"
           r="20" />
        <text
           style="font-size:20px;dominant-baseline:central;text-anchor:middle;fill:#ffffff;stroke:#ffffff"
           id="text2320"
           font-size="20"
           dominant-baseline="central">31</text>
      </g>
      <g
         id="g2328"
         transform="translate(760)"
         class="circle-text">
        <circle
           style="fill:#4682b4;stroke:#0000ff"
           cy="0"
           cx="0"
           id="circle2324"
           r="20" />
        <text
           style="font-size:20px;dominant-baseline:central;text-anchor:middle;fill:#ffffff;stroke:#ffffff"
           id="text2326"
           font-size="20"
           dominant-baseline="central">12</text>
      </g>
      <g
         id="g2334"
         transform="translate(820)"
         class="circle-text">
        <circle
           style="fill:#4682b4;stroke:#0000ff"
           cy="0"
           cx="0"
           id="circle2330"
           r="20" />
        <text
           style="font-size:20px;dominant-baseline:central;text-anchor:middle;fill:#ffffff;stroke:#ffffff"
           id="text2332"
           font-size="20"
           dominant-baseline="central">21</text>
      </g>
      <g
         id="g2340"
         transform="translate(880)"
         class="circle-text">
        <circle
           style="fill:#4682b4;stroke:#0000ff"
           cy="0"
           cx="0"
           id="circle2336"
           r="20" />
        <text
           style="font-size:20px;dominant-baseline:central;text-anchor:middle;fill:#ffffff;stroke:#ffffff"
           id="text2338"
           font-size="20"
           dominant-baseline="central">29</text>
      </g>
      <g
         id="g2346"
         transform="translate(940)"
         class="circle-text">
        <circle
           style="fill:#4682b4;stroke:#0000ff"
           cy="0"
           cx="0"
           id="circle2342"
           r="20" />
        <text
           style="font-size:20px;dominant-baseline:central;text-anchor:middle;fill:#ffffff;stroke:#ffffff"
           id="text2344"
           font-size="20"
           dominant-baseline="central">38</text>
      </g>
    </g>
    <rect
       style="opacity:1;fill:none;fill-opacity:1;fill-rule:nonzero;stroke:#040000;stroke-width:4.00044632;stroke-miterlimit:4;stroke-dasharray:16.00178565, 4.00044641;stroke-dashoffset:0;stroke-opacity:0.98360656"
       id="rect4814-1"
       width="1026.4873"
       height="92.128723"
       x="-16.621"
       y="-18.672516" />
  </g>
  <g
     title="$T_1$"
     style="fill:#000000"
     id="equation_00"
     transform="matrix(6.4548623,0,0,6.4548623,-447.45207,-340.83055)">
    <defs
       id="defs5042">
      <path
         id="equation_00_00"
         d="m 4.25405,-6.04732 c 0.06974,-0.27896 0.10959,-0.33873 0.22914,-0.36862 0.08966,-0.01993 0.41843,-0.01993 0.62764,-0.01993 1.00623,0 1.45455,0.03986 1.45455,0.81694 0,0.14944 -0.03985,0.53798 -0.0797,0.79701 -0.00996,0.03985 -0.02989,0.1594 -0.02989,0.18929 0,0.05978 0.02989,0.12952 0.11955,0.12952 0.10959,0 0.12952,-0.0797 0.14944,-0.22914 l 0.26899,-1.7335 C 7.00374,-6.5056 7.0137,-6.60523 7.0137,-6.63512 c 0,-0.10959 -0.09963,-0.10959 -0.26899,-0.10959 H 1.21544 c -0.239101,0 -0.249064,0.00997 -0.318802,0.19926 l -0.597759,1.75342 c -0.009962,0.01993 -0.059776,0.1594 -0.059776,0.17933 0,0.05977 0.049814,0.10959 0.119552,0.10959 0.099626,0 0.109589,-0.04982 0.169365,-0.20922 C 1.066,-6.25654 1.32503,-6.43587 2.7995,-6.43587 h 0.38854 c 0.27896,0 0.27896,0.03986 0.27896,0.11956 0,0.05977 -0.02989,0.17932 -0.03985,0.20921 l -1.335,5.320051 c -0.08966,0.368618 -0.11955,0.478207 -1.18555,0.478207 -0.358655,0 -0.418431,0 -0.418431,0.18929 C 0.488169,0 0.597758,0 0.657534,0 0.926526,0 1.20548,-0.0199253 1.47447,-0.0199253 c 0.27895,0 0.56787,-0.0099626 0.84683,-0.0099626 0.27896,0 0.5579,0.0099626 0.82689,0.0099626 C 3.43711,-0.0199253 3.73599,0 4.01494,0 c 0.09963,0 0.21918,0 0.21918,-0.199253 0,-0.109589 -0.0797,-0.109589 -0.33873,-0.109589 -0.24906,0 -0.37858,0 -0.63761,-0.019925 -0.28891,-0.029888 -0.36861,-0.059776 -0.36861,-0.219178 0,-0.009963 0,-0.059776 0.03985,-0.209216 z"
         inkscape:connector-curvature="0" />
      <path
         id="equation_00_01"
         d="m 2.33624,-4.43537 c 0,-0.18829 -0.01395,-0.19527 -0.20922,-0.19527 -0.44632,0.43936 -1.08094,0.44633 -1.366871,0.44633 v 0.25106 c 0.167373,0 0.627651,0 1.011211,-0.19527 v 3.556664 c 0,0.230137 0,0.320797 -0.69739,0.320797 H 0.808966 V 0 c 0.12553,-0.00697385 0.983314,-0.0278954 1.241344,-0.0278954 0.21619,0 1.0949,0.02092155 1.24832,0.0278954 V -0.251059 H 3.03362 c -0.69738,0 -0.69738,-0.09066 -0.69738,-0.320797 z"
         inkscape:connector-curvature="0" />
    </defs>
    <g
       id="equation_00_g">
      <use
         id="use5044"
         y="62.764599"
         xlink:href="#equation_00_00"
         x="76.712303"
         width="100%"
         height="100%" />
      <use
         id="use5046"
         y="64.259003"
         xlink:href="#equation_00_01"
         x="82.534302"
         width="100%"
         height="100%" />
    </g>
  </g>
  <g
     title="$T_2$"
     style="fill:#000000"
     id="equation_01"
     transform="matrix(6.4548623,0,0,6.4548623,-447.45207,-153.5671)">
    <defs
       id="defs5172">
      <path
         id="equation_01_00"
         d="m 4.25405,-6.04732 c 0.06974,-0.27896 0.10959,-0.33873 0.22914,-0.36862 0.08966,-0.01993 0.41843,-0.01993 0.62764,-0.01993 1.00623,0 1.45455,0.03986 1.45455,0.81694 0,0.14944 -0.03985,0.53798 -0.0797,0.79701 -0.00996,0.03985 -0.02989,0.1594 -0.02989,0.18929 0,0.05978 0.02989,0.12952 0.11955,0.12952 0.10959,0 0.12952,-0.0797 0.14944,-0.22914 l 0.26899,-1.7335 C 7.00374,-6.5056 7.0137,-6.60523 7.0137,-6.63512 c 0,-0.10959 -0.09963,-0.10959 -0.26899,-0.10959 H 1.21544 c -0.239101,0 -0.249064,0.00997 -0.318802,0.19926 l -0.597759,1.75342 c -0.009962,0.01993 -0.059776,0.1594 -0.059776,0.17933 0,0.05977 0.049814,0.10959 0.119552,0.10959 0.099626,0 0.109589,-0.04982 0.169365,-0.20922 C 1.066,-6.25654 1.32503,-6.43587 2.7995,-6.43587 h 0.38854 c 0.27896,0 0.27896,0.03986 0.27896,0.11956 0,0.05977 -0.02989,0.17932 -0.03985,0.20921 l -1.335,5.320051 c -0.08966,0.368618 -0.11955,0.478207 -1.18555,0.478207 -0.358655,0 -0.418431,0 -0.418431,0.18929 C 0.488169,0 0.597758,0 0.657534,0 0.926526,0 1.20548,-0.0199253 1.47447,-0.0199253 c 0.27895,0 0.56787,-0.0099626 0.84683,-0.0099626 0.27896,0 0.5579,0.0099626 0.82689,0.0099626 C 3.43711,-0.0199253 3.73599,0 4.01494,0 c 0.09963,0 0.21918,0 0.21918,-0.199253 0,-0.109589 -0.0797,-0.109589 -0.33873,-0.109589 -0.24906,0 -0.37858,0 -0.63761,-0.019925 -0.28891,-0.029888 -0.36861,-0.059776 -0.36861,-0.219178 0,-0.009963 0,-0.059776 0.03985,-0.209216 z"
         inkscape:connector-curvature="0" />
      <path
         id="equation_01_01"
         d="M 3.52179,-1.26924 H 3.28468 C 3.26376,-1.11582 3.19402,-0.704359 3.10336,-0.63462 3.04757,-0.592777 2.51059,-0.592777 2.41295,-0.592777 H 1.12976 C 1.86202,-1.24134 2.1061,-1.43661 2.52453,-1.76438 3.0406,-2.17584 3.52179,-2.60822 3.52179,-3.27073 c 0,-0.84384 -0.73922,-1.35991 -1.63188,-1.35991 -0.86475,0 -1.450558,0.60673 -1.450558,1.24832 0,0.35567 0.299876,0.39054 0.369614,0.39054 0.167373,0 0.369614,-0.11856 0.369614,-0.36961 0,-0.12553 -0.04882,-0.36962 -0.411457,-0.36962 0.21619,-0.49514 0.690407,-0.64857 1.018187,-0.64857 0.69738,0 1.06002,0.54396 1.06002,1.10885 0,0.60672 -0.43238,1.08792 -0.65554,1.33897 L 0.509091,-0.27198 C 0.439352,-0.209215 0.439352,-0.195268 0.439352,0 H 3.31258 Z"
         inkscape:connector-curvature="0" />
    </defs>
    <g
       id="equation_01_g">
      <use
         id="use5174"
         y="62.764599"
         xlink:href="#equation_01_00"
         x="76.712303"
         width="100%"
         height="100%" />
      <use
         id="use5176"
         y="64.259003"
         xlink:href="#equation_01_01"
         x="82.534302"
         width="100%"
         height="100%" />
    </g>
  </g>
</svg>
