<?xml version="1.0" encoding="UTF-8" standalone="no"?>
<svg
   xmlns:dc="http://purl.org/dc/elements/1.1/"
   xmlns:cc="http://creativecommons.org/ns#"
   xmlns:rdf="http://www.w3.org/1999/02/22-rdf-syntax-ns#"
   xmlns:svg="http://www.w3.org/2000/svg"
   xmlns="http://www.w3.org/2000/svg"
   xmlns:xlink="http://www.w3.org/1999/xlink"
   xmlns:sodipodi="http://sodipodi.sourceforge.net/DTD/sodipodi-0.dtd"
   xmlns:inkscape="http://www.inkscape.org/namespaces/inkscape"
   inkscape:version="0.92.4 (5da689c313, 2019-01-14)"
   sodipodi:docname="itvdef1.svg"
   id="svg6274"
   version="1.1"
   height="143.09322"
   width="471.85611">
  <metadata
     id="metadata6280">
    <rdf:RDF>
      <cc:Work
         rdf:about="">
        <dc:format>image/svg+xml</dc:format>
        <dc:type
           rdf:resource="http://purl.org/dc/dcmitype/StillImage" />
        <dc:title></dc:title>
      </cc:Work>
    </rdf:RDF>
  </metadata>
  <defs
     id="defs6278">
    <path
       id="equation_04_00-7"
       d="m 6.72478,-5.91781 c 0.10959,-0.04981 0.18929,-0.09962 0.18929,-0.21918 0,-0.10959 -0.0797,-0.19925 -0.19925,-0.19925 -0.04981,0 -0.13948,0.03985 -0.17933,0.05978 l -5.50934,2.60025 c -0.169363,0.0797 -0.199251,0.14944 -0.199251,0.22914 0,0.08966 0.059776,0.1594 0.199251,0.21917 l 5.50934,2.590291 c 0.12952,0.069739 0.14944,0.069739 0.17933,0.069739 0.10959,0 0.19925,-0.089664 0.19925,-0.199253 0,-0.089664 -0.03985,-0.14944 -0.20921,-0.229141 L 1.4944,-3.44707 Z m -0.1594,7.28269 c 0.16936,0 0.34869,0 0.34869,-0.19925 0,-0.19925 -0.20921,-0.199254 -0.35865,-0.199254 H 1.18555 c -0.14944,0 -0.358651,0 -0.358651,0.199254 0,0.199254 0.179331,0.19925 0.348691,0.19925 z"
       inkscape:connector-curvature="0" />
  </defs>
  <sodipodi:namedview
     pagecolor="#ffffff"
     bordercolor="#666666"
     borderopacity="1"
     objecttolerance="10"
     gridtolerance="10"
     guidetolerance="10"
     inkscape:pageopacity="0"
     inkscape:pageshadow="2"
     inkscape:window-width="2560"
     inkscape:window-height="1315"
     id="namedview6276"
     showgrid="false"
     fit-margin-top="0"
     fit-margin-left="0"
     fit-margin-right="0"
     fit-margin-bottom="0"
     inkscape:zoom="2.36"
     inkscape:cx="224.51818"
     inkscape:cy="42.475831"
     inkscape:window-x="-13"
     inkscape:window-y="-13"
     inkscape:window-maximized="1"
     inkscape:current-layer="svg6274" />
  <path
     style="font-size:10px;font-family:sans-serif;text-anchor:middle;fill:none;stroke:currentColor;stroke-width:0.83042252"
     inkscape:connector-curvature="0"
     id="path5912"
     d="M 0.41521126,6.0741838 V 0.43762053 H 471.4409 V 6.0741838"
     class="domain" />
  <line
     y2="6"
     id="line5956"
     x1="26.286943"
     y1="0"
     x2="26.286943"
     style="font-size:10px;font-family:sans-serif;text-anchor:middle;fill:none;stroke:currentColor" />
  <g
     style="font-size:10px;font-family:sans-serif;text-anchor:middle;opacity:1;fill:none"
     id="g5966"
     transform="translate(48.867591)"
     class="tick">
    <line
       style="stroke:currentColor"
       x2="0"
       y1="0"
       x1="0"
       id="line5962"
       y2="6" />
  </g>
  <line
     y2="6"
     id="line5968"
     x1="71.448242"
     y1="0"
     x2="71.448242"
     style="font-size:10px;font-family:sans-serif;text-anchor:middle;fill:none;stroke:currentColor" />
  <line
     y2="6"
     id="line5974"
     x1="94.028885"
     y1="0"
     x2="94.028885"
     style="font-size:10px;font-family:sans-serif;text-anchor:middle;fill:none;stroke:currentColor" />
  <line
     y2="6"
     id="line5980"
     x1="116.60953"
     y1="0"
     x2="116.60953"
     style="font-size:10px;font-family:sans-serif;text-anchor:middle;fill:none;stroke:currentColor" />
  <line
     y2="6"
     id="line5986"
     x1="139.19017"
     y1="0"
     x2="139.19017"
     style="font-size:10px;font-family:sans-serif;text-anchor:middle;fill:none;stroke:currentColor" />
  <line
     y2="6"
     id="line5992"
     x1="161.77083"
     y1="0"
     x2="161.77083"
     style="font-size:10px;font-family:sans-serif;text-anchor:middle;fill:none;stroke:currentColor" />
  <line
     y2="6"
     id="line5998"
     x1="184.35146"
     y1="0"
     x2="184.35146"
     style="font-size:10px;font-family:sans-serif;text-anchor:middle;fill:none;stroke:currentColor" />
  <line
     y2="6"
     id="line6004"
     x1="206.93211"
     y1="0"
     x2="206.93211"
     style="font-size:10px;font-family:sans-serif;text-anchor:middle;fill:none;stroke:currentColor" />
  <line
     y2="6"
     id="line6010"
     x1="229.51274"
     y1="0"
     x2="229.51274"
     style="font-size:10px;font-family:sans-serif;text-anchor:middle;fill:none;stroke:currentColor" />
  <line
     y2="6"
     id="line6016"
     x1="252.0934"
     y1="0"
     x2="252.0934"
     style="font-size:10px;font-family:sans-serif;text-anchor:middle;fill:none;stroke:currentColor" />
  <line
     y2="6"
     id="line6022"
     x1="274.67404"
     y1="0"
     x2="274.67404"
     style="font-size:10px;font-family:sans-serif;text-anchor:middle;fill:none;stroke:currentColor" />
  <line
     y2="6"
     id="line6028"
     x1="297.2547"
     y1="0"
     x2="297.2547"
     style="font-size:10px;font-family:sans-serif;text-anchor:middle;fill:none;stroke:currentColor" />
  <line
     y2="6"
     id="line6034"
     x1="319.83536"
     y1="0"
     x2="319.83536"
     style="font-size:10px;font-family:sans-serif;text-anchor:middle;fill:none;stroke:currentColor" />
  <line
     y2="6"
     id="line6040"
     x1="342.41599"
     y1="0"
     x2="342.41599"
     style="font-size:10px;font-family:sans-serif;text-anchor:middle;fill:none;stroke:currentColor" />
  <line
     y2="6"
     id="line6046"
     x1="364.99664"
     y1="0"
     x2="364.99664"
     style="font-size:10px;font-family:sans-serif;text-anchor:middle;fill:none;stroke:currentColor" />
  <line
     y2="6"
     id="line6052"
     x1="387.5773"
     y1="0"
     x2="387.5773"
     style="font-size:10px;font-family:sans-serif;text-anchor:middle;fill:none;stroke:currentColor" />
  <line
     y2="6"
     id="line6058"
     x1="410.15793"
     y1="0"
     x2="410.15793"
     style="font-size:10px;font-family:sans-serif;text-anchor:middle;fill:none;stroke:currentColor" />
  <line
     y2="6"
     id="line6064"
     x1="432.73856"
     y1="0"
     x2="432.73856"
     style="font-size:10px;font-family:sans-serif;text-anchor:middle;fill:none;stroke:currentColor" />
  <line
     y2="6"
     id="line6070"
     x1="455.31924"
     y1="0"
     x2="455.31924"
     style="font-size:10px;font-family:sans-serif;text-anchor:middle;fill:none;stroke:currentColor" />
  <g
     id="g6114"
     transform="translate(-182.27757,30)">
    <path
       style="stroke:#008000;stroke-width:3"
       inkscape:connector-curvature="0"
       id="path6108"
       d="M 456.45161,0 H 637.09677" />
    <circle
       style="fill:#000000;stroke:#000000"
       cy="0"
       id="circle6110"
       cx="456.4516"
       r="3" />
    <circle
       style="fill:#ffffff;stroke:#000000"
       cy="0"
       id="circle6112"
       cx="637.0968"
       r="3" />
  </g>
  <path
     style="fill:none;stroke:#000000;stroke-width:0.93202353px;stroke-linecap:butt;stroke-linejoin:miter;stroke-opacity:1"
     d="m 229.01275,45 v 98.09321"
     id="path2768"
     inkscape:connector-curvature="0" />
  <g
     id="g6122"
     transform="translate(-182.27757,45)">
    <path
       style="stroke:#008000;stroke-width:3"
       inkscape:connector-curvature="0"
       id="path6116"
       d="m 208.06452,0 h 203.2258" />
    <circle
       style="fill:#000000;stroke:#000000"
       cy="0"
       id="circle6118"
       cx="208.06451"
       r="3" />
    <circle
       style="fill:#ffffff;stroke:#000000"
       cy="0"
       id="circle6120"
       cx="411.29031"
       r="3" />
  </g>
  <path
     style="fill:none;stroke:#000000;stroke-width:1px;stroke-linecap:butt;stroke-linejoin:miter;stroke-opacity:1"
     d="M 274.17404,30 V 142.92372"
     id="path2768-0"
     inkscape:connector-curvature="0" />
  <rect
     style="opacity:1;fill:#ffffff;fill-opacity:1;fill-rule:nonzero;stroke:#000000;stroke-width:0.43682954;stroke-miterlimit:4;stroke-dasharray:none;stroke-dashoffset:0;stroke-opacity:1"
     id="rect3284-9"
     width="65.399124"
     height="24.768833"
     x="220.26903"
     y="115.07143" />
  <g
     title="$f_i\le s_j$"
     style="fill:#000000"
     id="equation_01"
     transform="matrix(2.1125625,0,0,2.1125625,60.765171,-1.3156124)">
    <defs
       id="defs3076">
      <path
         id="equation_01_00"
         d="m 6.72478,-5.91781 c 0.10959,-0.04981 0.18929,-0.09962 0.18929,-0.21918 0,-0.10959 -0.0797,-0.19925 -0.19925,-0.19925 -0.04981,0 -0.13948,0.03985 -0.17933,0.05978 l -5.50934,2.60025 c -0.169363,0.0797 -0.199251,0.14944 -0.199251,0.22914 0,0.08966 0.059776,0.1594 0.199251,0.21917 l 5.50934,2.590291 c 0.12952,0.069739 0.14944,0.069739 0.17933,0.069739 0.10959,0 0.19925,-0.089664 0.19925,-0.199253 0,-0.089664 -0.03985,-0.14944 -0.20921,-0.229141 L 1.4944,-3.44707 Z m -0.1594,7.28269 c 0.16936,0 0.34869,0 0.34869,-0.19925 0,-0.19925 -0.20921,-0.199254 -0.35865,-0.199254 H 1.18555 c -0.14944,0 -0.358651,0 -0.358651,0.199254 0,0.199254 0.179331,0.19925 0.348691,0.19925 z"
         inkscape:connector-curvature="0" />
      <path
         id="equation_01_01"
         d="m 3.65629,-3.98506 h 0.85679 c 0.19925,0 0.29888,0 0.29888,-0.19925 0,-0.10959 -0.09963,-0.10959 -0.269,-0.10959 h -0.8269 l 0.20922,-1.13574 c 0.03985,-0.20921 0.17933,-0.91656 0.2391,-1.03611 0.08967,-0.18929 0.25903,-0.33873 0.46825,-0.33873 0.03985,0 0.29888,0 0.48817,0.17932 -0.43836,0.03985 -0.53799,0.38855 -0.53799,0.53799 0,0.22914 0.17933,0.34869 0.36862,0.34869 0.25903,0 0.54795,-0.21918 0.54795,-0.59776 0,-0.45828 -0.45828,-0.68742 -0.86675,-0.68742 -0.33873,0 -0.96638,0.17933 -1.26526,1.16563 C 3.3076,-5.64882 3.27771,-5.54919 3.03861,-4.2939 H 2.35118 c -0.18929,0 -0.29888,0 -0.29888,0.18929 0,0.11955 0.08967,0.11955 0.27896,0.11955 h 0.65753 l -0.7472,3.9352468 C 2.06227,0.916563 1.8929,1.82316 1.37484,1.82316 c -0.03985,0 -0.28891,0 -0.478202,-0.17932 C 1.35492,1.61395 1.44458,1.25529 1.44458,1.10585 c 0,-0.229138 -0.17932,-0.348689 -0.36861,-0.348689 -0.259034,0 -0.54795,0.219178 -0.54795,0.597759 0,0.44832 0.438356,0.68742 0.84682,0.68742 0.54795,0 0.94646,-0.58779 1.12578,-0.96637 0.31881,-0.627651 0.54795,-1.833131 0.55791,-1.902869 z"
         inkscape:connector-curvature="0" />
      <path
         id="equation_01_02"
         d="m 3.89539,-3.72603 c -0.27895,0.00997 -0.4782,0.22914 -0.4782,0.44832 0,0.13948 0.08966,0.28892 0.30884,0.28892 0.21918,0 0.45828,-0.16937 0.45828,-0.55791 0,-0.44832 -0.42839,-0.85679 -1.18556,-0.85679 -1.31506,0 -1.68368,1.01619 -1.68368,1.45455 0,0.77708 0.73723,0.92652 1.02615,0.9863 0.51806,0.09963 1.03611,0.20922 1.03611,0.75716 0,0.259029 -0.22914,1.095891 -1.42465,1.095891 -0.13948,0 -0.9066,0 -1.135744,-0.52802 0.378584,0.049813 0.627644,-0.249066 0.627644,-0.528021 0,-0.22914 -0.1594,-0.34869 -0.36861,-0.34869 -0.259034,0 -0.557913,0.20921 -0.557913,0.657533 0,0.56787 0.567873,0.966376 1.424653,0.966376 1.61395,0 2.0025,-1.205479 2.0025,-1.653799 0,-0.35865 -0.18929,-0.60772 -0.30885,-0.72727 C 3.36737,-2.55044 3.07846,-2.60025 2.6401,-2.68991 2.28144,-2.76961 1.88294,-2.83935 1.88294,-3.28767 c 0,-0.28892 0.2391,-0.89664 1.11581,-0.89664 0.24907,0 0.7472,0.06974 0.89664,0.45828 z"
         inkscape:connector-curvature="0" />
      <path
         id="equation_01_03"
         d="m 2.25953,-4.35866 c 0,-0.11158 -0.08369,-0.265 -0.27896,-0.265 -0.18829,0 -0.39053,0.18132 -0.39053,0.38356 0,0.11856 0.09066,0.26501 0.27895,0.26501 0.20224,0 0.39054,-0.19527 0.39054,-0.38357 z m -1.422668,3.54272 c -0.027896,0.09066 -0.062765,0.174346 -0.062765,0.292901 0,0.327771 0.278953,0.5927775 0.662513,0.5927775 0.69739,0 1.00424,-0.9623915 1.00424,-1.0669985 0,-0.09066 -0.09066,-0.09066 -0.11158,-0.09066 -0.09764,0 -0.10461,0.04184 -0.13251,0.118555 -0.1604,0.557908 -0.46725,0.843836 -0.73923,0.843836 -0.13947,0 -0.17434,-0.09066 -0.17434,-0.244085 0,-0.160398 0.04881,-0.292902 0.11158,-0.446326 0.06974,-0.18829 0.14645,-0.37659 0.22316,-0.55791 0.06277,-0.16737 0.31383,-0.80199 0.34172,-0.88568 0.02092,-0.06974 0.04184,-0.15342 0.04184,-0.22316 0,-0.32777 -0.27895,-0.59278 -0.66251,-0.59278 -0.690412,0 -1.011209,0.94845 -1.011209,1.067 0,0.09066 0.097634,0.09066 0.118555,0.09066 0.097634,0 0.104608,-0.03487 0.12553,-0.11158 0.18132,-0.59975 0.488164,-0.85081 0.746204,-0.85081 0.11158,0 0.17434,0.05579 0.17434,0.24409 0,0.16039 -0.04184,0.265 -0.21619,0.69738 z"
         inkscape:connector-curvature="0" />
      <path
         id="equation_01_04"
         d="m 3.06152,-4.35866 c 0,-0.11855 -0.09066,-0.265 -0.27895,-0.265 -0.20225,0 -0.39054,0.19527 -0.39054,0.38356 0,0.11158 0.08369,0.26501 0.27895,0.26501 0.1883,0 0.39054,-0.18132 0.39054,-0.38357 z M 1.58306,0.341719 C 1.46451,0.822914 1.09489,1.2274 0.683437,1.2274 0.592777,1.2274 0.509091,1.21345 0.432379,1.18555 0.613699,1.10187 0.669489,0.934496 0.669489,0.829888 0.669489,0.662516 0.536986,0.571856 0.397509,0.571856 0.18132,0.571856 0,0.760149 0,0.983313 0,1.24832 0.27198,1.42267 0.690411,1.42267 1.108842,1.42267 1.92478,1.17161 2.14097,0.320797 L 2.76862,-2.17584 c 0.02092,-0.07671 0.03487,-0.13948 0.03487,-0.24409 0,-0.38356 -0.32777,-0.65554 -0.7462,-0.65554 -0.7741,0 -1.220428,0.96937 -1.220428,1.067 0,0.09066 0.097634,0.09066 0.118555,0.09066 0.083683,0 0.090663,-0.02092 0.139473,-0.12553 0.17435,-0.40448 0.53699,-0.83686 0.94147,-0.83686 0.17435,0 0.23711,0.11856 0.23711,0.34172 0,0.07671 -0.01394,0.17435 -0.02092,0.20921 z"
         inkscape:connector-curvature="0" />
    </defs>
    <g
       id="equation_01_g">
      <use
         id="use3078"
         y="62.764599"
         xlink:href="#equation_01_01"
         x="76.712303"
         width="100%"
         height="100%" />
      <use
         id="use3080"
         y="64.259003"
         xlink:href="#equation_01_03"
         x="81.589897"
         width="100%"
         height="100%" />
      <use
         id="use3082"
         y="62.764599"
         xlink:href="#equation_01_00"
         x="87.674103"
         width="100%"
         height="100%" />
      <use
         id="use3084"
         y="62.764599"
         xlink:href="#equation_01_02"
         x="98.190201"
         width="100%"
         height="100%" />
      <use
         id="use3086"
         y="64.259003"
         xlink:href="#equation_01_04"
         x="102.86"
         width="100%"
         height="100%" />
    </g>
  </g>
  <rect
     style="opacity:1;fill:#ffffff;fill-opacity:1;fill-rule:nonzero;stroke:#000000;stroke-width:0.43682954;stroke-miterlimit:4;stroke-dasharray:none;stroke-dashoffset:0;stroke-opacity:1"
     id="rect3284"
     width="65.399124"
     height="24.768833"
     x="221.29478"
     y="74.840103" />
  <g
     title="$f_j\le s_i$"
     style="fill:#000000"
     id="equation_02"
     transform="matrix(2.1125625,0,0,2.1125625,60.233061,-41.191583)">
    <defs
       id="defs3246">
      <path
         id="equation_02_00"
         d="m 6.72478,-5.91781 c 0.10959,-0.04981 0.18929,-0.09962 0.18929,-0.21918 0,-0.10959 -0.0797,-0.19925 -0.19925,-0.19925 -0.04981,0 -0.13948,0.03985 -0.17933,0.05978 l -5.50934,2.60025 c -0.169363,0.0797 -0.199251,0.14944 -0.199251,0.22914 0,0.08966 0.059776,0.1594 0.199251,0.21917 l 5.50934,2.590291 c 0.12952,0.069739 0.14944,0.069739 0.17933,0.069739 0.10959,0 0.19925,-0.089664 0.19925,-0.199253 0,-0.089664 -0.03985,-0.14944 -0.20921,-0.229141 L 1.4944,-3.44707 Z m -0.1594,7.28269 c 0.16936,0 0.34869,0 0.34869,-0.19925 0,-0.19925 -0.20921,-0.199254 -0.35865,-0.199254 H 1.18555 c -0.14944,0 -0.358651,0 -0.358651,0.199254 0,0.199254 0.179331,0.19925 0.348691,0.19925 z"
         inkscape:connector-curvature="0" />
      <path
         id="equation_02_01"
         d="m 2.25953,-4.35866 c 0,-0.11158 -0.08369,-0.265 -0.27896,-0.265 -0.18829,0 -0.39053,0.18132 -0.39053,0.38356 0,0.11856 0.09066,0.26501 0.27895,0.26501 0.20224,0 0.39054,-0.19527 0.39054,-0.38357 z m -1.422668,3.54272 c -0.027896,0.09066 -0.062765,0.174346 -0.062765,0.292901 0,0.327771 0.278953,0.5927775 0.662513,0.5927775 0.69739,0 1.00424,-0.9623915 1.00424,-1.0669985 0,-0.09066 -0.09066,-0.09066 -0.11158,-0.09066 -0.09764,0 -0.10461,0.04184 -0.13251,0.118555 -0.1604,0.557908 -0.46725,0.843836 -0.73923,0.843836 -0.13947,0 -0.17434,-0.09066 -0.17434,-0.244085 0,-0.160398 0.04881,-0.292902 0.11158,-0.446326 0.06974,-0.18829 0.14645,-0.37659 0.22316,-0.55791 0.06277,-0.16737 0.31383,-0.80199 0.34172,-0.88568 0.02092,-0.06974 0.04184,-0.15342 0.04184,-0.22316 0,-0.32777 -0.27895,-0.59278 -0.66251,-0.59278 -0.690412,0 -1.011209,0.94845 -1.011209,1.067 0,0.09066 0.097634,0.09066 0.118555,0.09066 0.097634,0 0.104608,-0.03487 0.12553,-0.11158 0.18132,-0.59975 0.488164,-0.85081 0.746204,-0.85081 0.11158,0 0.17434,0.05579 0.17434,0.24409 0,0.16039 -0.04184,0.265 -0.21619,0.69738 z"
         inkscape:connector-curvature="0" />
      <path
         id="equation_02_02"
         d="m 3.06152,-4.35866 c 0,-0.11855 -0.09066,-0.265 -0.27895,-0.265 -0.20225,0 -0.39054,0.19527 -0.39054,0.38356 0,0.11158 0.08369,0.26501 0.27895,0.26501 0.1883,0 0.39054,-0.18132 0.39054,-0.38357 z M 1.58306,0.341719 C 1.46451,0.822914 1.09489,1.2274 0.683437,1.2274 0.592777,1.2274 0.509091,1.21345 0.432379,1.18555 0.613699,1.10187 0.669489,0.934496 0.669489,0.829888 0.669489,0.662516 0.536986,0.571856 0.397509,0.571856 0.18132,0.571856 0,0.760149 0,0.983313 0,1.24832 0.27198,1.42267 0.690411,1.42267 1.108842,1.42267 1.92478,1.17161 2.14097,0.320797 L 2.76862,-2.17584 c 0.02092,-0.07671 0.03487,-0.13948 0.03487,-0.24409 0,-0.38356 -0.32777,-0.65554 -0.7462,-0.65554 -0.7741,0 -1.220428,0.96937 -1.220428,1.067 0,0.09066 0.097634,0.09066 0.118555,0.09066 0.083683,0 0.090663,-0.02092 0.139473,-0.12553 0.17435,-0.40448 0.53699,-0.83686 0.94147,-0.83686 0.17435,0 0.23711,0.11856 0.23711,0.34172 0,0.07671 -0.01394,0.17435 -0.02092,0.20921 z"
         inkscape:connector-curvature="0" />
      <path
         id="equation_02_03"
         d="m 3.65629,-3.98506 h 0.85679 c 0.19925,0 0.29888,0 0.29888,-0.19925 0,-0.10959 -0.09963,-0.10959 -0.269,-0.10959 h -0.8269 l 0.20922,-1.13574 c 0.03985,-0.20921 0.17933,-0.91656 0.2391,-1.03611 0.08967,-0.18929 0.25903,-0.33873 0.46825,-0.33873 0.03985,0 0.29888,0 0.48817,0.17932 -0.43836,0.03985 -0.53799,0.38855 -0.53799,0.53799 0,0.22914 0.17933,0.34869 0.36862,0.34869 0.25903,0 0.54795,-0.21918 0.54795,-0.59776 0,-0.45828 -0.45828,-0.68742 -0.86675,-0.68742 -0.33873,0 -0.96638,0.17933 -1.26526,1.16563 C 3.3076,-5.64882 3.27771,-5.54919 3.03861,-4.2939 H 2.35118 c -0.18929,0 -0.29888,0 -0.29888,0.18929 0,0.11955 0.08967,0.11955 0.27896,0.11955 h 0.65753 l -0.7472,3.9352468 C 2.06227,0.916563 1.8929,1.82316 1.37484,1.82316 c -0.03985,0 -0.28891,0 -0.478202,-0.17932 C 1.35492,1.61395 1.44458,1.25529 1.44458,1.10585 c 0,-0.229138 -0.17932,-0.348689 -0.36861,-0.348689 -0.259034,0 -0.54795,0.219178 -0.54795,0.597759 0,0.44832 0.438356,0.68742 0.84682,0.68742 0.54795,0 0.94646,-0.58779 1.12578,-0.96637 0.31881,-0.627651 0.54795,-1.833131 0.55791,-1.902869 z"
         inkscape:connector-curvature="0" />
      <path
         id="equation_02_04"
         d="m 3.89539,-3.72603 c -0.27895,0.00997 -0.4782,0.22914 -0.4782,0.44832 0,0.13948 0.08966,0.28892 0.30884,0.28892 0.21918,0 0.45828,-0.16937 0.45828,-0.55791 0,-0.44832 -0.42839,-0.85679 -1.18556,-0.85679 -1.31506,0 -1.68368,1.01619 -1.68368,1.45455 0,0.77708 0.73723,0.92652 1.02615,0.9863 0.51806,0.09963 1.03611,0.20922 1.03611,0.75716 0,0.259029 -0.22914,1.095891 -1.42465,1.095891 -0.13948,0 -0.9066,0 -1.135744,-0.52802 0.378584,0.049813 0.627644,-0.249066 0.627644,-0.528021 0,-0.22914 -0.1594,-0.34869 -0.36861,-0.34869 -0.259034,0 -0.557913,0.20921 -0.557913,0.657533 0,0.56787 0.567873,0.966376 1.424653,0.966376 1.61395,0 2.0025,-1.205479 2.0025,-1.653799 0,-0.35865 -0.18929,-0.60772 -0.30885,-0.72727 C 3.36737,-2.55044 3.07846,-2.60025 2.6401,-2.68991 2.28144,-2.76961 1.88294,-2.83935 1.88294,-3.28767 c 0,-0.28892 0.2391,-0.89664 1.11581,-0.89664 0.24907,0 0.7472,0.06974 0.89664,0.45828 z"
         inkscape:connector-curvature="0" />
    </defs>
    <g
       id="equation_02_g"
       style="fill:#000000">
      <use
         id="use3248"
         y="62.764599"
         xlink:href="#equation_02_03"
         x="76.712303"
         width="100%"
         height="100%"
         style="fill:#000000" />
      <use
         id="use3250"
         y="64.259003"
         xlink:href="#equation_02_02"
         x="81.589897"
         width="100%"
         height="100%"
         style="fill:#000000" />
      <use
         id="use3252"
         y="62.764599"
         xlink:href="#equation_02_00"
         x="88.555"
         width="100%"
         height="100%"
         style="fill:#000000" />
      <use
         id="use3254"
         y="62.764599"
         xlink:href="#equation_02_04"
         x="99.071098"
         width="100%"
         height="100%"
         style="fill:#000000" />
      <use
         id="use3256"
         y="64.259003"
         xlink:href="#equation_02_01"
         x="103.741"
         width="100%"
         height="100%"
         style="fill:#000000" />
    </g>
  </g>
</svg>
